<svg width="163" height="21" viewBox="0 0 163 21" fill="none" xmlns="http://www.w3.org/2000/svg">
<path d="M10.999 4.075L12.793 6.909L4.356 11.836L12.793 16.672L10.934 19.597L0.807 13.305V10.393L10.999 4.075ZM152.296 4.075L162.462 10.367V13.305L152.335 19.597L150.476 16.802L158.926 11.836L150.476 7.026L152.296 4.075Z" fill="#1EA54C"/>
<path d="M25.6138 20V12.408H21.2458V20H16.9818V1.982H21.2458V8.898H25.6138V1.982H29.8778V20H25.6138ZM45.7017 16.022C45.7017 16.542 45.771 16.919 45.9097 17.153C46.057 17.387 46.291 17.5647 46.6117 17.686L45.7667 20.39C44.952 20.312 44.263 20.1343 43.6997 19.857C43.145 19.571 42.7074 19.142 42.3867 18.57C41.858 19.2027 41.182 19.675 40.3587 19.987C39.5354 20.2903 38.6947 20.442 37.8367 20.442C36.4154 20.442 35.28 20.039 34.4307 19.233C33.59 18.4183 33.1697 17.374 33.1697 16.1C33.1697 14.6007 33.7547 13.4437 34.9247 12.629C36.1034 11.8143 37.7587 11.407 39.8907 11.407H41.7497V10.887C41.7497 9.47433 40.8397 8.768 39.0197 8.768C38.5777 8.768 38.01 8.833 37.3167 8.963C36.6234 9.08433 35.93 9.262 35.2367 9.496L34.2877 6.766C35.1804 6.428 36.1077 6.17233 37.0697 5.999C38.0404 5.82567 38.907 5.739 39.6697 5.739C41.7237 5.739 43.2404 6.15933 44.2197 7C45.2077 7.832 45.7017 9.03667 45.7017 10.614V16.022ZM39.2537 17.504C39.6957 17.504 40.1594 17.374 40.6447 17.114C41.13 16.8453 41.4984 16.4683 41.7497 15.983V13.747H40.7357C39.5917 13.747 38.751 13.9247 38.2137 14.28C37.6764 14.6267 37.4077 15.138 37.4077 15.814C37.4077 16.3427 37.568 16.7587 37.8887 17.062C38.218 17.3567 38.673 17.504 39.2537 17.504ZM58.0285 17.205C58.5919 17.205 59.1205 17.0967 59.6145 16.88C60.1172 16.6547 60.6155 16.3687 61.1095 16.022L62.9425 18.622C62.3359 19.142 61.5949 19.5753 60.7195 19.922C59.8529 20.2687 58.8822 20.442 57.8075 20.442C56.3255 20.442 55.0515 20.1387 53.9855 19.532C52.9195 18.9167 52.1005 18.0673 51.5285 16.984C50.9565 15.892 50.6705 14.6267 50.6705 13.188C50.6705 11.7493 50.9609 10.471 51.5415 9.353C52.1309 8.22633 52.9629 7.34233 54.0375 6.701C55.1209 6.05967 56.4035 5.739 57.8855 5.739C58.9342 5.739 59.8659 5.88633 60.6805 6.181C61.5039 6.467 62.2579 6.896 62.9425 7.468L61.1615 9.938C60.6935 9.60867 60.1995 9.353 59.6795 9.171C59.1595 8.989 58.6179 8.898 58.0545 8.898C57.1272 8.898 56.3775 9.22733 55.8055 9.886C55.2422 10.536 54.9605 11.6367 54.9605 13.188C54.9605 14.202 55.0949 15.0037 55.3635 15.593C55.6322 16.1737 55.9962 16.5897 56.4555 16.841C56.9235 17.0837 57.4479 17.205 58.0285 17.205ZM71.4474 0.278999V20H67.3394V0.707999L71.4474 0.278999ZM80.4434 6.194L75.9064 12.304L80.8204 20H76.1404L71.6034 12.434L76.1404 6.194H80.4434ZM96.2802 1.982L97.2942 20H93.5762L93.3552 12.291C93.3292 11.3377 93.3205 10.51 93.3292 9.808C93.3465 9.106 93.3769 8.43433 93.4202 7.793C93.4635 7.143 93.5155 6.415 93.5762 5.609L91.5482 16.932H88.3242L86.1402 5.609C86.2095 6.363 86.2659 7.07367 86.3092 7.741C86.3525 8.39967 86.3785 9.093 86.3872 9.821C86.4045 10.549 86.4045 11.394 86.3872 12.356L86.2572 20H82.6042L83.6182 1.982H87.9992L90.0012 13.63L91.8992 1.982H96.2802ZM112.221 16.022C112.221 16.542 112.29 16.919 112.429 17.153C112.576 17.387 112.81 17.5647 113.131 17.686L112.286 20.39C111.471 20.312 110.782 20.1343 110.219 19.857C109.664 19.571 109.227 19.142 108.906 18.57C108.377 19.2027 107.701 19.675 106.878 19.987C106.055 20.2903 105.214 20.442 104.356 20.442C102.935 20.442 101.799 20.039 100.95 19.233C100.109 18.4183 99.6891 17.374 99.6891 16.1C99.6891 14.6007 100.274 13.4437 101.444 12.629C102.623 11.8143 104.278 11.407 106.41 11.407H108.269V10.887C108.269 9.47433 107.359 8.768 105.539 8.768C105.097 8.768 104.529 8.833 103.836 8.963C103.143 9.08433 102.449 9.262 101.756 9.496L100.807 6.766C101.7 6.428 102.627 6.17233 103.589 5.999C104.56 5.82567 105.426 5.739 106.189 5.739C108.243 5.739 109.76 6.15933 110.739 7C111.727 7.832 112.221 9.03667 112.221 10.614V16.022ZM105.773 17.504C106.215 17.504 106.679 17.374 107.164 17.114C107.649 16.8453 108.018 16.4683 108.269 15.983V13.747H107.255C106.111 13.747 105.27 13.9247 104.733 14.28C104.196 14.6267 103.927 15.138 103.927 15.814C103.927 16.3427 104.087 16.7587 104.408 17.062C104.737 17.3567 105.192 17.504 105.773 17.504ZM129.657 19.194C129.12 19.5407 128.47 19.8353 127.707 20.078C126.944 20.3207 126.086 20.442 125.133 20.442C123.33 20.442 121.991 19.9827 121.116 19.064C120.241 18.1367 119.803 16.88 119.803 15.294V9.028H116.904V6.194H119.803V3.204L123.911 2.71V6.194H128.357L127.954 9.028H123.911V15.294C123.911 15.9787 124.067 16.4683 124.379 16.763C124.691 17.0577 125.189 17.205 125.874 17.205C126.359 17.205 126.801 17.1487 127.2 17.036C127.607 16.9147 127.971 16.763 128.292 16.581L129.657 19.194ZM137.421 14.293C137.559 15.4197 137.928 16.23 138.526 16.724C139.124 17.2093 139.86 17.452 140.736 17.452C141.368 17.452 141.979 17.348 142.569 17.14C143.158 16.932 143.726 16.6547 144.272 16.308L145.923 18.544C145.273 19.0987 144.484 19.5537 143.557 19.909C142.638 20.2643 141.589 20.442 140.411 20.442C138.833 20.442 137.512 20.13 136.446 19.506C135.38 18.8733 134.578 18.0067 134.041 16.906C133.503 15.8053 133.235 14.54 133.235 13.11C133.235 11.7493 133.495 10.5143 134.015 9.405C134.535 8.287 135.293 7.39867 136.29 6.74C137.295 6.07267 138.521 5.739 139.969 5.739C141.286 5.739 142.426 6.02067 143.388 6.584C144.358 7.14733 145.108 7.95767 145.637 9.015C146.174 10.0723 146.443 11.342 146.443 12.824C146.443 13.058 146.434 13.3093 146.417 13.578C146.408 13.8467 146.391 14.085 146.365 14.293H137.421ZM139.969 8.495C139.232 8.495 138.638 8.75933 138.188 9.288C137.737 9.81667 137.464 10.6617 137.369 11.823H142.439C142.43 10.8177 142.235 10.0117 141.854 9.405C141.472 8.79833 140.844 8.495 139.969 8.495Z" fill="white"/>
</svg>
