<svg width="254" height="205" viewBox="0 0 254 205" fill="none" xmlns="http://www.w3.org/2000/svg">
<g clip-path="url(#clip0)">
<path d="M186.778 114.997C186.778 114.997 183.099 106.153 187.255 102.487C191.412 98.8211 195.756 99.8289 199.059 103.155C201.332 105.435 203.052 109.983 203.052 109.983L186.778 114.997Z" fill="#002245"/>
<path d="M70.5459 118.524C70.5459 118.524 75.167 116.962 75.8074 120.313C76.4478 123.664 70.571 124.168 70.571 124.168L70.5459 118.524Z" fill="#F4AE87"/>
<path d="M22.5282 105.398C18.1457 99.9557 27.6892 94.2738 35.864 100.422C42.7328 105.587 49.9657 110.551 52.0126 111.471C54.0594 112.378 70.321 117.871 70.321 117.871L70.5847 124.17L51.5479 120.378C50.0411 120.201 49.2249 119.886 48.3584 119.433C48.3459 119.42 27.6641 111.773 22.5282 105.398Z" fill="#00376D"/>
<path d="M72.1793 125.025L71.8654 116.76L68.3242 116.886L68.6382 125.151L72.1793 125.025Z" fill="#E2A1CB"/>
<path d="M105.443 88.2518L158.259 54.3245C159.427 56.1512 149.682 24.7436 105.443 25.3231C66.5157 25.827 42.7197 53.493 42.7197 88.2518C42.7197 123.011 70.7977 151.18 105.443 151.18C132.717 151.18 155.911 133.707 164.55 109.316L105.443 88.2518Z" fill="#1EA54C"/>
<path d="M22.4923 91.4008L14.7441 92.1624L15.5375 100.287L23.2856 99.5253L22.4923 91.4008Z" fill="#D6913E"/>
<path d="M34.1436 201.523V204.949H45.6209C45.6209 204.949 46.412 202.556 42.4313 201.863C38.4507 201.183 36.6299 200.83 36.6299 200.83L34.1436 201.523Z" fill="#9D9D9D"/>
<path d="M0.0244141 201.523V204.949H11.5017C11.5017 204.949 12.2928 202.556 8.31219 201.863C4.33155 201.17 2.51075 200.83 2.51075 200.83L0.0244141 201.523Z" fill="#9D9D9D"/>
<path d="M47.0021 170.63L39.7943 201.446L34.0556 202.252C34.0556 202.252 32.4357 187.714 33.2896 182.964C34.7086 175.103 37.3958 170.908 37.3958 170.908L47.0021 170.63Z" fill="#25941C"/>
<path d="M16.1988 176.175L5.34938 201.308L0 202.253C0 202.253 0.916678 188.055 2.31053 183.86C4.44526 177.435 6.94415 173.857 6.94415 173.857L16.1988 176.175Z" fill="#25941C"/>
<path d="M26.3206 96.2384L10.2096 97.8132C6.37968 98.1912 0.942396 100.786 1.67072 104.579L11.2142 142.953L35.5376 140.559L34.7716 102.147C34.7088 98.3172 30.1254 95.8605 26.3206 96.2384Z" fill="#014596"/>
<path d="M19.0066 86.5658L18.1943 86.647L24.4052 149.217L25.2175 149.136L19.0066 86.5658Z" fill="#002245"/>
<path d="M25.0888 81.1845C26.332 85.3545 24.7372 92.334 20.5808 93.5812C16.4244 94.8285 11.2759 89.8899 10.0327 85.7073C8.78956 81.5372 11.1503 77.1404 15.3068 75.8932C19.4632 74.646 23.8457 77.0144 25.0888 81.1845Z" fill="#E8AC5D"/>
<path d="M15.5833 98.6833L14.4531 89.4235C14.4531 89.4235 11.0627 87.2818 11.9793 85.0267C12.8207 82.948 14.8298 84.9511 14.8298 84.9511C14.8298 84.9511 33.1508 81.6882 33.7159 79.0425C34.168 76.9512 15.7842 71.9497 13.8755 72.7937C11.9668 73.6378 4.01806 82.2425 4.20642 84.2204C4.39478 86.1983 11.7408 91.4266 11.7408 91.4266L15.5833 98.6833Z" fill="#393939"/>
<path d="M35.536 140.56L11.2127 142.954L6.93066 173.857L9.37933 180.648L16.1853 176.188C15.8714 176.604 17.9685 162.078 21.3464 152.428C22.037 150.45 26.1558 151.357 27.2232 153.499C28.2905 155.64 37.1936 174.223 37.1936 174.223L46.9882 170.645L35.536 140.56Z" fill="#25941C"/>
<path d="M19.9287 96.7806L26.6092 96.1506C26.6092 96.1506 26.1948 101.228 25.6297 101.417C24.5623 101.782 19.9287 96.7806 19.9287 96.7806Z" fill="#448FEA"/>
<path d="M19.1505 96.8174L12.4951 97.6489C12.4951 97.6489 13.9894 102.524 14.5796 102.587C15.7098 102.701 19.1505 96.8174 19.1505 96.8174Z" fill="#448FEA"/>
<path d="M54.976 127.683C54.976 127.683 59.6222 126.184 60.2124 129.535C60.8026 132.898 54.9258 133.314 54.9258 133.314L54.976 127.683Z" fill="#F4AE87"/>
<path d="M5.06025 110.99C0.439188 101.088 7.29544 99.0596 15.3823 105.308C22.1883 110.549 33.1382 118.612 35.1599 119.557C37.1942 120.502 54.7492 127.028 54.7492 127.028L54.925 133.327L34.5698 128.452C33.0629 128.25 32.2467 127.922 31.3928 127.469C31.3928 127.469 7.82284 116.924 5.06025 110.99Z" fill="#448FEA"/>
<path d="M56.5204 134.224L56.3069 125.947L52.7783 126.022L52.9792 134.299L56.5204 134.224Z" fill="#603D77"/>
<path d="M192.376 172.321L199.999 151.76L210.861 148.636L211.878 138.456C214.314 139.855 217.905 145.877 218.27 146.242L227.863 165.87C228.742 165.064 230.412 161.965 234.368 159.798C240.383 156.497 243.095 154.519 243.095 154.519L246.159 158.034C246.159 158.034 230.098 173.341 227.185 173.014C224.674 172.736 214.126 162.204 211.112 159.155C210.308 158.349 208.877 159.206 208.688 159.697L197.964 175.42C197.964 175.42 201.116 181.555 201.468 185.851C202.02 192.705 202.724 197.908 202.724 197.908L198.065 200.402L192.113 177.864C191.636 176.012 191.736 174.097 192.376 172.321Z" fill="#F4AE87"/>
<path d="M202.548 197.43L203.891 200.479L193.695 205.002C193.695 205.002 192.05 203.188 195.315 201.008C198.579 198.829 202.548 197.43 202.548 197.43Z" fill="#FB5D51"/>
<path d="M242.229 155.06L244.929 152.339L253.305 159.721C253.305 159.721 252.351 161.989 249.01 159.923C245.67 157.87 242.229 155.06 242.229 155.06Z" fill="#FB5D51"/>
<path d="M211.062 116.799C205.436 117.026 203.904 125.555 202.749 117.366C201.782 110.488 201.669 100.636 201.029 98.9349C200.388 97.2341 188.346 86.9791 188.346 86.9791L191.786 83.25L206.378 94.1476C207.131 95.1176 207.42 95.7601 207.659 96.516L210.836 111.357L211.062 116.799Z" fill="#014596"/>
<path d="M167.551 99.3122C167.551 99.3122 167.262 95.369 164.588 95.9359C161.9 96.5028 163.357 101.051 163.357 101.051L167.551 99.3122Z" fill="#F4AE87"/>
<path d="M192.275 131.074C194.623 125.946 198.918 123.742 191.81 119.559C185.833 116.031 178.198 114.381 176.88 113.134C175.561 111.899 168.115 99.2756 168.115 99.2756L163.368 101.039L170.425 116.271C171.028 117.342 171.518 117.858 172.121 118.362L183.435 125.342L192.275 131.074Z" fill="#014596"/>
<path d="M168.767 97.6477L162.223 100.125L163.229 102.8L169.773 100.323L168.767 97.6477Z" fill="#B0B0ED"/>
<path d="M197.324 145.246L215.959 138.796L227.838 165.869C227.838 165.869 220.505 172.95 210.685 175.343C200.878 177.737 191.925 176.767 191.925 176.767C191.925 176.767 190.857 175.457 192.138 172.471C193.444 169.485 197.324 145.246 197.324 145.246Z" fill="#25941C"/>
<path d="M190.279 118.297L202.41 113.422C205.298 112.263 210.158 112.099 211.037 115.085L210.057 131.022L215.972 138.782L197.337 145.233L196.445 136.111L186.437 125.667C185.043 122.921 187.416 119.444 190.279 118.297Z" fill="#014596"/>
<path d="M196.908 118.736L196.153 119.047L207.819 147.58L208.574 147.27L196.908 118.736Z" fill="#014596"/>
<path d="M201.568 114.178C203.075 117.101 201.945 120.704 199.019 122.228C196.106 123.74 192.514 122.606 190.995 119.671C189.488 116.748 190.618 113.145 193.544 111.621C196.457 110.109 200.049 111.255 201.568 114.178Z" fill="#E8A181"/>
<path d="M197.43 110.89L191.601 113.23L194.04 119.347L199.869 117.007L197.43 110.89Z" fill="#E8A181"/>
<path d="M186.927 108.66C188.12 111.645 192.226 114.934 195.202 113.737C198.178 112.54 198.882 107.324 197.701 104.338C196.508 101.353 193.143 99.9037 190.167 101.101C187.178 102.297 185.734 105.674 186.927 108.66Z" fill="#F4AE87"/>
<path d="M198.491 112.919L194.624 104.806C194.624 104.806 183.448 109.694 181.903 108.434C180.685 107.439 188.333 98.5951 189.827 98.2045C191.309 97.814 199.835 99.1242 200.626 100.346C201.417 101.568 199.571 107.981 199.571 107.981L198.491 112.919Z" fill="#002245"/>
<path d="M122.446 86.7271L181.553 107.804C183.889 101.215 185.17 94.1223 185.17 86.7271C185.17 74.2296 181.528 62.6013 175.262 52.7998L122.446 86.7271Z" fill="#1EA54C"/>
<path d="M187.805 86.5649C187.805 86.5649 183.9 86.0861 184.591 83.4153C185.294 80.757 189.739 82.4452 189.739 82.4452L187.805 86.5649Z" fill="#F4AE87"/>
<path d="M189.998 81.5621L186.349 87.5486L188.78 89.0406L192.429 83.0541L189.998 81.5621Z" fill="#B0B0ED"/>
<path d="M110.516 2.67101C110.604 1.29779 109.562 0.100949 108.193 0.0127611C106.824 -0.0754272 105.631 0.970234 105.543 2.34345C105.456 3.71667 107.088 16.8693 107.088 16.8693C107.088 16.8693 110.428 4.04423 110.516 2.67101Z" fill="#F3BA18"/>
<path d="M67.1936 11.5771C66.5908 10.3425 65.0965 9.82597 63.8533 10.4433C62.6227 11.048 62.1079 12.5472 62.7232 13.7944C63.3259 15.0291 71.2998 25.5991 71.2998 25.5991C71.2998 25.5991 67.7963 12.8244 67.1936 11.5771Z" fill="#F3BA18"/>
<path d="M34.1061 41.0453C32.9634 40.2768 31.4188 40.5918 30.6528 41.7382C29.8869 42.8847 30.2008 44.4343 31.3435 45.2028C32.4862 45.9713 44.6542 51.124 44.6542 51.124C44.6542 51.124 35.2488 41.8138 34.1061 41.0453Z" fill="#F3BA18"/>
<path d="M58.3911 159.824C57.6251 160.97 57.9391 162.52 59.0818 163.288C60.2245 164.057 61.769 163.742 62.535 162.595C63.301 161.449 68.4369 149.241 68.4369 149.241C68.4369 149.241 59.1571 158.665 58.3911 159.824Z" fill="#F3BA18"/>
<path d="M95.1329 173.114C94.8943 174.475 95.7984 175.772 97.1546 176.012C98.5108 176.251 99.8042 175.344 100.043 173.983C100.281 172.623 100.106 159.369 100.106 159.369C100.106 159.369 95.3715 171.754 95.1329 173.114Z" fill="#F3BA18"/>
<path d="M157.543 11.703C158.347 10.5817 159.904 10.3298 161.022 11.1361C162.139 11.9424 162.39 13.5046 161.587 14.6258C160.783 15.7471 151.164 24.8305 151.164 24.8305C151.164 24.8305 156.74 12.8242 157.543 11.703Z" fill="#F3BA18"/>
<path d="M210.485 70.1726C211.853 70.0592 213.059 71.0923 213.172 72.4655C213.285 73.8387 212.255 75.0481 210.886 75.1615C209.518 75.2749 196.383 73.8135 196.383 73.8135C196.383 73.8135 209.116 70.286 210.485 70.1726Z" fill="#F3BA18"/>
<path d="M171.946 149.781C172.712 150.928 172.398 152.477 171.256 153.246C170.113 154.014 168.568 153.699 167.802 152.553C167.036 151.406 161.9 139.199 161.9 139.199C161.9 139.199 171.18 148.635 171.946 149.781Z" fill="#F3BA18"/>
<path d="M141.72 170.255C142.248 171.527 141.657 172.989 140.389 173.531C139.121 174.06 137.664 173.468 137.124 172.195C136.597 170.923 133.859 157.959 133.859 157.959C133.859 157.959 141.18 168.983 141.72 170.255Z" fill="#F3BA18"/>
<path d="M73.0945 51.8428H72.2783V60.0947H73.0945V51.8428Z" fill="white"/>
<path d="M59.3963 83.73H58.5801V91.9819H59.3963V83.73Z" fill="white"/>
<path d="M102.141 34.2417H101.325V42.4936H102.141V34.2417Z" fill="white"/>
<path d="M93.9148 73.8264H93.0986V82.0783H93.9148V73.8264Z" fill="white"/>
<path d="M128.988 49.6382H128.172V57.8901H128.988V49.6382Z" fill="white"/>
<path d="M119.131 105.713H118.314V113.965H119.131V105.713Z" fill="white"/>
<path d="M148.175 116.156H147.358V124.408H148.175V116.156Z" fill="white"/>
<path d="M102.692 134.851H101.876V143.103H102.692V134.851Z" fill="white"/>
<path d="M80.2283 109.568H79.4121V117.82H80.2283V109.568Z" fill="white"/>
</g>
<defs>
<clipPath id="clip0">
<rect width="253.305" height="205" fill="white"/>
</clipPath>
</defs>
</svg>
