<svg width="546" height="337" viewBox="0 0 546 337" fill="none" xmlns="http://www.w3.org/2000/svg">
<g filter="url(#filter0_d)">
<rect x="1" y="1" width="539" height="330" rx="4" fill="#1D2833"/>
<rect x="42.5668" y="58.5668" width="455.866" height="214.866" rx="1.56683" stroke="#1EA54C" stroke-width="3.13366" stroke-linecap="square" stroke-linejoin="round" stroke-dasharray="1.57 15.67"/>
<path d="M301.118 124.834L281.855 105.571C281.318 105.034 280.593 104.73 279.832 104.73H241.808C240.223 104.73 238.943 106.01 238.943 107.594V182.067C238.943 183.652 240.223 184.932 241.808 184.932H299.095C300.679 184.932 301.959 183.652 301.959 182.067V126.866C301.959 126.105 301.655 125.371 301.118 124.834ZM295.353 128.182H278.507V111.336L295.353 128.182ZM295.514 178.487H245.388V111.174H272.421V130.509C272.421 131.506 272.817 132.462 273.522 133.167C274.227 133.872 275.183 134.268 276.18 134.268H295.514V178.487ZM273.316 141.25C273.316 140.856 272.993 140.534 272.6 140.534H268.303C267.909 140.534 267.587 140.856 267.587 141.25V150.917H257.92C257.526 150.917 257.204 151.24 257.204 151.633V155.93C257.204 156.324 257.526 156.646 257.92 156.646H267.587V166.313C267.587 166.707 267.909 167.029 268.303 167.029H272.6C272.993 167.029 273.316 166.707 273.316 166.313V156.646H282.983C283.377 156.646 283.699 156.324 283.699 155.93V151.633C283.699 151.24 283.377 150.917 282.983 150.917H273.316V141.25Z" fill="#1EA54C"/>
<path d="M202.567 229.296L206.426 220.901H207.914L211.772 229.296H209.915L209.129 227.474H205.211L204.437 229.296H202.567ZM207.152 222.866L205.83 226.033H208.521L207.176 222.866H207.152ZM212.974 229.296V220.901H216.261C217.69 220.901 218.797 221.266 219.583 221.996C220.369 222.719 220.762 223.751 220.762 225.092C220.762 226.434 220.369 227.47 219.583 228.2C218.797 228.931 217.69 229.296 216.261 229.296H212.974ZM214.82 227.784H216.154C217.94 227.784 218.833 226.887 218.833 225.092C218.833 223.306 217.94 222.413 216.154 222.413H214.82V227.784ZM222.672 229.296V220.901H225.959C227.388 220.901 228.495 221.266 229.281 221.996C230.067 222.719 230.46 223.751 230.46 225.092C230.46 226.434 230.067 227.47 229.281 228.2C228.495 228.931 227.388 229.296 225.959 229.296H222.672ZM224.518 227.784H225.851C227.638 227.784 228.531 226.887 228.531 225.092C228.531 223.306 227.638 222.413 225.851 222.413H224.518V227.784ZM235.196 229.296L239.054 220.901H240.543L244.401 229.296H242.543L241.757 227.474H237.84L237.066 229.296H235.196ZM239.781 222.866L238.459 226.033H241.15L239.804 222.866H239.781ZM249.393 229.296V220.901H250.763L254.954 226.247V220.901H256.669V229.296H255.311L251.108 223.937V229.296H249.393ZM258.835 229.296V220.901H264.587V222.342H260.598V224.306H264.325V225.759H260.598V227.855H264.587V229.296H258.835ZM268.867 229.296L265.878 220.901H267.772L269.701 226.64L271.737 220.901H273.071L275.048 226.736L277.048 220.901H278.834L275.822 229.296H274.321L272.356 223.723L270.368 229.296H268.867ZM284.127 229.296V220.901H287.961C288.898 220.901 289.62 221.139 290.128 221.615C290.636 222.084 290.89 222.739 290.89 223.58C290.89 224.422 290.636 225.081 290.128 225.557C289.62 226.033 288.898 226.271 287.961 226.271H285.972V229.296H284.127ZM285.972 224.842H287.651C288.628 224.842 289.116 224.422 289.116 223.58C289.116 222.754 288.628 222.342 287.651 222.342H285.972V224.842ZM292.511 229.296V220.901H296.345C297.282 220.901 298.004 221.127 298.512 221.58C299.02 222.032 299.274 222.663 299.274 223.473C299.274 224.1 299.111 224.624 298.786 225.045C298.468 225.458 298.012 225.739 297.417 225.89C297.837 226.017 298.183 226.323 298.453 226.807L299.81 229.296H297.774L296.321 226.617C296.202 226.402 296.055 226.255 295.88 226.176C295.706 226.089 295.499 226.045 295.261 226.045H294.356V229.296H292.511ZM294.356 224.711H296.011C297.004 224.711 297.5 224.314 297.5 223.521C297.5 222.735 297.004 222.342 296.011 222.342H294.356V224.711ZM305.114 229.427C304.288 229.427 303.562 229.248 302.935 228.891C302.316 228.526 301.831 228.022 301.482 227.379C301.141 226.728 300.97 225.966 300.97 225.092C300.97 224.219 301.141 223.461 301.482 222.818C301.831 222.167 302.316 221.663 302.935 221.306C303.554 220.948 304.28 220.77 305.114 220.77C305.947 220.77 306.674 220.948 307.293 221.306C307.92 221.663 308.404 222.167 308.746 222.818C309.095 223.461 309.27 224.215 309.27 225.081C309.27 225.954 309.095 226.716 308.746 227.367C308.404 228.018 307.92 228.526 307.293 228.891C306.674 229.248 305.947 229.427 305.114 229.427ZM305.114 227.855C305.813 227.855 306.356 227.613 306.745 227.129C307.142 226.636 307.341 225.958 307.341 225.092C307.341 224.219 307.146 223.544 306.757 223.068C306.368 222.584 305.82 222.342 305.114 222.342C304.423 222.342 303.879 222.584 303.483 223.068C303.094 223.544 302.899 224.219 302.899 225.092C302.899 225.958 303.094 226.636 303.483 227.129C303.879 227.613 304.423 227.855 305.114 227.855ZM309.933 229.415L309.802 227.915L310.719 227.867C311.354 227.827 311.672 227.494 311.672 226.867V220.901H313.518V226.843C313.518 228.415 312.684 229.256 311.017 229.367L309.933 229.415ZM315.685 229.296V220.901H321.437V222.342H317.448V224.306H321.175V225.759H317.448V227.855H321.437V229.296H315.685ZM327.444 229.427C326.539 229.427 325.765 229.248 325.122 228.891C324.479 228.534 323.983 228.034 323.633 227.391C323.292 226.74 323.121 225.974 323.121 225.092C323.121 224.219 323.292 223.461 323.633 222.818C323.983 222.167 324.479 221.663 325.122 221.306C325.765 220.948 326.539 220.77 327.444 220.77C328 220.77 328.532 220.857 329.04 221.032C329.548 221.206 329.965 221.445 330.29 221.746L329.718 223.211C329.361 222.933 329 222.731 328.635 222.604C328.278 222.469 327.9 222.401 327.504 222.401C326.702 222.401 326.094 222.635 325.682 223.104C325.277 223.564 325.074 224.227 325.074 225.092C325.074 225.958 325.277 226.625 325.682 227.093C326.094 227.561 326.702 227.796 327.504 227.796C327.9 227.796 328.278 227.732 328.635 227.605C329 227.47 329.361 227.264 329.718 226.986L330.29 228.45C329.965 228.744 329.548 228.982 329.04 229.165C328.532 229.34 328 229.427 327.444 229.427ZM333.861 229.296V222.425H331.086V220.901H338.481V222.425H335.706V229.296H333.861Z" fill="#1EA54C"/>
</g>
<defs>
<filter id="filter0_d" x="0.216586" y="0.216586" width="545.267" height="336.267" filterUnits="userSpaceOnUse" color-interpolation-filters="sRGB">
<feFlood flood-opacity="0" result="BackgroundImageFix"/>
<feColorMatrix in="SourceAlpha" type="matrix" values="0 0 0 0 0 0 0 0 0 0 0 0 0 0 0 0 0 0 127 0"/>
<feMorphology radius="0.783414" operator="dilate" in="SourceAlpha" result="effect1_dropShadow"/>
<feOffset dx="2.35024" dy="2.35024"/>
<feGaussianBlur stdDeviation="1.17512"/>
<feColorMatrix type="matrix" values="0 0 0 0 0.0952604 0 0 0 0 0.129167 0 0 0 0 0.163073 0 0 0 0.83 0"/>
<feBlend mode="normal" in2="BackgroundImageFix" result="effect1_dropShadow"/>
<feBlend mode="normal" in="SourceGraphic" in2="effect1_dropShadow" result="shape"/>
</filter>
</defs>
</svg>
