<svg width="89" height="34" viewBox="0 0 89 34" fill="none" xmlns="http://www.w3.org/2000/svg">
<rect x="0.0705261" y="0.364502" width="88.7529" height="33.3841" rx="1.62849" fill="url(#paint0_linear)"/>
<path d="M48.753 20.4417H45.9479L45.4435 22.5076H43.0737L46.0032 12.9315H48.753L51.6825 22.5076H49.2574L48.753 20.4417ZM46.3072 18.7974H48.3799L47.3436 14.5621L46.3072 18.7974ZM57.2044 12.0264L59.3877 12.2544V22.5076H57.4531L57.3426 21.6992C57.1399 21.9848 56.8705 22.2312 56.5342 22.4385C56.198 22.6411 55.7903 22.7425 55.3113 22.7425C54.7033 22.7425 54.1989 22.579 53.7982 22.2519C53.4021 21.9249 53.105 21.4689 52.9069 20.8839C52.7135 20.2943 52.6167 19.6057 52.6167 18.8181C52.6167 18.0627 52.7342 17.3925 52.9691 16.8075C53.204 16.2226 53.5403 15.7643 53.9778 15.4326C54.4154 15.0964 54.9359 14.9282 55.5393 14.9282C56.198 14.9282 56.753 15.1539 57.2044 15.6053V12.0264ZM56.1266 16.5243C55.7489 16.5243 55.4449 16.7039 55.2146 17.0632C54.9843 17.4178 54.8691 18.0074 54.8691 18.8319C54.8691 19.4353 54.9175 19.9051 55.0142 20.2414C55.1109 20.573 55.2445 20.8056 55.4149 20.9392C55.5854 21.0728 55.7811 21.1396 56.0022 21.1396C56.2463 21.1396 56.4674 21.0636 56.6655 20.9116C56.8682 20.7596 57.0478 20.5523 57.2044 20.2897V17.1254C57.0524 16.9365 56.8912 16.7891 56.7208 16.6832C56.5503 16.5772 56.3523 16.5243 56.1266 16.5243ZM66.0427 12.0264L68.226 12.2544V22.5076H66.2914L66.1809 21.6992C65.9782 21.9848 65.7088 22.2312 65.3725 22.4385C65.0363 22.6411 64.6286 22.7425 64.1496 22.7425C63.5416 22.7425 63.0372 22.579 62.6365 22.2519C62.2404 21.9249 61.9433 21.4689 61.7452 20.8839C61.5518 20.2943 61.455 19.6057 61.455 18.8181C61.455 18.0627 61.5725 17.3925 61.8074 16.8075C62.0423 16.2226 62.3785 15.7643 62.8161 15.4326C63.2537 15.0964 63.7742 14.9282 64.3776 14.9282C65.0363 14.9282 65.5913 15.1539 66.0427 15.6053V12.0264ZM64.9649 16.5243C64.5872 16.5243 64.2832 16.7039 64.0529 17.0632C63.8226 17.4178 63.7074 18.0074 63.7074 18.8319C63.7074 19.4353 63.7558 19.9051 63.8525 20.2414C63.9492 20.573 64.0828 20.8056 64.2532 20.9392C64.4237 21.0728 64.6194 21.1396 64.8405 21.1396C65.0846 21.1396 65.3057 21.0636 65.5038 20.9116C65.7064 20.7596 65.8861 20.5523 66.0427 20.2897V17.1254C65.8907 16.9365 65.7295 16.7891 65.5591 16.6832C65.3886 16.5772 65.1906 16.5243 64.9649 16.5243Z" fill="#E7EFEF"/>
<path d="M30.4202 16.5218H27.882V13.9837C27.882 13.9102 27.8219 13.8501 27.7485 13.8501H26.9469C26.8735 13.8501 26.8134 13.9102 26.8134 13.9837V16.5218H24.2752C24.2017 16.5218 24.1416 16.582 24.1416 16.6554V17.457C24.1416 17.5304 24.2017 17.5905 24.2752 17.5905H26.8134V20.1287C26.8134 20.2022 26.8735 20.2623 26.9469 20.2623H27.7485C27.8219 20.2623 27.882 20.2022 27.882 20.1287V17.5905H30.4202C30.4937 17.5905 30.5538 17.5304 30.5538 17.457V16.6554C30.5538 16.582 30.4937 16.5218 30.4202 16.5218Z" fill="#E7EFEF"/>
<path d="M27.3478 9.57568C23.2166 9.57568 19.8669 12.9254 19.8669 17.0566C19.8669 21.1878 23.2166 24.5375 27.3478 24.5375C31.479 24.5375 34.8287 21.1878 34.8287 17.0566C34.8287 12.9254 31.479 9.57568 27.3478 9.57568ZM27.3478 23.2684C23.918 23.2684 21.136 20.4864 21.136 17.0566C21.136 13.6267 23.918 10.8448 27.3478 10.8448C30.7777 10.8448 33.5597 13.6267 33.5597 17.0566C33.5597 20.4864 30.7777 23.2684 27.3478 23.2684Z" fill="#E7EFEF"/>
<defs>
<linearGradient id="paint0_linear" x1="-18.3179" y1="-6.7807" x2="92.9592" y2="65.3817" gradientUnits="userSpaceOnUse">
<stop stop-color="#008249"/>
<stop offset="1" stop-color="#226045"/>
</linearGradient>
</defs>
</svg>
