<svg width="17" height="17" viewBox="0 0 17 17" fill="none" xmlns="http://www.w3.org/2000/svg">
<path d="M9.6152 7.42506C8.97523 6.78538 8.10741 6.42603 7.20255 6.42603C6.29769 6.42603 5.42987 6.78538 4.7899 7.42506L2.37647 9.83766C1.73649 10.4776 1.37695 11.3456 1.37695 12.2506C1.37695 13.1557 1.73649 14.0237 2.37647 14.6636C3.01645 15.3036 3.88444 15.6631 4.78951 15.6631C5.69457 15.6631 6.56257 15.3036 7.20255 14.6636L8.40887 13.4573" stroke="#E7EFEF" stroke-opacity="0.6" stroke-width="1.46498" stroke-linecap="round" stroke-linejoin="round"/>
<path d="M7.20239 9.83767C7.84236 10.4774 8.71018 10.8367 9.61504 10.8367C10.5199 10.8367 11.3877 10.4774 12.0277 9.83767L14.4411 7.42507C15.0811 6.78511 15.4406 5.91713 15.4406 5.01209C15.4406 4.10704 15.0811 3.23906 14.4411 2.5991C13.8011 1.95914 12.9331 1.59961 12.0281 1.59961C11.123 1.59961 10.255 1.95914 9.61504 2.5991L8.40872 3.8054" stroke="#E7EFEF" stroke-opacity="0.6" stroke-width="1.46498" stroke-linecap="round" stroke-linejoin="round"/>
</svg>
