<svg width="136" height="52" viewBox="0 0 136 52" fill="none" xmlns="http://www.w3.org/2000/svg">
<g filter="url(#filter0_d)">
<rect x="8" y="8" width="118" height="34.0704" rx="1.66197" fill="url(#paint0_linear)"/>
</g>
<path d="M26.5371 29.4788V19.5366H30.2319C31.8959 19.5366 33.1793 19.9644 34.0818 20.8199C34.9938 21.6755 35.4497 22.9024 35.4497 24.5006C35.4497 26.0895 34.9938 27.3164 34.0818 28.1813C33.1793 29.0463 31.8959 29.4788 30.2319 29.4788H26.5371ZM28.3422 27.9839H30.119C32.413 27.9839 33.56 26.8228 33.56 24.5006C33.56 22.1879 32.413 21.0315 30.119 21.0315H28.3422V27.9839ZM41.0726 29.6198C40.2923 29.6198 39.6201 29.4741 39.056 29.1826C38.4919 28.8912 38.0547 28.4775 37.7444 27.9416C37.4436 27.4057 37.2932 26.7711 37.2932 26.0378C37.2932 25.3233 37.4389 24.6981 37.7303 24.1622C38.0312 23.6263 38.4402 23.2079 38.9572 22.9071C39.4837 22.5968 40.0807 22.4417 40.7482 22.4417C41.726 22.4417 42.4969 22.7519 43.061 23.3724C43.6345 23.993 43.9213 24.8391 43.9213 25.9109V26.4327H38.9854C39.1171 27.6643 39.8222 28.2801 41.1008 28.2801C41.4863 28.2801 41.8717 28.2237 42.2572 28.1108C42.6427 27.9886 42.9952 27.8006 43.3149 27.5467L43.8084 28.7313C43.4794 29.004 43.0657 29.2202 42.5674 29.38C42.0692 29.5399 41.5709 29.6198 41.0726 29.6198ZM40.8188 23.6404C40.3017 23.6404 39.8833 23.8002 39.5636 24.1199C39.244 24.4395 39.0513 24.872 38.9854 25.4173H42.4546C42.417 24.8438 42.2572 24.4066 41.9751 24.1058C41.7025 23.7955 41.317 23.6404 40.8188 23.6404ZM48.2788 29.6198C47.4608 29.6198 46.8544 29.3988 46.4596 28.957C46.0741 28.5057 45.8814 27.8476 45.8814 26.9826V19.5366H47.6442V26.898C47.6442 27.7442 48.0014 28.1672 48.716 28.1672C48.8194 28.1672 48.9228 28.1625 49.0262 28.1531C49.1296 28.1437 49.2283 28.1249 49.3224 28.0967L49.2941 29.4929C48.9557 29.5775 48.6172 29.6198 48.2788 29.6198ZM54.2787 29.6198C53.4983 29.6198 52.8261 29.4741 52.262 29.1826C51.6979 28.8912 51.2608 28.4775 50.9505 27.9416C50.6497 27.4057 50.4992 26.7711 50.4992 26.0378C50.4992 25.3233 50.645 24.6981 50.9364 24.1622C51.2373 23.6263 51.6462 23.2079 52.1633 22.9071C52.6898 22.5968 53.2868 22.4417 53.9543 22.4417C54.9321 22.4417 55.703 22.7519 56.2671 23.3724C56.8406 23.993 57.1273 24.8391 57.1273 25.9109V26.4327H52.1915C52.3231 27.6643 53.0283 28.2801 54.3069 28.2801C54.6923 28.2801 55.0778 28.2237 55.4633 28.1108C55.8487 27.9886 56.2013 27.8006 56.5209 27.5467L57.0145 28.7313C56.6855 29.004 56.2718 29.2202 55.7735 29.38C55.2752 29.5399 54.7769 29.6198 54.2787 29.6198ZM54.0248 23.6404C53.5077 23.6404 53.0894 23.8002 52.7697 24.1199C52.4501 24.4395 52.2573 24.872 52.1915 25.4173H55.6607C55.6231 24.8438 55.4633 24.4066 55.1812 24.1058C54.9086 23.7955 54.5231 23.6404 54.0248 23.6404ZM62.2188 29.6198C60.3949 29.6198 59.483 28.7172 59.483 26.9121V23.9083H58.1574V22.5827H59.483V20.5238H61.2458V22.5827H63.3329V23.9083H61.2458V26.8134C61.2458 27.2647 61.3445 27.6031 61.5419 27.8288C61.7393 28.0544 62.059 28.1672 62.5009 28.1672C62.6325 28.1672 62.7688 28.1531 62.9098 28.1249C63.0509 28.0873 63.1966 28.0497 63.347 28.0121L63.615 29.3095C63.4457 29.4035 63.2295 29.4788 62.9662 29.5352C62.7124 29.5916 62.4633 29.6198 62.2188 29.6198ZM68.3661 29.6198C67.5858 29.6198 66.9136 29.4741 66.3495 29.1826C65.7854 28.8912 65.3482 28.4775 65.038 27.9416C64.7371 27.4057 64.5867 26.7711 64.5867 26.0378C64.5867 25.3233 64.7324 24.6981 65.0239 24.1622C65.3247 23.6263 65.7337 23.2079 66.2508 22.9071C66.7773 22.5968 67.3743 22.4417 68.0418 22.4417C69.0195 22.4417 69.7905 22.7519 70.3546 23.3724C70.928 23.993 71.2148 24.8391 71.2148 25.9109V26.4327H66.279C66.4106 27.6643 67.1157 28.2801 68.3943 28.2801C68.7798 28.2801 69.1653 28.2237 69.5507 28.1108C69.9362 27.9886 70.2887 27.8006 70.6084 27.5467L71.102 28.7313C70.7729 29.004 70.3593 29.2202 69.861 29.38C69.3627 29.5399 68.8644 29.6198 68.3661 29.6198ZM68.1123 23.6404C67.5952 23.6404 67.1768 23.8002 66.8572 24.1199C66.5375 24.4395 66.3448 24.872 66.279 25.4173H69.7482C69.7105 24.8438 69.5507 24.4066 69.2687 24.1058C68.996 23.7955 68.6106 23.6404 68.1123 23.6404ZM80.1066 29.4788V21.0456H76.6939V19.5366H85.3245V21.0456H81.9117V29.4788H80.1066ZM89.1599 29.6198C88.3796 29.6198 87.7074 29.4741 87.1433 29.1826C86.5792 28.8912 86.142 28.4775 85.8318 27.9416C85.5309 27.4057 85.3805 26.7711 85.3805 26.0378C85.3805 25.3233 85.5262 24.6981 85.8177 24.1622C86.1185 23.6263 86.5275 23.2079 87.0446 22.9071C87.571 22.5968 88.168 22.4417 88.8356 22.4417C89.8133 22.4417 90.5842 22.7519 91.1483 23.3724C91.7218 23.993 92.0086 24.8391 92.0086 25.9109V26.4327H87.0728C87.2044 27.6643 87.9095 28.2801 89.1881 28.2801C89.5736 28.2801 89.959 28.2237 90.3445 28.1108C90.73 27.9886 91.0825 27.8006 91.4022 27.5467L91.8958 28.7313C91.5667 29.004 91.153 29.2202 90.6548 29.38C90.1565 29.5399 89.6582 29.6198 89.1599 29.6198ZM88.9061 23.6404C88.389 23.6404 87.9706 23.8002 87.651 24.1199C87.3313 24.4395 87.1386 24.872 87.0728 25.4173H90.5419C90.5043 24.8438 90.3445 24.4066 90.0625 24.1058C89.7898 23.7955 89.4043 23.6404 88.9061 23.6404ZM96.2392 29.6198C95.7409 29.6198 95.2943 29.5258 94.8994 29.3377C94.514 29.1403 94.2084 28.8771 93.9828 28.548C93.7666 28.219 93.6584 27.8476 93.6584 27.4339C93.6584 26.9262 93.7901 26.5267 94.0533 26.2352C94.3165 25.9344 94.7443 25.7181 95.3366 25.5865C95.9289 25.4549 96.7233 25.3891 97.7199 25.3891H98.2135V25.0929C98.2135 24.6229 98.1101 24.2844 97.9032 24.0776C97.6964 23.8707 97.3486 23.7673 96.8597 23.7673C96.4742 23.7673 96.0793 23.8284 95.6751 23.9506C95.2708 24.0635 94.8618 24.2421 94.4482 24.4865L93.9405 23.2878C94.1849 23.1186 94.4717 22.9729 94.8007 22.8507C95.1392 22.719 95.4917 22.6203 95.8584 22.5545C96.2345 22.4793 96.587 22.4417 96.9161 22.4417C97.922 22.4417 98.6695 22.6767 99.1584 23.1468C99.6472 23.6075 99.8917 24.3267 99.8917 25.3045V29.4788H98.2417V28.3788C98.0819 28.7642 97.828 29.0698 97.4802 29.2954C97.1323 29.5117 96.7186 29.6198 96.2392 29.6198ZM96.6058 28.407C97.0665 28.407 97.4473 28.2472 97.7481 27.9275C98.0584 27.6078 98.2135 27.2036 98.2135 26.7147V26.4045H97.734C96.8503 26.4045 96.2345 26.475 95.8866 26.616C95.5482 26.7476 95.3789 26.992 95.3789 27.3493C95.3789 27.6596 95.487 27.9134 95.7033 28.1108C95.9195 28.3083 96.2204 28.407 96.6058 28.407ZM102.273 29.4788V22.5827H103.994V23.6404C104.201 23.2643 104.487 22.9729 104.854 22.766C105.221 22.5498 105.644 22.4417 106.123 22.4417C107.157 22.4417 107.834 22.893 108.154 23.7955C108.37 23.3724 108.68 23.0434 109.085 22.8084C109.489 22.5639 109.95 22.4417 110.467 22.4417C112.018 22.4417 112.794 23.3866 112.794 25.2763V29.4788H111.031V25.3468C111.031 24.8203 110.941 24.4348 110.763 24.1904C110.594 23.9459 110.302 23.8237 109.888 23.8237C109.428 23.8237 109.066 23.9882 108.803 24.3173C108.539 24.637 108.408 25.0835 108.408 25.657V29.4788H106.645V25.3468C106.645 24.8203 106.556 24.4348 106.377 24.1904C106.208 23.9459 105.921 23.8237 105.517 23.8237C105.056 23.8237 104.694 23.9882 104.431 24.3173C104.168 24.637 104.036 25.0835 104.036 25.657V29.4788H102.273Z" fill="#E7EFEF"/>
<defs>
<filter id="filter0_d" x="0.521127" y="0.521127" width="134.62" height="50.6901" filterUnits="userSpaceOnUse" color-interpolation-filters="sRGB">
<feFlood flood-opacity="0" result="BackgroundImageFix"/>
<feColorMatrix in="SourceAlpha" type="matrix" values="0 0 0 0 0 0 0 0 0 0 0 0 0 0 0 0 0 0 127 0"/>
<feOffset dx="0.830986" dy="0.830986"/>
<feGaussianBlur stdDeviation="4.15493"/>
<feColorMatrix type="matrix" values="0 0 0 0 0 0 0 0 0 0 0 0 0 0 0 0 0 0 0.2 0"/>
<feBlend mode="normal" in2="BackgroundImageFix" result="effect1_dropShadow"/>
<feBlend mode="normal" in="SourceGraphic" in2="effect1_dropShadow" result="shape"/>
</filter>
<linearGradient id="paint0_linear" x1="-16.4481" y1="0.70791" x2="106.188" y2="104.314" gradientUnits="userSpaceOnUse">
<stop stop-color="#008249"/>
<stop offset="1" stop-color="#226045"/>
</linearGradient>
</defs>
</svg>
