<svg width="29" height="29" viewBox="0 0 29 29" fill="none" xmlns="http://www.w3.org/2000/svg">
<g clip-path="url(#clip0)">
<path d="M5.29523 0C2.3619 0 0 2.36191 0 5.29523V23.7048C0 26.6381 2.3619 29 5.29523 29H15.2731V17.6628H12.2752V13.5811H15.2731V10.0938C15.2731 7.35406 17.0443 4.83848 21.1247 4.83848C22.7768 4.83848 23.9984 4.99708 23.9984 4.99708L23.9023 8.80878C23.9023 8.80878 22.6564 8.79701 21.2969 8.79701C19.8254 8.79701 19.5895 9.47497 19.5895 10.6005V13.5811H24.0192L23.8262 17.6629H19.5895V29.0001H23.7048C26.6381 29.0001 29 26.6382 29 23.7048V5.29526C29 2.36194 26.6381 2.9e-05 23.7048 2.9e-05H5.2952L5.29523 0Z" fill="#E7EFEF" fill-opacity="0.7"/>
</g>
<defs>
<clipPath id="clip0">
<rect width="29" height="29" fill="white"/>
</clipPath>
</defs>
</svg>
