<svg width="270" height="270" viewBox="0 0 270 270" fill="none" xmlns="http://www.w3.org/2000/svg">
<path d="M0 50C0 22.3858 22.3858 0 50 0H220C247.614 0 270 22.3858 270 50V220C270 247.614 247.614 270 220 270H50C22.3858 270 0 247.614 0 220V50Z" fill="#23303D"/>
<path d="M57.1219 142.054L93.001 154.123V174.26L35.0173 150.647V133.199L93.001 109.586V129.657L57.1219 142.054ZM119.626 190.199H103.95L136.549 86.4974H152.291L119.626 190.199ZM201.415 141.857L165.733 129.723V109.652L223.388 133.265V150.712L165.733 174.326V154.254L201.415 141.857Z" fill="#1EA54C"/>
</svg>
