<svg width="93" height="92" viewBox="0 0 93 92" fill="none" xmlns="http://www.w3.org/2000/svg">
<path d="M77.1179 25.9129L57.855 6.65012C57.318 6.11305 56.5929 5.80872 55.8321 5.80872H17.8077C16.2234 5.80872 14.9434 7.08873 14.9434 8.67307V83.1464C14.9434 84.7308 16.2234 86.0108 17.8077 86.0108H75.0949C76.6793 86.0108 77.9593 84.7308 77.9593 83.1464V27.9448C77.9593 27.184 77.6549 26.45 77.1179 25.9129ZM71.3533 29.2607H54.5073V12.4146L71.3533 29.2607ZM71.5145 79.566H21.3882V12.2535H48.4206V31.5879C48.4206 32.585 48.8166 33.5413 49.5217 34.2463C50.2267 34.9513 51.183 35.3474 52.18 35.3474H71.5145V79.566ZM49.3157 42.3293C49.3157 41.9354 48.9934 41.6132 48.5996 41.6132H44.303C43.9092 41.6132 43.587 41.9354 43.587 42.3293V51.9965H33.9197C33.5259 51.9965 33.2036 52.3187 33.2036 52.7126V57.0091C33.2036 57.403 33.5259 57.7252 33.9197 57.7252H43.587V67.3924C43.587 67.7863 43.9092 68.1085 44.303 68.1085H48.5996C48.9934 68.1085 49.3157 67.7863 49.3157 67.3924V57.7252H58.9829C59.3767 57.7252 59.699 57.403 59.699 57.0091V52.7126C59.699 52.3187 59.3767 51.9965 58.9829 51.9965H49.3157V42.3293Z" fill="#1EA54C"/>
</svg>
