<svg width="450" height="370" viewBox="0 0 450 370" fill="none" xmlns="http://www.w3.org/2000/svg">
<g filter="url(#filter0_d)">
<path d="M442.602 34.394H1.49219V361.992H442.602V34.394Z" fill="#1D2833"/>
<path d="M442.602 362.011C442.602 358.677 442.451 232.722 442.204 34.4128L442.602 34.8105C318.389 34.8295 165.992 34.8673 1.53034 34.8863H1.49246L1.98492 34.3938C1.96598 152.072 1.94703 263.576 1.92809 361.992L1.47352 361.537C262.666 361.822 438.663 361.992 442.602 362.011C438.663 362.011 262.685 362.2 1.49246 362.466H1.03788V362.011C1.03788 263.576 1.01894 152.072 1 34.3938V33.9014H1.49246H1.53034C165.992 33.9392 318.389 33.9582 442.602 33.9961H443V34.3938C442.754 232.722 442.602 358.677 442.602 362.011Z" fill="#263238"/>
<path d="M441.844 80.1927C441.844 80.4578 344.072 80.6851 223.477 80.6851C102.844 80.6851 5.09082 80.4578 5.09082 80.1927C5.09082 79.9275 102.844 79.7002 223.477 79.7002C344.072 79.7002 441.844 79.9275 441.844 80.1927Z" fill="#E0E0E0"/>
<path d="M30.339 56.2891C30.339 59.8689 27.4411 62.7858 23.8424 62.7858C20.2436 62.7858 17.3457 59.8879 17.3457 56.2891C17.3457 52.7093 20.2436 49.7925 23.8424 49.7925C27.4411 49.7925 30.339 52.7093 30.339 56.2891Z" fill="#E0E0E0"/>
<path d="M49.9044 56.2891C49.9044 59.8689 47.0065 62.7858 43.4078 62.7858C39.828 62.7858 36.9111 59.8879 36.9111 56.2891C36.9111 52.7093 39.8091 49.7925 43.4078 49.7925C46.9876 49.7925 49.9044 52.7093 49.9044 56.2891Z" fill="#E0E0E0"/>
<path d="M69.4513 56.2891C69.4513 59.8689 66.5534 62.7858 62.9547 62.7858C59.3749 62.7858 56.458 59.8879 56.458 56.2891C56.458 52.7093 59.3559 49.7925 62.9547 49.7925C66.5534 49.7925 69.4513 52.7093 69.4513 56.2891Z" fill="#E0E0E0"/>
</g>
<path d="M245.6 27.0828C244.123 21.7415 241.225 16.5139 236.452 13.7296C234.179 12.4038 231.603 11.703 229.292 10.434C226.508 8.9187 224.216 6.66475 221.602 4.84645C215.2 0.414325 206.847 -1.10093 199.29 0.812079C191.733 2.72509 185.103 8.02848 181.581 14.9797C176.201 10.8885 166.883 12.6121 160.518 14.904C154.154 17.1958 148.832 24.7721 147.298 31.3634L177.148 40.3981C183.115 46.9137 189.763 52.9747 197.548 57.1796C205.332 61.3844 214.367 63.6573 223.117 62.3504C231.868 61.0245 240.202 55.7969 244.161 47.8797C247.343 41.5346 247.494 33.9394 245.6 27.0828Z" fill="#263238"/>
<path d="M266.776 125.877C274.371 120.574 276.189 108.66 270.526 101.33C268.84 99.1521 266.548 97.1823 266.17 94.4548C265.942 92.7691 266.492 91.1023 266.889 89.4545C269.579 78.5068 265.109 66.1575 256.055 59.4524C255.904 53.3346 252.475 40.3981 244.71 35.4546L209.442 40.4171C211.052 77.5597 210.938 114.778 209.12 151.921C208.836 157.622 208.628 163.74 211.753 168.513C216.166 175.275 225.371 176.695 233.459 176.904C241.187 177.093 249.066 176.771 256.358 174.214C263.65 171.657 270.355 166.6 273.424 159.497C278.121 148.549 273.272 135.859 266.776 125.877Z" fill="#263238"/>
<path d="M159.193 50.7396L158.132 42.8413L204.669 28.3138C219.159 25.075 236.717 37.9546 239.35 52.5769C242.266 68.828 245.183 88.7536 244.634 101.198C243.554 126.199 225.106 131.484 225.106 131.484L227 146.295C228.913 161.296 218.306 174.991 203.305 176.923C188.342 178.836 174.667 168.286 172.697 153.341L159.193 50.7396Z" fill="#FFBE9D"/>
<path d="M236.167 70.9304C236.414 72.5782 235.22 74.1692 233.497 74.4533C231.773 74.7374 230.182 73.6389 229.917 71.991C229.671 70.3432 230.864 68.7522 232.588 68.4681C234.311 68.184 235.921 69.2825 236.167 70.9304Z" fill="#263238"/>
<path d="M235.353 63.5817C235.012 64.0363 232.417 62.54 229.027 62.9377C225.637 63.2787 223.345 65.3243 222.947 64.9454C222.739 64.775 223.061 63.9984 224.046 63.0892C225.031 62.1801 226.754 61.2141 228.857 60.9679C230.959 60.7406 232.834 61.3088 233.952 61.9907C235.088 62.6726 235.524 63.3734 235.353 63.5817Z" fill="#263238"/>
<path d="M204.537 75.2489C204.783 76.8967 203.589 78.4877 201.866 78.7718C200.142 79.056 198.551 77.9574 198.286 76.3095C198.04 74.6617 199.233 73.0707 200.957 72.7866C202.68 72.4835 204.29 73.5821 204.537 75.2489Z" fill="#263238"/>
<path d="M202.131 68.0514C201.79 68.506 199.195 67.0097 195.805 67.4075C192.414 67.7484 190.123 69.794 189.706 69.4152C189.498 69.2447 189.82 68.4681 190.804 67.559C191.77 66.6498 193.513 65.6838 195.615 65.4376C197.718 65.2103 199.593 65.7786 200.71 66.4604C201.866 67.1423 202.301 67.8431 202.131 68.0514Z" fill="#263238"/>
<path d="M217.321 91.7468C217.283 91.5573 219.348 90.9512 222.7 90.1179C223.553 89.9284 224.348 89.6633 224.424 89.0572C224.556 88.4132 224.083 87.523 223.553 86.557C222.492 84.5493 221.393 82.4658 220.238 80.2687C215.598 71.2908 212.15 63.885 212.51 63.6956C212.87 63.5062 216.923 70.6279 221.545 79.6058C222.662 81.8218 223.742 83.9242 224.765 85.9509C225.2 86.8979 225.901 87.9397 225.598 89.3034C225.447 89.9853 224.86 90.5156 224.329 90.724C223.799 90.9512 223.306 91.027 222.89 91.1028C219.48 91.6899 217.359 91.9362 217.321 91.7468Z" fill="#263238"/>
<path d="M225.106 131.522C225.106 131.522 207.87 134.534 190.388 126.579C190.388 126.579 200.654 142.811 225.807 137.64L225.106 131.522Z" fill="#EB996E"/>
<path d="M216.829 100.08C215.428 98.6031 213.193 97.978 211.09 98.4515C209.632 98.7735 208.23 99.6637 207.472 100.952C206.715 102.259 206.734 103.963 207.662 105.024C208.723 106.198 210.673 106.274 212.227 105.63C213.799 104.986 215.068 103.755 216.261 102.543C216.602 102.202 216.924 101.861 217.113 101.425C217.303 100.99 217.284 100.459 216.962 100.156" fill="#EB996E"/>
<path d="M207.624 95.2508C208.173 95.1561 208.609 98.8306 212.056 101.085C215.504 103.338 219.367 102.486 219.462 102.998C219.538 103.225 218.667 103.812 217.019 104.039C215.409 104.286 212.965 104.039 210.863 102.657C208.761 101.274 207.681 99.2284 207.397 97.751C207.056 96.2168 207.359 95.2508 207.624 95.2508Z" fill="#263238"/>
<path d="M201.488 54.6793C201.26 55.6453 197.832 55.5884 193.911 56.5355C189.972 57.3878 186.903 58.922 186.278 58.1644C185.994 57.8045 186.449 56.8575 187.642 55.8157C188.816 54.774 190.767 53.6944 193.135 53.164C195.483 52.6337 197.718 52.7473 199.234 53.183C200.749 53.5807 201.582 54.2247 201.488 54.6793Z" fill="#263238"/>
<path d="M232.986 53.9218C232.474 54.7551 230.05 54.2248 227.247 54.5089C224.425 54.6983 222.133 55.6264 221.489 54.8877C221.205 54.5279 221.489 53.7134 222.436 52.8611C223.383 52.0087 225.012 51.2322 226.963 51.0617C228.895 50.9102 230.656 51.4026 231.717 52.0845C232.796 52.7664 233.213 53.524 232.986 53.9218Z" fill="#263238"/>
<path d="M164.477 26.0792C159.647 27.6702 154.192 40.834 155.613 45.7017C157.034 50.5695 161.579 54.1114 166.504 55.3615C171.428 56.6116 176.656 55.854 181.524 54.3955C188.399 52.312 195.635 47.5769 196.127 40.4173C202.832 47.1602 213.193 50.0202 222.398 47.6337C231.603 45.2472 238.422 31.1742 241.017 22.0259L164.477 26.0792Z" fill="#263238"/>
<path d="M212.113 75.3628C211.999 75.3628 212.056 74.1317 211.488 72.0103C210.919 69.9458 209.518 66.9153 206.393 64.5856C204.839 63.4491 202.907 62.4832 200.672 62.1044C198.456 61.7445 195.956 61.8202 193.589 62.7294C191.221 63.5817 188.967 65.2106 187.357 67.4267C185.709 69.6238 184.781 72.446 184.743 75.3628C184.762 78.2797 185.69 81.1019 187.357 83.299C188.967 85.534 191.221 87.144 193.589 87.9963C195.956 88.9054 198.456 88.9812 200.672 88.6213C202.907 88.2425 204.839 87.2765 206.393 86.1401C209.518 83.8104 210.919 80.7799 211.488 78.7153C212.056 76.6129 211.999 75.3628 212.113 75.3628C212.15 75.3628 212.169 75.6659 212.169 76.2531C212.188 76.8402 212.113 77.7115 211.866 78.81C211.412 80.9693 210.048 84.1703 206.828 86.7083C205.237 87.9395 203.192 89.0001 200.843 89.4358C198.494 89.8714 195.843 89.8146 193.305 88.8676C190.766 87.9773 188.342 86.2727 186.6 83.8862C184.819 81.5375 183.815 78.4881 183.777 75.3628C183.796 72.2376 184.819 69.2071 186.6 66.8585C188.323 64.4719 190.766 62.7673 193.305 61.8771C195.843 60.93 198.494 60.8732 200.843 61.3088C203.21 61.7445 205.237 62.8052 206.828 64.0363C210.048 66.5554 211.412 69.7753 211.866 71.9346C212.113 73.0331 212.188 73.9044 212.169 74.4916C212.169 75.0598 212.15 75.3628 212.113 75.3628Z" fill="#455A64"/>
<path d="M246.983 69.0933C246.869 69.0933 246.926 67.8622 246.358 65.7408C245.789 63.6763 244.388 60.6458 241.263 58.2971C239.71 57.1607 237.778 56.1947 235.543 55.8159C233.326 55.456 230.826 55.5318 228.459 56.4409C226.091 57.2933 223.837 58.9222 222.227 61.1382C220.579 63.3353 219.651 66.1575 219.613 69.0744C219.632 71.9912 220.56 74.8134 222.227 77.0105C223.837 79.2455 226.091 80.8555 228.459 81.7078C230.826 82.617 233.326 82.6927 235.543 82.3329C237.778 81.954 239.71 80.9881 241.263 79.8516C244.388 77.5219 245.789 74.4914 246.358 72.4269C246.926 70.3245 246.869 69.0744 246.983 69.0933C247.021 69.0933 247.04 69.3964 247.04 69.9835C247.058 70.5707 246.983 71.442 246.737 72.5405C246.282 74.6998 244.918 77.9007 241.698 80.4388C240.107 81.6699 238.062 82.7306 235.713 83.1663C233.364 83.6019 230.713 83.5451 228.175 82.598C225.637 81.7078 223.212 80.0032 221.47 77.6166C219.689 75.268 218.685 72.2185 218.647 69.0933C218.666 65.9681 219.689 62.9376 221.47 60.5889C223.193 58.2024 225.637 56.4978 228.175 55.6075C230.713 54.6605 233.364 54.6037 235.713 55.0393C238.081 55.475 240.107 56.5356 241.698 57.7668C244.918 60.2859 246.282 63.5058 246.737 65.665C246.983 66.7636 247.058 67.6349 247.04 68.222C247.021 68.7903 247.002 69.0933 246.983 69.0933Z" fill="#455A64"/>
<path d="M210.029 67.7107C209.916 67.6918 209.897 67.0478 210.351 66.1386C210.806 65.2484 211.829 64.112 213.363 63.6385C214.897 63.165 216.374 63.5059 217.265 63.9794C218.155 64.4719 218.515 65.0022 218.439 65.0969C218.344 65.2106 217.852 64.8886 216.999 64.6234C216.166 64.3582 214.916 64.1878 213.666 64.5666C212.416 64.9643 211.488 65.7977 210.957 66.4985C210.408 67.1993 210.181 67.7486 210.029 67.7107Z" fill="#455A64"/>
<path d="M183.796 78.6583C183.891 78.9045 181.485 79.9462 178.436 80.969C175.386 81.9918 172.848 82.6169 172.754 82.3517C172.678 82.0865 175.083 81.0448 178.114 80.0409C181.163 79.0181 183.701 78.412 183.796 78.6583Z" fill="#455A64"/>
<path d="M425.083 121.086C429.155 119.514 427.47 115.271 427.47 115.271L412.336 119.836C412.336 119.836 420.367 116.578 424.477 113.206C428.587 109.835 426.542 106.918 426.542 106.918L410.953 112.941L402.146 118.131L380.08 151.826C380.08 151.826 397.335 160.255 400.385 157.831C405.745 153.55 408.681 144.004 409.874 139.155C412.033 138.53 418.852 136.503 420.689 135.272C422.886 133.814 423.928 131.617 423.928 131.617L411.919 133.908C413.662 133.397 424.799 129.59 425.689 128.226C427.242 125.821 426.257 124.76 426.257 124.76L411.162 127.109L412.715 125.972C412.696 125.972 421.162 122.601 425.083 121.086Z" fill="#FFBE9D"/>
<path d="M369.492 156.164L318.712 202.663C312.405 201.205 235.089 154.989 235.089 154.989L222.872 214.463C222.872 214.463 302.006 250.848 323.788 246.435C327.349 245.715 333.202 245.261 336.857 240.544C354.283 218.156 391.236 162.755 391.236 162.755L369.492 156.164Z" fill="#FFBE9D"/>
<path d="M404.002 153.834L394.835 149.421L401.464 137.431L406.654 126.446L414.703 111.501L402.449 116.104C400.99 116.729 399.721 117.695 398.755 118.926L378.584 146.788L369.644 155.898L378.281 179.12L388.433 163.285C388.433 163.285 388.433 163.285 394.361 161.903C400.252 160.52 404.002 153.834 404.002 153.834Z" fill="#FFBE9D"/>
<path d="M389.266 134.951C393.489 132.829 397.884 131.106 402.429 129.818C403.907 129.382 405.46 129.003 406.975 129.231C408.49 129.458 410.006 130.424 410.422 131.92C410.877 133.606 409.778 135.405 408.32 136.352C406.862 137.299 405.081 137.64 403.395 138.076C401.71 138.512 399.948 139.137 398.831 140.481C397.77 141.751 397.429 143.436 396.88 144.989C395.061 150.047 390.459 153.986 385.193 155.009" fill="#FFBE9D"/>
<path d="M385.175 155.028C385.156 154.952 385.989 154.782 387.391 154.213C388.773 153.645 390.743 152.641 392.675 150.766C393.622 149.838 394.569 148.702 395.346 147.357C396.16 145.993 396.653 144.459 397.202 142.697C397.505 141.826 397.884 140.917 398.566 140.14C399.229 139.364 400.138 138.796 401.066 138.398C402.941 137.564 405.024 137.375 406.862 136.617C407.79 136.239 408.585 135.727 409.191 135.007C409.779 134.307 410.138 133.416 410.101 132.583C410.006 130.84 408.169 129.723 406.559 129.628C404.873 129.496 403.225 130.026 401.691 130.462C400.157 130.916 398.755 131.371 397.467 131.806C394.91 132.697 392.883 133.53 391.482 134.136C390.08 134.723 389.304 135.064 389.285 135.007C389.266 134.951 389.986 134.515 391.33 133.833C392.694 133.151 394.702 132.204 397.24 131.238C398.509 130.746 399.929 130.253 401.464 129.78C402.979 129.325 404.665 128.719 406.597 128.833C407.563 128.89 408.547 129.212 409.381 129.837C410.214 130.443 410.896 131.447 410.953 132.583C411.048 134.894 409.191 136.75 407.184 137.508C405.176 138.322 403.111 138.511 401.407 139.269C400.554 139.629 399.778 140.121 399.21 140.765C398.641 141.409 398.282 142.224 397.979 143.038C397.429 144.705 396.861 146.429 395.99 147.811C395.156 149.213 394.134 150.368 393.111 151.315C391.065 153.19 388.982 154.156 387.523 154.63C386.785 154.857 386.216 155.009 385.8 155.066C385.383 155.028 385.175 155.047 385.175 155.028Z" fill="#EB996E"/>
<path d="M229.35 322.33H125.271C125.271 322.33 109.91 341.669 99.7764 361.821L248.12 362.428C251.018 357.654 229.35 322.33 229.35 322.33Z" fill="#263238"/>
<path d="M260.109 227.684C256.586 181.09 245.032 151.807 245.032 151.807L227.001 146.258C224.273 158.172 204.878 162.092 193.816 156.884L182.13 150.766C144.609 145.14 146.559 148.247 137.885 153.455C130.346 157.982 131.047 191.791 131.047 191.791C131.047 191.791 112.353 279.865 113.356 293.995C114.379 308.125 125.27 322.312 125.27 322.312C125.27 322.312 218.875 322.312 229.349 322.312C239.823 322.312 242.816 298.617 242.096 290.018C241.358 281.438 261.283 243.007 260.109 227.684Z" fill="#61C06E"/>
<path d="M161.276 257.022C161.238 257.079 161.844 257.629 163.019 258.5C164.212 259.371 166.011 260.527 168.398 261.644C170.784 262.762 173.815 263.784 177.281 264.315C180.747 264.807 184.687 264.769 188.645 263.822C196.638 261.966 202.643 257.25 206.317 253.575C208.173 251.7 209.499 250.033 210.37 248.859C211.223 247.666 211.639 246.965 211.583 246.927C211.431 246.795 209.537 249.465 205.768 253.026C202.018 256.511 196.089 260.981 188.38 262.762C180.69 264.618 173.398 262.97 168.701 260.943C163.947 258.898 161.39 256.833 161.276 257.022Z" fill="#263238"/>
<g opacity="0.3">
<g opacity="0.3">
<g opacity="0.3">
<g opacity="0.3">
<g opacity="0.3">
<g opacity="0.3">
<g opacity="0.3">
<path opacity="0.3" d="M209.859 249.314C209.063 257.174 205.313 264.807 199.157 269.77C193.021 274.732 184.478 276.797 176.883 274.618C169.288 272.44 162.981 265.887 161.674 258.083C167.034 260.527 172.47 262.989 178.285 263.86C190.691 265.735 203.931 259.485 210.351 248.727C210.067 249.03 209.783 249.333 209.499 249.617" fill="black"/>
</g>
</g>
</g>
</g>
</g>
</g>
</g>
<path d="M91.0635 225.543L143.51 250.128C143.51 250.128 164.894 202.833 166.732 196.356C168.569 189.897 174.346 179.65 168.417 166.164C162.508 152.678 146.654 147.735 137.885 153.474C118.243 166.353 91.0635 225.543 91.0635 225.543Z" fill="#61C06E"/>
<path d="M255.98 228.044C258.423 228.044 286.55 242.761 286.55 242.761L302.555 189.727C278.652 173.797 259.029 155.595 245.032 151.845L252.381 195.674L255.98 228.044Z" fill="#61C06E"/>
<path d="M91.0633 225.543C91.0822 225.505 91.4421 225.638 92.105 225.903C92.8627 226.225 93.8286 226.642 95.003 227.134C97.6357 228.308 101.216 229.899 105.61 231.831C114.626 235.941 126.88 241.529 140.423 247.704C141.881 248.367 143.321 249.029 144.665 249.654L144.003 249.882C150.064 237.4 155.367 226.244 159.117 218.194C160.936 214.254 162.413 211.034 163.511 208.667C163.985 207.625 164.383 206.773 164.686 206.091C164.97 205.504 165.121 205.201 165.159 205.22C165.197 205.239 165.084 205.561 164.875 206.167C164.648 206.773 164.326 207.682 163.852 208.818C162.943 211.11 161.542 214.406 159.742 218.478C156.144 226.623 150.954 237.835 144.912 250.317L144.703 250.753L144.249 250.545C142.904 249.92 141.464 249.257 140.006 248.594C126.52 242.324 114.304 236.642 105.326 232.456C101.007 230.392 97.4652 228.706 94.8514 227.456C93.715 226.888 92.768 226.414 92.0293 226.054C91.3663 225.77 91.0443 225.581 91.0633 225.543Z" fill="#263238"/>
<path d="M251.15 184.499C251.226 184.48 251.586 185.655 252.23 187.757C252.931 190.03 253.859 193.041 254.995 196.716C257.268 204.254 260.583 214.88 260.734 227.116C260.64 233.234 259.39 238.954 257.931 243.992C256.473 249.049 254.787 253.462 253.348 257.156C251.889 260.849 250.658 263.785 249.806 265.831C248.953 267.876 248.461 268.994 248.404 268.975C248.366 268.956 248.442 268.672 248.631 268.103C248.859 267.441 249.124 266.645 249.465 265.698C250.279 263.482 251.378 260.508 252.722 256.91C254.067 253.197 255.696 248.784 257.098 243.746C258.499 238.726 259.693 233.101 259.787 227.116C259.636 215.088 256.473 204.501 254.37 196.905C253.291 193.098 252.438 190.011 251.908 187.852C251.643 186.772 251.453 185.939 251.321 185.371C251.169 184.802 251.113 184.499 251.15 184.499Z" fill="#263238"/>
<path d="M206.81 173.93C205.996 166.221 201.942 159.08 196.45 153.588C193.741 150.86 190.464 148.133 189.934 144.326C189.252 139.382 193.533 134.761 192.832 129.817C191.961 123.661 184.252 120.972 181.486 115.403C177.774 107.903 184.233 98.1483 180.255 90.7803C177.869 86.3482 172.149 83.9617 171.012 79.056C170.274 75.874 176.335 71.2335 177.736 64.3391C180.899 48.8267 182.509 36.8372 167.451 27.8215L158.682 15.7373C148.814 20.5482 140.537 31.3634 140.366 42.6899C140.29 48.0312 143.018 53.3914 140.688 58.2023C137.449 64.9263 129.873 69.0554 127.581 76.1581C124.304 86.3293 133.32 97.6937 129.381 107.619C127.07 113.471 120.952 116.805 117.126 121.805C111.122 129.628 111.728 141.788 118.509 148.966C108.925 155.425 104.492 168.589 108.224 179.536C109.796 184.139 113.338 188.704 118.187 188.969C125.138 189.348 129.096 181.487 134.191 176.733C142.09 169.346 155.954 169.725 163.455 177.491C168.796 183.04 170.955 191.374 177.187 195.92C183.456 200.485 192.775 199.651 198.798 194.784C204.84 189.897 207.625 181.639 206.81 173.93Z" fill="#263238"/>
<path d="M138.358 246.795C128.433 263.122 121.501 272.497 121.501 272.497L210.579 326.743L200.2 350.855L84.6614 303.295C84.6614 303.295 73.278 291.571 77.2935 278.52L95.7228 227.684L138.358 246.795Z" fill="#FFBE9D"/>
<path d="M99.8329 280.793C100.041 281.077 104.246 277.535 110.497 275.262C116.709 272.914 122.221 272.857 122.183 272.497C122.24 272.232 116.558 271.796 110.099 274.221C103.64 276.588 99.6246 280.622 99.8329 280.793Z" fill="#EB996E"/>
<path d="M279.675 343.279L257.457 332.653L214.102 329.206L210.56 326.744L200.181 350.855C200.181 350.855 211.545 356.291 217.492 356.765L253.953 355.666L273.008 357.674L279.675 343.279Z" fill="#FFBE9D"/>
<path d="M404.664 257.686L279.675 258.709C275.622 258.709 271.739 260.66 271.133 264.656L257.476 355.761H193.097C191.032 355.761 189.347 357.447 189.347 359.511C189.347 361.576 191.032 363.261 193.097 363.261H256.359H268.367H398.717L412.771 267.119C413.529 262.156 409.684 257.686 404.664 257.686Z" fill="#E0E0E0"/>
<path fill-rule="evenodd" clip-rule="evenodd" d="M280.418 338.352C278.335 339.955 276.025 344.524 274 351.045C273.578 352.4 273.099 354.78 273.099 355.514C273.099 355.675 273.065 355.828 273.024 355.853C272.982 355.879 272.563 355.84 272.092 355.768C271.621 355.695 270.804 355.61 270.277 355.578C269.444 355.527 269.299 355.54 269.163 355.675C268.774 356.065 269.12 356.545 269.791 356.545C269.999 356.545 270.778 356.627 271.521 356.726C272.264 356.826 272.882 356.908 272.894 356.908C272.907 356.908 272.917 357.149 272.917 357.443V357.976L272.531 358.05C272.318 358.09 271.566 358.127 270.86 358.132C269.485 358.142 269.281 358.201 269.281 358.591C269.281 358.981 269.493 359.045 270.772 359.045C271.427 359.045 272.159 359.015 272.399 358.978L272.836 358.911L272.808 359.387L272.781 359.863L272.122 360.237C271.759 360.443 271.227 360.684 270.94 360.773C270.287 360.974 270.19 361.051 270.19 361.364C270.19 361.954 270.848 361.957 272.067 361.373C272.499 361.165 272.865 361.008 272.88 361.023C272.895 361.038 272.952 361.417 273.006 361.866C273.061 362.315 273.127 362.753 273.154 362.841C273.199 362.991 273.724 363 282.513 363H291.823L291.848 361.386L291.873 359.773L291.324 359.26C291.023 358.978 290.698 358.603 290.604 358.427C290.44 358.123 290.439 358.096 290.589 357.868C290.808 357.534 291.08 357.454 292.009 357.454C292.938 357.454 293.211 357.534 293.43 357.868C293.579 358.097 293.579 358.123 293.413 358.431C293.317 358.609 292.982 358.984 292.669 359.264L292.1 359.773V361.386L292.1 363H301.639H311.178L311.235 362.386C311.306 361.623 311.381 361.091 311.418 361.091C311.433 361.091 311.755 361.238 312.133 361.417C312.98 361.819 313.46 361.901 313.681 361.68C313.901 361.46 313.836 361.077 313.556 360.941C313.431 360.881 313.104 360.745 312.828 360.639C312.553 360.534 312.114 360.317 311.851 360.159L311.374 359.87V359.312V358.752L312.609 358.762C313.803 358.772 313.85 358.765 314.018 358.558C314.237 358.289 314.236 358.225 314.01 358C313.848 357.837 313.706 357.818 312.669 357.817C312.032 357.816 311.458 357.782 311.395 357.742C311.331 357.701 311.254 357.401 311.224 357.075L311.168 356.481L311.612 356.423C311.856 356.391 312.543 356.323 313.139 356.272C314.274 356.174 314.466 356.103 314.464 355.784C314.46 355.262 314.158 355.168 312.863 355.283C312.269 355.336 311.601 355.386 311.378 355.394L310.973 355.409L310.896 354.954C310.322 351.544 308.496 346.87 306.356 343.333C305.267 341.533 303.254 338.817 303.01 338.817C302.86 338.817 301.805 340.193 301.354 340.978C300.516 342.434 299.978 343.996 299.735 345.681C299.67 346.131 299.607 346.512 299.594 346.529C299.582 346.545 299.178 346.432 298.697 346.278C296.002 345.415 294.401 345.144 292.009 345.146C289.883 345.147 288.835 345.289 286.297 345.919C285.48 346.121 284.799 346.273 284.783 346.257C284.767 346.24 284.509 345.613 284.209 344.863C283.469 343.009 282.818 341.528 282.17 340.226C281.569 339.017 280.997 337.998 280.921 338C280.894 338.001 280.668 338.159 280.418 338.352ZM280.945 342.34C281.125 342.777 281.555 343.83 281.902 344.68L282.531 346.224L281.747 346.479C280.852 346.769 279.17 347.561 277.805 348.335C277.292 348.625 276.841 348.877 276.802 348.894C276.632 348.968 277.517 347.029 278.456 345.272C279.464 343.384 280.502 341.548 280.564 341.546C280.594 341.545 280.766 341.902 280.945 342.34ZM304.304 343.362C305.999 346.363 307.57 349.553 307.384 349.616C307.299 349.645 302.22 347.309 302.022 347.15C301.715 346.904 302.144 345.224 303.1 342.928C303.549 341.849 303.423 341.804 304.304 343.362ZM287.843 350.924C289.629 351.757 290.339 353.884 289.51 355.923C289.065 357.018 288.263 357.851 287.14 358.383C286.545 358.664 286.451 358.682 285.509 358.682C284.605 358.682 284.46 358.658 284.009 358.435C282.597 357.74 281.808 356.133 282.085 354.518C282.384 352.774 283.733 351.229 285.363 350.763C285.597 350.696 286.123 350.652 286.554 350.664C287.171 350.68 287.431 350.733 287.843 350.924ZM298.599 350.775C300.729 351.33 302.292 353.658 301.935 355.742C301.668 357.3 300.632 358.36 299.111 358.635C297.589 358.909 295.83 358.087 294.899 356.666C294.336 355.806 294.177 355.352 294.123 354.442C294.085 353.806 294.113 353.538 294.268 353.033C294.829 351.206 296.636 350.264 298.599 350.775ZM286.011 351.325C285.387 351.596 285.081 352.05 285.073 352.72C285.057 354.061 286.611 354.81 287.63 353.953C288.988 352.81 287.639 350.619 286.011 351.325ZM296.705 351.31C295.496 351.755 295.278 353.211 296.298 354.026C297.259 354.793 298.774 354.062 298.771 352.832C298.768 351.706 297.722 350.935 296.705 351.31ZM286.963 351.853C286.963 352.177 286.719 352.363 286.486 352.216C286.129 351.992 286.307 351.514 286.728 351.563C286.921 351.585 286.963 351.638 286.963 351.853ZM297.372 351.68C297.436 351.758 297.46 351.913 297.427 352.044C297.382 352.223 297.312 352.272 297.1 352.272C296.889 352.272 296.819 352.223 296.774 352.044C296.708 351.782 296.863 351.545 297.1 351.545C297.188 351.545 297.31 351.606 297.372 351.68Z" fill="#1D2833"/>
<path d="M404.664 257.686C404.664 257.686 405.346 257.591 406.634 257.875C407.884 258.159 409.854 258.936 411.407 261.038C412.184 262.061 412.771 263.444 412.96 265.035C413.169 266.645 412.695 268.349 412.506 270.168C411.975 273.842 411.388 278.085 410.706 282.858C407.96 301.95 403.982 329.49 399.115 363.318L399.058 363.64H398.717C345.512 363.678 275.583 363.716 199.233 363.754C197.434 363.754 195.654 363.754 193.873 363.754C193.04 363.791 191.884 363.735 191.032 363.204C190.142 362.712 189.46 361.897 189.119 360.95C188.361 359.037 189.271 356.708 191.051 355.761C191.903 355.249 193.04 355.192 193.873 355.23H196.525C203.571 355.23 210.541 355.23 217.416 355.23C231.186 355.23 244.577 355.23 257.495 355.249L257.021 355.666C261.946 323.05 266.53 292.612 270.64 265.3C270.791 263.576 271.568 261.701 272.951 260.546C274.314 259.334 276.019 258.709 277.724 258.443C279.466 258.178 281.114 258.33 282.762 258.273C284.41 258.254 286.039 258.254 287.667 258.235C294.164 258.197 300.434 258.14 306.476 258.102C318.579 258.027 329.754 257.951 339.925 257.894C360.21 257.799 376.405 257.705 387.542 257.648C393.072 257.629 397.353 257.629 400.27 257.629C401.69 257.629 402.789 257.648 403.566 257.648C404.285 257.667 404.664 257.686 404.664 257.686C404.664 257.686 404.285 257.724 403.547 257.743C402.789 257.762 401.69 257.78 400.251 257.818C397.334 257.856 393.054 257.932 387.523 258.008C376.386 258.14 360.21 258.311 339.925 258.538C329.773 258.633 318.579 258.746 306.476 258.86C300.434 258.917 294.145 258.974 287.667 259.031C286.039 259.049 284.41 259.068 282.762 259.068C281.114 259.125 279.428 258.993 277.837 259.239C276.246 259.485 274.674 260.091 273.481 261.171C272.25 262.232 271.606 263.728 271.454 265.432C267.382 292.745 262.836 323.183 257.968 355.817L257.912 356.234H257.495C244.577 356.234 231.167 356.234 217.416 356.253C210.541 356.253 203.571 356.253 196.525 356.253H193.873C192.945 356.234 192.244 356.272 191.543 356.651C190.18 357.371 189.498 359.151 190.066 360.609C190.331 361.329 190.862 361.954 191.525 362.333C192.225 362.731 192.926 362.769 193.873 362.75C195.654 362.75 197.453 362.75 199.233 362.75C275.583 362.788 345.512 362.844 398.717 362.863L398.338 363.185C403.357 329.376 407.429 301.855 410.271 282.763C410.99 278.009 411.615 273.766 412.165 270.092C412.392 268.255 412.865 266.569 412.676 265.035C412.525 263.501 411.956 262.156 411.218 261.152C409.74 259.087 407.827 258.292 406.596 257.97C405.346 257.686 404.664 257.743 404.664 257.686Z" fill="#263238"/>
<path d="M262.552 362.428C262.722 362.466 266.7 339.263 271.435 310.625C276.17 281.987 279.864 258.746 279.674 258.709C279.504 258.671 275.526 281.873 270.791 310.511C266.056 339.15 262.362 362.39 262.552 362.428Z" fill="#263238"/>
<g filter="url(#filter1_d)">
<path d="M27.994 97.2996L40.0695 86.903L44.4851 102.213L27.994 97.2996Z" stroke="#E7EFEF" stroke-width="0.896464"/>
<path d="M82.0571 148.29L87.0225 133.149L98.7149 143.975L82.0571 148.29Z" stroke="#1AA166" stroke-width="0.896464"/>
<path d="M24.1394 149.026L13.6053 162.942L7.09881 145.253L24.1394 149.026Z" fill="#61C06E"/>
<circle cx="66.8671" cy="110.342" r="2.24116" fill="#61C06E"/>
<circle cx="47.1454" cy="135.443" r="4.03409" fill="#E7EFEF"/>
<circle cx="14.4238" cy="117.066" r="2.68939" fill="#61C06E"/>
</g>
<defs>
<filter id="filter0_d" x="0" y="32.9014" width="450" height="336.564" filterUnits="userSpaceOnUse" color-interpolation-filters="sRGB">
<feFlood flood-opacity="0" result="BackgroundImageFix"/>
<feColorMatrix in="SourceAlpha" type="matrix" values="0 0 0 0 0 0 0 0 0 0 0 0 0 0 0 0 0 0 127 0"/>
<feMorphology radius="1" operator="dilate" in="SourceAlpha" result="effect1_dropShadow"/>
<feOffset dx="3" dy="3"/>
<feGaussianBlur stdDeviation="1.5"/>
<feColorMatrix type="matrix" values="0 0 0 0 0.0952604 0 0 0 0 0.129167 0 0 0 0 0.163073 0 0 0 0.83 0"/>
<feBlend mode="normal" in2="BackgroundImageFix" result="effect1_dropShadow"/>
<feBlend mode="normal" in="SourceGraphic" in2="effect1_dropShadow" result="shape"/>
</filter>
<filter id="filter1_d" x="6.09863" y="82.4165" width="100.522" height="87.5251" filterUnits="userSpaceOnUse" color-interpolation-filters="sRGB">
<feFlood flood-opacity="0" result="BackgroundImageFix"/>
<feColorMatrix in="SourceAlpha" type="matrix" values="0 0 0 0 0 0 0 0 0 0 0 0 0 0 0 0 0 0 127 0"/>
<feMorphology radius="1" operator="dilate" in="SourceAlpha" result="effect1_dropShadow"/>
<feOffset dx="3" dy="3"/>
<feGaussianBlur stdDeviation="1.5"/>
<feColorMatrix type="matrix" values="0 0 0 0 0.0952604 0 0 0 0 0.129167 0 0 0 0 0.163073 0 0 0 0.83 0"/>
<feBlend mode="normal" in2="BackgroundImageFix" result="effect1_dropShadow"/>
<feBlend mode="normal" in="SourceGraphic" in2="effect1_dropShadow" result="shape"/>
</filter>
</defs>
</svg>
