<svg width="546" height="337" viewBox="0 0 546 337" fill="none" xmlns="http://www.w3.org/2000/svg">
<g filter="url(#filter0_d)">
<rect x="1" y="1" width="539" height="330" rx="4" fill="#1D2833"/>
<rect x="42.5668" y="58.5668" width="455.866" height="214.866" rx="1.56683" stroke="#1EA54C" stroke-width="3.13366" stroke-linecap="square" stroke-linejoin="round" stroke-dasharray="1.57 15.67"/>
<path d="M301.118 145.913L281.855 126.65C281.318 126.113 280.593 125.809 279.832 125.809H241.808C240.223 125.809 238.943 127.089 238.943 128.673V203.146C238.943 204.731 240.223 206.011 241.808 206.011H299.095C300.679 206.011 301.959 204.731 301.959 203.146V147.945C301.959 147.184 301.655 146.45 301.118 145.913ZM295.353 149.261H278.507V132.415L295.353 149.261ZM295.514 199.566H245.388V132.254H272.421V151.588C272.421 152.585 272.817 153.541 273.522 154.246C274.227 154.951 275.183 155.347 276.18 155.347H295.514V199.566ZM273.316 162.329C273.316 161.935 272.993 161.613 272.6 161.613H268.303C267.909 161.613 267.587 161.935 267.587 162.329V171.997H257.92C257.526 171.997 257.204 172.319 257.204 172.713V177.009C257.204 177.403 257.526 177.725 257.92 177.725H267.587V187.392C267.587 187.786 267.909 188.109 268.303 188.109H272.6C272.993 188.109 273.316 187.786 273.316 187.392V177.725H282.983C283.377 177.725 283.699 177.403 283.699 177.009V172.713C283.699 172.319 283.377 171.997 282.983 171.997H273.316V162.329Z" fill="#1EA54C"/>
<path d="M202.567 250.375L206.426 241.979H207.914L211.772 250.375H209.915L209.129 248.553H205.211L204.437 250.375H202.567ZM207.152 243.944L205.83 247.112H208.521L207.176 243.944H207.152ZM212.974 250.375V241.979H216.261C217.69 241.979 218.797 242.345 219.583 243.075C220.369 243.797 220.762 244.829 220.762 246.171C220.762 247.513 220.369 248.549 219.583 249.279C218.797 250.009 217.69 250.375 216.261 250.375H212.974ZM214.82 248.862H216.154C217.94 248.862 218.833 247.965 218.833 246.171C218.833 244.385 217.94 243.492 216.154 243.492H214.82V248.862ZM222.672 250.375V241.979H225.959C227.388 241.979 228.495 242.345 229.281 243.075C230.067 243.797 230.46 244.829 230.46 246.171C230.46 247.513 230.067 248.549 229.281 249.279C228.495 250.009 227.388 250.375 225.959 250.375H222.672ZM224.518 248.862H225.851C227.638 248.862 228.531 247.965 228.531 246.171C228.531 244.385 227.638 243.492 225.851 243.492H224.518V248.862ZM235.196 250.375L239.054 241.979H240.543L244.401 250.375H242.543L241.757 248.553H237.84L237.066 250.375H235.196ZM239.781 243.944L238.459 247.112H241.15L239.804 243.944H239.781ZM249.393 250.375V241.979H250.763L254.954 247.326V241.979H256.669V250.375H255.311L251.108 245.016V250.375H249.393ZM258.835 250.375V241.979H264.587V243.42H260.598V245.385H264.325V246.838H260.598V248.934H264.587V250.375H258.835ZM268.867 250.375L265.878 241.979H267.772L269.701 247.719L271.737 241.979H273.071L275.048 247.814L277.048 241.979H278.834L275.822 250.375H274.321L272.356 244.802L270.368 250.375H268.867ZM284.127 250.375V241.979H287.961C288.898 241.979 289.62 242.218 290.128 242.694C290.636 243.162 290.89 243.817 290.89 244.659C290.89 245.5 290.636 246.159 290.128 246.635C289.62 247.112 288.898 247.35 287.961 247.35H285.972V250.375H284.127ZM285.972 245.921H287.651C288.628 245.921 289.116 245.5 289.116 244.659C289.116 243.833 288.628 243.42 287.651 243.42H285.972V245.921ZM292.511 250.375V241.979H296.345C297.282 241.979 298.004 242.206 298.512 242.658C299.02 243.111 299.274 243.742 299.274 244.552C299.274 245.179 299.111 245.703 298.786 246.123C298.468 246.536 298.012 246.818 297.417 246.969C297.837 247.096 298.183 247.402 298.453 247.886L299.81 250.375H297.774L296.321 247.695C296.202 247.481 296.055 247.334 295.88 247.255C295.706 247.167 295.499 247.124 295.261 247.124H294.356V250.375H292.511ZM294.356 245.79H296.011C297.004 245.79 297.5 245.393 297.5 244.599C297.5 243.813 297.004 243.42 296.011 243.42H294.356V245.79ZM305.114 250.505C304.288 250.505 303.562 250.327 302.935 249.97C302.316 249.604 301.831 249.1 301.482 248.457C301.141 247.806 300.97 247.044 300.97 246.171C300.97 245.298 301.141 244.54 301.482 243.897C301.831 243.246 302.316 242.742 302.935 242.384C303.554 242.027 304.28 241.848 305.114 241.848C305.947 241.848 306.674 242.027 307.293 242.384C307.92 242.742 308.404 243.246 308.746 243.897C309.095 244.54 309.27 245.294 309.27 246.159C309.27 247.032 309.095 247.794 308.746 248.445C308.404 249.096 307.92 249.604 307.293 249.97C306.674 250.327 305.947 250.505 305.114 250.505ZM305.114 248.934C305.813 248.934 306.356 248.692 306.745 248.207C307.142 247.715 307.341 247.036 307.341 246.171C307.341 245.298 307.146 244.623 306.757 244.147C306.368 243.662 305.82 243.42 305.114 243.42C304.423 243.42 303.879 243.662 303.483 244.147C303.094 244.623 302.899 245.298 302.899 246.171C302.899 247.036 303.094 247.715 303.483 248.207C303.879 248.692 304.423 248.934 305.114 248.934ZM309.933 250.494L309.802 248.993L310.719 248.946C311.354 248.906 311.672 248.572 311.672 247.945V241.979H313.518V247.921C313.518 249.493 312.684 250.335 311.017 250.446L309.933 250.494ZM315.685 250.375V241.979H321.437V243.42H317.448V245.385H321.175V246.838H317.448V248.934H321.437V250.375H315.685ZM327.444 250.505C326.539 250.505 325.765 250.327 325.122 249.97C324.479 249.612 323.983 249.112 323.633 248.469C323.292 247.818 323.121 247.052 323.121 246.171C323.121 245.298 323.292 244.54 323.633 243.897C323.983 243.246 324.479 242.742 325.122 242.384C325.765 242.027 326.539 241.848 327.444 241.848C328 241.848 328.532 241.936 329.04 242.11C329.548 242.285 329.965 242.523 330.29 242.825L329.718 244.29C329.361 244.012 329 243.809 328.635 243.682C328.278 243.547 327.9 243.48 327.504 243.48C326.702 243.48 326.094 243.714 325.682 244.182C325.277 244.643 325.074 245.306 325.074 246.171C325.074 247.036 325.277 247.703 325.682 248.172C326.094 248.64 326.702 248.874 327.504 248.874C327.9 248.874 328.278 248.811 328.635 248.684C329 248.549 329.361 248.342 329.718 248.064L330.29 249.529C329.965 249.823 329.548 250.061 329.04 250.244C328.532 250.418 328 250.505 327.444 250.505ZM333.861 250.375V243.504H331.086V241.979H338.481V243.504H335.706V250.375H333.861Z" fill="#1EA54C"/>
</g>
<defs>
<filter id="filter0_d" x="0.216586" y="0.216586" width="545.267" height="336.267" filterUnits="userSpaceOnUse" color-interpolation-filters="sRGB">
<feFlood flood-opacity="0" result="BackgroundImageFix"/>
<feColorMatrix in="SourceAlpha" type="matrix" values="0 0 0 0 0 0 0 0 0 0 0 0 0 0 0 0 0 0 127 0"/>
<feMorphology radius="0.783414" operator="dilate" in="SourceAlpha" result="effect1_dropShadow"/>
<feOffset dx="2.35024" dy="2.35024"/>
<feGaussianBlur stdDeviation="1.17512"/>
<feColorMatrix type="matrix" values="0 0 0 0 0.0952604 0 0 0 0 0.129167 0 0 0 0 0.163073 0 0 0 0.83 0"/>
<feBlend mode="normal" in2="BackgroundImageFix" result="effect1_dropShadow"/>
<feBlend mode="normal" in="SourceGraphic" in2="effect1_dropShadow" result="shape"/>
</filter>
</defs>
</svg>
