<svg width="13" height="13" viewBox="0 0 13 13" fill="none" xmlns="http://www.w3.org/2000/svg">
<path d="M10.8335 1.08325H5.41683C4.81937 1.08325 4.3335 1.56913 4.3335 2.16659V4.33325H2.16683C1.56937 4.33325 1.0835 4.81913 1.0835 5.41658V10.8333C1.0835 11.4307 1.56937 11.9166 2.16683 11.9166H7.5835C8.18095 11.9166 8.66683 11.4307 8.66683 10.8333V8.66658H10.8335C11.431 8.66658 11.9168 8.18071 11.9168 7.58325V2.16659C11.9168 1.56913 11.431 1.08325 10.8335 1.08325ZM2.16683 10.8333V5.41658H7.5835L7.58458 10.8333H2.16683ZM10.8335 7.58325H8.66683V5.41658C8.66683 4.81913 8.18095 4.33325 7.5835 4.33325H5.41683V2.16659H10.8335V7.58325Z" fill="#E7EFEF" fill-opacity="0.4"/>
</svg>
