<svg width="20" height="20" viewBox="0 0 20 20" fill="none" xmlns="http://www.w3.org/2000/svg">
<path d="M15.6139 9.16667C15.3929 9.16667 15.181 9.25446 15.0247 9.41074C14.8684 9.56702 14.7806 9.77899 14.7806 10V15C14.7806 15.221 14.6928 15.433 14.5365 15.5893C14.3802 15.7455 14.1683 15.8333 13.9473 15.8333H3.94727C3.72625 15.8333 3.51429 15.7455 3.35801 15.5893C3.20173 15.433 3.11393 15.221 3.11393 15V5C3.11393 4.77899 3.20173 4.56702 3.35801 4.41074C3.51429 4.25446 3.72625 4.16667 3.94727 4.16667H8.94727C9.16828 4.16667 9.38024 4.07887 9.53652 3.92259C9.6928 3.76631 9.7806 3.55435 9.7806 3.33333C9.7806 3.11232 9.6928 2.90036 9.53652 2.74408C9.38024 2.5878 9.16828 2.5 8.94727 2.5H3.94727C3.28422 2.5 2.64834 2.76339 2.1795 3.23223C1.71066 3.70107 1.44727 4.33696 1.44727 5V15C1.44727 15.663 1.71066 16.2989 2.1795 16.7678C2.64834 17.2366 3.28422 17.5 3.94727 17.5H13.9473C14.6103 17.5 15.2462 17.2366 15.715 16.7678C16.1839 16.2989 16.4473 15.663 16.4473 15V10C16.4473 9.77899 16.3595 9.56702 16.2032 9.41074C16.0469 9.25446 15.8349 9.16667 15.6139 9.16667Z" fill="#61C06E"/>
<path d="M12.2809 4.16667H13.5975L8.35587 9.4C8.27777 9.47747 8.21577 9.56964 8.17346 9.67119C8.13116 9.77274 8.10938 9.88166 8.10938 9.99167C8.10938 10.1017 8.13116 10.2106 8.17346 10.3121C8.21577 10.4137 8.27777 10.5059 8.35587 10.5833C8.43334 10.6614 8.52551 10.7234 8.62706 10.7657C8.72861 10.8081 8.83753 10.8298 8.94754 10.8298C9.05755 10.8298 9.16647 10.8081 9.26802 10.7657C9.36957 10.7234 9.46174 10.6614 9.53921 10.5833L14.7809 5.35V6.66667C14.7809 6.88768 14.8687 7.09964 15.025 7.25592C15.1812 7.4122 15.3932 7.5 15.6142 7.5C15.8352 7.5 16.0472 7.4122 16.2035 7.25592C16.3597 7.09964 16.4475 6.88768 16.4475 6.66667V3.33333C16.4475 3.11232 16.3597 2.90036 16.2035 2.74408C16.0472 2.5878 15.8352 2.5 15.6142 2.5H12.2809C12.0599 2.5 11.8479 2.5878 11.6916 2.74408C11.5353 2.90036 11.4475 3.11232 11.4475 3.33333C11.4475 3.55435 11.5353 3.76631 11.6916 3.92259C11.8479 4.07887 12.0599 4.16667 12.2809 4.16667Z" fill="#61C06E"/>
</svg>
