<svg width="94" height="31" viewBox="0 0 94 31" fill="none" xmlns="http://www.w3.org/2000/svg">
<g clip-path="url(#clip0)">
<path d="M23.1992 21.8338C21.8385 21.8338 20.5084 21.4303 19.377 20.6743C18.2456 19.9183 17.3638 18.8438 16.843 17.5867C16.3223 16.3296 16.1861 14.9462 16.4515 13.6117C16.717 12.2771 17.3722 11.0512 18.3344 10.0891C19.2966 9.12688 20.5225 8.47164 21.857 8.20617C23.1916 7.94071 24.5749 8.07696 25.8321 8.59768C27.0892 9.1184 28.1637 10.0002 28.9197 11.1316C29.6756 12.263 30.0791 13.5932 30.0791 14.9539C30.0791 16.7785 29.3543 18.5285 28.0641 19.8187C26.7738 21.1089 25.0239 21.8338 23.1992 21.8338ZM23.1992 8.93397C22.0086 8.93397 20.8447 9.28703 19.8548 9.9485C18.8648 10.61 18.0932 11.5502 17.6376 12.6502C17.1819 13.7502 17.0627 14.9606 17.295 16.1283C17.5273 17.2961 18.1006 18.3687 18.9425 19.2106C19.7844 20.0525 20.8571 20.6258 22.0248 20.8581C23.1926 21.0904 24.403 20.9712 25.503 20.5156C26.603 20.0599 27.5431 19.2883 28.2046 18.2984C28.8661 17.3084 29.2192 16.1445 29.2192 14.9539C29.2192 13.3573 28.5849 11.8261 27.456 10.6972C26.327 9.5682 24.7958 8.93397 23.1992 8.93397Z" fill="#1EA54C"/>
</g>
<rect x="1.19749" y="1.19749" width="91.5157" height="28.5646" rx="14.2823" stroke="#1EA54C" stroke-width="2.39498"/>
<path d="M23.1994 11.9448C23.7947 11.9448 24.3767 12.1214 24.8717 12.4521C25.3666 12.7828 25.7524 13.2529 25.9802 13.8029C26.2081 14.3529 26.2677 14.9581 26.1515 15.542C26.0354 16.1259 25.7487 16.6622 25.3278 17.0831C24.9068 17.5041 24.3705 17.7908 23.7866 17.9069C23.2027 18.023 22.5975 17.9634 22.0475 17.7356C21.4976 17.5078 21.0275 17.122 20.6967 16.627C20.366 16.132 20.1895 15.5501 20.1895 14.9548C20.1895 14.1565 20.5066 13.3909 21.071 12.8264C21.6355 12.2619 22.4011 11.9448 23.1994 11.9448Z" fill="#1EA54C"/>
<path d="M40.6647 20.3379C39.8226 20.3379 39.0837 20.1522 38.448 19.7807C37.8205 19.4092 37.3334 18.889 36.9867 18.2203C36.64 17.5433 36.4666 16.7508 36.4666 15.8426C36.4666 14.9262 36.64 14.1337 36.9867 13.4649C37.3334 12.7962 37.8205 12.2802 38.448 11.917C39.0754 11.5454 39.8143 11.3597 40.6647 11.3597C41.515 11.3597 42.254 11.5454 42.8814 11.917C43.5088 12.2802 43.9959 12.7962 44.3427 13.4649C44.6894 14.1337 44.8628 14.9221 44.8628 15.8302C44.8628 16.7466 44.6894 17.5433 44.3427 18.2203C43.9959 18.889 43.5088 19.4092 42.8814 19.7807C42.254 20.1522 41.515 20.3379 40.6647 20.3379ZM40.6647 18.9757C41.4655 18.9757 42.0888 18.6992 42.5347 18.146C42.9805 17.5929 43.2034 16.8251 43.2034 15.8426C43.2034 14.8519 42.9805 14.0841 42.5347 13.5392C42.0971 12.9943 41.4738 12.7219 40.6647 12.7219C39.8639 12.7219 39.2406 12.9943 38.7947 13.5392C38.3489 14.0841 38.126 14.8519 38.126 15.8426C38.126 16.8251 38.3489 17.5929 38.7947 18.146C39.2406 18.6992 39.8639 18.9757 40.6647 18.9757ZM46.8214 20.2141V14.1584H48.3322V15.0996C48.5386 14.7528 48.8152 14.4887 49.1619 14.307C49.5169 14.1254 49.9132 14.0346 50.3508 14.0346C51.779 14.0346 52.4932 14.8643 52.4932 16.5237V20.2141H50.9452V16.598C50.9452 16.1275 50.8544 15.7848 50.6728 15.5702C50.4994 15.3555 50.2269 15.2482 49.8554 15.2482C49.4013 15.2482 49.0381 15.3927 48.7656 15.6816C48.5015 15.9623 48.3694 16.338 48.3694 16.8086V20.2141H46.8214ZM56.666 20.3379C55.9478 20.3379 55.4153 20.1439 55.0685 19.7559C54.73 19.3596 54.5608 18.7817 54.5608 18.0222V11.4835H56.1088V17.9479C56.1088 18.6909 56.4225 19.0624 57.0499 19.0624C57.1408 19.0624 57.2316 19.0583 57.3224 19.05C57.4132 19.0418 57.4999 19.0253 57.5824 19.0005L57.5577 20.2265C57.2605 20.3008 56.9633 20.3379 56.666 20.3379ZM58.9117 12.8581V11.3473H60.6454V12.8581H58.9117ZM59.0107 20.2141V14.1584H60.5587V20.2141H59.0107ZM62.6625 20.2141V14.1584H64.1733V15.0996C64.3797 14.7528 64.6563 14.4887 65.0031 14.307C65.3581 14.1254 65.7543 14.0346 66.1919 14.0346C67.6202 14.0346 68.3343 14.8643 68.3343 16.5237V20.2141H66.7863V16.598C66.7863 16.1275 66.6955 15.7848 66.5139 15.5702C66.3405 15.3555 66.0681 15.2482 65.6966 15.2482C65.2425 15.2482 64.8792 15.3927 64.6068 15.6816C64.3426 15.9623 64.2105 16.338 64.2105 16.8086V20.2141H62.6625ZM73.3864 20.3379C72.7012 20.3379 72.1109 20.21 71.6155 19.9541C71.1202 19.6981 70.7363 19.3349 70.4638 18.8643C70.1997 18.3937 70.0676 17.8364 70.0676 17.1925C70.0676 16.565 70.1955 16.016 70.4515 15.5454C70.7156 15.0748 71.0748 14.7074 71.5288 14.4433C71.9912 14.1708 72.5154 14.0346 73.1016 14.0346C73.9602 14.0346 74.6372 14.307 75.1325 14.8519C75.6362 15.3968 75.888 16.1398 75.888 17.081V17.5392H71.5536C71.6692 18.6207 72.2884 19.1615 73.4112 19.1615C73.7497 19.1615 74.0882 19.112 74.4267 19.0129C74.7652 18.9056 75.0748 18.7404 75.3555 18.5175L75.7889 19.5578C75.4999 19.7972 75.1367 19.9871 74.6991 20.1274C74.2615 20.2678 73.824 20.3379 73.3864 20.3379ZM73.1635 15.0872C72.7094 15.0872 72.3421 15.2276 72.0614 15.5083C71.7807 15.789 71.6114 16.1687 71.5536 16.6476H74.6C74.567 16.144 74.4267 15.7601 74.179 15.4959C73.9396 15.2234 73.6011 15.0872 73.1635 15.0872Z" fill="#1EA54C"/>
<defs>
<clipPath id="clip0">
<rect width="15.4798" height="15.4798" fill="white" transform="translate(15.46 7.21411)"/>
</clipPath>
</defs>
</svg>
