<svg width="495" height="502" viewBox="0 0 495 502" fill="none" xmlns="http://www.w3.org/2000/svg">
<g filter="url(#filter0_d)">
<path d="M210.355 472.978C198.66 471.206 191.829 459.523 188.44 449.179C186.02 443.282 182.732 437.72 180.81 431.626C180.837 431.703 180.86 431.776 180.887 431.853C179.038 426.072 175.587 420.992 172.99 415.55C170.643 409.228 168.802 402.713 166.899 396.244C165.664 392.3 164.888 388.232 163.646 384.287C163.117 382.516 161.812 379.848 163.897 378.625C169.497 374.159 175.595 370.454 181.886 367.05C183.747 366.359 188.22 362.403 188.371 366.452C192.412 373.009 194.978 380.454 197.672 387.664C200.864 396.163 204.616 404.473 207.078 413.227C207.051 413.146 207.024 413.065 206.997 412.984C207.322 413.976 207.642 414.967 207.997 415.948C207.136 405.546 206.291 395.156 206.063 384.716C206.063 384.731 206.063 384.743 206.067 384.758C206.059 384.634 206.052 384.507 206.048 384.384C206.048 384.399 206.052 384.418 206.052 384.434C206.048 384.38 206.044 384.326 206.04 384.268C206.04 384.272 206.04 384.276 206.04 384.279C205.72 379.914 205.805 375.53 205.523 371.164C205.527 371.249 205.531 371.338 205.538 371.423C205.257 367.042 205.473 362.646 205.206 358.265C205.21 358.319 205.214 358.377 205.214 358.431C205.206 358.304 205.199 358.177 205.195 358.049C205.195 358.053 205.195 358.057 205.195 358.057C205.191 357.953 205.183 357.848 205.179 357.744C205.179 357.764 205.183 357.787 205.183 357.81C205.507 339.465 194.469 334.926 218.796 330.642C226.415 329.229 233.857 326.998 241.449 325.458C244.004 325.416 251.183 321.668 250.137 326.732C251.129 329.943 251.341 333.355 252.113 336.62C252.472 338.597 254.062 341.677 251.858 343.024C253.699 349.62 254.946 356.366 256.914 362.928C260.295 358.512 261.411 361.222 262.924 365.039C266.567 373.592 268.13 382.832 270.975 391.655C274.877 401.825 278.964 412.023 284.048 421.664C284.333 421.448 284.688 421.317 285.047 421.317C290.092 403.226 290.721 384.295 294.689 365.965C295.41 364.63 295.735 350.677 298.201 354.672C299.918 354.896 301.312 356.112 302.528 357.262C303.056 345.66 300.609 334.285 297.082 323.285C295.8 320.611 291.933 316.014 297.583 315.936C303.62 315.145 309.664 314.366 315.743 313.987C318.368 314.269 334.763 308.908 333.914 312.895C342.062 314.782 339.877 335.787 341.325 342.807C343.212 361.214 345.536 379.571 347.639 397.954C348.855 389.941 349.009 381.84 349.994 373.808C351.599 365.714 352.904 357.605 353.765 349.404C355.339 333.031 355.463 340.735 367.675 342.495C380.879 346.007 381.735 339.511 380.103 351.754C380.103 351.754 380.103 351.754 380.103 351.75C380.095 351.82 380.091 351.893 380.087 351.962C380.087 351.943 380.091 351.924 380.091 351.905C379.219 366.556 376.405 380.995 375.46 395.642C375.46 395.627 375.463 395.607 375.463 395.592C375.456 395.688 375.448 395.781 375.444 395.878C375.444 395.862 375.444 395.851 375.444 395.835C375.44 395.909 375.433 395.982 375.429 396.051C375.429 396.04 375.429 396.028 375.429 396.017C375.425 396.047 375.425 396.078 375.421 396.109C375.421 396.105 375.421 396.101 375.421 396.098C375.413 396.221 375.402 396.349 375.394 396.472C375.394 396.453 375.398 396.437 375.398 396.422C374.56 405.11 374.537 413.922 372.53 422.447C372.549 422.355 372.569 422.262 372.584 422.173C371.399 427.581 370.639 433.062 369.35 438.45C369.35 438.446 369.35 438.446 369.35 438.442C368.192 444.216 367.478 450.939 361.935 454.266C349.581 461.619 336.57 452.657 333.841 439.662C333.86 439.727 333.883 439.793 333.903 439.858C331.637 433.193 330.178 426.296 328.059 419.587C327.997 430.159 327.565 440.719 327.357 451.287C329.418 454.687 324.339 457.107 321.471 456.837C314.238 457.524 307.036 458.501 299.783 458.952C281.323 460.866 262.8 463.321 244.208 463.283C244.127 463.456 243.857 463.429 243.811 463.248C243.398 463.194 242.969 463.182 242.583 463.009C241.244 463.611 240.383 462.129 240.476 460.955C240.213 456.328 239.793 451.711 239.546 447.08C239.546 447.091 239.546 447.103 239.55 447.115C239.222 441.599 238.704 436.103 238.419 430.591C237.373 450.924 235.428 471.496 210.355 472.978ZM171.535 401.104L171.57 401.212C171.442 400.818 171.319 400.42 171.195 400.023C171.311 400.382 171.419 400.745 171.535 401.104ZM208.792 370.879L208.8 370.975C208.765 370.354 208.738 369.736 208.715 369.126C208.738 369.713 208.757 370.296 208.792 370.879Z" fill="#1EA54C"/>
<path d="M247.947 326.932C247.229 325.473 248.198 323.648 248.229 322.081C248.229 322.092 248.225 322.104 248.225 322.116C248.727 318.159 248.931 314.176 249.043 310.193C249.043 310.205 249.043 310.216 249.043 310.228C249.043 310.178 249.043 310.124 249.047 310.073C249.047 310.093 249.047 310.116 249.043 310.135C249.051 309.799 249.047 309.467 249.043 309.132C234.388 327.646 215.148 307.862 239.572 298.371C232.153 291.647 226.445 283.006 226.059 272.708C225.306 255.602 233.195 236.798 248.8 228.53C261.348 221.444 290.793 223.513 297.659 237.662C300.423 243.471 301.415 250.183 302.179 256.567C303.746 270.261 303.433 284.075 302.056 297.765C302.121 300.81 291.727 301.37 289.207 301.848C290.222 305.365 291.345 308.854 292.661 312.27C292.904 314.018 295.348 317.052 293.896 318.422C291.893 320.255 287.559 303.385 286.856 301.455C286.559 300.227 287.566 299.263 288.775 299.425C292.233 299.158 295.625 298.467 298.972 297.591C298.918 297.603 298.868 297.614 298.817 297.626C299.261 297.518 299.701 297.402 300.137 297.267C301.712 278.235 301.863 258.636 296.641 240.121C296.644 240.133 296.648 240.144 296.648 240.156C296.644 240.129 296.633 240.098 296.629 240.071C296.629 240.075 296.629 240.075 296.629 240.079C296.563 239.824 296.498 239.573 296.413 239.322C284.324 240.515 271.329 243.506 259.545 239.53C258.785 249.531 251.417 257.466 245.562 265.074C245.589 265.035 245.62 264.996 245.651 264.958C244.477 266.455 243.404 268.03 242.466 269.686C242.466 269.686 242.466 269.682 242.47 269.682C241.988 270.512 241.521 271.353 241.227 272.272C243.508 275.668 245.635 279.246 247.569 282.836C246.7 287.942 238.514 295.704 249.823 293.774C252.281 294.006 251.151 299.579 251.791 301.493C252.664 302.516 251.614 306.248 251.892 307.985C251.892 307.924 251.896 307.862 251.896 307.8C251.899 309.958 251.784 312.111 251.398 314.238C251.405 314.176 251.417 314.118 251.425 314.06C250.846 315.712 250.668 329.159 247.947 326.932ZM241.046 236.983C241.266 236.771 241.494 236.555 241.729 236.342C241.501 236.555 241.266 236.759 241.046 236.983Z" fill="#E7EFEF"/>
<path d="M285.93 292.651C284.432 292.299 282.193 290.74 282.757 288.996C282.788 287.432 285.065 287.309 286.161 286.691C286.126 286.707 286.088 286.718 286.053 286.734C287.724 286.109 289.322 285.313 290.974 284.65C290.939 284.665 290.905 284.677 290.866 284.692C293.444 283.079 293.807 284.955 293.861 287.228C294.193 291.242 289.48 294.013 285.93 292.651ZM289.064 291.134C291.167 290.702 292.753 288.83 292.198 286.637C292.202 286.68 292.205 286.718 292.213 286.761C292.186 286.514 292.151 286.267 292.109 286.02C291.692 286.205 291.264 286.367 290.835 286.533C290.839 286.533 290.839 286.529 290.843 286.529C290.808 286.545 290.773 286.556 290.735 286.572C290.754 286.564 290.773 286.556 290.789 286.552C288.902 287.378 287.018 288.228 285.084 288.949C285.791 290.412 287.481 291.196 289.064 291.134Z" fill="#E7EFEF"/>
<path d="M284.807 280.339C283.159 280.35 278.481 280.03 280.786 277.54C283.275 277.201 286.513 279.32 288.833 277.266C288.733 277.185 288.628 277.112 288.524 277.039C288.532 277.046 288.543 277.05 288.551 277.058C288.516 277.035 288.486 277.015 288.455 276.992C288.474 277.008 288.497 277.019 288.516 277.035C284.634 275.016 280.921 272.538 278.705 268.636C278.018 267.304 276.405 265.556 277.235 264.031C278.389 263.233 278.771 265.668 279.535 266.231C282.198 270.419 286.201 273.152 290.11 275.996C292.033 278.86 287.085 280.709 284.807 280.339Z" fill="#E7EFEF"/>
<path d="M251.989 272.379C250.804 270.947 252.641 268.628 253.452 267.292C256.532 262.788 263.367 258.041 268.651 261.453C268.651 261.449 268.647 261.449 268.647 261.445C268.663 261.468 268.686 261.491 268.701 261.518C268.697 261.514 268.693 261.511 268.693 261.507C268.906 261.812 268.852 262.259 268.597 262.522C268.601 262.522 268.601 262.518 268.605 262.518C267.678 263.278 266.262 262.572 265.15 262.819C261.665 263.108 258.404 264.757 255.968 267.246C255.995 267.219 256.018 267.192 256.045 267.169C256.011 267.204 255.976 267.242 255.937 267.277C255.945 267.269 255.949 267.265 255.957 267.258C254.884 268.342 253.826 269.5 253.174 270.897C252.904 271.441 252.842 272.568 251.989 272.379Z" fill="#E7EFEF"/>
<path d="M259.291 279.361C254.551 278.84 258.179 273.518 260.217 271.719C263.12 269.164 267.045 268.299 270.804 268.535C272.128 269.477 271.487 271.7 271.125 273.031C269.376 277.721 264.035 279.932 259.291 279.361ZM261.171 277.219C265.131 277.184 270.029 274.548 269.905 270.106C267.578 269.971 265.208 270.357 263.182 271.553C263.201 271.542 263.224 271.53 263.247 271.518C261.055 272.615 259.272 274.444 258.295 276.698C259.241 276.98 260.159 277.389 261.171 277.219Z" fill="#E7EFEF"/>
<path d="M284.881 265.718C281.855 265.425 282.461 263.912 283.048 261.615C285.163 256.023 292.392 253.649 297.603 256.196C298.548 262.673 290.586 266.822 284.881 265.718ZM285.9 263.321C287.058 263.399 288.22 263.321 289.374 263.244C289.366 263.244 289.355 263.244 289.347 263.244C292.504 262.769 295.87 260.62 296.46 257.285C294.23 256.42 291.686 256.555 289.482 257.462C289.517 257.447 289.552 257.435 289.586 257.42C287.124 258.408 285.067 260.527 284.191 263.032C284.708 263.341 285.325 263.279 285.9 263.321Z" fill="#E7EFEF"/>
<path d="M277.077 258.381C273.689 255.502 283.917 247.79 286.842 247.385C287.996 246.64 298.742 244.853 296.499 247.871C289.679 248.253 282.076 250.878 278.783 257.335C278.563 258.037 277.826 258.647 277.077 258.381Z" fill="#E7EFEF"/>
<path d="M255.652 277.814C255.675 277.818 255.699 277.818 255.726 277.822C254.498 277.717 253.236 277.802 252.032 277.532C251.465 276.556 253.313 277.189 253.8 277.007C253.796 277.007 253.792 277.007 253.788 277.007C253.803 277.007 253.819 277.003 253.834 277.003C253.827 277.003 253.815 277.003 253.807 277.003C255.015 276.938 256.173 276.583 257.323 276.258C257.729 276.197 258.041 276.54 258.061 276.926C258.049 278.169 256.482 277.841 255.652 277.814Z" fill="#E7EFEF"/>
<path d="M255.562 275.916C254.782 275.862 253.999 275.796 253.223 275.712C253.227 275.712 253.227 275.712 253.231 275.712C253.223 275.708 253.211 275.712 253.204 275.708C253.207 275.708 253.211 275.708 253.215 275.708C252.694 275.669 252.814 274.816 253.3 274.828C253.281 274.828 253.261 274.832 253.246 274.832C254.883 274.812 256.507 274.635 258.132 274.442C258.468 274.422 258.7 274.758 258.715 275.059C258.568 276.468 256.531 275.808 255.562 275.916Z" fill="#E7EFEF"/>
<path d="M257.362 273.445C256.578 273.371 255.798 273.259 255.046 273.016C255.057 273.02 255.069 273.024 255.08 273.024C255.003 273.005 254.926 272.985 254.845 272.978H254.849C254.594 272.951 254.652 272.549 254.888 272.522C254.884 272.522 254.884 272.522 254.88 272.522C255.81 272.526 256.74 272.576 257.67 272.472C257.651 272.472 257.628 272.476 257.609 272.48C258.458 272.538 259.311 272.051 260.117 272.19C261.426 273.908 258.338 273.622 257.362 273.445Z" fill="#E7EFEF"/>
<path d="M291.671 256.262C290.2 255.791 291.929 253.495 291.794 252.376C291.794 252.379 291.794 252.387 291.79 252.391C291.744 251.87 291.879 250.492 292.632 251.268C292.72 252.291 292.909 256.108 291.671 256.262Z" fill="#E7EFEF"/>
<path d="M294.117 256.42C292.589 255.949 294.352 253.626 294.024 252.445C294.024 252.453 294.024 252.464 294.024 252.472C294.024 252.449 294.024 252.426 294.024 252.402C294.024 252.414 294.024 252.426 294.024 252.441C294.36 248.138 296.167 256.494 294.117 256.42Z" fill="#E7EFEF"/>
<path d="M296.355 256.86C295.143 256.142 296.899 254.158 296.513 252.877C296.513 252.892 296.513 252.908 296.513 252.923C296.513 252.892 296.513 252.861 296.513 252.831C296.513 252.842 296.513 252.858 296.513 252.869C296.525 252.514 296.486 252.163 296.475 251.808C296.475 251.128 297.532 250.966 297.559 251.723C297.586 253.189 298.428 256.682 296.355 256.86Z" fill="#E7EFEF"/>
<path d="M290.408 263.055C287.494 262.565 287.482 257.798 290.439 257.381C294.541 256.748 294.576 263.785 290.408 263.055Z" fill="#E7EFEF"/>
<path d="M264.83 275.417C261.989 274.386 263.355 269.673 266.304 270.553C269.488 271.549 268.079 276.895 264.83 275.417Z" fill="#E7EFEF"/>
<path d="M265.32 287.989C265.062 287.425 265.212 281.505 266.359 283.284C266.362 283.349 266.359 283.415 266.359 283.481C266.359 283.461 266.359 283.438 266.359 283.415C266.339 284.542 266.258 285.677 266.363 286.804C266.359 286.785 266.359 286.761 266.355 286.738C266.366 286.839 266.378 286.939 266.39 287.039C266.386 287.008 266.382 286.978 266.382 286.951C266.772 287.753 266 289.081 265.32 287.989Z" fill="#E7EFEF"/>
<path d="M268.161 285.352C268.123 282.052 269.138 278.15 269.446 284.333C269.446 284.325 269.443 284.313 269.443 284.306C269.446 284.337 269.45 284.371 269.454 284.402C269.454 284.387 269.45 284.371 269.45 284.356C269.952 285.433 268.621 286.915 268.161 285.352Z" fill="#E7EFEF"/>
<path d="M271.889 283.627C271.437 282.867 271.869 281.867 271.842 281.022C272.012 280.281 271.703 279.35 272.116 278.717C272.132 278.702 272.151 278.687 272.17 278.675C273.259 278.316 272.807 280.246 272.992 280.867C273.073 281.79 273.61 284.553 271.889 283.627Z" fill="#E7EFEF"/>
<path d="M292.052 272.956C292.341 271.856 291.623 268.583 292.885 268.382C294.055 268.71 293.102 270.497 293.325 271.408C293.325 271.377 293.325 271.346 293.329 271.312C293.233 272.037 293.669 273.303 292.716 273.558C292.364 273.612 292.059 273.307 292.052 272.956Z" fill="#E7EFEF"/>
<path d="M294.855 270.759C295.009 269.52 295.322 268.3 295.545 267.073C296.777 265.552 296.124 269.049 296.194 269.639C296.194 269.609 296.194 269.578 296.198 269.547C296.167 270.23 296.514 271.334 295.58 271.531C295.144 271.604 294.824 271.179 294.855 270.759Z" fill="#E7EFEF"/>
<path d="M297.749 269.446C297.923 268.053 298.131 266.656 298.116 265.243C298.116 265.266 298.116 265.289 298.116 265.312C297.961 264.741 298.807 264.27 298.984 264.961C299.003 266.382 299.111 267.798 299.366 269.199C299.49 270.264 297.803 270.654 297.749 269.446Z" fill="#E7EFEF"/>
<path d="M277.516 341.171C269.395 338.203 262.386 333.042 254.771 329.055C253.251 327.894 246.319 327.006 248.121 324.435C253.285 323.247 262.768 330.476 267.377 333.216C270.646 335.431 274.317 336.914 277.775 338.786C279.099 339.144 278.983 341.287 277.516 341.171Z" fill="#E7EFEF"/>
<path d="M278.269 341.552C274.807 341.236 284.34 330.359 285.089 328.495C287.447 324.991 290.199 321.679 292.175 317.947C292.38 317.484 292.947 317.19 293.426 317.368C297.328 316.611 288.598 326.369 288.293 327.855C285.645 331.622 283.144 335.493 280.55 339.295C279.882 340.078 279.369 341.363 278.269 341.552Z" fill="#E7EFEF"/>
<path d="M256.042 366.416C252.915 354.806 251.41 342.286 249.144 330.321C249.148 330.336 249.152 330.348 249.156 330.363C248.897 329.313 248.619 328.271 248.403 327.214C248.172 327.051 248.291 326.766 248.33 326.542C250.989 323.03 254.027 349.796 255.065 352.155C255.057 352.128 255.054 352.105 255.046 352.077C255.104 352.305 255.158 352.533 255.212 352.761C255.208 352.749 255.204 352.737 255.2 352.722C255.212 352.772 255.227 352.822 255.239 352.873C255.235 352.861 255.235 352.853 255.231 352.842C256.026 355.953 256.582 359.118 257.068 362.29C257.068 362.279 257.064 362.263 257.064 362.252C257.103 362.595 257.138 362.935 257.169 363.278C261.738 357.292 266.656 351.591 272.017 346.292C272.013 346.296 272.009 346.3 272.005 346.303C272.024 346.284 272.044 346.265 272.063 346.246C272.059 346.249 272.055 346.253 272.051 346.257C272.086 346.222 272.121 346.188 272.16 346.149C272.129 346.18 272.094 346.215 272.063 346.246C272.113 346.195 272.16 346.149 272.21 346.099C272.206 346.103 272.202 346.107 272.198 346.11C273.734 345.037 277.926 338.414 279.516 339.564C279.91 339.993 279.798 340.719 279.373 341.081C273.808 346.797 268.319 352.645 263.074 358.674C263.101 358.635 263.132 358.596 263.159 358.562C263.062 358.689 262.966 358.816 262.865 358.94C262.892 358.901 262.923 358.863 262.95 358.828C261.646 360.017 257.327 367.126 256.042 366.416Z" fill="#E7EFEF"/>
<path d="M302.461 358.508C302.477 358.519 302.492 358.527 302.508 358.539C301.743 358.068 301.014 357.551 300.273 357.045C300.288 357.057 300.304 357.064 300.319 357.076C300.28 357.053 300.246 357.026 300.207 357.003C300.215 357.007 300.223 357.014 300.23 357.018C300.103 356.933 299.976 356.848 299.848 356.763C299.852 356.767 299.86 356.771 299.864 356.775C295.522 353.645 291.303 350.345 286.899 347.296C286.914 347.307 286.934 347.319 286.949 347.33C286.911 347.303 286.872 347.28 286.833 347.253C286.853 347.265 286.872 347.28 286.891 347.292C284.147 345.092 279.986 343.594 278.578 340.232C278.5 339.53 279.458 338.916 279.917 339.572C279.917 339.572 279.917 339.572 279.917 339.569C280.67 340.275 281.384 341.031 282.287 341.587L282.283 341.583C282.349 341.626 282.414 341.672 282.48 341.715C282.445 341.691 282.406 341.668 282.368 341.641C282.866 341.973 283.371 342.301 283.869 342.637C283.862 342.633 283.858 342.629 283.85 342.625C290.245 346.751 296.243 351.429 302.307 356.011C301.809 346.385 301.512 336.415 297.417 327.519C297.42 327.53 297.424 327.538 297.428 327.55C297.417 327.523 297.405 327.496 297.397 327.469C297.401 327.48 297.405 327.492 297.413 327.503C297.397 327.461 297.378 327.418 297.363 327.376C297.366 327.384 297.37 327.391 297.374 327.403C297.347 327.33 297.316 327.256 297.285 327.179C297.289 327.195 297.297 327.206 297.301 327.222C296.17 324.238 294.889 321.235 292.943 318.699C292.357 317.866 293.005 316.488 294.043 316.492C295.112 316.53 295.193 317.862 295.734 318.553C295.707 318.506 295.68 318.46 295.657 318.414C298.555 323.323 300.435 328.823 302.052 334.269C302.04 334.219 302.029 334.169 302.017 334.119C302.504 336.245 306.394 360.77 302.461 358.508Z" fill="#E7EFEF"/>
<path d="M166.871 377.606C164.154 369.574 162.981 360.75 159.198 353.027C158.434 349.735 155.196 348.033 154.177 344.999C154.428 341.182 158.639 343.648 160.314 345.065C159.978 344.366 159.657 343.66 159.283 342.981C159.291 342.996 159.302 343.015 159.31 343.031C158.646 341.935 157.924 340.869 157.288 339.754C157.303 339.781 157.322 339.812 157.338 339.839C156.493 338.6 155.91 336.191 157.882 335.736C160.016 335.45 161.302 337.805 162.599 339.136C159.275 330.757 163.015 328.754 167.215 336.882C167.647 338.642 170.457 340.584 169.06 342.313C166.686 344.162 165.308 334.474 162.707 333.316C163.405 336.817 164.764 340.179 165.667 343.617C165.594 345.42 163.672 345.273 163.073 343.81C161.441 341.657 160.68 338.21 158.094 337.048C158.121 337.044 158.152 337.044 158.183 337.041C158.06 337.041 157.94 337.06 157.832 337.114C157.859 337.099 157.882 337.083 157.909 337.068C157.87 337.095 157.816 337.102 157.805 337.153C157.805 337.149 157.809 337.145 157.809 337.141C157.743 339.067 166.146 348.554 161.946 348.959C160.209 347.909 157.759 343.374 155.597 344.467C155.67 344.54 155.744 344.613 155.821 344.683C155.813 344.675 155.806 344.671 155.802 344.663C161.854 349.364 163.826 357.269 165.632 364.398C165.617 364.34 165.605 364.286 165.59 364.228C165.86 365.922 169.75 378.258 166.871 377.606Z" fill="#E7EFEF"/>
<path d="M183.561 366.865C179.246 358.188 175.564 349.211 172.534 339.99C172.554 340.04 172.577 340.094 172.596 340.144C171.612 337.921 171.126 335.443 169.995 333.309C169.891 334.065 169.894 334.833 169.879 335.598C169.879 335.586 169.879 335.575 169.879 335.563C169.636 336.594 170.871 344.058 168.493 341.638C168.856 338.778 166.081 331.819 169.879 330.862C172.449 330.499 176.475 344.502 178.05 347.273C178.027 347.211 178.004 347.154 177.977 347.092C180.389 352.893 182.894 358.655 185.565 364.337C186.908 365.742 185.121 368.632 183.561 366.865Z" fill="#E7EFEF"/>
<path d="M375.351 346.296C372.892 345.798 374.772 342.394 374.718 340.715C375.324 334.277 376.443 327.908 377.655 321.559C377.651 321.59 377.648 321.617 377.644 321.648C377.651 321.578 377.663 321.513 377.675 321.443C377.671 321.466 377.667 321.494 377.663 321.517C377.4 319.355 382.028 312.396 378.454 312.238C376.891 312.859 376.64 314.758 375.432 315.623C372.545 315.604 376.304 310.679 375.339 308.965C373.537 309.559 372.738 311.509 371.576 312.84C368.045 314.083 370.978 307.888 370.496 306.294C370.503 306.321 370.507 306.344 370.515 306.371C370.499 306.325 370.488 306.275 370.465 306.229C368.485 305.816 367.323 308.888 367.161 310.493C367.161 310.493 367.161 310.49 367.157 310.49C363.22 315.191 367.23 296.537 365.949 295.066C361.873 299.802 363.212 307.317 362.112 313.195C361.194 322.57 360.433 331.988 359.538 341.363C356.365 348.114 358.152 325.426 358.233 324.188C359.303 315.31 359.179 306.144 361.553 297.486C362.325 295.279 364.494 291.11 367.25 293.233C369.11 297.147 367.18 302.01 367.4 306.24C370.11 302.415 373.356 304.58 372.325 308.83C375.123 305.476 378.169 306.734 377.173 311.119C381.677 307.745 382.68 314.909 381.067 317.869C381.086 317.808 381.102 317.746 381.121 317.68C379.427 324.593 378.261 331.695 377.458 338.777C376.845 340.622 377.655 346.357 375.351 346.296Z" fill="#E7EFEF"/>
<path d="M309.91 257.339C306.734 256.432 313.041 253.028 313.824 251.963C315.437 250.979 319.502 245.672 321.188 247.798C321.547 249.195 319.691 249.477 318.907 250.226C315.947 252.615 313.207 255.456 309.903 257.347C309.907 257.347 309.907 257.343 309.91 257.339Z" fill="#E7EFEF"/>
<path d="M314.979 263.53C313.335 261.7 324.686 258.157 326.237 257.227C326.206 257.239 326.176 257.25 326.149 257.262C327.005 257.069 327.754 256.2 328.642 256.374C329.537 256.706 329.406 258.103 328.592 258.458C324.088 260.168 319.529 262.133 314.979 263.53Z" fill="#E7EFEF"/>
<path d="M307.409 244.984C305.171 244.741 315.221 231.946 316.059 233.915C317.556 235.308 309.111 240.986 308.401 243.614C308.417 243.591 308.428 243.568 308.444 243.545C308.062 243.973 308.011 244.857 307.409 244.984Z" fill="#E7EFEF"/>
<path d="M384.274 364.227C382.062 363.787 383.664 360.777 383.379 359.245C383.784 357.423 382.375 351.143 384.756 351.004C385.934 352.486 385.27 355.416 385.687 357.326C385.509 359.403 386.937 363.494 384.274 364.227Z" fill="#E7EFEF"/>
<path d="M388.776 371.932C386.603 371.638 387.826 368.902 387.819 367.474C388.344 364.706 387.518 361.484 388.703 358.94C391.265 357.539 390.196 363.155 390.555 364.471C390.266 366.632 391.543 371.287 388.776 371.932Z" fill="#E7EFEF"/>
<path d="M394.634 379.489C393.206 379.107 393.993 377.533 394.356 376.614C395.166 374.082 395.641 371.434 396.101 368.829C397.482 367.826 396.517 372.681 396.568 373.38C396.035 375.113 397.008 379.246 394.634 379.489Z" fill="#E7EFEF"/>
<path d="M27.0905 277.227C25.6239 276.826 27.4572 274.56 27.4842 273.545C29.6225 265.772 38.187 264.992 44.8913 263.676C61.8737 260.924 79.0222 259.666 96.2247 259.319C96.1668 259.322 96.1089 259.326 96.051 259.33C118.657 257.914 141.244 256.455 163.911 256.706C188.482 255.737 213.091 255.085 237.681 255.007C238.534 255.03 239.078 255.791 239.02 256.609C238.426 259.735 233.551 257.809 231.278 258.273C195.958 259.048 160.627 259.322 125.323 260.457C125.381 260.453 125.438 260.449 125.496 260.446C116.623 261.117 107.742 261.661 98.8531 262.051C98.8647 262.051 98.8724 262.051 98.884 262.051C82.0829 262.8 65.2432 263.275 48.6043 265.938C42.7569 267.065 35.4428 266.629 30.9309 270.982C29.279 272.681 29.0049 276.112 27.0905 277.227Z" fill="#E7EFEF"/>
<path d="M84.8425 443.791C77.0151 423.207 69.9867 401.751 62.9313 380.701C55.432 361.175 47.9635 341.63 39.5186 322.49C39.5533 322.567 39.5842 322.644 39.6189 322.725C35.2961 312.296 30.8768 301.763 27.9667 290.848C25.3691 283.26 24.6975 277.779 30.0161 271.091C31.4442 270.322 31.0042 272.499 30.6375 273.217C28.5263 278.32 29.0821 283.557 30.9695 288.609C32.494 295.098 35.1263 301.238 37.4961 307.448C43.4786 323.478 51.0281 338.874 56.7867 355.011C65.0888 375.193 71.2064 396.136 78.6285 416.623C80.5545 422.57 82.4997 428.503 84.6804 434.369C85.2246 436.994 89.4278 444.208 84.8425 443.791Z" fill="#E7EFEF"/>
<path d="M90.7784 445.096C88.4085 445.092 85.591 445.015 84.3868 442.603C83.7229 440.453 86.1622 440.079 87.4629 441.356C88.9836 441.897 90.6587 441.711 92.245 441.754C122.42 440.191 152.49 436.501 182.681 435.378C185.749 436.323 183.221 439.67 180.693 438.851C150.723 440.866 120.779 443.761 90.7784 445.096Z" fill="#E7EFEF"/>
<path d="M203.882 494.947C175.189 487.818 147.959 476.1 119.737 467.443C119.799 467.463 119.861 467.482 119.922 467.501C111.578 464.711 103.036 462.565 94.6726 459.836C90.0874 458.365 84.68 458.346 85.3786 452.047C85.4905 449.191 84.1744 445.806 85.6256 443.224C86.2123 442.425 87.6712 442.514 87.8796 443.575C88.4779 446.937 88.7481 450.345 89.1958 453.73C96.7723 456.887 105.055 458.381 112.863 460.982C112.848 460.978 112.828 460.971 112.813 460.967C112.94 461.005 113.068 461.044 113.191 461.083C113.168 461.075 113.145 461.067 113.126 461.063C113.272 461.11 113.415 461.152 113.562 461.198C113.527 461.187 113.492 461.175 113.458 461.164C136.708 468.103 159.11 477.467 182.171 484.947C182.098 484.924 182.024 484.9 181.951 484.877C189.655 487.07 197.243 489.764 205.07 491.466C207.297 492.06 205.885 495.461 203.882 494.947Z" fill="#E7EFEF"/>
<path d="M206.469 494.395C205.519 494.291 204.481 494.298 203.69 493.708C202.929 493.005 203.501 491.681 204.462 491.5C206.322 491.446 208.202 491.454 210.066 491.265C221.699 490.257 233.262 488.791 244.938 488.254C291.25 483.198 337.847 483.017 384.283 479.732C405.102 478.709 425.894 477.493 446.651 475.606C456.316 474.471 466.146 475.679 475.737 473.865C481.318 473.429 482.731 472.337 483.484 466.478C484.414 463.842 481.701 459.766 484.838 458.295C489.721 457.257 486.795 468.261 485.958 470.588C484.549 475.205 480.701 476.305 476.367 476.664C466.131 478.694 455.613 477.474 445.285 478.775C427.538 480.589 409.764 481.727 391.952 482.688C377.065 483.267 362.244 484.73 347.377 485.541C329.194 486.475 310.953 486.374 292.813 487.965C263.97 489.312 235.277 493.156 206.469 494.395Z" fill="#E7EFEF"/>
<path d="M484.05 462.529C471.691 459.167 458.839 457.712 446.287 455.126H446.291C430.47 452.895 414.815 449.619 399.033 447.137C388.747 445.427 378.233 445.396 367.982 443.536C364.678 442.193 367.291 440.575 369.781 441.274C396.733 442.142 423.121 447.615 449.73 451.456C461.803 454.053 474.242 455.072 486.103 458.48C489.832 459.407 487.207 464.247 484.05 462.529Z" fill="#E7EFEF"/>
<path d="M205.194 481.414C204.36 481.152 203.527 480.893 202.693 480.631C202.705 480.635 202.716 480.638 202.732 480.642C202.624 480.608 202.512 480.573 202.404 480.542C202.404 480.542 202.404 480.542 202.408 480.542C202.373 480.53 202.338 480.519 202.303 480.507C202.334 480.519 202.369 480.526 202.4 480.538C202.338 480.519 202.276 480.503 202.218 480.484C202.23 480.488 202.245 480.492 202.257 480.496C194.955 478.438 187.652 476.408 180.411 474.139C180.419 474.143 180.427 474.143 180.434 474.146C180.006 474.015 179.582 473.88 179.153 473.749C179.176 473.757 179.199 473.764 179.223 473.768C177.185 473.147 175.143 472.541 173.105 471.908C173.167 471.927 173.225 471.943 173.283 471.962C165.185 469.029 156.779 467.292 148.492 465.038C148.554 465.057 148.612 465.072 148.67 465.092C138.708 462.263 129.136 458.314 119.406 454.821C109.668 452.092 99.7716 449.827 90.273 446.311C88.8101 445.863 84.7498 444.115 87.8761 442.841C93.2796 444.832 98.853 446.635 104.519 447.885C120.031 451.313 134.532 457.724 149.673 462.363C149.658 462.359 149.646 462.355 149.631 462.351C157.91 464.582 166.289 466.362 174.383 469.256C174.356 469.249 174.329 469.241 174.301 469.229C176.285 469.843 178.281 470.414 180.265 471.028C180.238 471.02 180.207 471.009 180.18 471.001C180.593 471.128 181.006 471.256 181.419 471.383C181.411 471.379 181.403 471.379 181.396 471.375C181.457 471.395 181.515 471.414 181.577 471.429C181.562 471.425 181.546 471.422 181.531 471.414C189.756 473.996 198.092 476.188 206.36 478.612C208.27 479.172 206.889 482.09 205.194 481.414Z" fill="#E7EFEF"/>
<path d="M206.823 482.083C205.503 481.554 203.26 481.323 204.889 479.281C209.413 476.942 215.202 477.737 220.196 476.942C235.704 475.321 251.251 473.97 266.825 473.198C286.189 472.156 305.475 470.547 324.781 468.659C343.316 466.93 361.965 466.776 380.538 465.533C382.838 465.556 385.436 464.275 387.57 465.158C389.5 467.953 385.61 468.613 383.545 468.59C354.335 470.392 325.067 471.249 295.95 474.472C266.589 476.278 237.241 478.605 207.923 481.18C207.992 481.74 207.367 482.307 206.823 482.083Z" fill="#E7EFEF"/>
<path d="M377.022 466.544C377.192 464.008 380.743 464.761 382.511 464.413C386.679 464.077 390.844 463.653 395.016 463.398C407.691 463.147 420.332 462.19 433.003 461.781C448.484 461.059 463.907 459.002 479.423 459.839C481.503 460.117 483.723 459.836 485.722 460.469C487.81 462.302 485.07 464.417 482.978 463.881C482.982 463.881 482.989 463.881 482.993 463.881C468.855 462.815 454.71 464.027 440.587 464.83C422.3 465.077 404.075 466.872 385.815 467.563H385.819C385.583 467.516 385.355 467.343 385.263 467.107C383.484 466.926 377.308 468.817 377.022 466.544Z" fill="#E7EFEF"/>
<path d="M89.579 433.046C80.2194 407.704 72.0716 381.91 62.2064 356.764C54.2439 337.937 46.7755 318.843 40.9744 299.228C40.7081 296.376 34.4284 280.181 37.0221 279.941C37.0221 279.941 37.0221 279.941 37.0221 279.938C38.6007 280.598 38.4849 283.303 39.2221 284.743C40.5923 289.316 42.2365 293.805 43.5025 298.406C46.0884 306.855 49.2765 315.107 51.9628 323.521C60.6857 345.66 69.972 367.536 77.5253 390.107C80.8485 399.12 83.7278 408.283 87.1899 417.241C88.7685 422.089 90.4397 426.898 92.2885 431.649C92.9408 433.201 90.351 434.822 89.579 433.046Z" fill="#E7EFEF"/>
<path d="M38.4486 282.489C37.2868 281.933 36.9394 280.428 36.1598 279.467C35.3917 278.679 35.5808 277.352 36.3991 276.672C43.111 273.187 51.0967 273.453 58.43 272.211C74.4283 270.08 90.4497 268.297 106.583 267.664C122.338 266.205 138.159 265.815 153.98 265.14C173.957 263.245 194.016 262.542 214.074 262.01C219.439 261.689 224.816 261.465 230.161 260.894C232.006 260.825 231.663 263.638 229.976 263.685C211.519 264.75 192.997 265.205 174.525 265.742C156.654 267.008 138.773 268.297 120.864 268.652C120.914 268.652 120.964 268.652 121.014 268.652C107.66 269.783 94.2515 270.555 80.8855 271.616C80.9163 271.612 80.9472 271.608 80.9781 271.605C67.477 273.878 53.617 274.391 40.3359 277.784C40.3398 277.784 40.3475 277.78 40.3514 277.78C39.5949 277.996 38.8268 278.193 38.0935 278.483C38.2865 279.428 38.6107 280.343 38.9928 281.227C38.9812 281.207 38.9735 281.188 38.9658 281.169C39.0005 281.25 39.043 281.327 39.0854 281.404C40.1082 281.204 39.1202 282.817 38.4486 282.489Z" fill="#E7EFEF"/>
<path d="M92.5002 433.448C92.3188 433.417 92.1258 433.363 91.9598 433.274C91.7591 433.325 91.5507 433.205 91.5005 433.02C91.5005 433.027 91.5044 433.035 91.5044 433.043C91.4503 432.553 90.9061 432.252 90.8444 431.765C90.7749 430.357 92.1258 430.638 92.89 431.21C92.8784 431.21 92.863 431.21 92.8514 431.21C92.9016 431.21 92.9518 431.21 93.0019 431.21C92.9826 431.21 92.9595 431.21 92.9402 431.21C111.088 429.631 129.26 428.477 147.392 426.701C158.577 426.111 169.79 426.223 180.867 424.266C181.612 424.17 182.276 424.872 182.191 425.613C181.732 428.299 176.606 427.033 174.529 427.778C166.111 428.805 157.651 428.817 149.195 429.094C130.298 430.519 111.389 432.147 92.5002 433.448Z" fill="#E7EFEF"/>
<path d="M137.531 451.982C127.839 449.917 136.11 444.108 141.583 446.555C147.249 447.358 141.842 453.271 137.531 451.982ZM139.074 450.129C139.885 450.033 141.02 449.975 141.529 449.28C140.885 449.08 140.379 448.524 140.51 447.814C140.159 447.663 139.541 448.072 139.399 447.609C137.909 447.678 136.377 448.057 135.057 448.759C136.056 449.767 137.704 450.006 139.074 450.129Z" fill="#E7EFEF"/>
<path d="M153.88 449.554C146.805 447.249 152.49 442.147 157.836 444.822C158.249 443.938 159.276 444.073 159.97 444.536C163.166 447.342 156.308 450.314 153.88 449.554ZM155.181 447.535C156.331 447.489 157.566 447.257 158.4 446.4C158.353 446.377 158.307 446.354 158.261 446.331C158.002 446.531 157.604 446.528 157.4 446.254C155.91 445.929 154.15 445.844 152.761 446.547C153.355 447.211 154.301 447.539 155.181 447.535Z" fill="#E7EFEF"/>
<path d="M171.539 447.723C164.626 445.026 175.182 440.583 177.819 443.79C177.819 443.794 177.822 443.798 177.822 443.798C177.822 443.794 177.819 443.794 177.819 443.79C177.822 443.794 177.822 443.798 177.826 443.802C177.822 443.798 177.819 443.79 177.815 443.783C177.896 443.891 177.931 444.022 177.927 444.149C181.698 443.169 178.382 449.588 171.539 447.723ZM174.229 446.153C174.982 446.122 175.758 446.095 176.475 445.836C176.472 445.84 176.464 445.84 176.46 445.844C176.533 445.813 176.611 445.782 176.684 445.747C176.649 445.763 176.614 445.774 176.584 445.79C176.927 445.628 177.228 445.388 177.506 445.134C177.498 445.029 177.506 444.925 177.525 444.825C177.278 444.964 176.939 444.91 176.784 444.663C175.04 444.254 173.129 444.632 171.57 445.477C172.384 445.909 173.307 446.145 174.229 446.153Z" fill="#E7EFEF"/>
<path d="M157.737 459.218C149.728 457.597 154.557 452.302 161.126 454.506C163.531 451.715 168.923 459.566 157.737 459.218ZM158.891 457.369C160.146 457.323 161.439 457.153 162.577 456.605C160.647 455.088 157.637 455.285 155.476 456.231C156.274 457.219 157.71 457.315 158.891 457.369Z" fill="#E7EFEF"/>
<path d="M172.55 457.793C167.779 455.914 172.337 452.016 175.607 452.309C175.576 452.309 175.545 452.309 175.51 452.309C176.467 452.274 177.444 452.429 178.285 452.903C179.026 452.07 180.404 452.679 180.917 453.486C182.438 457.215 175.147 459.171 172.55 457.793ZM174.954 456.35C176.417 456.342 177.853 455.79 179.011 454.914C178.586 454.725 178.061 454.594 177.976 454.05C176.081 453.49 173.823 454.007 172.388 455.37C173.09 455.968 174.036 456.315 174.954 456.35Z" fill="#E7EFEF"/>
<path d="M185 466.524C177.142 465.096 183.553 459.26 187.729 461.618C190.199 459.843 193.194 466.667 185 466.524ZM185.969 464.536C186.845 464.517 187.733 464.282 188.454 463.772C188.142 463.398 187.532 463.251 187.432 462.734C187.15 462.973 186.648 463.081 186.474 462.668C185.382 462.753 184.282 463.073 183.356 463.664C184.074 464.274 185.05 464.494 185.969 464.536Z" fill="#E7EFEF"/>
<path d="M386.185 454.644C379.157 453.976 384.12 448.237 388.898 450.194C392.468 448.804 393.881 455.007 386.185 454.644ZM386.818 452.336C387.466 452.32 388.115 452.286 388.759 452.216C388.69 452.097 388.671 451.95 388.698 451.815C387.54 451.587 386.258 451.603 385.181 452.12C385.699 452.332 386.266 452.328 386.818 452.336Z" fill="#E7EFEF"/>
<path d="M404.242 455.35C402.327 455.092 399.297 452.579 401.771 450.973C403.844 450.275 407.136 450.012 408.734 451.718C410.803 454.25 406.372 456.207 404.242 455.35ZM406.554 453.629C406.882 453.629 407.244 453.586 407.387 453.251C407.152 452.957 407.148 452.552 407.291 452.216C405.882 451.873 404.365 451.981 402.991 452.44C403.462 452.868 404.029 453.173 404.631 453.378C404.631 453.378 404.631 453.378 404.628 453.378C405.253 453.563 405.905 453.617 406.554 453.629Z" fill="#E7EFEF"/>
<path d="M238.341 416.371C238.341 416.371 238.341 416.375 238.341 416.371C237.048 411.666 237.16 406.413 236.65 401.5C236.65 401.512 236.654 401.519 236.654 401.531C236.631 401.319 236.608 401.106 236.584 400.894C236.584 400.902 236.584 400.906 236.588 400.913C236.279 392.932 234.848 385.104 233.848 377.192C233.998 375.328 231.964 372.379 234.099 371.26C236.507 370.939 235.955 376.447 236.523 378.084C237.048 382.156 237.835 386.197 238.236 390.284C238.939 397.2 238.754 404.179 239.024 411.122C238.877 412.296 239.896 416.36 238.341 416.371Z" fill="#E7EFEF"/>
<path d="M329.63 416.504C328.384 416.126 329.183 414.516 329.048 413.578C329.048 413.597 329.048 413.621 329.048 413.64C329.048 413.586 329.048 413.532 329.051 413.482C329.051 413.501 329.051 413.52 329.051 413.54C329.024 407.094 328.862 400.602 329.569 394.187C331.965 388.425 337.184 383.511 336.076 376.78C336.45 370.732 331.884 366.243 328.187 362.032C325.227 360.473 325.064 357.497 325.08 354.495C325.227 353.132 323.497 342.711 325.956 344.525C326.639 348.446 326.99 352.461 327.481 356.424C327.481 356.409 327.477 356.397 327.477 356.382C327.484 356.44 327.488 356.498 327.496 356.556C327.492 356.529 327.492 356.505 327.488 356.478C327.701 359.327 331.417 360.272 332.637 362.831C332.598 362.785 332.56 362.735 332.521 362.685C339.882 369.887 340.214 381.91 334.038 389.957C329.777 395.758 331.78 403.354 331.228 410.124V410.12C330.873 411.818 331.83 416.141 329.63 416.504Z" fill="#E7EFEF"/>
<path d="M259.75 393.35C256.577 387.112 252.791 381.184 249.537 374.951C249.541 374.954 249.541 374.958 249.545 374.962C249.507 374.893 249.468 374.827 249.429 374.758C249.437 374.769 249.441 374.777 249.449 374.789C249.414 374.731 249.383 374.673 249.348 374.611C249.348 374.615 249.352 374.615 249.352 374.619C249.329 374.58 249.31 374.541 249.287 374.503C249.294 374.518 249.302 374.534 249.314 374.545C244.914 366.591 240.224 358.802 236.233 350.654C235.558 349.284 235.832 347.682 237.36 347.084C239.942 345.239 242.656 343.595 245.346 341.912C230.123 341.997 230.096 343.676 238.645 330.588C238.622 330.626 238.599 330.669 238.576 330.707C239.61 329.422 240.077 326.666 241.957 326.551C242.563 326.786 242.501 327.82 241.884 327.998C239.792 332.062 237.565 336.057 234.96 339.824C254.011 339.669 253.1 338.747 237.426 348.948C237.823 350.658 238.811 352.198 239.61 353.75C239.607 353.746 239.607 353.742 239.603 353.738C243.493 360.176 247.017 366.822 250.865 373.303C250.861 373.295 250.857 373.287 250.854 373.279C252.451 376.112 253.81 379.069 255.485 381.863C255.466 381.829 255.443 381.79 255.423 381.751C257.662 384.947 259.198 388.49 261.039 391.891C261.769 392.693 260.622 394.191 259.75 393.35Z" fill="#E7EFEF"/>
<path d="M301.276 388.155C300.041 387.286 301.94 384.638 302.002 383.334C303.349 376.934 305.552 370.755 306.969 364.391C308.297 359.261 309.462 354.147 309.972 348.863C310.593 344.973 312.523 341.101 312.369 337.165C299.975 328.627 304.78 330.248 314.8 323.999C312.724 322.664 300.573 320.19 302.314 316.871C303.576 315.693 307.521 318.955 309.354 319.209C311.821 320.051 320.848 322.54 315.429 325.663C315.433 325.659 315.441 325.659 315.445 325.655C315.41 325.674 315.371 325.698 315.337 325.717C315.244 325.771 315.148 325.825 315.055 325.879C315.09 325.86 315.128 325.837 315.163 325.817C314.985 325.918 314.804 326.018 314.626 326.122C314.634 326.118 314.642 326.114 314.65 326.111C312.125 327.631 309.512 328.998 306.934 330.418C314.144 336.13 315.823 334.451 312.913 344.51C312.917 344.494 312.92 344.479 312.928 344.463C312.789 344.957 312.646 345.451 312.508 345.949C312.523 345.903 312.535 345.853 312.55 345.803C311.133 350.268 311.419 355.058 309.968 359.52C309.983 359.473 309.995 359.423 310.01 359.377C309.968 359.524 309.925 359.674 309.883 359.825C309.898 359.778 309.91 359.728 309.925 359.682C309.906 359.755 309.883 359.828 309.864 359.906C309.868 359.886 309.875 359.863 309.879 359.844C308.308 366.417 306.475 372.905 304.591 379.397C303.862 381.041 303.121 388.263 301.276 388.155Z" fill="#E7EFEF"/>
<path d="M287.896 445.705C287.973 442.995 285.873 429.602 287.768 428.865C289.343 428.846 288.34 433.991 288.81 435.315C288.606 436.419 290.821 449.603 287.896 445.705Z" fill="#E7EFEF"/>
<path d="M346.963 419.571C346.021 416.943 346.936 413.681 346.674 410.848C346.755 408.216 346.369 405.341 347.091 402.824C347.091 402.824 347.091 402.824 347.091 402.828C348.287 402.276 347.716 409.501 348.121 410.617C347.789 412.095 349.684 421.127 346.963 419.571Z" fill="#E7EFEF"/>
<path d="M237.387 249.986C236.272 248.948 241.031 245.015 240.946 242.603C240.791 241.518 241.903 241.422 241.737 242.557C241.691 243.942 238.912 250.658 237.387 249.986Z" fill="#E7EFEF"/>
<path d="M241.02 250.719C239.611 249.495 243.274 246.493 243.467 244.736C243.452 244.771 243.436 244.81 243.421 244.844C243.799 244.142 244.092 241.872 245.25 242.888C245.532 244.215 242.707 251.329 241.02 250.719Z" fill="#E7EFEF"/>
<path d="M245.648 251.345C244.216 250.049 248.141 247.061 248.234 245.166C248.446 244.653 248.682 242.646 249.415 243.8C249.191 245.363 247.524 251.743 245.648 251.345Z" fill="#E7EFEF"/>
<path d="M274.166 237.717C273.432 237.686 266.257 236.424 268.766 235.397C268.762 235.397 268.762 235.394 268.762 235.394C268.778 235.405 268.793 235.409 268.812 235.413C268.805 235.413 268.801 235.413 268.793 235.413C268.963 235.451 269.279 235.351 269.299 235.59C270.325 235.81 271.379 235.864 272.421 235.973C272.41 235.973 272.398 235.973 272.387 235.969C273.185 236.142 274.17 235.876 274.868 236.32C275.343 236.837 274.88 237.821 274.166 237.717Z" fill="#E7EFEF"/>
<path d="M275.436 234.288C274.193 234.23 272.981 233.949 271.777 233.644C271.781 233.644 271.785 233.644 271.785 233.648C271.688 233.624 271.592 233.597 271.495 233.574C271.518 233.582 271.541 233.586 271.568 233.594C270.951 233.343 269.635 233.238 269.666 232.385C270.028 231.644 272.568 232.837 273.51 232.644C274.332 232.887 276.119 232.32 276.154 233.555C276.13 233.91 275.826 234.311 275.436 234.288Z" fill="#E7EFEF"/>
<path d="M275.347 230.896C274.093 230.653 269.623 230.144 270.777 228.199C271.044 228.017 271.407 228.16 271.476 228.473C272.549 229.773 276.03 228.639 276.177 230.155C276.142 230.58 275.776 230.958 275.347 230.896Z" fill="#E7EFEF"/>
<path d="M235.963 308.476C235.496 306.789 243.023 299.567 241.432 304.211C240.02 305.349 238.515 306.523 237.584 308.109C237.708 309.321 236.029 309.973 235.963 308.476Z" fill="#E7EFEF"/>
<path d="M240.861 309.324C240.872 309.335 240.88 309.347 240.892 309.359C240.058 307.915 242.648 305.279 243.532 304.082C244.358 303.415 245.052 304.7 244.358 305.302C244.369 305.287 244.381 305.275 244.392 305.26C244.091 305.649 243.79 306.039 243.489 306.425C243.489 306.425 243.489 306.421 243.493 306.421C243.47 306.452 243.447 306.479 243.424 306.51C243.435 306.495 243.447 306.479 243.462 306.464C242.644 307.004 241.745 310.084 240.861 309.324Z" fill="#E7EFEF"/>
<path d="M244.378 309.525C243.984 308.916 244.687 308.202 244.837 307.588C244.837 307.592 244.834 307.596 244.834 307.599C245.764 304.658 247.686 306.306 245.71 308.371C245.714 308.364 245.717 308.36 245.721 308.352C245.687 308.414 245.648 308.472 245.613 308.533C245.629 308.506 245.644 308.479 245.659 308.456C245.497 308.746 245.343 309.035 245.204 309.332C245.216 309.305 245.227 309.278 245.239 309.255C245.127 309.61 244.656 309.834 244.378 309.525Z" fill="#E7EFEF"/>
</g>
<path d="M292.76 93.8719L311.23 77.9698L317.984 101.388L292.76 93.8719Z" stroke="#E7EFEF" stroke-width="1.37118"/>
<path d="M375.451 171.862L383.046 148.704L400.93 165.262L375.451 171.862Z" stroke="#1AA166" stroke-width="1.37118"/>
<path d="M286.863 172.989L270.751 194.273L260.799 167.217L286.863 172.989Z" fill="#1EA54C"/>
<circle cx="352.218" cy="113.821" r="3.42794" fill="#1EA54C"/>
<circle cx="322.051" cy="152.214" r="6.1703" fill="#E7EFEF"/>
<circle cx="272.004" cy="124.104" r="4.11353" fill="#1EA54C"/>
<path d="M129.884 107.409L126.479 83.2759L149.834 90.242L129.884 107.409Z" stroke="#E7EFEF" stroke-width="1.37118"/>
<path d="M240.185 79.9485L224.797 61.0473L248.393 54.9414L240.185 79.9485Z" stroke="#1AA166" stroke-width="1.37118"/>
<path d="M193.28 155.108L202.489 180.165L174.344 173.925L193.28 155.108Z" fill="#1EA54C"/>
<circle cx="178.789" cy="68.148" r="3.42794" transform="rotate(-57.3045 178.789 68.148)" fill="#1EA54C"/>
<circle cx="194.804" cy="114.274" r="6.1703" transform="rotate(-57.3045 194.804 114.274)" fill="#E7EFEF"/>
<circle cx="144.114" cy="141.207" r="4.11353" transform="rotate(-57.3045 144.114 141.207)" fill="#1EA54C"/>
<path d="M35.7252 119.102L57.5792 108.312L58.2755 132.674L35.7252 119.102Z" stroke="#E7EFEF" stroke-width="1.37118"/>
<path d="M96.3383 215.26L109.472 194.729L122.658 215.227L96.3383 215.26Z" stroke="#1AA166" stroke-width="1.37118"/>
<path d="M62.4745 223.561L41.5605 240.151L38.6751 211.468L62.4745 223.561Z" fill="#1EA54C"/>
<circle cx="88.3234" cy="153.257" r="3.42794" transform="rotate(14.4506 88.3234 153.257)" fill="#1EA54C"/>
<circle cx="49.531" cy="182.908" r="6.1703" transform="rotate(14.4506 49.531 182.908)" fill="#E7EFEF"/>
<circle cx="80.0106" cy="97.0101" r="4.11353" transform="rotate(14.4506 80.0106 97.0101)" fill="#1EA54C"/>
<defs>
<filter id="filter0_d" x="25" y="223.572" width="469.933" height="278.427" filterUnits="userSpaceOnUse" color-interpolation-filters="sRGB">
<feFlood flood-opacity="0" result="BackgroundImageFix"/>
<feColorMatrix in="SourceAlpha" type="matrix" values="0 0 0 0 0 0 0 0 0 0 0 0 0 0 0 0 0 0 127 0"/>
<feMorphology radius="1" operator="dilate" in="SourceAlpha" result="effect1_dropShadow"/>
<feOffset dx="3" dy="3"/>
<feGaussianBlur stdDeviation="1.5"/>
<feColorMatrix type="matrix" values="0 0 0 0 0.0952604 0 0 0 0 0.129167 0 0 0 0 0.163073 0 0 0 0.83 0"/>
<feBlend mode="normal" in2="BackgroundImageFix" result="effect1_dropShadow"/>
<feBlend mode="normal" in="SourceGraphic" in2="effect1_dropShadow" result="shape"/>
</filter>
</defs>
</svg>
