<svg width="20" height="20" viewBox="0 0 20 20" fill="none" xmlns="http://www.w3.org/2000/svg">
<path d="M13.7287 4.50652L15.4937 6.27069L13.7287 4.50652ZM14.8637 2.95236L10.0912 7.72486C9.84457 7.9711 9.67639 8.28484 9.60783 8.62652L9.16699 10.8332L11.3737 10.3915C11.7153 10.3232 12.0287 10.1557 12.2753 9.90902L17.0478 5.13652C17.1912 4.99311 17.305 4.82285 17.3826 4.63547C17.4602 4.44809 17.5002 4.24726 17.5002 4.04444C17.5002 3.84162 17.4602 3.64079 17.3826 3.45341C17.305 3.26603 17.1912 3.09577 17.0478 2.95236C16.9044 2.80894 16.7342 2.69518 16.5468 2.61756C16.3594 2.53995 16.1586 2.5 15.9557 2.5C15.7529 2.5 15.5521 2.53995 15.3647 2.61756C15.1773 2.69518 15.0071 2.80894 14.8637 2.95236V2.95236Z" stroke="#E7EFEF" stroke-opacity="0.6" stroke-width="1.33333" stroke-linecap="round" stroke-linejoin="round"/>
<path d="M15.834 12.5001V15.0001C15.834 15.4421 15.6584 15.866 15.3458 16.1786C15.0333 16.4912 14.6093 16.6667 14.1673 16.6667H5.00065C4.55862 16.6667 4.1347 16.4912 3.82214 16.1786C3.50958 15.866 3.33398 15.4421 3.33398 15.0001V5.83341C3.33398 5.39139 3.50958 4.96746 3.82214 4.6549C4.1347 4.34234 4.55862 4.16675 5.00065 4.16675H7.50065" stroke="#E7EFEF" stroke-opacity="0.6" stroke-width="1.33333" stroke-linecap="round" stroke-linejoin="round"/>
</svg>
