<svg width="1184" height="35" viewBox="0 0 1184 35" fill="none" xmlns="http://www.w3.org/2000/svg">
<path d="M1164.7 15.6509L1152.95 31.174L1145.69 11.4419L1164.7 15.6509Z" fill="#1EA54C"/>
<path d="M859.303 14.8305L864.842 -2.05936L877.885 10.0167L859.303 14.8305Z" stroke="#1AA166"/>
<path d="M794.697 15.6509L782.946 31.174L775.688 11.4419L794.697 15.6509Z" fill="#1EA54C"/>
<circle cx="820.359" cy="0.5" r="4.5" fill="#E7EFEF"/>
<path d="M489.303 14.8305L494.842 -2.05936L507.885 10.0167L489.303 14.8305Z" stroke="#1AA166"/>
<path d="M424.697 15.6509L412.946 31.174L405.688 11.4419L424.697 15.6509Z" fill="#1EA54C"/>
<circle cx="450.359" cy="0.5" r="4.5" fill="#E7EFEF"/>
<path d="M119.303 14.8305L124.842 -2.05936L137.885 10.0167L119.303 14.8305Z" stroke="#1AA166"/>
<path d="M54.6968 15.6509L42.9461 31.174L35.6881 11.4419L54.6968 15.6509Z" fill="#1EA54C"/>
<circle cx="80.3589" cy="0.5" r="4.5" fill="#E7EFEF"/>
<path d="M1100.84 18.6348L1087.37 30.2322L1082.45 13.1534L1100.84 18.6348Z" stroke="#E7EFEF"/>
<circle cx="1057.48" cy="4.08594" r="2.5" transform="rotate(-180 1057.48 4.08594)" fill="#1EA54C"/>
<path d="M730.843 18.6348L717.373 30.2322L712.447 13.1534L730.843 18.6348Z" stroke="#E7EFEF"/>
<circle cx="687.481" cy="4.08594" r="2.5" transform="rotate(-180 687.481 4.08594)" fill="#1EA54C"/>
<path d="M360.843 18.6348L347.373 30.2322L342.447 13.1534L360.843 18.6348Z" stroke="#E7EFEF"/>
<circle cx="317.481" cy="4.08594" r="2.5" transform="rotate(-180 317.481 4.08594)" fill="#1EA54C"/>
<path d="M983.303 14.8305L988.842 -2.05936L1001.88 10.0167L983.303 14.8305Z" stroke="#1AA166"/>
<path d="M918.697 15.6509L906.946 31.174L899.688 11.4419L918.697 15.6509Z" fill="#1EA54C"/>
<circle cx="944.359" cy="0.5" r="4.5" fill="#E7EFEF"/>
<path d="M613.303 14.8305L618.842 -2.05936L631.885 10.0167L613.303 14.8305Z" stroke="#1AA166"/>
<path d="M548.697 15.6509L536.946 31.174L529.688 11.4419L548.697 15.6509Z" fill="#1EA54C"/>
<circle cx="574.359" cy="0.5" r="4.5" fill="#E7EFEF"/>
<path d="M243.303 14.8305L248.842 -2.05936L261.885 10.0167L243.303 14.8305Z" stroke="#1AA166"/>
<path d="M178.697 15.6509L166.946 31.174L159.688 11.4419L178.697 15.6509Z" fill="#1EA54C"/>
<circle cx="204.359" cy="0.5" r="4.5" fill="#E7EFEF"/>
</svg>
