<svg width="20" height="20" viewBox="0 0 20 20" fill="none" xmlns="http://www.w3.org/2000/svg">
<path d="M15.6139 9.16667C15.3929 9.16667 15.181 9.25446 15.0247 9.41074C14.8684 9.56702 14.7806 9.77899 14.7806 10V15C14.7806 15.221 14.6928 15.433 14.5365 15.5893C14.3802 15.7455 14.1683 15.8333 13.9473 15.8333H3.94727C3.72625 15.8333 3.51429 15.7455 3.35801 15.5893C3.20173 15.433 3.11393 15.221 3.11393 15V5C3.11393 4.77899 3.20173 4.56702 3.35801 4.41074C3.51429 4.25446 3.72625 4.16667 3.94727 4.16667H8.94727C9.16828 4.16667 9.38024 4.07887 9.53652 3.92259C9.6928 3.76631 9.7806 3.55435 9.7806 3.33333C9.7806 3.11232 9.6928 2.90036 9.53652 2.74408C9.38024 2.5878 9.16828 2.5 8.94727 2.5H3.94727C3.28422 2.5 2.64834 2.76339 2.1795 3.23223C1.71066 3.70107 1.44727 4.33696 1.44727 5V15C1.44727 15.663 1.71066 16.2989 2.1795 16.7678C2.64834 17.2366 3.28422 17.5 3.94727 17.5H13.9473C14.6103 17.5 15.2462 17.2366 15.715 16.7678C16.1839 16.2989 16.4473 15.663 16.4473 15V10C16.4473 9.77899 16.3595 9.56702 16.2032 9.41074C16.0469 9.25446 15.8349 9.16667 15.6139 9.16667Z" fill="#61C06E"/>
<path d="M12.2814 4.16667H13.598L8.35636 9.4C8.27825 9.47747 8.21626 9.56964 8.17395 9.67119C8.13165 9.77274 8.10986 9.88166 8.10986 9.99167C8.10986 10.1017 8.13165 10.2106 8.17395 10.3121C8.21626 10.4137 8.27825 10.5059 8.35636 10.5833C8.43383 10.6614 8.526 10.7234 8.62755 10.7657C8.7291 10.8081 8.83802 10.8298 8.94803 10.8298C9.05804 10.8298 9.16696 10.8081 9.26851 10.7657C9.37006 10.7234 9.46223 10.6614 9.5397 10.5833L14.7814 5.35V6.66667C14.7814 6.88768 14.8692 7.09964 15.0254 7.25592C15.1817 7.4122 15.3937 7.5 15.6147 7.5C15.8357 7.5 16.0477 7.4122 16.204 7.25592C16.3602 7.09964 16.448 6.88768 16.448 6.66667V3.33333C16.448 3.11232 16.3602 2.90036 16.204 2.74408C16.0477 2.5878 15.8357 2.5 15.6147 2.5H12.2814C12.0603 2.5 11.8484 2.5878 11.6921 2.74408C11.5358 2.90036 11.448 3.11232 11.448 3.33333C11.448 3.55435 11.5358 3.76631 11.6921 3.92259C11.8484 4.07887 12.0603 4.16667 12.2814 4.16667Z" fill="#61C06E"/>
</svg>
