<svg width="37" height="37" viewBox="0 0 37 37" fill="none" xmlns="http://www.w3.org/2000/svg">
<path d="M18.4998 13.6835C15.8477 13.6835 13.6833 15.8479 13.6833 18.5C13.6833 21.1521 15.8477 23.3165 18.4998 23.3165C21.152 23.3165 23.3163 21.1521 23.3163 18.5C23.3163 15.8479 21.152 13.6835 18.4998 13.6835ZM32.9457 18.5C32.9457 16.5055 32.9638 14.529 32.8518 12.5381C32.7397 10.2256 32.2122 8.17324 30.5212 6.48223C28.8266 4.7876 26.7778 4.26367 24.4653 4.15166C22.4708 4.03965 20.4943 4.05772 18.5034 4.05772C16.5089 4.05772 14.5324 4.03965 12.5415 4.15166C10.229 4.26367 8.17666 4.79121 6.48565 6.48223C4.79102 8.17686 4.26709 10.2256 4.15508 12.5381C4.04307 14.5326 4.06113 16.5091 4.06113 18.5C4.06113 20.4909 4.04307 22.471 4.15508 24.4619C4.26709 26.7744 4.79463 28.8268 6.48565 30.5178C8.18027 32.2124 10.229 32.7363 12.5415 32.8483C14.536 32.9603 16.5125 32.9423 18.5034 32.9423C20.4979 32.9423 22.4744 32.9603 24.4653 32.8483C26.7778 32.7363 28.8302 32.2088 30.5212 30.5178C32.2158 28.8231 32.7397 26.7744 32.8518 24.4619C32.9674 22.471 32.9457 20.4945 32.9457 18.5ZM18.4998 25.9108C14.3987 25.9108 11.089 22.6011 11.089 18.5C11.089 14.3989 14.3987 11.0892 18.4998 11.0892C22.6009 11.0892 25.9106 14.3989 25.9106 18.5C25.9106 22.6011 22.6009 25.9108 18.4998 25.9108ZM26.2142 12.5164C25.2566 12.5164 24.4834 11.7432 24.4834 10.7856C24.4834 9.82812 25.2566 9.05488 26.2142 9.05488C27.1717 9.05488 27.9449 9.82812 27.9449 10.7856C27.9452 11.013 27.9006 11.2382 27.8138 11.4483C27.7269 11.6584 27.5994 11.8493 27.4386 12.0101C27.2779 12.1709 27.0869 12.2984 26.8768 12.3852C26.6667 12.4721 26.4415 12.5167 26.2142 12.5164Z" fill="#E7EFEF" fill-opacity="0.7"/>
</svg>
