<svg width="316" height="172" viewBox="0 0 316 172" fill="none" xmlns="http://www.w3.org/2000/svg">
<path d="M290.712 161.72C287.545 159.269 281.072 160.924 276.294 162.694C275.581 161.632 274.715 160.538 273.668 159.469C283.96 152.451 298.174 137.484 290.64 136.216C284.091 135.116 275.253 148.587 270.529 156.788C265.624 153.295 258.108 150.727 246.633 151.618C216.852 153.929 193.586 133.594 176.436 140.376C162.801 145.768 150.304 148.79 138.252 147.757C138.771 138.437 138.884 120.139 131.97 118.241C124.951 116.314 131.835 137.095 135.662 147.471C134.764 147.349 133.868 147.204 132.975 147.037C130.498 141.866 126.415 135.098 121.931 134.865C117.709 134.648 122.919 140.732 128.048 145.886C113.31 142.61 95.8277 155.293 95.5371 170.288H279.533C279.533 170.288 279.208 168.099 277.763 165.213C284.875 165.066 294.153 164.382 290.712 161.72Z" fill="#12632E"/>
<path d="M135.674 158.698H87.1787V170.29H135.674V158.698Z" fill="black"/>
<path d="M120.72 158.698H72.2266V170.292H120.72V158.698Z" fill="#434445"/>
<path d="M154.753 170.287H190.862V116.858H154.753V170.287Z" fill="#1A8940"/>
<path d="M143.617 170.287H179.727V116.858H143.617V170.287Z" fill="#1EA54C"/>
<path d="M179.727 116.859L190.86 124.881V116.859H179.727Z" fill="#1A8940"/>
<path d="M68.2584 128.693C68.2584 128.693 61.505 134.009 60.1889 133.686C58.8716 133.364 65.1243 127.948 65.1243 127.948C62.7719 126.751 55.4589 127.502 55.4589 127.502C55.4589 127.502 53.0225 135.818 51.8217 135.162C50.6209 134.506 54.3338 127.915 54.3338 127.915C51.7136 127.748 48.5002 129.808 48.5002 129.808C44.1004 133.486 48.7896 139.277 48.7896 139.277C48.7896 139.277 47.8866 142.14 45.1079 144.747C45.1079 144.747 41.1392 147.854 40.8643 153.404L41.5847 153.472C41.5847 153.472 42.7267 148.302 44.8017 145.858C44.8822 145.769 44.9999 145.642 45.144 145.488C45.4826 145.156 45.7191 144.908 45.8777 144.723C46.9104 143.673 48.3369 142.334 49.025 142.205C49.025 142.205 48.9902 142.071 48.9962 141.839C49.0058 141.955 49.0154 142.076 49.025 142.205C49.2603 145.131 54.6244 147.687 57.9242 148.212C61.224 148.737 60.2034 147.302 59.0674 145.173C57.9302 143.044 54.3326 142.091 53.5112 141.11C52.6899 140.13 54.3878 140.128 56.3752 141.089C58.3625 142.05 58.6351 144.612 61.8244 146.229C65.0138 147.846 69.8123 142.244 69.8123 142.244C67.2701 142.108 63.6413 139.186 63.7722 138.292C63.9031 137.398 69.9335 139.834 70.9638 139.951C71.9941 140.068 74.3405 138.71 74.7032 134.314C75.0646 129.92 68.2584 128.693 68.2584 128.693Z" fill="#118237"/>
<path d="M32.395 131.995C32.395 131.995 39.8532 127.574 36.3733 121.572C36.3733 121.572 33.5886 117.887 30.6058 116.94C30.6058 116.94 32.1968 125.889 30.6058 126.099C29.0147 126.31 29.5118 115.993 29.5118 115.993C29.5118 115.993 21.6549 111.993 18.5724 112.308C18.5724 112.308 23.4453 121.046 21.8542 120.835C20.2632 120.624 14.7934 111.782 14.7934 111.782C14.7934 111.782 6.7384 110.203 5.44512 115.256C4.15184 120.309 6.24126 122.836 7.43367 123.151C8.62727 123.466 16.2849 123.362 16.0855 124.415C15.8862 125.467 10.7155 127.152 7.83114 126.205C7.83114 126.205 11.0133 134.522 15.1909 134.1C19.3673 133.679 20.6606 130.941 23.246 130.731C25.8313 130.521 27.7214 131.257 26.4281 131.995C25.1349 132.732 20.7591 132.236 18.6709 134.115C16.5827 135.995 14.8919 137.153 18.7705 137.995C22.6492 138.837 29.6103 138.31 31.002 135.152C32.395 131.995 32.395 131.995 32.395 131.995Z" fill="#1EA54C"/>
<path d="M34.3834 139.679C32.2951 135.573 32.3948 131.993 32.3948 131.993C30.0076 123.993 9.12305 116.835 9.12305 116.835C35.6754 128.204 31.0019 135.152 31.0019 135.152C31.7176 135.595 32.7899 137.701 33.5356 139.318C33.6413 139.593 33.8094 139.974 34.0591 140.49C34.16 140.724 34.2417 140.915 34.2969 141.048C35.6634 144.67 34.9393 150.923 34.9393 150.923L35.7679 151.158C37.6039 144.856 34.3834 139.679 34.3834 139.679Z" fill="#82B378"/>
<path d="M44.2608 125.896C44.2608 125.896 34.4285 120.067 39.0168 112.157C39.0168 112.157 42.6877 107.3 46.6204 106.051C46.6204 106.051 44.5226 117.847 46.6204 118.125C48.7182 118.402 48.0626 104.803 48.0626 104.803C48.0626 104.803 58.4184 99.5302 62.4831 99.9459C62.4831 99.9459 56.06 111.464 58.1566 111.187C60.2544 110.91 67.4641 99.2531 67.4641 99.2531C67.4641 99.2531 78.0829 97.1709 79.7868 103.833C81.4908 110.494 78.7385 113.825 77.1655 114.242C75.5924 114.658 65.4984 114.519 65.7601 115.907C66.0219 117.295 72.8389 119.514 76.6407 118.266C76.6407 118.266 72.4463 129.229 66.9405 128.674C61.4348 128.119 59.7309 124.511 56.3217 124.234C52.9138 123.957 50.4222 124.928 52.1273 125.899C53.8313 126.871 59.6 126.217 62.3522 128.695C65.1045 131.172 67.3332 132.699 62.2213 133.809C57.1095 134.918 47.9329 134.226 46.0968 130.061C44.2608 125.896 44.2608 125.896 44.2608 125.896Z" fill="#1EA54C"/>
<path d="M74.9374 105.913C74.9374 105.913 47.4088 115.349 44.2626 125.896C44.2626 125.896 44.3935 130.614 41.6401 136.026C41.6401 136.026 37.3952 142.851 39.8148 151.158L40.9076 150.848C40.9076 150.848 39.9529 142.605 41.7553 137.832C41.8286 137.657 41.9355 137.404 42.0687 137.096C42.3978 136.415 42.6187 135.913 42.7592 135.55C43.7403 133.42 45.1548 130.642 46.0987 130.06C46.0975 130.059 39.9361 120.9 74.9374 105.913Z" fill="#82B378"/>
<path d="M43.9307 169.174C54.5676 169.174 63.1894 160.046 63.1894 148.787H24.6709C24.6709 160.046 33.2939 169.174 43.9307 169.174Z" fill="#0F0F0F"/>
<path d="M48.6685 169.018C47.8855 169.121 47.087 169.174 46.2753 169.174C35.6396 169.174 27.0166 160.046 27.0166 148.787H31.8006C31.8018 159.189 39.1616 167.771 48.6685 169.018Z" fill="#0F0F0F"/>
<path d="M61.0786 167.772H26.7797C25.4672 167.772 24.4033 168.898 24.4033 170.287H63.4538C63.4538 168.898 62.3899 167.772 61.0786 167.772Z" fill="#F1A34F"/>
<path d="M63.3313 148.787H24.3325C24.1692 148.787 24.0371 148.927 24.0371 149.1C24.0371 149.273 24.1692 149.413 24.3325 149.413H63.3313C63.4946 149.413 63.6267 149.273 63.6267 149.1C63.6267 148.927 63.4934 148.787 63.3313 148.787Z" fill="#D86713"/>
<path d="M211.945 41.4288C211.387 41.3385 209.704 42.986 209.704 42.986C206.113 43.4258 200.86 44.4351 198.97 44.8203C197.63 45.0936 194.026 43.7932 190.506 42.2995C186.318 40.5224 182.25 38.4733 182.25 38.4733C179.926 38.3474 177.288 42.8347 182 45.6885C182.72 46.1245 185.423 46.8669 188.534 47.5457C188.534 47.5457 188.534 47.5457 188.535 47.5457C192.828 48.4825 197.899 49.2948 199.626 49.0088C201.631 48.677 207.307 46.4791 210.684 44.7948C210.684 44.7948 210.688 44.7936 210.692 44.7898C210.706 44.7834 210.718 44.777 210.73 44.7707C210.933 44.6703 211.759 44.2813 212.31 44.3156C212.943 44.355 214.351 43.1296 214.395 42.8029C214.437 42.4749 212.503 41.5178 211.945 41.4288Z" fill="#ED975D"/>
<path d="M207.559 97.9553L205.582 98.3812C205.582 98.3812 196.531 87.6169 195.134 83.0864C194.388 80.6661 189.609 79.6199 184.615 78.2534C180.27 77.0636 175.761 75.631 173.606 72.8344C168.977 66.8268 176.513 59.4438 176.513 59.4438C176.513 59.4438 184.525 64.4853 191.438 69.692C196.269 73.3314 200.563 77.0521 201.211 79.1902C202.782 84.3906 206.115 94.2753 207.559 97.9553Z" fill="#757575"/>
<path d="M204.912 101.507H206.024C206.396 101.445 206.671 101.33 207.054 101.278C207.634 101.198 207.902 101.45 207.954 101.507C207.962 101.515 207.965 101.518 207.965 101.518H212.69C212.809 101.339 212.695 100.922 212.584 100.616C212.508 100.407 212.345 100.25 212.142 100.187C211.641 100.034 210.653 99.8964 209.748 99.0294C209.239 98.5426 207.29 97.2396 207.29 97.2396L207.28 97.2371C207.236 97.2383 207.033 97.3044 206.146 98.0964C205.687 98.5057 204.907 97.5193 204.907 97.5193C204.907 97.5193 204.76 97.6476 204.651 97.8866C204.563 98.076 204.498 98.3354 204.549 98.6544C204.62 99.1057 204.392 99.9434 204.21 100.509C204.1 100.852 204.007 101.096 204.007 101.096C204.007 101.096 203.955 101.38 204.912 101.507Z" fill="#E7EFEF"/>
<path d="M191.438 69.692L184.615 78.2534C180.27 77.0636 175.761 75.631 173.606 72.8344C168.977 66.8268 176.513 59.4438 176.513 59.4438C176.513 59.4438 184.526 64.4853 191.438 69.692Z" fill="#5E5E5E"/>
<path d="M185.239 65.2214C185.239 65.2214 184.689 67.057 183.793 69.8192C182.66 73.3124 180.974 78.2852 179.144 82.8971C178.742 83.9102 178.334 84.9068 177.922 85.8665C176.401 89.4156 174.843 92.4576 173.473 94.0046C171.009 96.7846 165.02 114.652 165.02 114.652L163.528 114.215C163.528 114.215 161.447 98.9571 168.817 90.2749C168.897 90.1821 168.958 90.0754 168.966 89.9508C168.968 89.9495 168.968 89.947 168.968 89.947C169.066 88.6618 169.417 82.906 170.179 77.0751C170.366 75.6437 170.579 74.2099 170.818 72.8357C170.832 72.748 170.849 72.6603 170.864 72.5739C171.985 66.218 173.059 63.3909 174.444 61.9697L184.635 65.0409L185.239 65.2214Z" fill="#979797"/>
<path d="M163.361 116.846H164.473C164.845 116.784 165.12 116.669 165.503 116.617C166.083 116.537 166.351 116.789 166.403 116.846C166.411 116.854 166.414 116.857 166.414 116.857H171.14C171.258 116.678 171.144 116.261 171.033 115.955C170.957 115.746 170.794 115.589 170.591 115.527C170.09 115.373 169.102 115.237 168.197 114.37C167.688 113.883 165.739 112.58 165.739 112.58L165.729 112.577C165.685 112.579 165.482 112.645 164.595 113.437C164.136 113.846 163.356 112.86 163.356 112.86C163.356 112.86 163.209 112.988 163.1 113.227C163.012 113.415 162.948 113.676 162.999 113.995C163.07 114.446 162.842 115.284 162.661 115.849C162.55 116.193 162.458 116.437 162.458 116.437C162.458 116.437 162.404 116.72 163.361 116.846Z" fill="#E7EFEF"/>
<path d="M165.546 44.4696C165.546 44.4696 163.841 48.8856 161.876 53.1835C160.222 56.7974 158.385 60.3275 157.22 61.08C155.577 62.1427 151.053 65.1389 148.117 67.3736C148.117 67.3736 145.825 67.3558 145.47 67.8198C145.115 68.2838 144.293 70.3697 144.532 70.5808C144.772 70.7918 146.593 70.6939 147.036 70.2134C147.421 69.7952 148.281 69.4939 148.495 69.424C148.508 69.4202 148.521 69.4151 148.534 69.4113C148.54 69.41 148.544 69.4087 148.544 69.4087C152.112 68.2469 157.706 65.8266 159.399 64.6431C160.857 63.6236 164.091 59.4084 166.669 55.6572C166.67 55.6572 166.67 55.6572 166.67 55.6572C168.54 52.9381 170.065 50.4619 170.32 49.6267C171.99 44.1594 167.186 42.7217 165.546 44.4696Z" fill="#FFB27D"/>
<path d="M174.463 27.1547C174.26 26.842 174.056 26.5661 173.852 26.3195C174.104 26.3246 174.378 26.2992 174.605 26.2C175.203 25.9382 175.477 23.9272 175.387 23.3297C175.297 22.7336 174.466 21.0086 173.44 20.8357C172.415 20.6641 171.356 21.8692 171.356 21.8692C171.545 20.9997 173.279 20.4976 173.279 20.4976C169.707 21.1954 169.888 23.7174 169.914 23.9501C166.643 22.717 164.724 29.2369 164.724 29.2369L173.195 34.5211C173.195 34.5211 173.217 33.0809 174.026 33.1737C175.286 33.3186 176.335 30.0428 174.463 27.1547Z" fill="black"/>
<path d="M175.004 40.835C173.06 41.8049 170.481 40.4079 170.495 40.3927C170.662 40.216 170.603 39.6884 170.451 38.9969C170.298 38.2762 169.937 37.2923 169.27 36.1164C169.131 35.866 168.993 35.6169 168.826 35.3525L169.048 35.2648L172.825 33.6631C172.825 33.6631 173.436 34.8237 174.075 35.8826C174.616 36.7647 175.186 37.558 175.435 37.5287C175.449 37.5135 177.948 39.3351 175.004 40.835Z" fill="#FFB27D"/>
<path d="M172.823 34.0583C172.726 35.4833 172.267 38.0562 170.449 38.9969C170.296 38.2761 169.935 37.2922 169.269 36.1164L172.823 34.0583Z" fill="#ED975D"/>
<path d="M169.048 37.7397C169.048 37.7397 173.964 35.688 172.711 32.4669C171.457 29.2457 171.247 26.8114 168.055 27.9847C164.863 29.158 164.735 30.6516 164.906 31.8351C165.078 33.0173 167.737 38.1897 169.048 37.7397Z" fill="#FFB27D"/>
<path d="M170.883 31.7322C173.153 31.3928 173.816 30.4216 173.816 30.4216C173.816 30.4216 171.725 29.786 170.497 27.6187C170.497 27.6187 167.945 26.7073 166.054 28.2301C165.938 28.389 165.855 28.5746 165.815 28.7945C165.381 28.6445 164.729 28.6827 164.353 29.9805C163.788 31.928 165.798 34.0559 165.798 34.0559C166.285 33.9097 165.735 32.1746 165.659 31.2479C165.602 30.5665 165.949 29.6932 166.136 29.2788C166.377 29.6094 168.772 32.7949 171.696 32.922C171.696 32.922 170.152 32.3551 168.746 31.2454C169.446 31.6089 170.189 31.8352 170.883 31.7322Z" fill="black"/>
<path d="M184.365 47.4719C184.323 47.3169 184.278 47.1554 184.231 46.9902C184.961 45.5131 185.321 44.1809 185.472 43.0546C185.806 40.6737 185.236 39.2042 185.236 39.2042C185.236 39.2042 181.826 37.2898 180.32 37.0458C180.314 37.0432 180.307 37.0407 180.301 37.0394C180.283 37.0369 180.263 37.0343 180.241 37.0331C178.721 36.8106 175.431 37.5225 175.431 37.5225C175.431 37.5225 176.066 39.311 174.274 40.5046C172.484 41.697 170.571 40.1995 170.571 40.1995C170.513 40.2402 170.452 40.286 170.388 40.333C170.388 40.333 165.676 43.6241 165.253 44.3766C164.83 45.1292 163.017 48.8524 163.017 48.8524C163.017 48.8524 163.592 51.9795 169.957 52.2401C170.481 53.5837 170.881 54.8943 171.012 55.9875C171.517 60.232 170.93 63.579 171.52 66.0565C172.109 68.534 182.73 67.1217 184.654 66.6451C186.578 66.1684 186.145 63.9946 186.293 61.882C186.479 59.2265 184.991 49.8134 184.365 47.4719Z" fill="#1D9F4A"/>
<path d="M185.471 43.0546C185.319 44.186 184.958 45.5232 184.221 47.008C184.055 46.2287 183.375 43.3775 182.277 42.0847C182.279 42.0835 184.125 42.2601 185.471 43.0546Z" fill="#AA3419"/>
<path d="M142.224 70.8692C142.224 70.8692 144.203 68.3307 144.629 68.0307C145.055 67.7307 146.924 67.2044 147.031 67.3099C147.137 67.4154 147.142 67.5692 146.911 67.7853C146.679 68.0014 145.795 68.548 145.921 68.609C146.047 68.6701 148.714 67.2654 149.098 67.7383C149.483 68.2112 148.881 70.1624 147.853 71.098C146.825 72.0336 143.758 72.4327 143.565 72.5624C141.93 73.6709 142.224 70.8692 142.224 70.8692Z" fill="#ED975D"/>
<path d="M107.385 65.0067C107.385 65.0067 110.227 68.5774 113.848 67.0838C113.848 67.0838 114.627 65.0893 114.638 63.6199C114.639 63.4393 114.641 63.2639 114.644 63.0974C114.663 61.4423 114.716 60.5131 114.716 60.5131C114.716 60.5131 114.715 60.5131 114.712 60.5118C114.548 60.4394 109.178 58.1055 109.182 58.2987C109.275 62.7771 107.385 65.0067 107.385 65.0067Z" fill="#FFB27D"/>
<path d="M109.721 59.3677C110.239 60.3834 112.016 62.3715 114.643 63.0973C114.663 61.4423 114.715 60.5131 114.715 60.5131C114.715 60.5131 114.714 60.5131 114.712 60.5118C114.563 60.4698 109.568 59.0677 109.721 59.3677Z" fill="#ED975D"/>
<path d="M115.841 60.3414C115.841 60.3414 109.802 61.8439 108.976 57.8486C108.15 53.8533 106.814 51.3567 110.634 50.2279C114.455 49.0991 115.521 50.4504 116.104 51.7126C116.686 52.9749 117.39 59.8469 115.841 60.3414Z" fill="#FFB27D"/>
<path d="M109.182 58.938C109.099 58.9939 107.8 59.4159 105.34 54.227C104.953 53.4122 104.69 51.6503 105.591 50.0932C106.491 48.536 109.684 47.3118 112.337 46.7792C114.989 46.2466 115.626 47.8267 116.251 49.4143C116.907 51.0809 118.801 52.4537 118.801 52.4537C116.513 53.8062 113.759 51.8715 112.804 52.1893C111.849 52.5071 111.512 54.0999 111.441 54.6109C111.369 55.1206 111.26 55.5452 110.059 55.0889C108.858 54.6325 109.516 56.8901 109.708 57.321C109.707 57.321 109.87 58.4702 109.182 58.938Z" fill="black"/>
<path d="M93.6269 158.698H89.9704C89.2043 158.698 88.3518 157.875 88.1392 156.368C87.9255 154.859 86.35 154.038 86.009 152.804C85.668 151.57 87.4151 149.833 87.4151 149.833L87.7069 149.43L88.0107 149.011L90.9071 149.742C90.9071 149.742 90.9779 150.481 91.0236 151.423C91.0548 152.104 91.0716 152.89 91.0356 153.581C90.9503 155.227 91.4654 156.998 92.8272 157.318C94.1913 157.637 93.6269 158.698 93.6269 158.698Z" fill="#2C3A64"/>
<path d="M119.081 158.735H109.39C109.297 158.715 109.226 158.693 109.184 158.67C108.537 158.317 108.74 155.617 108.818 154.783C108.834 154.629 108.843 154.538 108.843 154.538C108.843 154.538 112.251 151.567 112.721 153.841C112.735 153.912 112.753 153.982 112.771 154.051V154.052C113.363 156.182 116.007 157.148 117.535 157.417C118.701 157.624 119.003 158.365 119.081 158.735Z" fill="#2C3A64"/>
<path d="M117.129 99.4031C117.129 99.4031 116.611 106.24 116.002 114.456C115.175 125.62 114.181 139.331 114.082 141.928C113.912 146.438 113.23 153.653 113.23 153.653C113.23 153.653 111.612 155.367 108.374 154.645C108.374 154.645 105.488 144.345 104.663 133.448C104.65 133.268 104.638 133.089 104.625 132.909C103.859 121.815 102.665 98.4548 102.665 98.4548L117.129 99.4031Z" fill="#0F0F0F"/>
<path d="M117.129 99.4031C117.129 99.4031 116.611 106.239 116.002 114.456L104.664 133.449C104.651 133.27 104.639 133.09 104.626 132.91C103.86 121.816 102.666 98.4561 102.666 98.4561L117.129 99.4031Z" fill="#0F0F0F"/>
<path d="M114.764 100.215C114.764 100.215 105.435 124.973 99.2997 136.608C93.1648 148.243 91.2483 151.489 91.2483 151.489C91.2483 151.489 87.7335 150.001 87.4141 148.986C87.4141 148.986 89.7605 126.525 93.8684 121.049C96.1896 117.955 98.9167 108.67 99.0439 105.423C99.1712 102.177 99.8749 95.7498 99.8749 95.7498L114.764 100.215Z" fill="#0F0F0F"/>
<path d="M93.4037 96.0919C93.4037 96.0919 93.1624 99.1833 92.9846 99.6588C92.8081 100.133 91.6277 101.605 91.492 101.585C91.3551 101.563 91.2735 101.447 91.3431 101.149C91.4128 100.849 91.8187 99.9232 91.6902 99.9473C91.5617 99.9715 90.2108 102.579 89.674 102.431C89.1361 102.284 88.6101 100.43 88.9307 99.1211C89.2501 97.8118 91.4224 95.7563 91.5053 95.5452C92.2077 93.7554 93.4037 96.0919 93.4037 96.0919Z" fill="#ED975D"/>
<path d="M92.4021 96.8763C93.4348 97.2271 93.6005 97.1483 93.6005 97.1483C93.6005 97.1483 98.6259 87.462 99.135 86.5747C99.6442 85.6874 109.807 75.7125 109.807 75.7125L107.195 65.4033C107.195 65.4033 95.6371 81.2472 94.3882 83.5213C92.3252 87.2776 91.1172 96.0042 91.1172 96.0042C91.1172 96.0042 91.5915 96.6004 92.4021 96.8763Z" fill="#1D9F4A"/>
<path d="M119.098 79.7586C119.062 81.8764 118.945 84.256 118.789 86.6725C118.779 86.8162 118.77 86.9598 118.76 87.1022C118.66 88.5996 118.551 90.1009 118.426 91.564C118.376 92.1513 118.323 92.7309 118.268 93.3004L118.259 93.3767C118.255 93.5902 118.231 93.8216 118.208 94.0326C117.699 99.5152 117.164 103.846 117.065 103.912C116.946 103.996 116.812 104.038 116.667 104.019C115.309 103.838 111.257 104.165 107.94 103.4C105.141 102.774 102.73 101.59 100.175 99.9919C99.8365 99.7796 99.0632 99.2177 99.1256 98.7982C99.1869 98.3368 99.301 97.6694 99.4463 96.8317C99.9494 93.9157 100.818 88.8996 101.114 83.0293C101.172 81.9361 101.256 80.8556 101.365 79.7942C101.65 77.0281 102.106 74.4006 102.718 72.0667C103.856 67.7308 105.527 64.4117 107.624 63.1126C107.898 62.9499 109.372 63.9427 110.726 64.863C111.976 65.7122 113.293 65.9461 114.573 65.8278L115.699 67.1473C117.063 68.8265 118.516 71.0625 118.914 74.2392C118.944 74.4744 118.969 74.7235 118.991 74.9879C119.101 76.2858 119.129 77.9243 119.098 79.7586Z" fill="#1EA54C"/>
<path d="M119.097 79.7586C119.061 81.8764 118.945 84.256 118.788 86.6725C118.779 86.8162 118.769 86.9598 118.76 87.1022C111.002 81.9616 109.808 72.5562 109.808 72.5562C113.624 72.7328 116.656 73.6621 118.993 74.9904C119.101 76.2858 119.128 77.9243 119.097 79.7586Z" fill="#1C8841"/>
<path d="M143.402 71.1221C143.002 69.9767 142.38 70.0517 142.38 70.0517C142.38 70.0517 130.846 73.0949 129.811 73.2246C128.776 73.3555 117.391 68.5187 117.391 68.5187C117.391 68.5187 112.91 66.3895 110.811 68.3331C108.987 70.0225 108.904 72.1619 109.33 73.9593C109.839 76.1012 111.551 77.6826 113.62 77.9622C118.264 78.5889 127.532 79.7673 129.474 79.4813C133.797 78.8444 143.593 72.8585 143.593 72.8585C143.593 72.8585 143.716 72.022 143.402 71.1221Z" fill="#1D9F4A"/>
<path d="M257.134 93.5022C257.134 93.5022 258.736 95.0747 258.424 96.192C258.112 97.3094 256.665 98.0543 256.47 99.4195C256.276 100.785 255.493 101.53 254.789 101.53C254.085 101.53 251.435 101.53 251.435 101.53C251.435 101.53 250.918 100.569 252.168 100.279C253.419 99.989 253.89 98.3848 253.812 96.895C253.734 95.4052 253.929 93.4196 253.929 93.4196L256.587 92.7573L257.134 93.5022Z" fill="#0F0F0F"/>
<path d="M237.163 101.343C237.001 101.429 236.429 101.489 235.645 101.528H228.061C228.086 101.289 228.262 100.438 229.503 100.227C230.904 99.9852 233.331 99.1233 233.872 97.2267C233.891 97.1657 233.906 97.1034 233.919 97.0412C234.349 95.0136 237.475 97.6615 237.475 97.6615C237.475 97.6615 237.485 97.7428 237.498 97.8814C237.571 98.625 237.756 101.03 237.163 101.343Z" fill="#0F0F0F"/>
<path d="M229.873 47.1182C229.873 47.1182 230.347 53.3902 230.906 60.9295C231.665 71.1714 232.577 83.7509 232.667 86.1343C232.823 90.272 233.449 96.8923 233.449 96.8923C233.449 96.8923 234.933 98.4647 237.905 97.8024C237.905 97.8024 240.553 88.3525 241.31 78.3548C241.322 78.1908 241.334 78.0255 241.344 77.8603C242.048 67.682 243.142 46.25 243.142 46.25L229.873 47.1182Z" fill="#3C3E44"/>
<path d="M229.873 47.1183C229.873 47.1183 230.347 53.3902 230.906 60.9296L241.308 78.3535C241.32 78.1896 241.332 78.0243 241.343 77.859C242.047 67.6808 243.141 46.2488 243.141 46.2488L229.873 47.1183Z" fill="#0F0F0F"/>
<path d="M232.042 47.8633C232.042 47.8633 240.601 70.5779 246.23 81.2519C251.858 91.926 253.617 94.9056 253.617 94.9056C253.617 94.9056 256.841 93.5403 257.134 92.6098C257.134 92.6098 254.982 72.0016 251.213 66.9792C249.083 64.1407 246.581 55.6225 246.465 52.6429C246.347 49.6645 245.702 43.7676 245.702 43.7676L232.042 47.8633Z" fill="#3C3E44"/>
<path d="M205.641 35.5434C205.641 35.5434 203.32 34.9816 202.929 35.0096C202.538 35.0375 201.171 35.6439 201.153 35.7608C201.135 35.8778 201.199 35.9731 201.435 35.9909C201.671 36.0074 202.448 35.9019 202.399 36.0011C202.35 36.1002 200.11 36.5667 200.086 37.0434C200.061 37.5201 201.288 38.4074 202.325 38.4671C203.361 38.5269 205.399 37.2519 205.574 37.2354C207.057 37.0981 205.641 35.5434 205.641 35.5434Z" fill="#FFB27D"/>
<path d="M204.648 36.1676C204.316 35.0451 204.394 34.8659 204.394 34.8659C204.394 34.8659 213.804 29.4786 214.667 28.932C215.529 28.3854 225.254 17.4292 225.254 17.4292L235.216 20.3313C235.216 20.3313 219.8 32.7621 217.591 34.1019C213.94 36.3137 205.485 37.5658 205.485 37.5658C205.485 37.5658 204.909 37.0498 204.648 36.1676Z" fill="#1D9F4A"/>
<path d="M228.271 12.1041C228.271 12.1041 224.779 18.6087 221.365 19.4579C221.365 19.4579 221.507 17.2727 222.339 15.7778C221.998 15.3533 221.7 14.963 221.441 14.6134C220.581 13.4478 220.173 12.7346 220.173 12.7346L221.332 9.43721L222.118 7.19995C222.496 7.92579 222.912 8.54485 223.347 9.07366C225.583 11.7965 228.271 12.1041 228.271 12.1041Z" fill="#FFB27D"/>
<path d="M223.346 9.07365C223.346 9.07365 223.762 12.3329 221.44 14.6134C220.58 13.4477 220.172 12.7346 220.172 12.7346L221.331 9.4372C222.574 9.03678 223.346 9.07365 223.346 9.07365Z" fill="#ED975D"/>
<path d="M219.252 13.2151C219.252 13.2151 224.471 11.0618 223.153 7.64232C221.836 4.22286 221.624 1.64238 218.236 2.87287C214.849 4.10337 214.708 5.68598 214.886 6.94063C215.062 8.194 217.861 13.6867 219.252 13.2151Z" fill="#FFB27D"/>
<path d="M246.208 45.4839C244.103 48.6873 228.365 52.9686 228.552 50.7504C228.622 49.9013 228.719 48.4051 228.549 46.3763C228.51 45.9009 228.454 45.3975 228.382 44.8649C227.982 41.9513 227.033 38.2039 224.914 33.868C224.756 33.5425 224.59 33.2158 224.418 32.8841C223.547 31.2048 222.803 29.4303 222.236 27.6939C221.146 24.3583 220.707 21.1664 221.257 19.0804C221.259 19.0702 221.263 19.0613 221.265 19.0512C224.555 17.4406 225.829 11.1953 225.829 11.1953C225.829 11.1953 237.053 13.3283 243.34 29.1659C243.341 29.1659 248.04 42.695 246.208 45.4839Z" fill="#1EA54C"/>
<path d="M228.549 46.3763C228.509 45.9008 228.454 45.3975 228.382 44.8648C227.982 41.9513 227.032 38.2039 224.914 33.8679C225.278 31.534 225.78 29.593 226.331 28.7197C228.569 25.168 229.873 24.6138 229.873 24.6138C229.873 24.6138 233.23 39.5996 228.549 46.3763Z" fill="#1B8B42"/>
<path d="M210.857 42.8105C210.857 42.8105 207.752 42.9834 207.272 43.1665C206.79 43.3495 205.278 44.6271 205.295 44.7809C205.312 44.9347 205.426 45.03 205.727 44.9626C206.03 44.894 206.97 44.4682 206.941 44.6118C206.913 44.7554 204.259 46.1881 204.388 46.7957C204.518 47.4046 206.358 48.0529 207.68 47.7363C209.002 47.4185 211.13 45.0465 211.344 44.9614C213.159 44.2279 210.857 42.8105 210.857 42.8105Z" fill="#FFB27D"/>
<path d="M210.272 44.0577C209.65 42.9937 210.097 42.5081 210.097 42.5081C210.097 42.5081 219.688 34.5582 220.44 33.7548C221.192 32.9514 224.674 20.1634 224.674 20.1634C224.674 20.1634 225.873 14.9885 228.68 14.4177C231.119 13.922 232.805 15.1995 233.908 16.6969C235.223 18.4817 235.352 20.9427 234.261 22.8888C231.813 27.2566 226.873 35.9285 225.429 37.4094C222.218 40.7069 211.476 45.3136 211.476 45.3136C211.476 45.3136 210.76 44.8928 210.272 44.0577Z" fill="#1D9F4A"/>
<path d="M223.903 1.29024C223.939 1.21397 224.046 1.13262 224.305 1.04872C224.305 1.04872 224.063 0.962278 223.78 1.02838C223.633 0.649569 223.278 0.00508469 222.609 0C222.609 0 222.992 0.105507 223.133 0.511012C222.218 -0.102965 220.522 -0.280929 216.286 1.21143C210.705 3.1792 213.493 6.6101 214.339 6.88467C215.185 7.15925 216.743 5.39486 218.143 5.15334C219.543 4.91181 220.302 6.97747 220.835 7.14908C221.369 7.32069 221.066 6.85035 221.625 6.38002C222.185 5.90968 222.505 7.01688 222.493 7.79483C222.481 8.57279 223.572 9.31007 223.572 9.31007C223.572 9.31007 223.572 9.31007 224.212 8.06814C224.852 6.8262 224.678 2.31862 224.067 1.50634C224.012 1.43643 223.958 1.36397 223.903 1.29024Z" fill="black"/>
<path d="M315.585 171.481H0.415481C0.187327 171.481 0 171.283 0 171.041V170.727C0 170.486 0.187327 170.288 0.415481 170.288H315.585C315.813 170.288 316 170.486 316 170.727V171.041C316 171.283 315.813 171.481 315.585 171.481Z" fill="#2E3552"/>
<path d="M135.673 158.567V165.255L120.72 158.567H135.673Z" fill="black"/>
<path d="M263.642 101.529H214.19V170.288H263.642V101.529Z" fill="#0F0F0F"/>
<path d="M248.394 101.529H198.94V170.288H248.394V101.529Z" fill="#434445"/>
<path d="M263.641 101.529V111.811L248.394 101.529H263.641Z" fill="black"/>
</svg>
