<svg width="29" height="29" viewBox="0 0 29 29" fill="none" xmlns="http://www.w3.org/2000/svg">
<path d="M5.68678 0.0078125C2.56299 0.0078125 0.00634766 2.56439 0.00634766 5.68825V23.3156C0.00634766 26.4394 2.56293 28.9951 5.68678 28.9951H23.3142C26.438 28.9951 28.9937 26.4395 28.9937 23.3156V5.68825C28.9937 2.56445 26.438 0.0078125 23.3142 0.0078125H5.68678ZM7.11549 4.7913C8.61329 4.7913 9.53586 5.77458 9.56434 7.06708C9.56434 8.33105 8.61323 9.34196 7.08652 9.34196H7.05842C5.58914 9.34196 4.63947 8.3311 4.63947 7.06708C4.63947 5.77461 5.61788 4.7913 7.11547 4.7913H7.11549ZM20.0228 10.8323C22.9034 10.8323 25.0627 12.715 25.0627 16.7609V24.314H20.6851V17.2673C20.6851 15.4966 20.0515 14.2885 18.4673 14.2885C17.2579 14.2885 16.537 15.1028 16.2205 15.8894C16.1049 16.1708 16.0764 16.5638 16.0764 16.9575V24.314H11.6988C11.6988 24.314 11.7562 12.3772 11.6988 11.1412H16.0773V13.0066C16.6591 12.109 17.6997 10.8323 20.0228 10.8323V10.8323ZM4.89769 11.1422H9.27533V24.314H4.89769V11.1422Z" fill="#E7EFEF" fill-opacity="0.7"/>
</svg>
