<svg width="495" height="372" viewBox="0 0 495 372" fill="none" xmlns="http://www.w3.org/2000/svg">
<g filter="url(#filter0_d)">
<path d="M485.61 40.562H42.5669V364.453H485.61V40.562Z" fill="#1D2833"/>
<path d="M485.61 364.453C485.61 361.046 485.454 236.832 485.201 40.5619L485.61 40.9707C361.279 40.9902 208.056 41.0291 42.6057 41.0681H42.5667L43.073 40.5619C43.0535 156.774 43.034 266.931 43.034 364.453L42.5667 363.986C304.682 364.278 481.541 364.453 485.61 364.453C481.541 364.453 304.682 364.648 42.5667 364.92H42.0995V364.453C42.08 266.931 42.0605 156.774 42.0605 40.5619V40.0557H42.5667H42.6057C208.056 40.0946 361.279 40.1141 485.61 40.153H486.019V40.5619C485.766 236.832 485.61 361.046 485.61 364.453Z" fill="#263238"/>
<path d="M487.109 87.6971C487.109 87.9697 388.147 88.2033 266.094 88.2033C144.002 88.2033 45.0586 87.9697 45.0586 87.6971C45.0586 87.4245 144.002 87.1909 266.094 87.1909C388.127 87.1909 487.109 87.4245 487.109 87.6971Z" fill="#E0E0E0"/>
<path d="M70.9726 63.1267C70.9726 66.8064 67.9938 69.8047 64.2947 69.8047C60.615 69.8047 57.6167 66.8259 57.6167 63.1267C57.6167 59.447 60.5955 56.4487 64.2947 56.4487C67.9938 56.4487 70.9726 59.447 70.9726 63.1267Z" fill="#E0E0E0"/>
<path d="M91.0845 63.1267C91.0845 66.8064 88.1056 69.8047 84.4065 69.8047C80.7268 69.8047 77.7285 66.8259 77.7285 63.1267C77.7285 59.447 80.7073 56.4487 84.4065 56.4487C88.0862 56.4487 91.0845 59.447 91.0845 63.1267Z" fill="#E0E0E0"/>
<path d="M111.177 63.1267C111.177 66.8064 108.198 69.8047 104.499 69.8047C100.819 69.8047 97.8208 66.8259 97.8208 63.1267C97.8208 59.447 100.8 56.4487 104.499 56.4487C108.198 56.4487 111.177 59.447 111.177 63.1267Z" fill="#E0E0E0"/>
<path d="M92.778 166.855L95.5816 165.083C100.721 161.812 107.516 163.584 110.437 168.919C114.934 177.115 120.522 188.544 120.522 188.544L108.723 207.234L104.771 207.351C100.468 210.096 90.4417 204.567 83.6469 200.439C76.8521 196.312 80.2008 192.165 80.2008 192.165C75.9371 186.305 81.8168 183.891 81.8168 183.891C78.215 178.556 83.5496 174.935 83.5496 174.935" fill="#FFBE9D"/>
<path d="M86.8923 107.758L1.53711 124.115L24.4415 243.639L109.797 227.282L86.8923 107.758Z" fill="white"/>
<path d="M24.441 243.641C24.441 243.661 24.3826 243.466 24.3047 243.116C24.2269 242.707 24.1101 242.181 23.9543 241.48C23.6623 239.981 23.2145 237.82 22.6693 235.036C21.5401 229.332 19.9242 221.038 17.8604 210.583C13.7524 189.478 7.95054 159.573 1.07788 124.217L1 123.75L1.44779 123.672C27.2251 118.707 56.2344 113.139 86.7817 107.279H86.8012L87.3074 107.181L87.4047 107.687C95.9517 152.447 103.837 193.839 110.223 227.229L110.301 227.638L109.892 227.716C83.9392 232.602 62.5424 236.613 47.6095 239.436C40.2306 240.799 34.4288 241.889 30.4376 242.61C28.5101 242.96 27.011 243.233 25.9596 243.427C24.9472 243.583 24.441 243.641 24.441 243.641C24.441 243.641 24.9862 243.505 26.018 243.291C27.0889 243.077 28.588 242.765 30.5544 242.376C34.5456 241.578 40.3669 240.429 47.7652 238.969C62.6203 236.068 83.9003 231.921 109.717 226.878L109.386 227.365C102.961 193.975 94.9977 152.603 86.3923 107.863L86.9764 108.271H86.9569C56.3901 114.112 27.4004 119.661 1.60355 124.587L1.97346 124.042C8.63196 159.3 14.2781 189.127 18.2498 210.193C20.2162 220.726 21.7737 229.059 22.8445 234.802C23.3702 237.645 23.7596 239.825 24.0516 241.364C24.1879 242.084 24.2853 242.649 24.3437 243.057C24.4216 243.427 24.4605 243.622 24.441 243.641Z" fill="#263238"/>
<path d="M15.7966 151.493C15.7382 151.221 29.8339 148.281 47.2589 144.952C64.7034 141.603 78.8771 139.13 78.916 139.403C78.9744 139.675 64.8787 142.615 47.4536 145.945C30.0092 149.293 15.8355 151.785 15.7966 151.493Z" fill="#263238"/>
<path d="M17.4128 159.943C17.3544 159.67 31.4501 156.73 48.8752 153.401C66.3196 150.052 80.4933 147.58 80.5322 147.852C80.5906 148.125 66.4949 151.065 49.0699 154.394C31.6254 157.723 17.4517 160.215 17.4128 159.943Z" fill="#263238"/>
<path d="M19.0285 168.373C18.9701 168.101 33.0659 165.161 50.4909 161.831C67.9354 158.483 82.109 156.01 82.148 156.283C82.2064 156.555 68.1106 159.495 50.6856 162.824C33.2606 166.173 19.0674 168.665 19.0285 168.373Z" fill="#263238"/>
<path d="M20.6447 176.823C20.5863 176.551 34.6821 173.611 52.1071 170.282C69.5516 166.933 83.7252 164.46 83.7642 164.733C83.8226 165.006 69.7268 167.945 52.3018 171.275C34.8768 174.604 20.6837 177.096 20.6447 176.823Z" fill="#263238"/>
<path d="M22.2604 185.253C22.202 184.98 36.2978 182.04 53.7228 178.711C71.1673 175.362 85.341 172.89 85.3799 173.162C85.4383 173.435 71.3425 176.375 53.9175 179.704C36.4925 183.053 22.3188 185.525 22.2604 185.253Z" fill="#263238"/>
<path d="M23.8766 193.703C23.8182 193.431 37.914 190.491 55.339 187.162C72.7835 183.813 86.9572 181.34 86.9961 181.613C87.0545 181.885 72.9587 184.825 55.5337 188.155C38.1087 191.484 23.9351 193.976 23.8766 193.703Z" fill="#263238"/>
<path d="M25.4924 202.133C25.434 201.861 39.5297 198.921 56.9548 195.592C74.3992 192.243 88.5729 189.77 88.6118 190.043C88.6702 190.316 74.5745 193.255 57.1494 196.585C39.7244 199.933 25.5508 202.406 25.4924 202.133Z" fill="#263238"/>
<path d="M27.1081 210.583C27.0497 210.31 41.1455 207.37 58.5705 204.041C76.015 200.692 90.1886 198.22 90.2275 198.492C90.286 198.765 76.1902 201.705 58.7652 205.034C41.3401 208.363 27.1665 210.855 27.1081 210.583Z" fill="#263238"/>
<path d="M28.7243 219.013C28.6659 218.741 42.7617 215.801 60.1867 212.472C77.6312 209.123 91.8048 206.65 91.8438 206.923C91.9022 207.195 77.8064 210.135 60.3814 213.465C42.9564 216.813 28.7827 219.286 28.7243 219.013Z" fill="#263238"/>
<path d="M75.1392 114.424C75.217 114.404 75.4117 115.164 75.7427 116.546C76.0932 118.142 76.5215 120.109 77.0277 122.406C77.164 123.029 77.3002 123.691 77.4365 124.353C77.5728 125.093 77.5534 125.911 77.3197 126.689C76.8525 128.247 75.4117 129.668 73.5621 129.96C71.732 130.311 69.6099 129.415 68.5975 127.624C68.3444 127.176 68.1497 126.709 68.0523 126.183C67.955 125.735 67.8771 125.268 67.7798 124.801C67.6045 123.866 67.4293 122.932 67.2346 121.978C66.8647 120.07 66.5143 118.22 66.1833 116.429C66.0081 115.533 65.8523 114.657 65.6965 113.781C65.5408 112.944 65.3461 112.01 65.424 111.114C65.5603 109.303 66.4948 107.707 67.7408 106.694C68.9869 105.682 70.5055 105.273 71.8488 105.293C74.6135 105.371 76.3463 107.142 77.0082 108.388C77.3587 109.031 77.5144 109.576 77.5923 109.965C77.6507 110.335 77.6702 110.53 77.6312 110.549C77.5339 110.569 77.4365 109.751 76.6772 108.602C75.9569 107.493 74.302 105.994 71.8488 106.013C70.6612 106.032 69.3568 106.441 68.286 107.337C67.2346 108.233 66.4559 109.615 66.3585 111.172C66.3001 111.951 66.4753 112.71 66.6505 113.606C66.8258 114.463 67.001 115.339 67.1762 116.234C67.5267 118.026 67.8771 119.875 68.247 121.783C68.4223 122.737 68.6169 123.672 68.7922 124.606C68.8895 125.073 68.9674 125.521 69.0453 125.969C69.1231 126.378 69.2789 126.748 69.4736 127.118C70.2718 128.539 71.9462 129.298 73.4259 129.026C74.925 128.812 76.1126 127.702 76.5409 126.417C76.7551 125.774 76.794 125.112 76.6967 124.489C76.5799 123.808 76.4631 123.165 76.3463 122.523C75.9569 120.187 75.6454 118.201 75.3728 116.585C75.1586 115.222 75.0808 114.443 75.1392 114.424Z" fill="#263238"/>
<path d="M100.547 163.447C99.9042 163.506 74.6136 167.438 74.6136 167.438C74.1658 169.775 75.5286 173.065 81.4862 173.162C87.1323 173.26 92.2333 172.773 92.2333 172.773C92.2333 172.773 98.4829 185.817 104.635 187.278C110.788 188.738 107.77 174.739 107.77 174.739L100.547 163.447Z" fill="#FFBE9D"/>
<path d="M390.367 81.093C392.547 75.992 394.786 70.7158 394.981 65.1476C395.195 59.5599 392.898 53.5244 388.089 50.9934C383.63 48.6571 378.159 49.7474 373.448 48.073C367.626 45.9898 363.947 40.1296 361.357 34.3472C358.768 28.5648 362.37 26.4621 357.989 21.9842C352.187 16.046 348.41 15.1894 341.07 18.8107C335.794 15.0726 317.435 8.29726 312.139 8.12204C304.293 7.88841 295.356 8.51142 289.866 14.1381C285.622 18.4992 282.915 24.0479 277.698 27.2019C270.514 31.5241 261.363 27.8444 252.991 28.1559C251.278 28.2144 249.292 28.6621 248.591 30.2197C247.988 31.5631 248.63 33.1206 249.273 34.4445C251.434 38.9419 253.595 43.4588 255.756 47.9562C252.251 49.5916 247.968 49.4748 244.542 47.6836C244.911 56.5032 248.513 65.1671 254.49 71.6503C253.011 70.599 250.772 71.6893 250.032 73.3442C249.292 74.9991 249.623 76.946 250.11 78.6982C253.03 89.4842 260.798 98.8684 270.845 103.736C280.91 108.603 293.078 108.895 303.358 104.515L349.539 108C350.824 111.601 353.901 114.463 357.502 115.398C362.681 111.562 363.499 109.421 363.499 109.421C366.672 111.796 364.18 110.589 366.672 111.796C372.396 114.522 380.866 111.29 382.15 104.904C382.696 102.237 383.435 99.6861 385.227 97.856C387.057 96.0064 389.666 95.2861 391.963 94.1179C395.604 92.2878 398.621 89.1922 400.413 85.4541C396.675 85.5125 392.956 83.8965 390.367 81.093Z" fill="#263238"/>
<path d="M357.697 61.2925L358.885 156.614C359.079 172.832 356.062 196.682 330.421 195.825C308.226 193.411 302.346 172.404 302.171 157.276C302.093 150.092 302.015 144.115 301.956 143.375C301.956 143.375 277.659 141.389 275.615 117.403C274.622 105.799 274.524 81.7547 274.699 59.988C274.875 36.6249 293.001 17.3113 316.305 15.6175L318.622 15.4423C343.699 15.0918 358.028 36.1966 357.697 61.2925Z" fill="#FFBE9D"/>
<path d="M301.937 143.394C301.937 143.394 317.143 143.18 332.543 131.869C332.543 131.869 326.196 149.975 302.073 149.547L301.937 143.394Z" fill="#EB996E"/>
<path d="M315.702 69.8396C316.169 70.3263 318.954 68.0873 322.964 67.99C326.975 67.8148 329.993 69.859 330.401 69.3334C330.616 69.0997 330.109 68.2236 328.805 67.2891C327.52 66.374 325.339 65.5174 322.828 65.5953C320.316 65.6926 318.253 66.6855 317.065 67.698C315.858 68.7104 315.469 69.6254 315.702 69.8396Z" fill="#263238"/>
<path d="M314.982 78.7757C315.04 80.489 316.559 81.8518 318.35 81.8129C320.141 81.774 321.543 80.3527 321.484 78.6394C321.426 76.9261 319.907 75.5633 318.116 75.5827C316.306 75.6411 314.904 77.0624 314.982 78.7757Z" fill="#263238"/>
<path d="M305.636 97.7975C305.636 97.5833 303.319 97.3497 299.562 97.155C298.608 97.1355 297.712 96.9992 297.498 96.3762C297.226 95.7143 297.537 94.6629 297.926 93.5337C298.647 91.1974 299.406 88.7248 300.185 86.1548C303.3 75.6609 305.5 67.0555 305.072 66.9192C304.643 66.8024 301.762 75.2131 298.647 85.707C297.907 88.2965 297.187 90.7691 296.505 93.1248C296.233 94.2151 295.707 95.4806 296.291 96.8629C296.603 97.5444 297.323 98.0116 297.946 98.1285C298.569 98.2647 299.095 98.2453 299.562 98.2258C303.3 98.1674 305.636 98.0116 305.636 97.7975Z" fill="#263238"/>
<path d="M317.415 54.7312C317.805 55.6268 321.017 54.9453 324.872 55.14C328.727 55.2568 331.901 56.1914 332.348 55.3347C332.543 54.9259 331.939 54.1082 330.635 53.3099C329.331 52.5117 327.306 51.8108 324.989 51.7134C322.672 51.6161 320.608 52.1612 319.265 52.8427C317.902 53.5241 317.24 54.3029 317.415 54.7312Z" fill="#263238"/>
<path d="M279.236 62.1682C279.664 62.8885 282.799 62.0903 286.595 61.9735C290.392 61.7788 293.546 62.3434 293.955 61.5841C294.13 61.2142 293.507 60.5717 292.183 59.9876C290.879 59.4035 288.834 58.9752 286.556 59.0531C284.278 59.1504 282.254 59.754 280.969 60.4354C279.645 61.1168 279.041 61.8177 279.236 62.1682Z" fill="#263238"/>
<path d="M357.035 79.2233C357.425 79.0091 373.175 73.1294 373.857 89.6004C374.538 106.052 357.872 103.346 357.814 102.878C357.775 102.392 357.035 79.2233 357.035 79.2233Z" fill="#FFBE9D"/>
<path d="M362.584 96.4343C362.662 96.3759 362.876 96.629 363.382 96.8237C363.869 97.0184 364.687 97.1352 365.524 96.7847C367.237 96.0838 368.581 93.2608 368.542 90.282C368.522 88.7829 368.152 87.3616 367.568 86.2129C367.023 85.0253 366.205 84.2271 365.329 84.1102C364.453 83.935 363.849 84.4996 363.674 84.9669C363.48 85.4341 363.596 85.7651 363.499 85.7846C363.46 85.8235 363.129 85.5315 363.246 84.8306C363.304 84.4996 363.48 84.1102 363.849 83.7793C364.239 83.4483 364.803 83.2536 365.426 83.2925C366.692 83.3315 367.899 84.4412 368.522 85.7262C369.223 87.0112 369.69 88.5882 369.71 90.282C369.749 93.6112 368.172 96.7847 365.816 97.5635C364.667 97.914 363.694 97.6025 363.168 97.2325C362.642 96.8237 362.526 96.4538 362.584 96.4343Z" fill="#EB996E"/>
<path d="M309.511 109.206C309.336 108.797 312.548 107.824 314.826 104.806C315.955 103.327 316.617 101.691 317.104 100.503C317.591 99.3159 317.941 98.5566 318.116 98.615C318.291 98.6734 318.233 99.4716 317.98 100.776C317.707 102.061 317.143 103.891 315.858 105.585C314.592 107.298 312.898 108.311 311.652 108.797C310.406 109.304 309.55 109.343 309.511 109.206Z" fill="#263238"/>
<path d="M378.919 52.5896C375.492 46.7877 374.694 39.8567 372.825 33.3734C370.956 26.8901 367.334 20.1927 360.987 17.9148L360.851 17.9732C355.147 15.6758 348.118 15.6563 343.426 19.6086C342.258 11.0616 334.762 4.28625 326.41 2.08622C318.058 -0.113811 304.663 1.2101 296.661 4.42253C290.47 6.9146 284.492 12.0156 277.211 19.5112C274.154 22.6653 271.331 26.0724 268.82 29.6937L261.558 52.1223C260.779 52.6869 260.097 53.3878 259.513 54.1666C256.632 58.0994 262.025 63.0446 265.685 59.8127C265.705 59.7932 265.724 59.7737 265.744 59.7543C266.483 61.0198 267.048 62.3047 267.652 63.5897V63.6287L267.788 63.8623C268.158 64.6605 268.547 65.4588 269.014 66.257V66.1986L274.622 90.983C274.972 84.2272 274.485 60.7277 274.836 53.9719C285.271 53.5241 294.694 49.3187 301.684 41.5699C305.383 37.4814 308.284 32.361 313.21 29.9273C319.576 26.7733 327.15 29.0707 333.867 31.407L333.575 31.1539C337.06 32.7698 340.233 35.0672 342.861 37.8708C341.343 51.1683 342.745 64.7968 346.911 77.5103C347.534 79.4183 349.267 83.3705 351.136 84.1104C354.835 85.5316 355.828 81.774 358.047 79.7687C359.683 78.289 362.117 78.1138 364.764 78.1138C366.322 74.0058 367.938 67.0942 369.281 61.0392C371.52 61.7207 373.895 61.8959 376.193 61.5065C375.492 59.8127 374.772 58.1188 374.071 56.425C374.986 57.0091 375.94 57.6126 377.03 57.7684C378.101 57.9242 379.347 57.5153 379.834 56.5418C380.476 55.2569 379.639 53.7967 378.919 52.5896Z" fill="#263238"/>
<path d="M335.872 22.3735C335.833 22.4319 336.885 23.016 338.286 24.5736C339.669 26.1311 341.226 28.8568 341.966 32.5365C342.336 34.3666 342.589 36.4304 342.589 38.6304C342.609 40.8499 342.414 43.2057 342.258 45.6978C342.102 48.1898 341.927 50.8376 342.083 53.5633C342.161 54.9262 342.336 56.328 342.628 57.7103C342.939 59.0732 343.29 60.5528 344.322 61.7405C345.14 62.6944 346.522 63.1228 347.709 62.8891C348.917 62.675 349.968 62.0325 350.766 61.1758C352.304 59.3652 352.694 57.0873 353.083 55.0625L352.577 55.1209C353.395 56.9315 354.251 58.7227 355.497 60.144C356.724 61.5847 358.437 62.5387 360.17 62.6944C361.026 62.7723 361.903 62.636 362.642 62.2661C363.402 61.8962 363.947 61.2732 364.317 60.6112C364.667 59.9298 364.862 59.19 364.823 58.4891C364.784 57.7687 364.511 57.1068 364.044 56.62L363.791 56.8537C365.641 58.9563 367.588 60.0856 368.95 60.728C369.632 61.0396 370.177 61.2342 370.547 61.3511C370.917 61.4679 371.112 61.5068 371.112 61.4873C371.112 61.4679 370.936 61.39 370.566 61.2537C370.216 61.098 369.671 60.8838 369.009 60.5528C367.704 59.8909 365.796 58.7227 364.025 56.62L363.772 56.8537C364.57 57.7103 364.628 59.2094 363.927 60.4165C363.577 61.0201 363.071 61.5652 362.409 61.8767C361.747 62.2077 360.949 62.3245 360.17 62.2467C358.573 62.0909 356.996 61.1953 355.828 59.8325C354.641 58.4696 353.823 56.7174 353.025 54.9067L352.674 54.128L352.518 54.9651C352.129 56.9705 351.72 59.1705 350.318 60.8059C349.617 61.5847 348.644 62.1688 347.593 62.344C346.541 62.5387 345.432 62.2077 344.711 61.3705C343.816 60.3581 343.446 58.9563 343.154 57.5935C342.862 56.2306 342.706 54.8678 342.609 53.5244C342.453 50.8376 342.609 48.2093 342.764 45.7172C342.92 43.2251 343.076 40.8499 343.056 38.6109C343.037 36.372 342.764 34.2887 342.375 32.4392C341.577 28.7011 339.922 25.9559 338.462 24.3983C336.962 22.8797 335.872 22.3735 335.872 22.3735Z" fill="#455A64"/>
<path d="M261.597 45.7364C261.597 45.7364 261.655 45.7948 261.791 45.8922C261.947 46.009 262.142 46.1453 262.395 46.3205C262.648 46.5152 262.998 46.7488 263.407 46.963C263.816 47.1966 264.303 47.4887 264.868 47.7223C267.106 48.7736 270.669 49.825 275.147 49.5719C279.567 49.3188 284.882 47.7612 289.632 44.2178C294.422 40.7718 298.627 35.6903 302.073 29.8689C303.826 26.968 305.247 23.9892 306.804 21.2246C308.362 18.4794 310.075 15.9289 312.158 13.9236C314.222 11.8988 316.617 10.4191 319.07 9.71823C320.297 9.34832 321.543 9.27044 322.711 9.28991C323.898 9.34832 325.008 9.60142 326.06 9.9324C328.123 10.6333 329.798 11.7625 331.063 12.9501C332.329 14.1378 333.185 15.3838 333.769 16.4546C334.86 18.6546 334.918 20.0759 335.015 20.0564C335.015 20.0564 335.015 19.9786 334.996 19.8033C334.957 19.6086 334.918 19.3555 334.879 19.0635C334.762 18.421 334.49 17.4865 333.964 16.3573C333.399 15.2475 332.562 13.9431 331.277 12.7165C330.012 11.4899 328.318 10.3023 326.176 9.56248C325.106 9.19256 323.957 8.93946 322.73 8.86159C321.504 8.82265 320.199 8.90052 318.934 9.27044C316.364 9.95186 313.891 11.4899 311.789 13.5537C309.647 15.598 307.875 18.1874 306.298 20.952C304.702 23.7167 303.28 26.6955 301.548 29.5769C298.141 35.3593 293.994 40.3824 289.282 43.7895C284.629 47.294 279.431 48.871 275.069 49.163C270.669 49.4745 267.145 48.5011 264.906 47.5081C262.706 46.5541 261.655 45.6585 261.597 45.7364Z" fill="#455A64"/>
<path d="M259.416 35.184C259.396 35.223 259.708 35.4371 260.273 35.7876C260.837 36.1575 261.713 36.6053 262.823 37.092C263.933 37.5788 265.296 38.046 266.853 38.4159C268.411 38.7664 270.163 39.039 272.013 39.0974C273.862 39.1558 275.634 39 277.211 38.7469C278.788 38.4743 280.19 38.1044 281.319 37.6761C282.448 37.2672 283.363 36.8779 283.947 36.5469C284.551 36.2354 284.862 36.0407 284.843 36.0017C284.804 35.9044 283.46 36.5858 281.202 37.3062C280.073 37.6761 278.691 37.9876 277.133 38.2407C275.575 38.4549 273.843 38.5912 272.032 38.5522C270.221 38.4743 268.508 38.2407 266.97 37.9292C265.432 37.5788 264.069 37.1699 262.959 36.7416C260.759 35.8655 259.474 35.0867 259.416 35.184Z" fill="#455A64"/>
<path d="M279.041 71.3576C279.528 71.8444 282.292 69.6054 286.303 69.5081C290.314 69.3328 293.332 71.3771 293.74 70.8514C293.955 70.6178 293.448 69.7417 292.144 68.8072C290.859 67.8921 288.678 67.0355 286.167 67.1133C283.655 67.2107 281.592 68.2036 280.404 69.216C279.197 70.2284 278.807 71.1435 279.041 71.3576Z" fill="#263238"/>
<path d="M281.319 79.3211C281.378 81.0344 282.896 82.3972 284.687 82.3583C286.479 82.3194 287.88 80.8981 287.822 79.1848C287.764 77.4715 286.245 76.1087 284.454 76.1281C282.663 76.1865 281.261 77.6078 281.319 79.3211Z" fill="#263238"/>
<path d="M263.096 168.471L176.263 225.302L123.345 184.046L106.854 210.154C106.854 210.154 137.655 245.803 149.083 257.913C160.492 270.023 168.105 276.486 177.1 275.318C186.095 274.17 261.285 244.966 261.285 244.966L272.674 165.258L267.904 166.407C266.191 166.796 264.556 167.517 263.096 168.471Z" fill="#526A76"/>
<path d="M359.994 149.06C340.564 161.267 320.997 165.862 301.158 157.958L271.35 165.57L256.865 190.763C254.587 194.716 253.556 199.271 253.887 203.827L259.572 300.259L242.01 361.509L413.963 363.008L405.494 317.508L384.175 154.005L359.994 149.06Z" fill="#526A76"/>
<path d="M386.278 227.366L380.904 153.538C380.904 153.538 421.381 157.296 434.776 185.838C446.068 209.902 479.925 279.855 483.274 289.745C493.067 318.813 475.058 361.198 412.036 358.9L404.852 319.397L386.278 227.366Z" fill="#526A76"/>
<path d="M418.616 288.83C418.558 288.849 418.928 289.959 419.629 291.731C420.33 293.502 421.362 295.917 422.549 298.545C423.698 301.115 424.749 303.432 425.586 305.301C426.365 307.034 426.852 308.104 426.91 308.066C426.969 308.046 426.599 306.936 425.898 305.165C425.197 303.393 424.165 300.979 422.977 298.35C421.829 295.78 420.777 293.464 419.94 291.594C419.161 289.881 418.675 288.81 418.616 288.83Z" fill="#263238"/>
<path d="M396.207 230.734C396.344 230.734 396.441 226.062 396.441 220.279C396.441 214.497 396.324 209.824 396.207 209.824C396.071 209.824 395.974 214.497 395.974 220.279C395.974 226.042 396.09 230.734 396.207 230.734Z" fill="#263238"/>
<path d="M402.165 199.291C402.204 199.291 402.321 198.882 402.535 198.123C402.729 197.363 403.06 196.273 403.489 194.949C404.365 192.301 405.825 188.7 407.986 185.02C410.147 181.34 412.581 178.322 414.489 176.259C415.443 175.227 416.222 174.409 416.786 173.883C417.351 173.338 417.643 173.027 417.623 172.988C417.604 172.968 417.254 173.221 416.65 173.747C416.046 174.253 415.209 175.032 414.216 176.025C412.25 178.03 409.738 181.068 407.538 184.767C405.358 188.485 403.917 192.146 403.138 194.852C402.729 196.195 402.457 197.305 402.321 198.084C402.204 198.843 402.145 199.271 402.165 199.291Z" fill="#263238"/>
<path d="M259.377 194.716C259.455 194.716 259.532 195.572 259.61 197.13C259.708 198.688 259.727 200.946 259.688 203.73C259.61 209.298 259.046 216.969 258.364 225.419C257.683 233.869 257.352 241.52 257.508 247.069C257.566 249.833 257.663 252.072 257.8 253.63C257.897 255.168 257.936 256.044 257.858 256.044C257.78 256.044 257.624 255.207 257.41 253.669C257.157 252.131 256.963 249.872 256.807 247.108C256.476 241.539 256.69 233.83 257.371 225.36C258.053 216.911 258.734 209.259 258.987 203.73C259.124 200.965 259.202 198.707 259.24 197.169C259.26 195.592 259.318 194.716 259.377 194.716Z" fill="#263238"/>
<path d="M444.394 302.401C444.433 302.479 443.42 303.005 441.629 303.959C439.819 304.913 437.249 306.353 434.114 308.222C430.98 310.091 427.28 312.408 422.978 314.628C420.817 315.737 418.539 316.847 416.105 317.899C413.671 318.911 411.16 319.943 408.57 321.014C407.772 321.345 406.993 321.656 406.253 321.968L406.565 321.422C408.22 331.878 409.641 341.242 410.634 347.979C411.082 351.23 411.452 353.917 411.744 355.961C411.977 357.85 412.075 358.881 412.016 358.901C411.958 358.92 411.724 357.888 411.374 356.019C411.004 353.975 410.537 351.308 409.953 348.076C408.785 341.359 407.246 332.014 405.572 321.559L405.514 321.169L405.884 321.014C406.623 320.722 407.402 320.391 408.2 320.06C410.77 319.008 413.282 317.976 415.716 316.983C418.13 315.952 420.408 314.881 422.549 313.79C426.852 311.629 430.571 309.39 433.764 307.599C436.957 305.808 439.604 304.465 441.454 303.608C442.389 303.18 443.109 302.868 443.615 302.674C444.121 302.459 444.374 302.362 444.394 302.401Z" fill="#263238"/>
<path d="M453.564 289.746C453.603 289.921 451.519 290.31 448.365 291.478C445.211 292.647 441.025 294.749 437.073 298.001C433.121 301.271 430.259 304.99 428.526 307.852C426.774 310.733 425.995 312.68 425.82 312.622C425.761 312.603 425.898 312.096 426.209 311.181C426.501 310.266 427.085 309.001 427.884 307.502C429.5 304.484 432.362 300.59 436.411 297.222C440.48 293.873 444.841 291.809 448.112 290.797C449.748 290.291 451.11 289.979 452.045 289.843C453.018 289.726 453.544 289.687 453.564 289.746Z" fill="#263238"/>
<path d="M388.069 362.21L430.317 260.269C432.245 255.615 429.831 251.838 424.924 251.838H416.416C412.951 251.838 410.575 249.93 410.361 246.951L410.089 243.194C409.855 240.215 407.499 238.307 404.014 238.307H363.616C360.462 238.307 356.918 239.884 354.27 242.454L350.999 245.628C348.352 248.198 344.808 249.775 341.654 249.775H290.216C285.31 249.775 279.8 253.552 277.931 258.205L236.053 362.229H388.069V362.21Z" fill="#61C06E"/>
<g opacity="0.3">
<g opacity="0.3">
<g opacity="0.3">
<g opacity="0.3">
<path opacity="0.3" d="M388.069 362.21L430.317 260.269C432.245 255.615 429.831 251.838 424.924 251.838H416.416C412.951 251.838 410.575 249.93 410.361 246.951L410.089 243.194C409.855 240.215 407.499 238.307 404.014 238.307H363.616C360.462 238.307 356.918 239.884 354.27 242.454L350.999 245.628C348.352 248.198 344.808 249.775 341.654 249.775H290.216C285.31 249.775 279.8 253.552 277.931 258.205L236.053 362.229H388.069V362.21Z" fill="black"/>
</g>
</g>
</g>
</g>
<path d="M395.039 327.593L410.965 265.992C412.016 261.943 409.349 257.874 405.669 257.874H280.774C278.301 257.874 276.14 259.743 275.459 262.468L252.271 355.201C251.258 359.27 252.874 361.723 256.573 361.664L382.248 361.703C384.681 361.664 386.803 359.834 387.504 357.147L395.039 327.593Z" fill="#E0E0E0"/>
<path d="M386.414 359.425L393.209 262.41C393.443 258.964 390.717 256.043 387.271 256.043H257.858V359.425H386.414Z" fill="#EBEBEB"/>
<path d="M387.855 361.645L372.455 261.631C371.754 258.38 368.814 256.043 365.426 256.043H234.515C229.336 256.043 225.851 261.242 227.915 265.895L256.184 357.42L387.855 361.645Z" fill="#FAFAFA"/>
<path d="M388.069 362.151L356.315 268.485C354.991 264.591 351.447 261.982 347.476 261.982H212.514C208.173 261.982 205.097 266.44 206.479 270.724L236.014 362.21L388.069 362.151Z" fill="#61C06E"/>
<g opacity="0.3">
<g opacity="0.3">
<g opacity="0.3">
<g opacity="0.3">
<path opacity="0.3" d="M322.808 346.478C322.808 346.478 327.909 346.712 330.245 346.868C341.44 347.627 352.791 345.622 363.032 341.046C366.205 339.625 369.573 337.639 370.527 334.291C371.598 330.552 369.184 326.659 366.225 324.108C363.265 321.577 359.683 319.766 357.113 316.846C354.543 313.926 353.336 309.175 355.867 306.216L356.568 306.722C358.398 311.356 363.479 313.575 367.685 316.223C375.512 321.129 381.469 328.937 384.156 337.756C385.636 342.604 386.025 348.269 383.085 352.397C381.002 355.337 377.575 356.992 374.207 358.238C364.005 362.015 353.083 362.171 342.2 362.171C338.753 362.171 328.201 362.034 328.201 362.034C324.872 361.139 323.782 359.406 321.796 356.602C319.985 354.052 320.374 348.484 322.808 346.478Z" fill="black"/>
</g>
</g>
</g>
</g>
<path d="M322.808 346.479L358.009 341.183L371.676 333.318C373.487 332.286 374.713 330.436 374.811 328.353C374.811 328.314 374.811 328.275 374.811 328.236C374.908 325.647 373.331 323.291 370.936 322.279C366.595 320.449 359.741 318.015 356.802 312.895C352.596 305.516 356.802 303.997 356.802 303.997L386.2 315.757L407.013 329.911L411.199 353.527L382.17 363.008C382.17 363.008 349.812 364.839 340.895 363.826C331.959 362.833 331.959 358.667 331.959 358.667C330.304 358.141 326.955 355.201 326.955 352.456C322.633 348.387 322.808 346.479 322.808 346.479Z" fill="#FFBE9D"/>
<path d="M367.841 356.642C367.821 356.603 367.315 356.7 366.4 356.914C365.485 357.128 364.141 357.44 362.486 357.771C359.177 358.433 354.543 359.134 349.384 359.328C344.224 359.523 339.571 359.192 336.203 358.783C334.529 358.589 333.166 358.394 332.231 358.238C331.297 358.102 330.771 358.043 330.771 358.082C330.771 358.121 331.277 358.258 332.192 358.472C333.107 358.686 334.47 358.959 336.145 359.212C339.513 359.718 344.205 360.127 349.403 359.932C354.601 359.718 359.255 358.959 362.564 358.18C364.219 357.79 365.543 357.44 366.458 357.148C367.354 356.856 367.841 356.681 367.841 356.642Z" fill="#EB996E"/>
<path d="M364.609 351.191C364.589 351.152 364.064 351.249 363.129 351.464C362.195 351.697 360.832 351.989 359.157 352.301C355.789 352.963 351.078 353.605 345.86 353.78C340.623 353.936 335.892 353.586 332.484 353.157C330.771 352.943 329.408 352.749 328.454 352.593C327.5 352.437 326.975 352.379 326.975 352.418C326.975 352.457 327.481 352.593 328.415 352.807C329.35 353.041 330.732 353.294 332.426 353.547C335.833 354.072 340.603 354.501 345.879 354.345C351.155 354.17 355.887 353.449 359.255 352.69C360.929 352.32 362.292 351.95 363.207 351.658C364.122 351.425 364.628 351.23 364.609 351.191Z" fill="#EB996E"/>
</g>
<g filter="url(#filter1_d)">
<path d="M84.1499 274.585L98.1557 262.527L103.277 280.285L84.1499 274.585Z" stroke="#E7EFEF" stroke-width="1.03977"/>
<path d="M146.855 333.727L152.614 316.165L166.175 328.722L146.855 333.727Z" stroke="#1AA166" stroke-width="1.03977"/>
<path d="M79.6788 334.58L67.4609 350.72L59.9143 330.203L79.6788 334.58Z" fill="#61C06E"/>
<circle cx="129.237" cy="289.713" r="2.59941" fill="#61C06E"/>
<circle cx="106.362" cy="318.826" r="4.67895" fill="#E7EFEF"/>
<circle cx="68.4103" cy="297.511" r="3.1193" fill="#61C06E"/>
</g>
<defs>
<filter id="filter0_d" x="0" y="0" width="494.109" height="371.92" filterUnits="userSpaceOnUse" color-interpolation-filters="sRGB">
<feFlood flood-opacity="0" result="BackgroundImageFix"/>
<feColorMatrix in="SourceAlpha" type="matrix" values="0 0 0 0 0 0 0 0 0 0 0 0 0 0 0 0 0 0 127 0"/>
<feMorphology radius="1" operator="dilate" in="SourceAlpha" result="effect1_dropShadow"/>
<feOffset dx="3" dy="3"/>
<feGaussianBlur stdDeviation="1.5"/>
<feColorMatrix type="matrix" values="0 0 0 0 0.0952604 0 0 0 0 0.129167 0 0 0 0 0.163073 0 0 0 0.83 0"/>
<feBlend mode="normal" in2="BackgroundImageFix" result="effect1_dropShadow"/>
<feBlend mode="normal" in="SourceGraphic" in2="effect1_dropShadow" result="shape"/>
</filter>
<filter id="filter1_d" x="58.9141" y="257.483" width="115.312" height="100.237" filterUnits="userSpaceOnUse" color-interpolation-filters="sRGB">
<feFlood flood-opacity="0" result="BackgroundImageFix"/>
<feColorMatrix in="SourceAlpha" type="matrix" values="0 0 0 0 0 0 0 0 0 0 0 0 0 0 0 0 0 0 127 0"/>
<feMorphology radius="1" operator="dilate" in="SourceAlpha" result="effect1_dropShadow"/>
<feOffset dx="3" dy="3"/>
<feGaussianBlur stdDeviation="1.5"/>
<feColorMatrix type="matrix" values="0 0 0 0 0.0952604 0 0 0 0 0.129167 0 0 0 0 0.163073 0 0 0 0.83 0"/>
<feBlend mode="normal" in2="BackgroundImageFix" result="effect1_dropShadow"/>
<feBlend mode="normal" in="SourceGraphic" in2="effect1_dropShadow" result="shape"/>
</filter>
</defs>
</svg>
