<svg width="105" height="35" viewBox="0 0 105 35" fill="none" xmlns="http://www.w3.org/2000/svg">
<rect x="1.5" y="1.5" width="101.6" height="31.4835" rx="15.7417" stroke="#1EA54C" stroke-width="3"/>
<path d="M25.6211 13.418C26.2842 13.418 26.9324 13.6146 27.4837 13.983C28.035 14.3514 28.4647 14.875 28.7185 15.4876C28.9722 16.1002 29.0386 16.7742 28.9093 17.4246C28.7799 18.0749 28.4606 18.6723 27.9917 19.1411C27.5229 19.61 26.9255 19.9293 26.2752 20.0587C25.6248 20.188 24.9507 20.1216 24.3381 19.8679C23.7255 19.6141 23.2019 19.1844 22.8336 18.6331C22.4652 18.0818 22.2686 17.4336 22.2686 16.7705C22.2686 15.8814 22.6218 15.0286 23.2505 14.3999C23.8792 13.7712 24.732 13.418 25.6211 13.418Z" fill="#1EA54C"/>
<path d="M25.621 24.4337C24.1054 24.4337 22.6238 23.9842 21.3637 23.1422C20.1035 22.3002 19.1213 21.1034 18.5413 19.7032C17.9613 18.3029 17.8096 16.7622 18.1053 15.2757C18.4009 13.7892 19.1308 12.4238 20.2024 11.3521C21.2741 10.2804 22.6396 9.55059 24.126 9.25491C25.6125 8.95923 27.1533 9.11099 28.5535 9.69098C29.9537 10.271 31.1505 11.2532 31.9925 12.5133C32.8346 13.7735 33.284 15.2551 33.284 16.7707C33.284 18.803 32.4766 20.7521 31.0396 22.1892C29.6025 23.6263 27.6534 24.4337 25.621 24.4337ZM25.621 10.0655C24.2949 10.0655 22.9985 10.4588 21.8958 11.1956C20.7932 11.9323 19.9338 12.9795 19.4263 14.2047C18.9188 15.4299 18.786 16.7781 19.0447 18.0788C19.3034 19.3794 19.942 20.5742 20.8798 21.5119C21.8175 22.4496 23.0122 23.0882 24.3129 23.3469C25.6136 23.6057 26.9617 23.4729 28.1869 22.9654C29.4121 22.4579 30.4593 21.5985 31.1961 20.4958C31.9329 19.3932 32.3261 18.0968 32.3261 16.7707C32.3261 14.9924 31.6197 13.2869 30.3622 12.0294C29.1048 10.772 27.3993 10.0655 25.621 10.0655Z" fill="#1EA54C"/>
<path d="M46.4208 21.1379C45.4829 21.1379 44.6598 20.931 43.9518 20.5172C43.2529 20.1034 42.7104 19.5241 42.3242 18.7793C41.938 18.0252 41.7448 17.1424 41.7448 16.1309C41.7448 15.1102 41.938 14.2274 42.3242 13.4826C42.7104 12.7378 43.2529 12.163 43.9518 11.7584C44.6507 11.3446 45.4737 11.1377 46.4208 11.1377C47.3679 11.1377 48.191 11.3446 48.8898 11.7584C49.5887 12.163 50.1312 12.7378 50.5174 13.4826C50.9037 14.2274 51.0968 15.1056 51.0968 16.1171C51.0968 17.1379 50.9037 18.0252 50.5174 18.7793C50.1312 19.5241 49.5887 20.1034 48.8898 20.5172C48.191 20.931 47.3679 21.1379 46.4208 21.1379ZM46.4208 19.6207C47.3128 19.6207 48.007 19.3126 48.5036 18.6965C49.0002 18.0804 49.2484 17.2252 49.2484 16.1309C49.2484 15.0275 49.0002 14.1723 48.5036 13.5654C48.0162 12.9585 47.322 12.655 46.4208 12.655C45.5288 12.655 44.8346 12.9585 44.338 13.5654C43.8414 14.1723 43.5932 15.0275 43.5932 16.1309C43.5932 17.2252 43.8414 18.0804 44.338 18.6965C44.8346 19.3126 45.5288 19.6207 46.4208 19.6207ZM53.7335 21V15.5516H52.4369V14.255H53.7335V14.2412C53.7335 13.2849 53.9817 12.563 54.4783 12.0757C54.9841 11.5883 55.7657 11.3124 56.8232 11.2481L57.499 11.2067L57.6094 12.4757L56.9749 12.5171C56.4232 12.5538 56.0324 12.6918 55.8025 12.9309C55.5726 13.1608 55.4576 13.5056 55.4576 13.9654V14.255H57.2921V15.5516H55.4576V21H53.7335ZM58.9863 21V15.5516H57.6897V14.255H58.9863V14.2412C58.9863 13.2849 59.2345 12.563 59.7311 12.0757C60.2369 11.5883 61.0185 11.3124 62.076 11.2481L62.7518 11.2067L62.8622 12.4757L62.2277 12.5171C61.676 12.5538 61.2852 12.6918 61.0553 12.9309C60.8254 13.1608 60.7104 13.5056 60.7104 13.9654V14.255H62.5449V15.5516H60.7104V21H58.9863ZM65.8967 21.1379C65.0967 21.1379 64.5036 20.9218 64.1174 20.4896C63.7404 20.0483 63.5519 19.4046 63.5519 18.5586V11.2757H65.276V18.4758C65.276 19.3034 65.6255 19.7172 66.3243 19.7172C66.4255 19.7172 66.5266 19.7126 66.6278 19.7034C66.7289 19.6942 66.8255 19.6758 66.9175 19.6482L66.8899 21.0138C66.5588 21.0966 66.2278 21.1379 65.8967 21.1379ZM68.3881 12.8067V11.1239H70.3191V12.8067H68.3881ZM68.4984 21V14.255H70.2226V21H68.4984ZM72.5658 21V14.255H74.2486V15.3033C74.4785 14.9171 74.7866 14.6229 75.1728 14.4206C75.5682 14.2183 76.0096 14.1171 76.497 14.1171C78.0878 14.1171 78.8832 15.0413 78.8832 16.8896V21H77.159V16.9723C77.159 16.4482 77.0579 16.0666 76.8556 15.8275C76.6625 15.5884 76.359 15.4689 75.9452 15.4689C75.4395 15.4689 75.0349 15.6298 74.7314 15.9516C74.4371 16.2643 74.29 16.6827 74.29 17.2068V21H72.5658ZM84.5104 21.1379C83.7471 21.1379 83.0897 20.9954 82.5379 20.7103C81.9862 20.4253 81.5586 20.0207 81.2551 19.4965C80.9609 18.9724 80.8138 18.3517 80.8138 17.6344C80.8138 16.9355 80.9563 16.324 81.2413 15.7999C81.5356 15.2757 81.9356 14.8665 82.4414 14.5723C82.9563 14.2688 83.5402 14.1171 84.1931 14.1171C85.1495 14.1171 85.9035 14.4206 86.4552 15.0275C87.0162 15.6344 87.2966 16.462 87.2966 17.5103V18.0206H82.469C82.5977 19.2253 83.2874 19.8276 84.538 19.8276C84.915 19.8276 85.292 19.7724 85.669 19.662C86.046 19.5425 86.3909 19.3586 86.7035 19.1103L87.1863 20.269C86.8645 20.5356 86.4598 20.7471 85.9725 20.9034C85.4851 21.0598 84.9977 21.1379 84.5104 21.1379ZM84.2621 15.2895C83.7563 15.2895 83.3471 15.4459 83.0345 15.7585C82.7218 16.0712 82.5333 16.4942 82.469 17.0275H85.8621C85.8254 16.4666 85.669 16.039 85.3932 15.7447C85.1265 15.4413 84.7495 15.2895 84.2621 15.2895Z" fill="#1EA54C"/>
</svg>
