<svg width="105" height="35" viewBox="0 0 105 35" fill="none" xmlns="http://www.w3.org/2000/svg">
<rect x="1.5" y="1.5" width="101.6" height="31.4835" rx="15.7417" stroke="#1EA54C" stroke-width="3"/>
<path d="M25.6211 13.418C26.2842 13.418 26.9324 13.6146 27.4837 13.983C28.035 14.3514 28.4647 14.875 28.7185 15.4876C28.9722 16.1002 29.0386 16.7742 28.9093 17.4246C28.7799 18.0749 28.4606 18.6723 27.9917 19.1411C27.5229 19.61 26.9255 19.9293 26.2752 20.0587C25.6248 20.188 24.9507 20.1216 24.3381 19.8679C23.7255 19.6141 23.2019 19.1844 22.8336 18.6331C22.4652 18.0818 22.2686 17.4336 22.2686 16.7705C22.2686 15.8814 22.6218 15.0286 23.2505 14.3999C23.8792 13.7712 24.732 13.418 25.6211 13.418Z" fill="#1EA54C"/>
<path d="M25.621 24.4337C24.1054 24.4337 22.6238 23.9842 21.3637 23.1422C20.1035 22.3002 19.1213 21.1034 18.5413 19.7032C17.9613 18.3029 17.8096 16.7622 18.1053 15.2757C18.4009 13.7892 19.1308 12.4238 20.2024 11.3521C21.2741 10.2804 22.6396 9.55059 24.126 9.25491C25.6125 8.95923 27.1533 9.11099 28.5535 9.69098C29.9537 10.271 31.1505 11.2532 31.9925 12.5133C32.8346 13.7735 33.284 15.2551 33.284 16.7707C33.284 18.803 32.4766 20.7521 31.0396 22.1892C29.6025 23.6263 27.6534 24.4337 25.621 24.4337ZM25.621 10.0655C24.2949 10.0655 22.9985 10.4588 21.8958 11.1956C20.7932 11.9323 19.9338 12.9795 19.4263 14.2047C18.9188 15.4299 18.786 16.7781 19.0447 18.0788C19.3034 19.3794 19.942 20.5742 20.8798 21.5119C21.8175 22.4496 23.0122 23.0882 24.3129 23.3469C25.6136 23.6057 26.9617 23.4729 28.1869 22.9654C29.4121 22.4579 30.4593 21.5985 31.1961 20.4958C31.9329 19.3932 32.3261 18.0968 32.3261 16.7707C32.3261 14.9924 31.6197 13.2869 30.3622 12.0294C29.1048 10.772 27.3993 10.0655 25.621 10.0655Z" fill="#1EA54C"/>
<path d="M46.5585 21.1379C45.6205 21.1379 44.7975 20.931 44.0895 20.5172C43.3906 20.1034 42.8481 19.5241 42.4619 18.7793C42.0756 18.0252 41.8825 17.1424 41.8825 16.1309C41.8825 15.1102 42.0756 14.2274 42.4619 13.4826C42.8481 12.7378 43.3906 12.163 44.0895 11.7584C44.7883 11.3446 45.6114 11.1377 46.5585 11.1377C47.5056 11.1377 48.3286 11.3446 49.0275 11.7584C49.7264 12.163 50.2689 12.7378 50.6551 13.4826C51.0413 14.2274 51.2345 15.1056 51.2345 16.1171C51.2345 17.1379 51.0413 18.0252 50.6551 18.7793C50.2689 19.5241 49.7264 20.1034 49.0275 20.5172C48.3286 20.931 47.5056 21.1379 46.5585 21.1379ZM46.5585 19.6207C47.4505 19.6207 48.1447 19.3126 48.6413 18.6965C49.1379 18.0804 49.3861 17.2252 49.3861 16.1309C49.3861 15.0275 49.1379 14.1723 48.6413 13.5654C48.1539 12.9585 47.4597 12.655 46.5585 12.655C45.6665 12.655 44.9723 12.9585 44.4757 13.5654C43.9791 14.1723 43.7309 15.0275 43.7309 16.1309C43.7309 17.2252 43.9791 18.0804 44.4757 18.6965C44.9723 19.3126 45.6665 19.6207 46.5585 19.6207ZM53.416 21V14.255H55.0988V15.3033C55.3286 14.9171 55.6367 14.6229 56.0229 14.4206C56.4183 14.2183 56.8597 14.1171 57.3471 14.1171C58.9379 14.1171 59.7333 15.0413 59.7333 16.8896V21H58.0092V16.9723C58.0092 16.4482 57.908 16.0666 57.7057 15.8275C57.5126 15.5884 57.2091 15.4689 56.7953 15.4689C56.2896 15.4689 55.885 15.6298 55.5815 15.9516C55.2873 16.2643 55.1401 16.6827 55.1401 17.2068V21H53.416ZM64.3812 21.1379C63.5812 21.1379 62.988 20.9218 62.6018 20.4896C62.2248 20.0483 62.0363 19.4046 62.0363 18.5586V11.2757H63.7605V18.4758C63.7605 19.3034 64.1099 19.7172 64.8088 19.7172C64.9099 19.7172 65.0111 19.7126 65.1122 19.7034C65.2134 19.6942 65.3099 19.6758 65.4019 19.6482L65.3743 21.0138C65.0433 21.0966 64.7122 21.1379 64.3812 21.1379ZM66.8824 12.8067V11.1239H68.8135V12.8067H66.8824ZM66.9928 21V14.255H68.7169V21H66.9928ZM71.0602 21V14.255H72.743V15.3033C72.9729 14.9171 73.2809 14.6229 73.6671 14.4206C74.0625 14.2183 74.5039 14.1171 74.9913 14.1171C76.5821 14.1171 77.3776 15.0413 77.3776 16.8896V21H75.6534V16.9723C75.6534 16.4482 75.5522 16.0666 75.3499 15.8275C75.1568 15.5884 74.8534 15.4689 74.4396 15.4689C73.9338 15.4689 73.5292 15.6298 73.2257 15.9516C72.9315 16.2643 72.7844 16.6827 72.7844 17.2068V21H71.0602ZM83.0047 21.1379C82.2415 21.1379 81.584 20.9954 81.0323 20.7103C80.4805 20.4253 80.0529 20.0207 79.7495 19.4965C79.4552 18.9724 79.3081 18.3517 79.3081 17.6344C79.3081 16.9355 79.4506 16.324 79.7357 15.7999C80.0299 15.2757 80.43 14.8665 80.9357 14.5723C81.4507 14.2688 82.0346 14.1171 82.6875 14.1171C83.6438 14.1171 84.3979 14.4206 84.9496 15.0275C85.5105 15.6344 85.791 16.462 85.791 17.5103V18.0206H80.9633C81.092 19.2253 81.7817 19.8276 83.0323 19.8276C83.4093 19.8276 83.7863 19.7724 84.1634 19.662C84.5404 19.5425 84.8852 19.3586 85.1979 19.1103L85.6806 20.269C85.3588 20.5356 84.9542 20.7471 84.4668 20.9034C83.9795 21.0598 83.4921 21.1379 83.0047 21.1379ZM82.7564 15.2895C82.2507 15.2895 81.8415 15.4459 81.5288 15.7585C81.2162 16.0712 81.0277 16.4942 80.9633 17.0275H84.3565C84.3197 16.4666 84.1634 16.039 83.8875 15.7447C83.6208 15.4413 83.2438 15.2895 82.7564 15.2895Z" fill="#1EA54C"/>
</svg>
