<svg width="646" height="261" viewBox="0 0 646 261" fill="none" xmlns="http://www.w3.org/2000/svg">
<g id="Group 245">
<g id="Frame" clip-path="url(#clip0)" filter="url(#filter0_d)">
<g id="Group">
<g id="Group_2">
<path id="Vector" d="M484.408 135.782H326.982V254.998H484.408V135.782Z" fill="#F5F5F5"/>
<path id="Vector_2" d="M460.994 163.825H442.61V237.061H460.994V163.825Z" fill="#1EA54C"/>
<path id="Vector_3" d="M430.766 158.283H412.383V237.06H430.766V158.283Z" fill="#1EA54C"/>
<path id="Vector_4" d="M401.429 168.047H383.046V237.059H401.429V168.047Z" fill="#1EA54C"/>
<path id="Vector_5" opacity="0.3" d="M401.429 168.047H383.046V237.059H401.429V168.047Z" fill="white"/>
<path id="Vector_6" d="M371.666 178.811H353.283V237.06H371.666V178.811Z" fill="#1EA54C"/>
<path id="Vector_7" d="M460.994 163.825H442.61V237.061H460.994V163.825Z" fill="#1EA54C"/>
<g id="Group_3">
<path id="Vector_8" d="M474.963 237.315C474.963 237.612 444.735 237.867 407.459 237.867C370.161 237.867 339.954 237.612 339.954 237.315C339.954 237.017 370.183 236.763 407.459 236.763C444.735 236.763 474.963 237.017 474.963 237.315Z" fill="#E7EFEF"/>
</g>
<g id="Group_4">
<path id="Vector_9" d="M467.278 168.369C467.257 168.496 465.177 168.114 461.398 168.305C457.662 168.56 452.101 169.451 446.22 172.826C443.291 174.482 440.362 176.775 437.772 179.768C435.14 182.74 432.783 186.306 430.002 189.872C427.222 193.396 423.783 197.005 419.134 199.043C414.549 201.144 409.348 201.802 404.147 201.972C398.925 202.163 393.851 201.909 388.99 202.121C384.129 202.333 379.459 202.928 375.128 204.01C370.819 205.135 366.85 206.727 363.517 208.829C360.142 210.867 357.488 213.499 355.429 216.152C351.332 221.544 350.058 227.106 349.973 230.842C349.952 234.621 350.738 236.637 350.589 236.68C350.589 236.68 349.655 234.706 349.549 230.842C349.506 227.042 350.695 221.29 354.813 215.685C356.873 212.926 359.568 210.187 363.029 208.043C366.446 205.857 370.48 204.18 374.874 203.012C379.268 201.866 384.023 201.25 388.927 201.017C393.851 200.783 398.925 201.017 404.083 200.847C409.22 200.656 414.273 200.019 418.667 198.024C423.082 196.092 426.415 192.674 429.175 189.193C431.955 185.691 434.354 182.124 437.071 179.131C439.767 176.096 442.803 173.782 445.838 172.126C451.888 168.772 457.577 167.987 461.377 167.859C463.288 167.838 464.774 167.944 465.771 168.093C466.769 168.22 467.278 168.326 467.278 168.369Z" fill="#E7EFEF"/>
</g>
</g>
<g id="Group_5">
<path id="Vector_10" d="M328.555 186.094C328.555 186.115 328.215 186.136 327.578 186.157C326.857 186.157 325.901 186.157 324.713 186.157C322.123 186.136 318.472 186.094 313.865 186.051C304.419 185.902 291.066 185.69 275.061 185.435H274.594V184.968C274.572 168.474 274.551 148.902 274.509 127.972C274.572 97.4886 274.636 69.8924 274.679 49.8109C274.742 39.8763 274.806 31.8097 274.848 26.1207C274.891 23.3823 274.933 21.2383 274.955 19.6886C274.976 19.0093 274.997 18.4574 275.018 18.0116C275.039 17.6295 275.061 17.4385 275.082 17.4385C275.103 17.4385 275.124 17.6295 275.146 18.0116C275.167 18.4574 275.188 19.0093 275.209 19.6886C275.231 21.2383 275.273 23.4035 275.315 26.1207C275.358 31.8097 275.422 39.8763 275.485 49.8109C275.528 69.8924 275.591 97.4674 275.655 127.972C275.634 148.902 275.591 168.474 275.57 184.968L275.103 184.501C291.109 184.926 304.461 185.266 313.908 185.52C318.514 185.669 322.165 185.796 324.755 185.881C325.944 185.945 326.899 185.987 327.621 186.009C328.215 186.03 328.555 186.072 328.555 186.094Z" fill="#E7EFEF"/>
</g>
<g id="Group_6">
<path id="Vector_11" d="M558.92 95.4718C558.92 95.5143 558.453 95.5568 557.54 95.578C556.521 95.5992 555.205 95.6417 553.57 95.6841C549.983 95.7266 545.015 95.7903 538.944 95.8539C526.483 95.8964 509.48 95.9601 490.693 96.0238C480.716 96.0025 471.249 95.9813 462.758 95.9813L463.267 95.4718C463.182 107.275 463.118 117.294 463.076 124.533C463.012 127.972 462.97 130.752 462.927 132.812C462.906 133.682 462.864 134.404 462.842 134.998C462.821 135.486 462.779 135.762 462.758 135.762C462.736 135.762 462.694 135.508 462.673 134.998C462.651 134.404 462.63 133.682 462.588 132.812C462.545 130.752 462.503 127.993 462.439 124.533C462.397 117.294 462.312 107.275 462.248 95.4718V94.9624H462.758C471.249 94.9412 480.716 94.9411 490.693 94.9199C509.48 94.9836 526.462 95.0473 538.944 95.0897C545.015 95.1534 549.983 95.2171 553.57 95.2596C555.205 95.302 556.521 95.3445 557.54 95.3657C558.453 95.4082 558.92 95.4506 558.92 95.4718Z" fill="#E7EFEF"/>
</g>
<g id="Group_7">
<path id="Vector_12" d="M326.985 226.384C326.985 226.406 326.73 226.427 326.221 226.427C325.669 226.427 324.926 226.448 323.992 226.469C321.954 226.469 319.088 226.49 315.394 226.49C307.859 226.469 297.075 226.427 283.786 226.384C257.039 226.193 220.209 225.917 179.515 225.599C148.756 225.28 120.183 225.005 96.5569 224.75H96.2597L96.1535 224.474C88.5115 206.6 82.1856 191.783 77.7278 181.381C75.5625 176.244 73.8643 172.19 72.6543 169.366C72.1024 168.029 71.6778 166.968 71.3594 166.203C71.0835 165.482 70.9349 165.1 70.9561 165.1C70.9773 165.1 71.1472 165.439 71.4868 166.14C71.8264 166.904 72.3147 167.944 72.9091 169.26C74.1615 172.062 75.9446 176.096 78.1948 181.19C82.7375 191.571 89.1908 206.324 96.9814 224.134L96.5569 223.858C120.183 224.049 148.735 224.262 179.515 224.516C220.209 224.941 257.039 225.344 283.765 225.62C297.054 225.811 307.837 225.981 315.373 226.087C319.046 226.172 321.933 226.236 323.97 226.278C324.904 226.299 325.647 226.342 326.199 226.363C326.73 226.342 326.985 226.363 326.985 226.384Z" fill="#E7EFEF"/>
</g>
<path id="Vector_13" d="M111.861 224.751C111.861 230.08 107.531 234.41 102.203 234.41C96.8744 234.41 92.5439 230.08 92.5439 224.751C92.5439 219.423 96.8744 215.093 102.203 215.093C107.552 215.093 111.861 219.423 111.861 224.751Z" fill="#E0E0E0"/>
<path id="Vector_14" d="M77.8327 169.2H19.7321C11.6019 169.2 5 162.598 5 154.467C5 146.337 11.6019 139.735 19.7321 139.735H77.8327C85.9629 139.735 92.5648 146.337 92.5648 154.467C92.5648 162.598 85.9629 169.2 77.8327 169.2Z" fill="url(#paint0_linear)"/>
<path id="Vector_15" d="M177.901 6.55078H42.5732V96.4081H177.901V6.55078Z" fill="#F5F5F5"/>
<path id="Vector_16" d="M206.43 33.6367H116.572V69.3207H206.43V33.6367Z" fill="#1EA54C"/>
<g id="Group_8">
<path id="Vector_17" d="M99.9957 35.1633C99.9957 35.4604 90.5705 35.7152 78.9801 35.7152C67.3685 35.7152 57.9434 35.4604 57.9434 35.1633C57.9434 34.8661 67.3473 34.6113 78.9801 34.6113C90.5705 34.6113 99.9957 34.8661 99.9957 35.1633Z" fill="#E0E0E0"/>
</g>
<g id="Group_9">
<path id="Vector_18" d="M99.9957 41.6818C99.9957 41.979 90.5705 42.2337 78.9801 42.2337C67.3685 42.2337 57.9434 41.979 57.9434 41.6818C57.9434 41.3846 67.3473 41.1299 78.9801 41.1299C90.5705 41.1299 99.9957 41.3846 99.9957 41.6818Z" fill="#E0E0E0"/>
</g>
<g id="Group_10">
<path id="Vector_19" d="M99.9957 48.1984C99.9957 48.4956 90.5705 48.7503 78.9801 48.7503C67.3685 48.7503 57.9434 48.4956 57.9434 48.1984C57.9434 47.9012 67.3473 47.6465 78.9801 47.6465C90.5705 47.6465 99.9957 47.9012 99.9957 48.1984Z" fill="#E0E0E0"/>
</g>
<g id="Group_11">
<path id="Vector_20" d="M99.9957 54.717C99.9957 55.0142 90.5705 55.2689 78.9801 55.2689C67.3685 55.2689 57.9434 55.0142 57.9434 54.717C57.9434 54.4198 67.3473 54.165 78.9801 54.165C90.5705 54.165 99.9957 54.4198 99.9957 54.717Z" fill="#E0E0E0"/>
</g>
<g id="Group_12">
<path id="Vector_21" d="M99.9957 61.2336C99.9957 61.5308 90.5705 61.7855 78.9801 61.7855C67.3685 61.7855 57.9434 61.5308 57.9434 61.2336C57.9434 60.9364 67.3473 60.6816 78.9801 60.6816C90.5705 60.6816 99.9957 60.9364 99.9957 61.2336Z" fill="#E0E0E0"/>
</g>
<g id="Group_13">
<path id="Vector_22" d="M82.6301 67.769C82.6301 68.0662 77.1108 68.3209 70.2755 68.3209C63.4614 68.3209 57.9209 68.0662 57.9209 67.769C57.9209 67.4718 63.4401 67.2171 70.2755 67.2171C77.0896 67.1958 82.6301 67.4506 82.6301 67.769Z" fill="#E0E0E0"/>
</g>
<g id="Group_14">
<path id="Vector_23" d="M176.818 19.7316C176.818 20.0288 146.759 20.2835 109.696 20.2835C72.6106 20.2835 42.5732 20.0288 42.5732 19.7316C42.5732 19.4344 72.6318 19.1797 109.696 19.1797C146.759 19.1797 176.818 19.4344 176.818 19.7316Z" fill="#E0E0E0"/>
</g>
<g id="Group_15">
<path id="Vector_24" d="M420.11 101.798C420.088 101.777 420.067 101.437 420.046 100.822C420.025 100.121 420.003 99.2083 419.982 98.0833C419.961 95.6208 419.918 92.1607 419.855 87.809C419.791 78.9358 419.706 66.4326 419.621 51.467L420.11 51.9552C405.462 51.9764 388.204 51.9977 369.778 52.0401C369.651 52.1675 370.819 51 370.33 51.4882V51.5094V51.5307V51.5943V51.7005V51.9128V52.3373V53.2077V54.9271C370.33 56.0734 370.33 57.1985 370.33 58.3448C370.33 60.6162 370.33 62.8451 370.33 65.074C370.33 69.5106 370.33 73.8623 370.309 78.0867C370.288 86.5353 370.267 94.517 370.245 101.841L369.757 101.352C384.723 101.458 397.226 101.543 406.099 101.586C410.451 101.628 413.911 101.671 416.373 101.713C417.499 101.734 418.411 101.756 419.112 101.777C419.77 101.756 420.11 101.777 420.11 101.798C420.131 101.819 419.834 101.841 419.239 101.862C418.56 101.883 417.69 101.904 416.586 101.926C414.145 101.947 410.727 101.989 406.418 102.053C397.481 102.117 384.871 102.201 369.778 102.286H369.311V101.798C369.29 94.4745 369.269 86.4929 369.248 78.0442C369.248 73.8199 369.248 69.4682 369.226 65.0316C369.226 62.8026 369.226 60.5737 369.226 58.3023C369.226 57.1773 369.226 56.031 369.226 54.8847V53.1652V52.2949V51.8703V51.658V51.5519V51.4882V51.467C368.738 51.9552 369.906 50.7877 369.778 50.9151C388.204 50.9363 405.462 50.9575 420.11 51H420.598V51.467C420.492 66.56 420.407 79.1693 420.364 88.1062C420.322 92.4154 420.279 95.8331 420.237 98.2743C420.216 99.3782 420.194 100.249 420.173 100.928C420.152 101.522 420.131 101.819 420.11 101.798Z" fill="#E7EFEF"/>
</g>
<path id="Vector_25" d="M455.582 29.9219H430.406V55.0981H455.582V29.9219Z" fill="#E0E0E0"/>
<path id="Vector_26" d="M625.171 110.203H567.07C558.94 110.203 552.338 103.602 552.338 95.4714C552.338 87.3411 558.94 80.7393 567.07 80.7393H625.171C633.301 80.7393 639.903 87.3411 639.903 95.4714C639.903 103.623 633.301 110.203 625.171 110.203Z" fill="url(#paint1_linear)"/>
<path id="Vector_27" d="M462.501 105.322C467.836 105.322 472.16 100.998 472.16 95.6635C472.16 90.3292 467.836 86.0049 462.501 86.0049C457.167 86.0049 452.843 90.3292 452.843 95.6635C452.843 100.998 457.167 105.322 462.501 105.322Z" fill="#E0E0E0"/>
<path id="Vector_28" d="M276.101 193.291C281.435 193.291 285.76 188.967 285.76 183.632C285.76 178.298 281.435 173.974 276.101 173.974C270.767 173.974 266.442 178.298 266.442 183.632C266.442 188.967 270.767 193.291 276.101 193.291Z" fill="#E0E0E0"/>
<path id="Vector_29" d="M304.099 34.4642H245.999C237.868 34.4642 231.267 27.8624 231.267 19.7321C231.267 11.6019 237.868 5 245.999 5H304.099C312.229 5 318.831 11.6019 318.831 19.7321C318.831 27.8624 312.229 34.4642 304.099 34.4642Z" fill="url(#paint2_linear)"/>
</g>
</g>
</g>
<defs>
<filter id="filter0_d" x="0.5" y="0.5" width="644.903" height="260" filterUnits="userSpaceOnUse" color-interpolation-filters="sRGB">
<feFlood flood-opacity="0" result="BackgroundImageFix"/>
<feColorMatrix in="SourceAlpha" type="matrix" values="0 0 0 0 0 0 0 0 0 0 0 0 0 0 0 0 0 0 127 0"/>
<feOffset dx="0.5" dy="0.5"/>
<feGaussianBlur stdDeviation="2.5"/>
<feColorMatrix type="matrix" values="0 0 0 0 0 0 0 0 0 0 0 0 0 0 0 0 0 0 0.2 0"/>
<feBlend mode="normal" in2="BackgroundImageFix" result="effect1_dropShadow"/>
<feBlend mode="normal" in="SourceGraphic" in2="effect1_dropShadow" result="shape"/>
</filter>
<linearGradient id="paint0_linear" x1="-13.1423" y1="133.429" x2="89.0898" y2="207.54" gradientUnits="userSpaceOnUse">
<stop stop-color="#008249"/>
<stop offset="1" stop-color="#226045"/>
</linearGradient>
<linearGradient id="paint1_linear" x1="534.196" y1="74.433" x2="636.428" y2="148.544" gradientUnits="userSpaceOnUse">
<stop stop-color="#008249"/>
<stop offset="1" stop-color="#226045"/>
</linearGradient>
<linearGradient id="paint2_linear" x1="213.124" y1="-1.30622" x2="315.356" y2="72.805" gradientUnits="userSpaceOnUse">
<stop stop-color="#008249"/>
<stop offset="1" stop-color="#226045"/>
</linearGradient>
<clipPath id="clip0">
<rect width="634.903" height="250" fill="white" transform="translate(5 5)"/>
</clipPath>
</defs>
</svg>
