<svg width="162" height="518" viewBox="0 0 162 518" fill="none" xmlns="http://www.w3.org/2000/svg">
<g filter="url(#filter0_d)">
<path d="M90.0898 4.22141C93.499 1.42616 98.8805 1.19104 102.303 3.96017C103.583 4.99206 104.549 6.36356 105.281 7.8265C106.078 9.43312 106.613 11.2095 106.574 12.999C106.509 15.7682 105.072 18.3936 102.995 20.2223C100.918 22.0509 98.2535 23.122 95.5367 23.6445C84.9434 25.6299 83.7417 9.44618 90.0898 4.22141Z" fill="#3E4E79"/>
<path d="M89.7632 4.91352C87.5165 5.99766 85.7401 7.89164 84.7996 10.2036C83.7547 12.7637 83.8984 15.6504 85.0217 18.1583C85.3613 18.929 86.4846 18.2628 86.145 17.5052C84.1988 13.1687 86.1842 8.10063 90.4163 6.04991C91.1738 5.67111 90.5077 4.54779 89.7632 4.91352Z" fill="#3E4E79"/>
<path d="M100.459 5.4236C103.398 6.87348 105.749 9.43361 106.807 12.5554C107.356 14.162 107.643 15.9776 106.82 17.5451C106.076 18.9688 104.744 19.9354 103.176 20.2228C102.353 20.3665 102.706 21.6335 103.529 21.4767C105.266 21.1632 106.794 20.0791 107.735 18.59C108.819 16.8528 108.819 14.8151 108.283 12.895C107.251 9.17238 104.574 5.99833 101.112 4.30028C100.368 3.93454 99.7016 5.05787 100.459 5.4236Z" fill="#3E4E79"/>
<path d="M101.194 15.3113C101.22 16.7351 100.084 17.9106 98.6601 17.9368C97.2363 17.9629 96.0607 16.8265 96.0346 15.4027C96.0085 13.979 97.1449 12.8034 98.5686 12.7773C99.9793 12.7512 101.168 13.8876 101.194 15.3113Z" fill="#1EA54C"/>
<path d="M96.6863 14.344C96.7124 15.7678 95.576 16.9434 94.1523 16.9695C92.7285 16.9956 91.5529 15.8592 91.5268 14.4355C91.5007 13.0117 92.6371 11.8361 94.0608 11.81C95.4846 11.7839 96.6602 12.9203 96.6863 14.344Z" fill="#1EA54C"/>
<path d="M91.7234 14.4348C91.7495 15.8586 90.6131 17.0342 89.1894 17.0603C87.7656 17.0864 86.59 15.95 86.5639 14.5263C86.5378 13.1025 87.6742 11.927 89.0979 11.9008C90.5217 11.8747 91.6972 13.0111 91.7234 14.4348Z" fill="#1EA54C"/>
<path d="M105.647 16.3558C105.673 17.7795 104.537 18.9551 103.113 18.9812C101.689 19.0073 100.514 17.8709 100.488 16.4472C100.462 15.0234 101.598 13.8479 103.022 13.8217C104.446 13.7956 105.621 14.9189 105.647 16.3558Z" fill="#1EA54C"/>
<path d="M67.2851 73.8804C66.6451 79.5493 64.4115 84.9961 60.8848 89.4763C60.3754 90.1294 61.2897 91.0568 61.8122 90.4037C65.574 85.6231 67.9121 79.9281 68.5913 73.8804C68.6828 73.0444 67.3766 73.0444 67.2851 73.8804Z" fill="#3E4E79"/>
<path d="M120.838 91.5928C118.225 90.796 115.678 90.1691 113.183 89.6466L110.375 77.3553L110.179 89.111C94.9228 86.6162 81.0511 89.1502 72.4563 91.5536C71.8293 87.6612 70.5624 82.5539 70.5624 82.5539C70.7322 85.0488 69.9223 89.5551 69.3345 92.481C65.6119 93.6566 64.0967 93.2386 64.0967 93.2386C68.1328 79.2493 65.0241 48.1358 65.0241 48.1358C60.9227 22.9524 78.7522 15.5724 91.6182 15.3242C108.782 14.9976 119.453 27.3412 117.285 49.037C115.117 70.7329 120.838 91.5928 120.838 91.5928Z" fill="#3E4E79"/>
<path d="M40.8467 85.4922L50.5648 66.5262L52.6285 54.2611L64.3451 42.9756L71.3855 68.5639L66.8791 72.3257L60.4527 64.3449L54.1829 71.8033L61.0665 80.5286L53.5821 96.3989L40.8467 85.4922Z" fill="#DE9D8F"/>
<path d="M45.916 321.914L52.6037 471.695L54.145 481.661L73.3722 482.066L82.3979 329.685C82.3979 329.672 45.5372 321.914 45.916 321.914Z" fill="#DE9D8F"/>
<path d="M85.5693 311.804L95.418 479.532L115.377 478.187L122.352 305.73L85.5693 311.804Z" fill="#DE9D8F"/>
<path d="M62.5434 195.71C62.5434 195.71 72.9668 204.958 99.1038 201.692L116.11 206.251L130.361 219.652C130.361 219.652 131.863 298.873 130.648 312.248L129.434 325.611C129.434 325.611 78.4398 348.704 34.7868 320.896C34.7868 320.896 31.4821 266.924 44.8967 227.777L54.4058 197.33L62.5434 195.71Z" fill="#21252B"/>
<path d="M79.1694 70.3664C79.0127 70.8889 85.7004 95.1579 79.7702 102.198L75.917 109.017L93.6028 119.244L108.611 108.573C108.611 108.573 101.375 82.5793 103.883 68.8643L79.1694 70.3664Z" fill="#DE9D8F"/>
<path d="M79.772 102.199C79.6284 101.663 90.6788 111.499 90.6788 111.499L107.085 102.826L111.552 118.134L103.649 204.448C103.649 204.448 82.0579 212.716 64.8945 198.831L76.4935 104.916L79.772 102.199Z" fill="#F9F3ED"/>
<path d="M115.56 36.0523C116.618 39.5268 116.579 43.2103 116.645 46.8023C116.723 50.5903 116.71 54.3782 116.788 58.1662C116.945 65.1674 117.454 72.2339 119.348 79.013C120.38 82.6704 121.817 86.2102 123.763 89.4887C124.194 90.2071 125.318 89.554 124.887 88.8225C117.481 76.3745 118.186 61.4055 117.951 47.4554C117.885 43.5368 117.964 39.4876 116.801 35.7127C116.579 34.9029 115.312 35.2556 115.56 36.0523Z" fill="#3E4E79"/>
<path d="M77.1976 77.747C78.6736 79.3667 82.2003 81.1954 84.2511 81.9791C85.8054 82.5799 86.8373 81.7962 88.4962 81.8484C94.8965 82.0836 101.963 80.1504 105.424 74.7689C106.587 72.9533 107.266 70.8634 107.893 68.7996C109.866 62.2556 111.433 55.5287 111.551 48.6973C111.681 41.8659 110.284 34.8777 106.691 29.0652C105.49 27.132 104.04 25.3164 102.159 24.0233C98.9196 21.8028 94.7921 21.3717 90.8735 21.3064C87.2161 21.2411 83.4804 21.424 80.0321 22.6518C74.8857 24.4805 70.6797 28.608 68.3547 33.5585C65.05 40.5728 67.4142 47.8091 69.5564 54.9409C71.8161 62.5429 71.6724 71.7385 77.1976 77.747Z" fill="#DE9D8F"/>
<path d="M93.3697 25.1074C93.3697 25.1074 98.2157 43.3549 106.079 47.1951C106.079 47.1951 109.266 51.1137 109.005 55.4503C109.005 55.4503 112.14 51.5447 111.539 46.0587C111.539 46.0587 113.446 25.4731 100.567 21.1104C87.6747 16.7478 75.8406 21.9856 69.7406 28.8562C63.6407 35.7267 67.5071 52.028 67.5071 52.028C67.5071 52.028 71.4779 47.169 74.4952 33.258C74.4821 33.245 78.1525 26.2568 93.3697 25.1074Z" fill="#3E4E79"/>
<path d="M119.035 57.0174C117.742 62.7124 113.484 66.5918 109.526 65.6905C105.568 64.7892 103.4 59.4469 104.693 53.7519C105.986 48.0569 110.245 44.1775 114.202 45.0788C118.173 45.98 120.328 51.3224 119.035 57.0174Z" fill="#DE9D8F"/>
<path d="M96.0984 50.3955C96.1245 52.0413 95.3147 53.3997 94.2697 53.4128C93.2378 53.4389 92.3627 52.1196 92.3366 50.4608C92.3104 48.815 93.1203 47.4565 94.1653 47.4435C95.1971 47.4304 96.0592 48.7497 96.0984 50.3955Z" fill="#21252B"/>
<path d="M83.0623 51.7148C83.0884 53.3606 82.2785 54.719 81.2336 54.7321C80.1886 54.7582 79.3265 53.439 79.3004 51.7801C79.2743 50.1343 80.0841 48.7759 81.1291 48.7628C82.161 48.7497 83.0361 50.069 83.0623 51.7148Z" fill="#21252B"/>
<path d="M87.2554 47.4958C87.791 50.2911 85.6488 52.7598 84.6691 55.2024C84.212 56.3518 83.8724 57.7233 84.2773 58.925C84.643 60.0092 85.5443 60.7798 86.6938 60.8582C87.5297 60.9104 87.5297 59.6043 86.6938 59.552C85.4137 59.4606 85.2961 57.867 85.4921 56.9135C85.7272 55.764 86.2888 54.706 86.8244 53.6741C87.9085 51.6365 88.9665 49.5074 88.5094 47.1432C88.3526 46.3203 87.0987 46.6729 87.2554 47.4958Z" fill="#21252B"/>
<path d="M90.8213 72.6271C89.6066 72.6793 88.3656 72.3919 87.1901 71.8825C82.9058 70.08 79.6533 65.5344 83.0756 64.9728C88.4832 64.0715 91.9447 63.5098 98.0446 63.4184C98.8152 63.4053 99.2593 63.6927 99.4552 64.189C100.33 66.3573 95.9547 72.3919 90.8213 72.6271Z" fill="#21252B"/>
<path d="M90.8217 72.6271C89.6069 72.6794 88.366 72.392 87.1904 71.8826C87.7782 69.8711 90.2992 64.0324 99.4556 64.1891C100.331 66.3574 95.955 72.392 90.8217 72.6271Z" fill="#D56273"/>
<path d="M106.365 46.6328C104.876 48.6966 104.014 51.1392 103.818 53.6732C103.792 54.0259 104.131 54.3263 104.471 54.3263C104.85 54.3263 105.098 54.0259 105.124 53.6732C105.307 51.3743 106.143 49.1668 107.488 47.299C107.697 47.0116 107.54 46.5675 107.253 46.4108C106.927 46.2148 106.574 46.3455 106.365 46.6328Z" fill="#3E4E79"/>
<path d="M106.795 47.1945C105.659 51.1784 105.515 55.3713 106.338 59.4336C106.508 60.2565 107.762 59.9038 107.592 59.0809C106.821 55.2538 106.991 51.296 108.062 47.5472C108.284 46.7374 107.017 46.3978 106.795 47.1945Z" fill="#3E4E79"/>
<path d="M69.0339 175.15C68.0934 185.991 57.0038 300.701 57.0038 300.701L29.6391 294.797C29.6391 294.797 34.6288 251.941 38.9261 239.166C43.2235 226.392 48.4744 197.159 48.2785 187.454C48.0956 177.749 44.6342 151.965 44.6342 151.965C44.6342 151.965 23.5261 170.696 15.4277 173.347C7.32934 176.012 2.0262 169.063 2.00007 158.874C1.96089 148.686 17.818 117.533 23.7612 108.495C29.7044 99.4557 40.4935 81.8613 40.4935 81.8613C41.3556 85.7668 56.2593 95.498 56.2593 95.498L52.3669 104.654C52.3669 104.654 68.4853 103.57 71.4503 103.505C74.4285 103.453 78.8564 101.075 81.5603 98.254C81.5472 98.254 71.3458 148.477 69.0339 175.15Z" fill="#1EA54C"/>
<path d="M106.221 99.3779C106.221 99.3779 101.793 133.195 99.3242 153.154C96.8555 173.113 91.9312 222.225 91.7352 238.461C91.5393 254.697 94.7264 272.866 94.7264 272.866L133.899 273.624C133.899 273.624 131.548 220.135 132.227 211.92C132.906 203.704 148.32 151.377 145.328 126.011C145.328 126.011 144.492 117.495 135.532 112.479C126.571 107.463 110.048 107.006 106.221 99.3779Z" fill="#1EA54C"/>
<path d="M47.3125 474.842C48.7101 473.589 49.9641 472.139 51.0091 470.571C51.7797 469.396 52.0409 467.972 53.6476 469.147C55.2411 470.31 55.8159 472.374 56.2861 474.294C56.6126 475.626 56.9522 476.972 57.1351 478.33C57.2657 479.231 56.9522 480.969 57.7751 481.556C58.7548 482.262 61.8113 481.334 62.8954 481.151C64.9461 480.812 66.9838 480.381 68.9431 479.702C69.6876 479.44 73.4494 478.199 73.4756 477.181L74.5989 502.691L9.64191 505.76C9.64191 505.76 7.43447 494.553 12.607 491.849C15.4284 490.373 24.0101 487.238 31.2594 484.691C37.699 482.405 42.2445 479.388 47.3125 474.842Z" fill="#21252B"/>
<path d="M102.341 468.808C106.195 466.679 111.589 466.888 114.476 470.206C115.665 471.578 116.344 473.302 116.984 475C118.055 477.769 119.113 480.551 120.184 483.333C121.111 485.737 122.039 488.166 122.548 490.687C123.345 494.553 123.149 498.603 122.091 502.417C121.934 502.952 121.765 503.501 121.425 503.958C121.125 504.363 120.693 504.663 120.262 504.938C115.416 508.046 109.369 509.248 103.7 508.203C99.6246 507.459 92.9761 505.382 92.5712 500.575C92.0748 494.553 92.8454 487.996 94.0079 482.092C95.1835 476.28 96.7771 471.878 102.341 468.808Z" fill="#21252B"/>
<path d="M73.6587 74.612L65.286 83.6247C63.9537 85.0877 61.6026 84.9832 60.4009 83.3896L53.9874 74.8732C53.047 73.6454 53.1515 71.9213 54.1964 70.7979C56.4953 68.3553 60.1527 64.4629 60.4661 64.3584L61.9422 66.1871L66.9187 72.3654L70.8242 68.8778L72.7182 72.6658L73.6587 74.612Z" fill="#21252B"/>
<path d="M71.7647 73.4629L62.7781 81.4045L56.7305 72.0391C56.7305 72.0391 59.6694 68.63 61.9161 66.1743L66.8926 72.3526L69.8708 69.6749L71.7647 73.4629Z" fill="#F9F3ED"/>
<path d="M60.0345 53.2163C65.9515 56.2467 67.9761 63.0258 69.6611 68.969C69.8831 69.7788 71.1501 69.4392 70.915 68.6163C69.1386 62.3466 66.9312 55.2801 60.6876 52.093C59.943 51.7011 59.2899 52.8244 60.0345 53.2163Z" fill="#21252B"/>
<path d="M64.9589 40.9382C66.5002 51.3747 64.2013 63.7966 72.1691 72.1824C72.6524 72.6918 73.3708 72.1562 73.2533 71.5423C72.9006 69.6614 72.0516 67.8981 71.4638 66.0694C70.8629 64.1885 70.3666 62.2684 69.9355 60.3352C69.0865 56.4558 68.5118 52.5242 67.9632 48.6056C67.8456 47.7827 66.5917 48.1354 66.7092 48.9583C67.2709 52.8899 67.8326 56.8085 68.6816 60.6879C69.0996 62.5688 69.5829 64.4366 70.1576 66.2653C70.7454 68.1332 71.6336 69.9488 71.9993 71.8819C72.3651 71.6729 72.7308 71.464 73.0965 71.2419C65.3769 63.1304 67.715 50.6824 66.2129 40.5856C66.0953 39.7627 64.8414 40.1153 64.9589 40.9382Z" fill="#3E4E79"/>
<path d="M74.7437 44.3084C76.1805 42.2969 78.9105 41.3303 81.2877 41.9442C82.0976 42.1532 82.4502 40.8992 81.6404 40.6902C78.6492 39.9196 75.3968 41.1474 73.6204 43.6553C73.4114 43.9427 73.5681 44.3868 73.8555 44.5435C74.1821 44.7394 74.5478 44.5958 74.7437 44.3084Z" fill="#21252B"/>
<path d="M90.0893 40.8597C92.6102 40.1805 95.4185 40.8336 97.3648 42.5839C97.9917 43.1456 98.9191 42.2312 98.2922 41.6565C95.9933 39.5927 92.7278 38.7959 89.7497 39.6058C88.9398 39.8148 89.2794 41.0818 90.0893 40.8597Z" fill="#21252B"/>
<path d="M80.5801 21.9466C79.3261 22.4952 68.3933 29.8752 73.5397 45.1707L79.5351 44.5307C79.5351 44.5307 78.6469 36.5368 80.7891 33.1146C80.7891 33.1146 80.2013 41.0301 83.3362 44.9748L89.2401 44.8703C89.2401 44.8703 87.4507 36.6805 89.41 32.6313C89.41 32.6313 92.362 42.1665 92.1922 44.805L97.3516 44.178C97.3516 44.178 101.074 32.6313 97.5214 25.5125C93.9686 18.4068 80.5801 21.9466 80.5801 21.9466Z" fill="#3E4E79"/>
<path d="M112.44 48.6056C114.204 49.6244 115.301 51.427 115.719 53.3863C116.215 55.7113 115.693 58.1278 114.87 60.3222C114.57 61.1059 115.837 61.4455 116.124 60.6748C117.051 58.2061 117.548 55.4762 116.934 52.8638C116.411 50.6563 115.079 48.6317 113.094 47.4823C112.375 47.0643 111.709 48.1876 112.44 48.6056Z" fill="#21252B"/>
<path d="M115.562 54.1567C113.21 54.7706 111.16 56.3903 110.036 58.5455C109.88 58.859 109.958 59.2509 110.271 59.4337C110.572 59.6035 111.003 59.5121 111.16 59.1986C112.139 57.3177 113.864 55.9331 115.901 55.4107C116.711 55.2017 116.371 53.9477 115.562 54.1567Z" fill="#21252B"/>
<path d="M80.11 80.9468C84.9298 84.0948 90.9253 83.6899 96.1761 81.9787C96.9729 81.7175 96.6333 80.4505 95.8235 80.7248C90.8861 82.3445 85.3086 82.7886 80.7631 79.8366C80.0577 79.3533 79.4046 80.4897 80.11 80.9468Z" fill="#21252B"/>
<path d="M41.1721 79.6411L57.813 95.3677L52.3401 104.655L33.0215 92.2198L41.1721 79.6411Z" fill="#F9F3ED"/>
<path d="M55.7373 241.595V295.384C55.7373 298.545 58.4019 301.066 61.5629 300.897L147.066 296.181C149.979 296.024 152.252 293.634 152.278 290.721L152.761 235.051C152.787 231.812 150.044 229.252 146.818 229.5C129.132 230.885 77.3809 234.921 60.8706 236.096C57.9709 236.305 55.7373 238.709 55.7373 241.595Z" fill="#CCCCCC"/>
<path d="M95.4849 260.366C95.4065 256.604 98.3977 253.508 102.16 253.43C105.921 253.364 109.017 256.356 109.095 260.104C109.161 263.866 106.183 266.975 102.421 267.04C98.6589 267.119 95.5502 264.127 95.4849 260.366Z" fill="#E6E6E6"/>
<path d="M80.3974 300.557L77.3018 298.507L77.3409 263.056C77.3409 263.056 77.785 261.763 79.888 261.371C81.991 260.98 131.47 258.158 131.47 258.158C131.47 258.158 134.422 258.694 134.03 263.043L132.227 297.827L80.3974 300.557Z" fill="#F9F3ED"/>
<path d="M79.5881 264.546L79.34 299.382C79.3269 300.688 80.4241 301.733 81.7303 301.668L132.672 298.82C133.887 298.755 134.827 297.749 134.814 296.535L134.514 261.516C134.5 260.209 133.403 259.191 132.11 259.269L81.7172 262.299C80.5286 262.365 79.6012 263.344 79.5881 264.546Z" fill="#77AC9A"/>
<path d="M109.474 78.5178C110.036 81.6919 110.48 84.892 110.794 88.0922C110.872 88.9151 112.178 88.9282 112.1 88.0922C111.773 84.7614 111.316 81.4568 110.741 78.1651C110.585 77.3422 109.318 77.6949 109.474 78.5178Z" fill="#3E4E79"/>
<path d="M80.9208 32.2004C79.7714 36.1059 79.7583 40.2857 80.8816 44.2043C81.1168 45.0141 82.3707 44.6745 82.1486 43.8516C81.0906 40.142 81.1037 36.2365 82.1878 32.54C82.4229 31.7301 81.1559 31.3905 80.9208 32.2004Z" fill="#3E4E79"/>
<path d="M89.2157 31.6645C88.6148 35.6353 88.8108 39.6584 89.8427 43.5378C90.0517 44.3476 91.3187 44.008 91.0966 43.1851C90.13 39.5408 89.9079 35.7268 90.4696 32.0041C90.6002 31.1943 89.3463 30.8416 89.2157 31.6645Z" fill="#3E4E79"/>
<path d="M103.361 18.8246C106.848 21.437 111.786 21.7243 115.574 19.6214C116.305 19.2164 115.652 18.0931 114.921 18.498C111.498 20.392 107.136 20.0393 104.014 17.7012C103.348 17.1918 102.695 18.3282 103.361 18.8246Z" fill="#3E4E79"/>
<path d="M106.091 19.8565C108.612 21.6983 111.211 23.4355 113.863 25.0682C114.581 25.5123 115.234 24.3759 114.529 23.9449C111.877 22.3122 109.278 20.5749 106.757 18.7332C106.47 18.5242 106.025 18.6809 105.869 18.9683C105.66 19.2818 105.803 19.6475 106.091 19.8565Z" fill="#3E4E79"/>
<path d="M73.3572 102.356C73.0568 102.5 72.887 102.944 72.7433 103.218C72.4429 103.806 72.1555 104.394 71.8682 104.981C70.8885 107.019 69.9481 109.083 69.0076 111.134C66.5258 116.554 64.0833 121.988 61.6537 127.422C60.6872 129.59 59.7206 131.745 58.754 133.914C58.3229 134.893 57.8135 135.86 57.4347 136.866C57.2649 137.31 57.4217 137.571 57.6176 137.95C57.9572 138.616 58.2968 139.282 58.6234 139.935C59.8251 142.299 61.0268 144.663 62.2285 147.028C63.5869 149.692 64.9453 152.344 66.3169 154.995C67.1528 156.615 67.9496 158.3 68.8901 159.868C68.9684 160.011 69.0468 160.142 69.1643 160.272C69.7391 160.886 70.6534 159.959 70.0917 159.345C70.2746 159.554 70.1048 159.345 70.0525 159.241C69.948 159.058 69.8436 158.875 69.7391 158.692C69.4256 158.117 69.1251 157.543 68.8247 156.968C67.8843 155.178 66.97 153.389 66.0426 151.599C63.9918 147.615 61.9541 143.619 59.9295 139.622C59.4724 138.72 59.0152 137.806 58.545 136.905V137.571C60.23 133.757 61.9411 129.956 63.6391 126.155C66.3952 120.003 69.1382 113.85 71.9988 107.75C72.4952 106.692 72.9915 105.648 73.5009 104.603C73.6577 104.289 73.8144 103.963 73.9842 103.662C74.0364 103.584 74.1017 103.492 74.1409 103.401C74.2062 103.231 74.1148 103.44 74.0234 103.492C74.7679 103.113 74.1017 101.99 73.3572 102.356Z" fill="#21252B"/>
<path d="M113.746 105.569C114.073 109.252 114.4 112.936 114.726 116.619C115.249 122.523 115.771 128.427 116.294 134.331C116.411 135.677 116.529 137.035 116.646 138.38C116.711 138.224 116.777 138.067 116.842 137.923C111.722 143.292 106.615 148.66 101.494 154.029C100.776 154.786 100.044 155.544 99.326 156.301C98.7513 156.915 99.6656 157.83 100.253 157.229C102.748 154.616 105.23 152.004 107.725 149.392C110.912 146.048 114.112 142.691 117.299 139.347C117.561 139.073 117.926 138.785 117.965 138.393C117.978 138.171 117.926 137.91 117.9 137.688C117.756 136.082 117.613 134.475 117.469 132.868C116.986 127.487 116.516 122.092 116.045 116.711C115.719 113.066 115.444 109.396 115.079 105.752L115.066 105.569C114.987 104.733 113.681 104.733 113.746 105.569Z" fill="#21252B"/>
<path d="M64.7115 150.764C62.504 153.167 59.97 155.244 57.1747 156.916L58.0629 157.804C58.0891 157.739 58.1283 157.673 58.1544 157.608C58.5201 156.85 57.3968 156.197 57.031 156.942C57.0049 157.007 56.9658 157.073 56.9396 157.138C56.6653 157.699 57.24 158.392 57.8278 158.026C60.7145 156.302 63.353 154.147 65.6388 151.665C66.2005 151.064 65.2731 150.137 64.7115 150.764Z" fill="#21252B"/>
<path d="M56.5729 158.13C59.1331 164.622 61.4972 171.179 63.6786 177.801C63.9398 178.598 65.2068 178.258 64.9325 177.448C62.7643 170.826 60.4 164.256 57.8268 157.777C57.5264 157.019 56.2594 157.346 56.5729 158.13Z" fill="#21252B"/>
<path d="M104.535 151.586C104.365 152.213 104.692 152.736 105.084 153.193C105.463 153.624 105.841 154.042 106.233 154.46C106.991 155.309 107.762 156.158 108.519 157.007C108.754 157.268 109.198 157.242 109.447 157.007C109.708 156.746 109.682 156.341 109.447 156.08C108.767 155.322 108.088 154.564 107.409 153.807C107.069 153.428 106.73 153.049 106.39 152.671C106.233 152.488 106.05 152.318 105.907 152.122C105.868 152.07 105.802 151.991 105.789 151.913C105.815 152.004 105.815 151.848 105.802 151.9C105.894 151.56 105.685 151.194 105.345 151.09C105.005 151.038 104.64 151.247 104.535 151.586Z" fill="#21252B"/>
<path d="M108.939 156.157C106.81 159.057 105.256 162.388 103.544 165.536C101.729 168.866 99.9132 172.21 98.0976 175.541C97.6927 176.286 98.8291 176.939 99.221 176.207C101.037 172.877 102.852 169.533 104.668 166.202C106.379 163.054 107.946 159.723 110.062 156.823C110.559 156.144 109.435 155.491 108.939 156.157Z" fill="#21252B"/>
<path d="M80.6326 102.918C82.4482 104.119 83.7936 105.961 85.361 107.463C87.0068 109.044 88.7702 110.494 90.625 111.813C91.3042 112.296 91.9573 111.173 91.2911 110.69C89.4233 109.357 87.6599 107.894 86.0272 106.288C84.4728 104.772 83.1274 103.009 81.2988 101.794C80.5934 101.324 79.9403 102.447 80.6326 102.918Z" fill="#21252B"/>
<path d="M77.6676 117.35C80.2669 119.675 82.8792 121.987 85.4786 124.312C85.7659 124.56 86.3276 124.587 86.5105 124.182C88.2608 120.237 90.0241 116.292 91.7744 112.334C91.3826 112.282 90.9776 112.23 90.5858 112.178C91.4087 116.553 92.2185 120.942 93.0414 125.318C93.1198 125.736 93.6684 125.919 93.995 125.71C97.2866 123.659 100.578 121.621 103.883 119.584C104.601 119.14 103.948 118.016 103.23 118.46C99.9382 120.511 96.6465 122.549 93.3419 124.586C93.6554 124.717 93.9819 124.848 94.2954 124.978C93.4725 120.59 92.6627 116.214 91.8398 111.825C91.7353 111.303 90.8732 111.159 90.6511 111.668C88.9008 115.613 87.1375 119.558 85.3872 123.515L86.419 123.385C83.8197 121.06 81.2073 118.748 78.5949 116.423C77.968 115.861 77.0406 116.789 77.6676 117.35Z" fill="#21252B"/>
<path d="M91.7103 111.852L99.0381 107.946C99.7826 107.554 99.1295 106.418 98.385 106.823C95.9424 108.129 93.4998 109.422 91.0572 110.728C90.3127 111.12 90.9789 112.257 91.7103 111.852Z" fill="#21252B"/>
<path d="M90.2082 113.563C88.7322 119.075 87.4913 124.64 86.2896 130.217C85.0487 135.977 83.7947 141.751 82.6453 147.537C81.3783 153.898 80.2942 160.299 79.5104 166.738C78.7267 173.243 78.361 179.774 78.2304 186.331C78.0867 193.698 78.0475 201.078 77.1593 208.393C77.0548 209.229 78.361 209.216 78.4655 208.393C79.2492 201.927 79.3667 195.396 79.4843 188.891C79.6018 182.386 79.8239 175.895 80.5031 169.429C81.8093 157.033 84.487 144.846 87.0863 132.673C88.4187 126.403 89.7771 120.12 91.449 113.929C91.6841 113.106 90.4302 112.753 90.2082 113.563Z" fill="#21252B"/>
<path d="M92.2712 130.726C92.0492 131.575 91.3308 132.124 90.6646 131.954C90.0115 131.784 89.6589 130.948 89.8809 130.099C90.103 129.25 90.8214 128.701 91.4875 128.871C92.1537 129.054 92.4933 129.877 92.2712 130.726Z" fill="#21252B"/>
<path d="M53.0066 98.6723C52.7846 99.5213 52.0662 100.07 51.4 99.9001C50.7469 99.7303 50.3942 98.8943 50.6163 98.0453C50.8383 97.1963 51.5568 96.6476 52.2229 96.8175C52.876 96.9873 53.2287 97.8232 53.0066 98.6723Z" fill="#21252B"/>
<path d="M89.1104 146.492C88.8884 147.341 88.17 147.89 87.5038 147.72C86.8377 147.55 86.4981 146.714 86.7201 145.865C86.9422 145.016 87.6606 144.467 88.3268 144.637C88.9929 144.807 89.3456 145.643 89.1104 146.492Z" fill="#21252B"/>
<path d="M85.9493 167.496C85.7273 168.345 85.0089 168.894 84.3427 168.724C83.6766 168.554 83.3369 167.718 83.559 166.869C83.781 166.02 84.4995 165.471 85.1656 165.641C85.8318 165.811 86.1845 166.647 85.9493 167.496Z" fill="#21252B"/>
<path d="M83.7166 191.608C83.4945 192.457 82.7761 193.005 82.11 192.836C81.4569 192.666 81.1042 191.83 81.3262 190.981C81.5483 190.132 82.2667 189.583 82.9329 189.753C83.586 189.923 83.9386 190.759 83.7166 191.608Z" fill="#21252B"/>
<path d="M71.7382 198.87C71.6859 200.699 71.6337 202.514 71.5814 204.343C71.5553 205.179 72.8615 205.179 72.8876 204.343C72.9399 202.514 72.9921 200.699 73.0444 198.87C73.0705 198.034 71.7643 198.034 71.7382 198.87Z" fill="#21252B"/>
<path d="M73.8547 202.658C73.6849 203.285 73.5281 203.912 73.3583 204.539C73.2669 204.865 73.4628 205.257 73.8155 205.335C74.1551 205.414 74.5209 205.231 74.6123 204.878C74.7821 204.251 74.9388 203.624 75.1086 202.997C75.2 202.671 75.0041 202.279 74.6515 202.188C74.3119 202.135 73.9461 202.305 73.8547 202.658Z" fill="#21252B"/>
<path d="M87.9613 201.587C87.465 203.468 86.9817 205.349 86.4853 207.23C86.2763 208.04 87.5303 208.392 87.7393 207.582C88.2356 205.701 88.7189 203.821 89.2153 201.94C89.4373 201.13 88.1834 200.777 87.9613 201.587Z" fill="#21252B"/>
<path d="M89.3845 205.179L88.7836 207.857C88.7052 208.197 88.8881 208.575 89.2408 208.654C89.5673 208.732 89.9592 208.549 90.0506 208.197C90.2465 207.308 90.4555 206.407 90.6515 205.519C90.7298 205.179 90.547 204.8 90.1943 204.709C89.8547 204.644 89.4628 204.814 89.3845 205.179Z" fill="#21252B"/>
<path d="M116.579 144.846C116.658 146.466 116.932 148.086 117.429 149.64C117.533 149.98 117.886 150.189 118.238 150.097C118.565 150.006 118.8 149.627 118.696 149.288C118.238 147.838 117.964 146.362 117.899 144.846C117.886 144.494 117.611 144.193 117.246 144.193C116.893 144.193 116.566 144.494 116.579 144.846Z" fill="#21252B"/>
<path d="M119.299 144.428C118.567 149.261 117.823 154.094 117.091 158.927C116.961 159.749 118.228 160.102 118.345 159.279C119.077 154.446 119.821 149.613 120.553 144.781C120.683 143.958 119.416 143.605 119.299 144.428Z" fill="#21252B"/>
<path d="M42.8457 139.491C43.6555 145.004 44.4784 150.503 45.2882 156.015C45.4058 156.838 46.6728 156.485 46.5422 155.662C45.7323 150.15 44.9094 144.651 44.0996 139.139C43.982 138.316 42.7281 138.669 42.8457 139.491Z" fill="#21252B"/>
<path d="M50.7482 104.785C46.8296 114.882 42.7804 124.926 38.6267 134.932C37.412 137.844 36.1972 140.77 34.9563 143.67C34.6298 144.441 35.7531 145.107 36.0797 144.336C40.3509 134.265 44.5046 124.142 48.5277 113.967C49.6902 111.028 50.8527 108.076 51.9891 105.137C52.3157 104.354 51.0486 104.014 50.7482 104.785Z" fill="#21252B"/>
<path d="M37.2667 245.776C40.0097 246.69 42.8441 247.278 45.7177 247.578C46.0704 247.617 46.3708 247.252 46.3708 246.925C46.3708 246.546 46.0704 246.311 45.7177 246.272C42.9616 245.998 40.2448 245.397 37.6062 244.522C36.8095 244.247 36.4699 245.514 37.2667 245.776Z" fill="#21252B"/>
<path d="M44.844 246.977C45.2358 247.29 44.8439 248.1 44.7394 248.479C44.5305 249.21 44.3215 249.929 44.1125 250.647C43.6815 252.149 43.2373 253.651 42.8063 255.167C42.5712 255.977 43.8382 256.316 44.0602 255.519C44.5566 253.795 45.066 252.071 45.5624 250.334C45.7844 249.55 46.0718 248.766 46.2285 247.97C46.3591 247.29 46.3461 246.52 45.7713 246.049C45.1313 245.527 44.2039 246.441 44.844 246.977Z" fill="#21252B"/>
<path d="M35.7266 255.428C38.0647 256.539 40.7032 256.826 43.2241 256.251C44.047 256.068 43.6943 254.801 42.8714 254.997C40.7032 255.494 38.3912 255.245 36.3797 254.305C36.0662 254.148 35.6743 254.214 35.4915 254.54C35.3347 254.814 35.4131 255.272 35.7266 255.428Z" fill="#21252B"/>
<path d="M110.676 62.8171C110.467 63.5486 110.245 64.3192 110.297 65.0768C110.349 65.743 110.571 66.383 111.015 66.8924C111.42 67.3496 112.047 67.6369 112.674 67.5847C113.314 67.5324 113.954 67.219 114.242 66.6181C114.385 66.3046 114.346 65.8997 114.006 65.7299C113.719 65.5731 113.262 65.6385 113.118 65.965C113.105 66.0042 113.079 66.0434 113.053 66.0826C113.001 66.1871 113.144 66.0173 113.027 66.1087C113.014 66.1218 112.896 66.2262 112.975 66.1609C113.053 66.0956 112.909 66.2001 112.883 66.2132C112.87 66.2262 112.857 66.2262 112.844 66.2393C112.779 66.2654 112.792 66.2654 112.87 66.2263C112.857 66.2524 112.752 66.2654 112.739 66.2654C112.713 66.2785 112.687 66.2785 112.674 66.2785C112.622 66.2916 112.648 66.2916 112.726 66.2785C112.7 66.2916 112.622 66.2916 112.583 66.2916C112.53 66.2916 112.491 66.2916 112.439 66.2916C112.295 66.2916 112.543 66.3307 112.426 66.2916C112.387 66.2785 112.334 66.2654 112.295 66.2524C112.178 66.2262 112.4 66.3177 112.256 66.2393C112.217 66.2132 112.165 66.1871 112.125 66.1609C112.086 66.1348 112.099 66.1348 112.152 66.1871C112.125 66.1609 112.099 66.1348 112.073 66.1087C112.034 66.0695 111.995 66.0303 111.956 65.9911C111.864 65.8997 112.008 66.0695 111.93 65.952C111.864 65.8605 111.812 65.7691 111.773 65.6646C111.707 65.534 111.799 65.743 111.76 65.6123C111.747 65.5601 111.721 65.5078 111.708 65.4556C111.694 65.3903 111.668 65.325 111.655 65.2727C111.655 65.2597 111.629 65.0768 111.642 65.1682C111.655 65.2597 111.629 65.0899 111.629 65.0637C111.629 64.9854 111.616 64.907 111.629 64.8286C111.629 64.5151 111.655 64.3845 111.721 64.0841C111.786 63.7837 111.877 63.4832 111.956 63.1828C112.047 62.8563 111.838 62.4513 111.499 62.373C111.133 62.2815 110.78 62.4644 110.676 62.8171Z" fill="#F9F3ED"/>
<path d="M80.8027 263.866C86.4455 263.161 92.1013 262.639 97.7702 262.312C98.6061 262.26 98.6061 260.954 97.7702 261.006C92.1013 261.332 86.4324 261.855 80.8027 262.56C79.9798 262.665 79.9668 263.971 80.8027 263.866Z" fill="#21252B"/>
<path d="M121.321 261.136C125.723 260.614 130.151 260.326 134.579 260.274C135.415 260.261 135.415 258.955 134.579 258.968C130.151 259.02 125.723 259.307 121.321 259.83C120.498 259.921 120.485 261.228 121.321 261.136Z" fill="#21252B"/>
<path d="M79.7592 263.37C79.2628 272.108 78.7664 280.847 78.2701 289.572C78.2178 290.408 79.524 290.408 79.5763 289.572C80.0726 280.833 80.569 272.095 81.0654 263.37C81.1176 262.534 79.8114 262.534 79.7592 263.37Z" fill="#21252B"/>
<path d="M108.586 285.98C115.156 280.99 122.235 276.706 129.72 273.232C130.478 272.879 129.824 271.756 129.054 272.108C121.569 275.596 114.49 279.867 107.92 284.857C107.267 285.353 107.92 286.489 108.586 285.98Z" fill="#21252B"/>
<path d="M117.873 284.321C120.629 282.702 123.463 281.213 126.363 279.854C127.121 279.501 126.455 278.365 125.697 278.731C122.797 280.089 119.963 281.578 117.207 283.198C116.488 283.616 117.141 284.752 117.873 284.321Z" fill="#21252B"/>
<path d="M102.173 243.307C101.585 244.848 99.3643 264.742 99.3643 264.742C99.3643 264.742 92.0627 274.355 89.5417 278.365C87.0208 282.388 86.002 293.099 86.002 293.099L90.5083 297.449L92.3239 304.75L102.995 303.784L119.31 302.099C119.31 302.099 120.629 274.734 118.317 266.074L121.478 247.683L102.173 243.307Z" fill="#DE9D8F"/>
<path d="M99.4434 240.616L104.916 198.975L129.055 211.044L122.759 244.626L99.4434 240.616Z" fill="#1EA54C"/>
<path d="M98.737 231.459C98.2799 231.773 96.6602 242.954 96.6602 242.954L124.743 249.602L126.533 239.336L98.737 231.459Z" fill="#F9F3ED"/>
<path d="M92.2971 284.53C92.3755 284.504 92.4669 284.478 92.5584 284.465C92.4931 284.478 92.4408 284.478 92.3886 284.491C92.5192 284.478 92.6367 284.478 92.7543 284.491C92.702 284.478 92.6367 284.478 92.5845 284.465C92.7151 284.478 92.8327 284.517 92.9372 284.57C92.8849 284.543 92.8327 284.53 92.7804 284.504C92.898 284.556 93.0025 284.609 93.107 284.687C93.0678 284.648 93.0155 284.622 92.9764 284.583C93.0547 284.635 93.12 284.713 93.1854 284.778C93.2899 284.896 93.4988 284.974 93.6425 284.974C93.7992 284.974 93.9952 284.909 94.0997 284.778C94.2172 284.661 94.2956 284.491 94.2956 284.321C94.2825 284.269 94.2825 284.204 94.2695 284.152C94.2434 284.047 94.178 283.943 94.0997 283.864C93.6033 283.263 92.689 283.028 91.9575 283.276C91.8008 283.329 91.6571 283.42 91.5656 283.577C91.4873 283.72 91.4481 283.916 91.5004 284.073C91.5526 284.23 91.6441 284.387 91.8008 284.465C91.9445 284.543 92.1273 284.583 92.2971 284.53Z" fill="#21252B"/>
<path d="M92.7285 284.178C91.8925 290.422 91.37 296.691 91.2133 302.987C91.1872 303.823 92.4933 303.823 92.5195 302.987C92.6893 296.809 93.1726 290.644 93.9955 284.531C94.1 283.695 92.833 283.342 92.7285 284.178Z" fill="#21252B"/>
<path d="M100.632 304.162C101.429 302.621 102.121 301.014 102.696 299.369C102.813 299.029 102.565 298.65 102.238 298.572C101.873 298.467 101.546 298.689 101.429 299.029C100.893 300.57 100.253 302.059 99.4954 303.509C99.3386 303.823 99.417 304.215 99.7305 304.398C100.031 304.567 100.462 304.476 100.632 304.162Z" fill="#21252B"/>
<path d="M106.522 304.083C108.05 302.294 109.252 300.282 110.101 298.101C110.232 297.775 109.957 297.383 109.644 297.291C109.265 297.187 108.965 297.422 108.834 297.748C108.064 299.721 106.953 301.549 105.582 303.156C105.347 303.43 105.321 303.822 105.582 304.083C105.83 304.319 106.287 304.358 106.522 304.083Z" fill="#21252B"/>
<path d="M114.882 302.66C115.757 301.066 116.632 299.486 117.507 297.892C117.677 297.579 117.586 297.187 117.272 297.004C116.972 296.834 116.554 296.926 116.371 297.239C115.496 298.833 114.62 300.413 113.745 302.007C113.576 302.32 113.667 302.725 113.98 302.895C114.294 303.065 114.712 302.96 114.882 302.66Z" fill="#21252B"/>
<path d="M103.674 238.878C103.452 239.727 102.733 240.276 102.067 240.106C101.414 239.936 101.061 239.1 101.283 238.251C101.505 237.402 102.224 236.854 102.89 237.024C103.556 237.193 103.909 238.016 103.674 238.878Z" fill="#21252B"/>
<path d="M115.979 168.593C114.921 176.534 113.157 184.398 111.472 192.209C109.461 201.561 107.332 210.9 105.176 220.214C104.275 224.093 103.374 227.972 102.473 231.852C102.277 232.675 103.544 233.014 103.727 232.204C105.542 224.367 107.384 216.53 109.16 208.68C111.289 199.288 113.392 189.884 115.234 180.427C116.005 176.495 116.749 172.564 117.272 168.593C117.389 167.757 116.083 167.77 115.979 168.593Z" fill="#21252B"/>
<path d="M130.164 211.592C128.075 219.848 125.606 228.011 122.771 236.044C122.497 236.841 123.751 237.181 124.025 236.397C126.86 228.364 129.328 220.2 131.418 211.945C131.627 211.122 130.36 210.769 130.164 211.592Z" fill="#21252B"/>
<path d="M34.1856 483.842C36.589 484.913 38.2479 487.343 38.287 489.981C38.3001 490.817 39.6063 490.83 39.5932 489.981C39.541 486.912 37.647 483.973 34.8387 482.706C34.5121 482.562 34.1333 482.614 33.9505 482.941C33.7937 483.215 33.859 483.686 34.1856 483.842Z" fill="#F9F3ED"/>
<path d="M44.4513 477.546C46.8678 479.271 48.5919 481.844 49.3234 484.717C49.5324 485.527 50.7863 485.188 50.5773 484.365C49.7675 481.152 47.7952 478.33 45.1044 476.423C44.817 476.214 44.3729 476.371 44.2162 476.658C44.0202 476.972 44.1639 477.337 44.4513 477.546Z" fill="#F9F3ED"/>
<path d="M40.9246 480.681C42.1655 481.047 43.119 482.066 44.1379 482.824C45.2612 483.66 46.476 484.378 47.756 484.953C48.0826 485.096 48.4614 485.044 48.6442 484.718C48.8141 484.443 48.7357 483.973 48.4091 483.829C47.0899 483.229 45.8359 482.497 44.6865 481.622C43.6023 480.786 42.6096 479.819 41.2643 479.428C40.4675 479.179 40.1148 480.446 40.9246 480.681Z" fill="#F9F3ED"/>
<path d="M44.1256 477.259C43.6815 479.754 43.3549 482.262 43.1459 484.77C43.0806 485.606 44.3868 485.606 44.4521 484.77C44.648 482.366 44.9746 479.976 45.3925 477.599C45.4578 477.246 45.3011 476.893 44.9354 476.789C44.6219 476.724 44.1909 476.907 44.1256 477.259Z" fill="#F9F3ED"/>
<path d="M37.607 482.406C39.6969 483.699 41.7998 485.005 43.8898 486.311C44.6082 486.755 45.2613 485.632 44.5429 485.188C42.4529 483.895 40.35 482.588 38.2601 481.295C37.5547 480.838 36.8886 481.962 37.607 482.406Z" fill="#F9F3ED"/>
<path d="M41.4477 479.349C40.664 479.467 40.6379 480.381 40.5857 480.982L40.3506 483.516C40.1938 485.201 40.0371 486.899 39.8803 488.584C39.802 489.42 41.1082 489.42 41.1865 488.584C41.3172 487.173 41.4478 485.776 41.5784 484.365C41.6437 483.686 41.709 483.02 41.7743 482.34C41.8004 482.001 41.8396 481.661 41.8657 481.335C41.8788 481.139 41.9049 480.943 41.918 480.747C41.9311 480.682 41.931 480.629 41.931 480.564C41.9833 480.407 41.9441 480.42 41.8004 480.616C42.1531 480.564 42.349 480.12 42.2576 479.819C42.1531 479.441 41.8004 479.297 41.4477 479.349Z" fill="#F9F3ED"/>
<path d="M40.2708 487.186C40.1794 487.278 40.0879 487.382 40.0226 487.487C39.9965 487.526 39.9834 487.552 39.9704 487.591C39.9312 487.683 39.892 487.761 39.8659 487.852C39.8528 487.918 39.8397 487.983 39.8397 488.048C39.8267 488.114 39.8136 488.179 39.8267 488.244C39.8267 488.336 39.8398 488.427 39.8528 488.518C39.8659 488.558 39.8659 488.597 39.879 488.636C39.9443 488.819 40.0226 488.95 40.1533 489.093C40.1794 489.119 40.2055 489.145 40.2316 489.172C40.2969 489.224 40.3622 489.289 40.4406 489.328C40.519 489.367 40.5974 489.394 40.6757 489.433C40.7149 489.446 40.741 489.459 40.7802 489.472C40.8978 489.498 41.0415 489.524 41.159 489.511C41.3549 489.485 41.4856 489.459 41.6554 489.367C41.7076 489.341 41.7598 489.302 41.799 489.263C41.8513 489.224 41.8905 489.198 41.9297 489.145C42.1256 488.923 42.2301 488.649 42.2301 488.362C42.2301 488.244 42.217 488.127 42.1778 488.009C42.1256 487.839 42.0472 487.709 41.9297 487.578C41.9035 487.552 41.8905 487.539 41.8644 487.513C41.7991 487.46 41.7337 487.408 41.6554 487.369C41.4986 487.291 41.3419 487.238 41.159 487.251C40.9761 487.265 40.8063 487.304 40.6365 487.395C40.4667 487.487 40.3623 487.617 40.2447 487.761C40.2055 487.813 40.1794 487.865 40.1533 487.931C40.1271 487.983 40.101 488.035 40.0879 488.1C40.0618 488.27 40.0618 488.362 40.0879 488.532C40.101 488.623 40.1402 488.701 40.1794 488.78C40.2447 488.923 40.4276 489.041 40.5712 489.08C40.728 489.119 40.937 489.106 41.0806 489.015C41.2243 488.923 41.3419 488.793 41.3811 488.623C41.3811 488.571 41.3941 488.505 41.4072 488.453C41.4072 488.336 41.3811 488.231 41.3157 488.127C41.3157 488.114 41.3027 488.114 41.3027 488.1C41.3288 488.153 41.3419 488.205 41.368 488.257C41.3549 488.231 41.355 488.205 41.3419 488.179C41.355 488.244 41.3549 488.296 41.368 488.349C41.368 488.323 41.368 488.296 41.368 488.257C41.3549 488.309 41.355 488.375 41.3419 488.427C41.3419 488.388 41.3549 488.362 41.368 488.323C41.3419 488.375 41.3288 488.427 41.3027 488.479C41.3158 488.44 41.3419 488.414 41.368 488.375C41.3288 488.414 41.3027 488.466 41.2635 488.505C41.2896 488.466 41.3288 488.44 41.3549 488.414C41.3157 488.44 41.2635 488.479 41.2243 488.518C41.2505 488.492 41.2896 488.479 41.3288 488.453C41.2766 488.479 41.2243 488.492 41.1721 488.518C41.2113 488.505 41.2504 488.492 41.2896 488.492C41.2374 488.505 41.1721 488.505 41.1198 488.518C41.1459 488.518 41.1851 488.518 41.2113 488.518C41.159 488.505 41.0937 488.505 41.0415 488.492C41.0676 488.492 41.1068 488.505 41.1329 488.518C41.0807 488.492 41.0284 488.479 40.9762 488.453C41.0023 488.466 41.0284 488.479 41.0676 488.505C41.0284 488.479 40.9762 488.44 40.937 488.401C40.9631 488.427 40.9892 488.44 41.0023 488.466C40.9631 488.414 40.937 488.375 40.8978 488.336C40.9239 488.362 40.937 488.401 40.9631 488.44C40.937 488.388 40.9239 488.336 40.8978 488.283C40.9109 488.323 40.9239 488.375 40.937 488.414C40.9239 488.362 40.9239 488.296 40.9108 488.244C40.9239 488.296 40.9239 488.349 40.9108 488.401C40.9239 488.349 40.9239 488.283 40.937 488.231C40.9239 488.283 40.9109 488.323 40.8978 488.362C40.9239 488.309 40.937 488.257 40.9631 488.205C40.95 488.244 40.9239 488.283 40.8978 488.309C40.937 488.27 40.9631 488.218 41.0023 488.179C40.9761 488.205 40.9631 488.231 40.937 488.244C40.9762 488.205 41.0284 488.179 41.0676 488.14C41.0284 488.166 41.0023 488.192 40.9631 488.205C41.0153 488.179 41.0676 488.166 41.1198 488.14C41.0806 488.153 41.0284 488.166 40.9892 488.179C41.0414 488.166 41.1068 488.166 41.159 488.153C41.1068 488.166 41.0545 488.166 40.9892 488.153C41.0414 488.166 41.1068 488.166 41.159 488.179C41.1068 488.166 41.0545 488.153 41.0023 488.127C41.0545 488.153 41.1068 488.166 41.159 488.192C41.1068 488.166 41.0545 488.14 41.0153 488.1C41.0545 488.127 41.1067 488.166 41.1459 488.205C41.1067 488.179 41.0676 488.14 41.0415 488.1C41.0806 488.14 41.1067 488.192 41.1459 488.231C41.1198 488.192 41.0937 488.153 41.0806 488.114C41.1068 488.166 41.1198 488.218 41.1459 488.27C41.1198 488.218 41.1068 488.153 41.0937 488.087C41.1068 488.14 41.1068 488.205 41.1198 488.257C41.1068 488.192 41.1068 488.14 41.1198 488.074C41.1068 488.127 41.1068 488.192 41.0937 488.244C41.1068 488.179 41.1198 488.1 41.1459 488.035C41.1198 488.087 41.1068 488.14 41.0806 488.192C41.1068 488.127 41.146 488.074 41.1852 488.022C41.146 488.061 41.1198 488.114 41.0806 488.153C41.1068 488.114 41.146 488.087 41.1721 488.048C41.2896 487.944 41.368 487.748 41.368 487.591C41.368 487.434 41.3027 487.238 41.1721 487.134C41.0545 487.016 40.8847 486.938 40.7149 486.938C40.5451 487.003 40.4014 487.069 40.2708 487.186Z" fill="#F9F3ED"/>
<path d="M44.2304 484.939C44.0998 484.978 43.9823 485.031 43.8778 485.109C43.7994 485.161 43.7341 485.213 43.6688 485.279C43.6035 485.344 43.5512 485.422 43.499 485.488C43.4206 485.592 43.3683 485.723 43.3292 485.84C43.3161 485.906 43.303 485.971 43.29 486.023C43.2769 486.089 43.2638 486.154 43.2769 486.232C43.29 486.546 43.4075 486.846 43.6426 487.055C43.7341 487.134 43.8386 487.225 43.9431 487.277C44.0214 487.316 44.0998 487.356 44.1782 487.369C44.2696 487.395 44.3611 487.408 44.4394 487.408C44.4786 487.408 44.5047 487.408 44.5439 487.408C44.6353 487.408 44.7268 487.395 44.8182 487.369C44.975 487.33 45.0925 487.264 45.2231 487.173C45.3407 487.081 45.4452 486.977 45.5105 486.846C45.5497 486.768 45.5889 486.69 45.615 486.611C45.6281 486.572 45.6411 486.546 45.6411 486.507C45.6542 486.428 45.6672 486.337 45.6672 486.245C45.6672 486.154 45.6542 486.063 45.6411 485.984C45.628 485.867 45.5758 485.749 45.5105 485.645C45.4191 485.488 45.3015 485.37 45.1578 485.266C45.1317 485.24 45.1056 485.227 45.0664 485.213C44.988 485.174 44.9096 485.135 44.8313 485.122C44.6353 485.083 44.4656 485.083 44.2827 485.122C44.1913 485.148 44.1129 485.187 44.0214 485.227C43.9822 485.24 43.9561 485.266 43.917 485.292C43.7602 485.396 43.6427 485.514 43.5512 485.671C43.4467 485.827 43.4075 486.01 43.4075 486.206C43.4075 486.376 43.4859 486.546 43.6034 486.663C43.721 486.781 43.9039 486.859 44.0606 486.859C44.2304 486.846 44.4002 486.794 44.5178 486.663C44.6353 486.533 44.7007 486.376 44.7137 486.206C44.7137 486.193 44.7137 486.167 44.7137 486.154C44.7007 486.206 44.7007 486.272 44.6876 486.324C44.6876 486.285 44.7007 486.258 44.7137 486.219C44.6876 486.272 44.6745 486.324 44.6484 486.376C44.6615 486.337 44.6876 486.311 44.7137 486.272C44.6745 486.311 44.6484 486.363 44.6092 486.402C44.6354 486.376 44.6745 486.337 44.7006 486.311C44.6615 486.337 44.6092 486.376 44.5701 486.415C44.6092 486.389 44.6484 486.363 44.7006 486.337C44.6484 486.363 44.5961 486.376 44.5439 486.402C44.5831 486.389 44.6354 486.376 44.6876 486.363L44.5178 486.389C44.557 486.389 44.6092 486.389 44.6484 486.389C44.5962 486.376 44.5309 486.376 44.4786 486.363C44.5178 486.363 44.557 486.376 44.5962 486.389C44.5439 486.363 44.4917 486.35 44.4394 486.324C44.4786 486.337 44.5047 486.35 44.5309 486.376C44.4917 486.337 44.4394 486.311 44.4002 486.272C44.4264 486.298 44.4525 486.324 44.4786 486.35C44.4394 486.311 44.4133 486.258 44.3741 486.219C44.4002 486.258 44.4264 486.298 44.4394 486.337C44.4133 486.285 44.4002 486.232 44.3741 486.18C44.3872 486.219 44.4002 486.272 44.4133 486.324C44.4002 486.272 44.4002 486.206 44.3872 486.154C44.4002 486.206 44.4002 486.258 44.3872 486.311C44.4002 486.245 44.4002 486.193 44.4133 486.141C44.4002 486.193 44.3872 486.245 44.3741 486.298C44.4002 486.245 44.4133 486.193 44.4394 486.141C44.4264 486.18 44.4002 486.219 44.3741 486.258C44.4133 486.219 44.4394 486.167 44.4786 486.128C44.4525 486.154 44.4264 486.193 44.4002 486.219C44.4394 486.18 44.4917 486.154 44.5309 486.115C44.5047 486.141 44.4655 486.154 44.4263 486.18C44.4786 486.154 44.5308 486.141 44.5831 486.115C44.5439 486.128 44.4917 486.141 44.4525 486.154C44.5047 486.141 44.57 486.141 44.6223 486.128C44.57 486.141 44.5178 486.128 44.4655 486.128C44.5178 486.141 44.5831 486.141 44.6353 486.154C44.5831 486.141 44.5309 486.128 44.4786 486.115C44.5309 486.141 44.5831 486.154 44.6353 486.18C44.5831 486.154 44.5309 486.128 44.4917 486.089C44.5309 486.128 44.5831 486.154 44.6223 486.193C44.5831 486.167 44.5439 486.128 44.5178 486.089C44.557 486.128 44.5831 486.18 44.6223 486.219C44.5961 486.18 44.57 486.141 44.557 486.102C44.5831 486.154 44.5961 486.206 44.6223 486.258C44.6092 486.219 44.5961 486.18 44.5831 486.128C44.5961 486.18 44.5962 486.245 44.6092 486.298C44.6092 486.245 44.6092 486.193 44.6092 486.141C44.5962 486.193 44.5961 486.258 44.5831 486.311C44.5961 486.245 44.6092 486.193 44.6353 486.141C44.6092 486.193 44.5962 486.245 44.5701 486.298C44.5962 486.245 44.6223 486.193 44.6615 486.141C44.6353 486.18 44.5962 486.232 44.557 486.272C44.5962 486.232 44.6353 486.193 44.6745 486.154C44.6353 486.18 44.5831 486.219 44.5439 486.258C44.5831 486.219 44.6354 486.193 44.6876 486.18C44.6354 486.206 44.5831 486.219 44.5309 486.245C44.557 486.232 44.5831 486.232 44.5962 486.219C44.7529 486.167 44.8966 486.063 44.988 485.919C45.0664 485.775 45.1056 485.579 45.0533 485.409C45.0011 485.253 44.9096 485.096 44.7529 485.018C44.57 484.913 44.4002 484.887 44.2304 484.939Z" fill="#F9F3ED"/>
<path d="M47.7427 483.424C47.5598 483.607 47.4292 483.829 47.3378 484.077C47.2464 484.325 47.2464 484.587 47.2986 484.835C47.39 485.292 47.7688 485.684 48.226 485.762C48.448 485.801 48.6832 485.814 48.8922 485.723C49.1403 485.618 49.3754 485.475 49.493 485.227C49.6236 484.965 49.6628 484.652 49.5583 484.378C49.4538 484.077 49.2579 483.855 48.9966 483.685C48.4872 483.359 47.8472 483.489 47.3247 483.685C47.1549 483.751 47.0243 483.829 46.9329 483.986C46.8545 484.129 46.8153 484.338 46.8675 484.495C46.9198 484.652 47.0112 484.809 47.168 484.887C47.3117 484.965 47.5076 485.018 47.6774 484.952C47.8602 484.874 48.0562 484.809 48.2652 484.782C48.2129 484.796 48.1476 484.796 48.0954 484.809C48.1868 484.796 48.2782 484.796 48.3827 484.809L48.2129 484.782C48.2782 484.796 48.3436 484.809 48.4089 484.835C48.3566 484.809 48.3043 484.796 48.2521 484.769C48.3043 484.796 48.3566 484.822 48.4089 484.861C48.3697 484.822 48.3174 484.795 48.2782 484.756C48.3305 484.795 48.3697 484.835 48.4089 484.887C48.3697 484.848 48.3435 484.795 48.3044 484.756C48.3305 484.795 48.3566 484.835 48.3697 484.874C48.3436 484.822 48.3305 484.769 48.3044 484.717C48.3174 484.756 48.3305 484.796 48.3435 484.848C48.3305 484.796 48.3305 484.73 48.3174 484.678C48.3174 484.717 48.3174 484.756 48.3174 484.795C48.3305 484.743 48.3305 484.678 48.3435 484.626C48.3435 484.665 48.3305 484.691 48.3174 484.73C48.3436 484.678 48.3566 484.626 48.3827 484.573C48.3697 484.613 48.3566 484.639 48.3305 484.665C48.3697 484.626 48.3958 484.573 48.435 484.534C48.4219 484.56 48.3958 484.573 48.3697 484.6C48.4089 484.56 48.4611 484.534 48.5003 484.495C48.4742 484.521 48.435 484.534 48.3958 484.56C48.448 484.534 48.5003 484.521 48.5525 484.495C48.5003 484.521 48.4611 484.521 48.4089 484.534C48.4611 484.521 48.5264 484.521 48.5786 484.508C48.5264 484.521 48.4611 484.521 48.4089 484.508C48.4611 484.521 48.5264 484.521 48.5786 484.534C48.5264 484.521 48.4742 484.521 48.4219 484.495C48.4742 484.521 48.5264 484.534 48.5786 484.56C48.5395 484.547 48.5003 484.521 48.4611 484.495C48.5003 484.534 48.5525 484.56 48.5917 484.6C48.5656 484.573 48.5264 484.547 48.5003 484.508C48.5395 484.547 48.5656 484.6 48.6048 484.639C48.5787 484.6 48.5525 484.547 48.5264 484.508C48.5525 484.56 48.5656 484.613 48.5917 484.665C48.5656 484.613 48.5525 484.56 48.5525 484.508C48.5656 484.56 48.5656 484.626 48.5786 484.678C48.5656 484.6 48.5656 484.534 48.5786 484.456C48.5656 484.508 48.5656 484.573 48.5525 484.626C48.5656 484.547 48.5917 484.469 48.6178 484.391C48.5917 484.443 48.5787 484.495 48.5525 484.547C48.5917 484.469 48.6309 484.404 48.6832 484.338C48.644 484.378 48.6178 484.43 48.5786 484.469C48.6048 484.443 48.6309 484.404 48.657 484.378C48.7746 484.26 48.853 484.077 48.853 483.92C48.853 483.764 48.7876 483.568 48.657 483.463C48.5395 483.346 48.3697 483.267 48.1999 483.267C48.0301 483.241 47.8733 483.293 47.7427 483.424Z" fill="#F9F3ED"/>
<path d="M11.7322 500.875C15.4418 501.175 19.1644 501.084 22.8871 500.927C26.5967 500.757 30.3062 500.587 34.0158 500.352C41.3044 499.882 48.5015 498.876 55.7509 498.001C59.8915 497.505 64.0322 497.1 68.1989 496.982C69.0349 496.956 69.048 495.65 68.1989 495.676C60.8189 495.885 53.5173 497.008 46.1896 497.91C38.9271 498.798 31.6386 499.216 24.3239 499.556C20.131 499.751 15.912 499.921 11.7191 499.582C10.8831 499.503 10.8962 500.809 11.7322 500.875Z" fill="#F9F3ED"/>
<path d="M97.7965 482.275C103.269 477.573 111.185 476.867 117.442 480.459C118.173 480.877 118.826 479.754 118.108 479.336C111.329 475.444 102.812 476.279 96.8821 481.361C96.229 481.909 97.1564 482.824 97.7965 482.275Z" fill="#F9F3ED"/>
<path d="M98.5024 490.23C101.546 488.584 104.968 487.905 108.39 487.617C110.049 487.487 111.708 487.434 113.354 487.408C115.078 487.382 116.985 487.173 118.579 487.983C119.323 488.362 119.989 487.239 119.232 486.86C117.612 486.037 115.836 486.076 114.059 486.102C112.165 486.128 110.271 486.18 108.377 486.324C104.72 486.625 101.089 487.356 97.8362 489.106C97.1048 489.498 97.7578 490.635 98.5024 490.23Z" fill="#F9F3ED"/>
<path d="M102.251 478.905C102.238 478.866 102.212 478.827 102.199 478.788C102.225 478.958 102.238 479.127 102.264 479.297C101.924 479.48 101.911 479.572 102.225 479.585C102.368 479.624 102.525 479.65 102.669 479.689C102.891 479.741 103.113 479.794 103.335 479.846C103.857 479.977 104.367 480.12 104.876 480.264C105.908 480.551 106.927 480.865 107.933 481.217C108.938 481.557 109.944 481.936 110.937 482.341C111.864 482.719 112.766 483.19 113.798 483.203C114.633 483.216 114.633 481.91 113.798 481.897C113.171 481.884 112.596 481.622 112.021 481.387C111.459 481.152 110.898 480.917 110.323 480.708C109.108 480.251 107.894 479.82 106.653 479.441C105.451 479.075 104.236 478.736 103.021 478.448C102.538 478.331 101.924 478.096 101.441 478.357C100.958 478.618 100.918 479.141 101.114 479.585C101.454 480.342 102.577 479.676 102.251 478.905Z" fill="#F9F3ED"/>
<path d="M111.315 477.952C108.206 479.676 105.019 481.23 101.741 482.589C101.414 482.719 101.192 483.02 101.283 483.399C101.362 483.712 101.767 483.986 102.08 483.856C105.463 482.458 108.768 480.865 111.968 479.088C112.7 478.67 112.046 477.547 111.315 477.952Z" fill="#F9F3ED"/>
<path d="M102.591 483.673C105.961 484.548 109.331 485.436 112.701 486.312C113.511 486.52 113.863 485.267 113.053 485.058C109.683 484.182 106.313 483.294 102.944 482.419C102.134 482.197 101.781 483.464 102.591 483.673Z" fill="#F9F3ED"/>
<path d="M112.349 481.387C109.384 483.007 106.275 484.326 103.049 485.345C102.252 485.593 102.592 486.86 103.402 486.599C106.732 485.554 109.959 484.182 113.015 482.51C113.747 482.105 113.081 480.982 112.349 481.387Z" fill="#F9F3ED"/>
<path d="M103.479 485.083C103.387 485.07 103.283 485.057 103.191 485.057C103.048 485.057 102.891 485.07 102.747 485.096C102.604 485.122 102.473 485.174 102.356 485.253C102.199 485.344 102.081 485.462 101.977 485.619C101.911 485.723 101.859 485.841 101.82 485.958C101.794 486.076 101.768 486.193 101.781 486.311C101.807 486.481 101.833 486.65 101.938 486.794C102.042 486.938 102.081 486.99 102.225 487.081C102.238 487.095 102.251 487.095 102.264 487.108C102.329 487.147 102.408 487.173 102.486 487.199C102.682 487.251 102.878 487.238 103.074 487.212C103.113 487.212 103.152 487.199 103.178 487.186C103.27 487.16 103.348 487.121 103.44 487.068C103.557 487.003 103.662 486.925 103.74 486.82C103.805 486.755 103.858 486.677 103.897 486.611C103.949 486.533 103.975 486.441 104.014 486.363C104.027 486.324 104.041 486.298 104.041 486.259C104.054 486.167 104.08 486.076 104.067 485.984C104.054 485.814 104.014 485.632 103.91 485.488C103.818 485.357 103.714 485.24 103.57 485.161C103.414 485.07 103.283 485.057 103.1 485.031C103.074 485.031 103.035 485.031 103.009 485.031C102.917 485.031 102.839 485.044 102.747 485.07C102.695 485.083 102.643 485.109 102.591 485.122C102.538 485.148 102.486 485.161 102.447 485.187C102.382 485.227 102.316 485.279 102.264 485.344C102.225 485.396 102.173 485.449 102.147 485.501C102.147 485.514 102.133 485.527 102.133 485.54C102.055 485.684 102.042 485.775 102.029 485.932C102.029 486.023 102.042 486.102 102.055 486.193C102.081 486.272 102.107 486.35 102.173 486.415C102.225 486.481 102.277 486.546 102.356 486.585C102.434 486.637 102.512 486.664 102.604 486.664C102.695 486.69 102.774 486.677 102.865 486.65C103.022 486.598 103.178 486.507 103.257 486.35C103.283 486.298 103.296 486.246 103.322 486.193C103.348 486.076 103.348 485.958 103.322 485.841C103.322 485.828 103.322 485.828 103.322 485.828C103.335 485.893 103.335 485.945 103.348 485.997C103.348 485.971 103.348 485.958 103.348 485.932C103.335 485.984 103.335 486.05 103.322 486.102C103.322 486.076 103.335 486.063 103.335 486.037C103.309 486.089 103.296 486.141 103.27 486.193C103.283 486.18 103.296 486.154 103.296 486.141C103.257 486.18 103.231 486.232 103.191 486.272C103.205 486.245 103.231 486.232 103.244 486.219C103.205 486.245 103.152 486.285 103.113 486.324C103.139 486.311 103.165 486.285 103.191 486.272C103.139 486.298 103.087 486.311 103.035 486.337C103.074 486.324 103.126 486.311 103.165 486.298C103.113 486.311 103.048 486.311 102.996 486.324C103.035 486.324 103.087 486.311 103.126 486.324C103.074 486.311 103.009 486.311 102.956 486.298C102.996 486.298 103.035 486.311 103.074 486.324C103.022 486.298 102.969 486.285 102.917 486.259C102.943 486.272 102.969 486.285 102.983 486.298C102.943 486.259 102.891 486.232 102.852 486.193C102.878 486.206 102.891 486.219 102.904 486.246C102.865 486.206 102.839 486.154 102.8 486.115C102.813 486.141 102.826 486.154 102.839 486.18C102.813 486.128 102.8 486.076 102.774 486.023C102.787 486.063 102.8 486.089 102.8 486.128C102.787 486.063 102.787 486.01 102.774 485.958C102.774 485.997 102.774 486.037 102.774 486.076C102.787 486.01 102.787 485.958 102.8 485.906C102.787 485.945 102.787 485.984 102.76 486.023C102.787 485.971 102.813 485.919 102.826 485.867C102.813 485.919 102.774 485.958 102.747 485.997C102.787 485.958 102.813 485.906 102.852 485.867C102.813 485.919 102.774 485.958 102.734 485.984C102.774 485.945 102.826 485.919 102.865 485.88C102.813 485.919 102.774 485.945 102.721 485.971C102.774 485.945 102.826 485.932 102.878 485.906C102.826 485.932 102.774 485.945 102.721 485.945C102.774 485.932 102.839 485.932 102.891 485.919C102.839 485.919 102.787 485.919 102.734 485.919C102.787 485.932 102.852 485.932 102.904 485.945C102.865 485.945 102.839 485.932 102.8 485.919C102.852 485.945 102.904 485.958 102.956 485.984C102.93 485.971 102.904 485.958 102.878 485.945C102.917 485.984 102.969 486.01 103.009 486.05C102.996 486.037 102.969 486.023 102.956 485.997C102.996 486.037 103.022 486.089 103.061 486.128C103.048 486.102 103.035 486.089 103.022 486.063C103.048 486.115 103.061 486.167 103.087 486.219C103.074 486.193 103.074 486.167 103.061 486.128C103.074 486.18 103.074 486.245 103.087 486.298C103.087 486.259 103.087 486.219 103.087 486.18C103.074 486.232 103.074 486.298 103.061 486.35C103.061 486.298 103.074 486.259 103.1 486.219C103.074 486.272 103.061 486.324 103.035 486.376C103.048 486.337 103.074 486.298 103.1 486.259C103.061 486.298 103.035 486.35 102.996 486.389C103.022 486.363 103.048 486.337 103.074 486.311C103.035 486.35 102.983 486.376 102.943 486.415C102.983 486.389 103.022 486.363 103.074 486.35C103.022 486.376 102.969 486.389 102.917 486.415C102.996 486.389 103.061 486.363 103.139 486.363C103.074 486.376 103.022 486.376 102.969 486.389C103.139 486.363 103.309 486.376 103.479 486.402C103.57 486.402 103.649 486.389 103.727 486.35C103.805 486.324 103.884 486.285 103.936 486.219C104.001 486.154 104.041 486.089 104.067 486.01C104.106 485.932 104.132 485.854 104.119 485.762C104.106 485.592 104.054 485.423 103.923 485.305C103.871 485.266 103.832 485.24 103.792 485.201C103.701 485.109 103.596 485.083 103.479 485.083Z" fill="#F9F3ED"/>
<path d="M113.067 483.986C112.78 483.895 112.466 483.947 112.192 484.091C112.114 484.13 112.049 484.182 111.996 484.235C111.97 484.261 111.944 484.287 111.918 484.313C111.866 484.365 111.813 484.444 111.774 484.509C111.735 484.587 111.696 484.666 111.683 484.744C111.657 484.849 111.644 484.966 111.644 485.084C111.657 485.162 111.657 485.24 111.683 485.319C111.709 485.397 111.735 485.475 111.774 485.554C111.813 485.658 111.892 485.75 111.97 485.828C111.983 485.854 112.009 485.867 112.022 485.88C112.088 485.933 112.153 485.998 112.218 486.024C112.375 486.115 112.506 486.142 112.689 486.155C112.715 486.155 112.754 486.155 112.78 486.155C112.871 486.142 112.95 486.142 113.028 486.116C113.211 486.05 113.316 485.985 113.459 485.867C113.551 485.802 113.616 485.697 113.668 485.606C113.825 485.358 113.864 485.057 113.799 484.783C113.747 484.522 113.551 484.3 113.329 484.156C113.237 484.091 113.12 484.052 113.015 484.026C112.898 483.999 112.78 483.986 112.662 483.999C112.584 484.013 112.493 484.013 112.414 484.039C112.336 484.065 112.257 484.091 112.192 484.13C112.035 484.222 111.931 484.339 111.84 484.483C111.787 484.561 111.761 484.639 111.761 484.718C111.748 484.809 111.748 484.888 111.774 484.979C111.8 485.071 111.839 485.136 111.892 485.201C111.944 485.266 111.996 485.332 112.075 485.371C112.231 485.449 112.414 485.489 112.584 485.436C112.636 485.41 112.689 485.397 112.741 485.371C112.832 485.319 112.924 485.24 112.976 485.136L112.989 485.123C112.95 485.162 112.924 485.214 112.884 485.253C112.898 485.227 112.924 485.214 112.95 485.188C112.911 485.227 112.858 485.253 112.819 485.293C112.845 485.28 112.871 485.253 112.898 485.24C112.845 485.266 112.793 485.28 112.741 485.306C112.78 485.293 112.819 485.28 112.858 485.28C112.793 485.293 112.741 485.293 112.689 485.306C112.741 485.293 112.78 485.293 112.832 485.306C112.78 485.293 112.715 485.293 112.662 485.28C112.702 485.293 112.754 485.293 112.793 485.319C112.741 485.293 112.689 485.266 112.636 485.253C112.675 485.266 112.702 485.293 112.741 485.319C112.702 485.28 112.649 485.253 112.61 485.214C112.636 485.227 112.662 485.253 112.675 485.28C112.636 485.24 112.61 485.188 112.571 485.149C112.584 485.175 112.597 485.201 112.61 485.227L112.545 485.071C112.558 485.097 112.571 485.136 112.571 485.175C112.558 485.11 112.558 485.057 112.545 485.005C112.545 485.031 112.545 485.071 112.545 485.11C112.558 485.044 112.558 484.992 112.571 484.94C112.571 484.979 112.558 485.018 112.545 485.057C112.571 485.005 112.584 484.953 112.61 484.901C112.597 484.94 112.571 484.979 112.545 485.018C112.584 484.979 112.61 484.927 112.649 484.888C112.623 484.927 112.584 484.953 112.558 484.979C112.597 484.94 112.649 484.914 112.689 484.875C112.662 484.901 112.623 484.914 112.597 484.927C112.649 484.901 112.702 484.888 112.754 484.862C112.715 484.875 112.689 484.888 112.649 484.888C112.715 484.875 112.767 484.875 112.819 484.862C112.78 484.862 112.754 484.862 112.715 484.862C112.78 484.875 112.832 484.875 112.884 484.888C112.858 484.888 112.819 484.875 112.793 484.862C112.845 484.888 112.898 484.901 112.95 484.927C112.911 484.914 112.884 484.888 112.845 484.875C112.898 484.914 112.937 484.94 112.976 484.979C112.95 484.953 112.924 484.927 112.898 484.901C112.924 484.953 112.963 484.992 113.002 485.031C112.976 484.992 112.95 484.953 112.937 484.914C112.963 484.966 112.976 485.018 113.002 485.071C112.989 485.031 112.976 484.979 112.963 484.94C112.976 484.992 112.976 485.057 112.989 485.11C112.989 485.071 112.989 485.018 112.989 484.979C112.976 485.044 112.976 485.097 112.963 485.149C112.963 485.11 112.976 485.084 112.989 485.044C112.963 485.097 112.95 485.149 112.924 485.201C112.937 485.175 112.95 485.136 112.976 485.11C112.937 485.149 112.911 485.201 112.871 485.24C112.898 485.214 112.924 485.188 112.95 485.162C112.911 485.201 112.858 485.227 112.819 485.266C112.845 485.24 112.884 485.214 112.924 485.201C112.871 485.227 112.819 485.24 112.767 485.266C112.806 485.253 112.845 485.24 112.884 485.227C112.819 485.24 112.767 485.24 112.715 485.253C112.754 485.253 112.793 485.24 112.845 485.253C112.793 485.24 112.728 485.24 112.675 485.227C112.702 485.227 112.728 485.24 112.741 485.24C112.832 485.266 112.911 485.266 113.002 485.253C113.093 485.253 113.172 485.227 113.237 485.175C113.315 485.136 113.381 485.084 113.42 485.005C113.472 484.94 113.511 484.875 113.538 484.783C113.577 484.613 113.564 484.431 113.472 484.274C113.368 484.143 113.237 484.039 113.067 483.986Z" fill="#F9F3ED"/>
<path d="M113.588 480.707C113.483 480.746 113.379 480.785 113.287 480.838C113.183 480.89 113.105 480.968 113.013 481.033C112.843 481.177 112.739 481.373 112.66 481.569C112.582 481.765 112.582 482.013 112.647 482.209C112.687 482.3 112.726 482.405 112.778 482.496C112.882 482.64 112.961 482.732 113.118 482.836C113.34 482.98 113.614 483.019 113.875 482.954C114.123 482.901 114.332 482.718 114.463 482.509C114.567 482.34 114.62 482.131 114.607 481.935C114.594 481.739 114.554 481.517 114.437 481.347C114.398 481.282 114.345 481.216 114.293 481.164C114.241 481.112 114.163 481.047 114.097 481.007C114.006 480.942 113.888 480.89 113.784 480.851C113.614 480.785 113.418 480.759 113.235 480.759C113.065 480.759 112.896 480.838 112.778 480.955C112.66 481.073 112.582 481.256 112.582 481.412C112.595 481.582 112.647 481.752 112.778 481.869C112.909 481.987 113.065 482.065 113.235 482.065C113.287 482.065 113.34 482.065 113.392 482.078C113.34 482.065 113.274 482.065 113.222 482.052C113.3 482.065 113.379 482.078 113.457 482.118C113.405 482.091 113.353 482.078 113.3 482.052C113.353 482.078 113.405 482.105 113.444 482.131C113.405 482.092 113.353 482.065 113.313 482.026C113.353 482.052 113.392 482.092 113.418 482.131C113.379 482.092 113.353 482.039 113.313 482C113.327 482.026 113.353 482.052 113.366 482.078C113.34 482.026 113.327 481.974 113.3 481.922C113.314 481.961 113.327 482 113.34 482.052C113.327 482 113.327 481.935 113.313 481.883C113.313 481.922 113.313 481.974 113.313 482.013C113.327 481.948 113.327 481.896 113.34 481.843C113.327 481.883 113.327 481.922 113.313 481.948C113.34 481.896 113.353 481.843 113.379 481.791C113.366 481.817 113.353 481.856 113.327 481.883C113.366 481.843 113.392 481.791 113.431 481.752C113.418 481.765 113.392 481.791 113.379 481.804C113.418 481.765 113.47 481.739 113.509 481.7C113.483 481.713 113.47 481.726 113.444 481.739C113.496 481.713 113.549 481.7 113.601 481.674C113.575 481.687 113.549 481.687 113.522 481.687C113.575 481.673 113.64 481.674 113.692 481.66C113.666 481.66 113.64 481.66 113.614 481.66C113.666 481.674 113.731 481.673 113.784 481.687C113.758 481.687 113.731 481.674 113.692 481.66C113.745 481.687 113.797 481.7 113.849 481.726C113.823 481.713 113.784 481.7 113.758 481.674C113.797 481.7 113.849 481.739 113.888 481.778C113.862 481.752 113.836 481.726 113.81 481.687C113.849 481.726 113.875 481.778 113.914 481.817C113.888 481.791 113.875 481.752 113.849 481.713C113.875 481.765 113.888 481.817 113.914 481.869C113.901 481.843 113.888 481.804 113.888 481.765C113.901 481.817 113.901 481.882 113.914 481.935C113.914 481.896 113.914 481.869 113.914 481.83C113.901 481.882 113.901 481.948 113.888 482C113.901 481.961 113.901 481.922 113.927 481.883C113.901 481.935 113.888 481.987 113.862 482.039C113.888 481.987 113.914 481.948 113.94 481.909C113.901 481.961 113.875 482 113.836 482.039C113.875 481.987 113.914 481.948 113.967 481.909C113.927 481.948 113.875 481.974 113.836 482.013C113.901 481.961 113.967 481.922 114.032 481.896C113.98 481.922 113.927 481.935 113.875 481.961C113.901 481.948 113.914 481.948 113.94 481.935C114.097 481.882 114.241 481.778 114.332 481.634C114.385 481.556 114.411 481.478 114.411 481.399C114.437 481.308 114.424 481.229 114.398 481.138C114.345 480.981 114.254 480.824 114.097 480.746C113.94 480.681 113.745 480.642 113.588 480.707Z" fill="#F9F3ED"/>
<path d="M102.63 481.518C102.368 481.465 102.12 481.465 101.859 481.518C101.663 481.557 101.467 481.648 101.31 481.753C100.932 482.001 100.618 482.38 100.527 482.824C100.461 483.111 100.566 483.412 100.827 483.555C100.971 483.634 101.128 483.712 101.284 483.738C101.389 483.764 101.506 483.777 101.624 483.777C101.728 483.777 101.846 483.764 101.95 483.751C102.107 483.725 102.264 483.66 102.408 483.581C102.499 483.529 102.591 483.464 102.669 483.399C102.721 483.359 102.76 483.32 102.8 483.281C102.904 483.15 102.995 482.994 102.995 482.824C102.982 482.654 102.93 482.484 102.8 482.367C102.721 482.301 102.643 482.223 102.551 482.184C102.46 482.132 102.355 482.092 102.251 482.066C102.146 482.053 102.042 482.027 101.937 482.04C101.859 482.053 101.781 482.053 101.702 482.079C101.624 482.105 101.546 482.145 101.48 482.171C101.337 482.236 101.219 482.419 101.18 482.563C101.141 482.719 101.154 482.928 101.245 483.072C101.337 483.216 101.467 483.333 101.637 483.372C101.689 483.386 101.755 483.386 101.807 483.399C101.924 483.399 102.029 483.372 102.133 483.307C102.146 483.307 102.146 483.294 102.146 483.294C102.094 483.32 102.042 483.333 101.99 483.359C102.029 483.346 102.068 483.333 102.094 483.333C102.042 483.346 101.977 483.346 101.924 483.359C101.977 483.359 102.016 483.359 102.055 483.359C102.003 483.346 101.937 483.346 101.885 483.333C101.924 483.346 101.977 483.346 102.016 483.359C101.964 483.333 101.911 483.32 101.859 483.294C101.898 483.307 101.937 483.333 101.977 483.359C101.937 483.32 101.885 483.294 101.846 483.255C101.859 483.268 101.872 483.268 101.872 483.281V482.354C101.833 482.406 101.794 482.445 101.741 482.471C101.781 482.432 101.833 482.406 101.872 482.367C101.807 482.419 101.742 482.458 101.676 482.484C101.728 482.458 101.781 482.445 101.833 482.419C101.755 482.445 101.676 482.471 101.585 482.484C101.637 482.471 101.702 482.471 101.755 482.458C101.663 482.471 101.572 482.471 101.48 482.458C101.532 482.471 101.598 482.471 101.65 482.484C101.572 482.471 101.493 482.458 101.428 482.419C101.48 482.445 101.533 482.458 101.585 482.484C101.546 482.471 101.506 482.445 101.467 482.432C101.572 482.68 101.663 482.928 101.768 483.177C101.781 483.124 101.794 483.059 101.82 483.007C101.794 483.059 101.781 483.111 101.755 483.163C101.794 483.072 101.833 482.994 101.898 482.915C101.859 482.954 101.833 483.007 101.794 483.046C101.859 482.968 101.924 482.902 102.003 482.837C101.964 482.876 101.911 482.902 101.872 482.941C101.964 482.876 102.042 482.824 102.146 482.785C102.094 482.811 102.042 482.824 101.99 482.85C102.081 482.811 102.186 482.785 102.277 482.772C102.212 482.785 102.159 482.785 102.107 482.798C102.199 482.785 102.277 482.785 102.368 482.798C102.316 482.785 102.251 482.785 102.199 482.772C102.225 482.772 102.251 482.785 102.264 482.785C102.434 482.824 102.617 482.811 102.773 482.719C102.904 482.641 103.035 482.484 103.074 482.328C103.113 482.158 103.1 481.975 103.009 481.818C102.93 481.687 102.8 481.557 102.63 481.518Z" fill="#F9F3ED"/>
<path d="M96.8702 498.484C99.3258 501.319 103.297 501.776 106.823 502.011C111.199 502.298 115.653 502.181 119.742 500.443C120.512 500.117 119.846 498.994 119.075 499.32C115.314 500.927 111.134 500.979 107.111 500.731C103.845 500.522 100.083 500.208 97.7976 497.57C97.236 496.93 96.3216 497.857 96.8702 498.484Z" fill="#F9F3ED"/>
</g>
<defs>
<filter id="filter0_d" x="0.693807" y="0.693807" width="161.211" height="517.022" filterUnits="userSpaceOnUse" color-interpolation-filters="sRGB">
<feFlood flood-opacity="0" result="BackgroundImageFix"/>
<feColorMatrix in="SourceAlpha" type="matrix" values="0 0 0 0 0 0 0 0 0 0 0 0 0 0 0 0 0 0 127 0"/>
<feMorphology radius="1.30619" operator="dilate" in="SourceAlpha" result="effect1_dropShadow"/>
<feOffset dx="3.91858" dy="3.91858"/>
<feGaussianBlur stdDeviation="1.95929"/>
<feColorMatrix type="matrix" values="0 0 0 0 0.0952604 0 0 0 0 0.129167 0 0 0 0 0.163073 0 0 0 0.83 0"/>
<feBlend mode="normal" in2="BackgroundImageFix" result="effect1_dropShadow"/>
<feBlend mode="normal" in="SourceGraphic" in2="effect1_dropShadow" result="shape"/>
</filter>
</defs>
</svg>
