<svg width="231" height="519" viewBox="0 0 231 519" fill="none" xmlns="http://www.w3.org/2000/svg">
<g filter="url(#filter0_d)">
<path d="M47.8168 135.499C45.94 145.699 46.144 156.824 51.8561 165.841C53.2841 168.085 55.0113 170.125 57.0513 171.839C57.7177 172.396 58.6833 171.444 58.0169 170.873C47.912 162.332 46.9192 148.011 49.1497 135.853C49.2857 134.996 47.98 134.629 47.8168 135.499Z" fill="#3E484D"/>
<path d="M82.3486 12.6499C78.731 8.39308 72.3525 7.10106 67.0076 8.70588C61.6628 10.3107 57.3108 14.4179 54.4684 19.2324C51.6259 24.0468 50.1299 29.5277 49.0147 34.995C47.7091 41.4686 46.8795 48.1463 47.7499 54.7015C48.7019 61.9232 51.6667 68.7505 52.7411 75.9586C54.2099 85.8867 52.0339 95.774 49.5451 105.308C48.3211 109.986 48.7563 115.685 48.6203 120.513C48.4707 125.708 48.4571 130.917 48.5387 136.112C48.6203 141.416 48.7971 146.747 49.7355 151.97C51.0003 159.11 53.6795 166.005 57.5691 172.125C58.97 174.342 61.9892 173.825 64.4917 173.05C66.0965 163.911 71.9989 154.975 74.3654 146.013C75.9022 140.178 76.3509 134.086 77.7789 128.224C79.1254 122.702 81.3558 117.453 83.5726 112.217C84.579 109.85 85.5991 107.456 87.0815 105.348C87.8975 104.192 88.8495 103.118 89.4887 101.853C90.5223 99.8132 90.6719 97.4332 90.6175 95.1484C90.4679 88.3347 95.6768 83.1802 97.6624 76.6522C98.9272 72.5041 100.151 68.3153 100.6 64.0041C101.198 58.3736 100.464 52.7023 99.7296 47.0991C99.308 43.8758 98.8728 40.6118 97.744 37.5518C96.9552 35.3894 95.6904 33.2269 93.6231 32.2205C92.7391 28.7117 91.9639 24.4956 90.4679 21.2044C88.9719 17.9132 86.7959 14.8531 83.8039 12.8267C83.0287 12.3099 82.9471 13.3571 82.3486 12.6499Z" fill="#3E484D"/>
<path d="M60.9283 434.077C60.4115 435.124 58.0723 475.951 58.0723 475.951C58.0723 475.951 61.7171 492.856 68.4764 493.645C75.2357 494.421 84.0893 475.951 84.0893 475.951C84.0893 475.951 82.0086 468.934 81.2333 459.305C80.4581 449.676 81.7502 434.335 81.7502 434.335L60.9283 434.077Z" fill="#DE9D8F"/>
<path d="M150.403 434.866C150.92 435.913 157.693 464.514 157.693 471.029C157.693 477.53 172.517 477.271 172.517 477.271L205.035 490.273L212.053 483.514C212.053 483.514 186.036 469.465 180.84 457.755C175.632 446.045 172.776 426.801 172.776 426.801L150.403 434.866Z" fill="#DE9D8F"/>
<path d="M59.623 469.206C54.9446 480.916 51.5582 487.675 51.8166 498.338C51.8166 498.338 54.931 509 70.2856 509C85.6266 509 85.1097 498.079 85.1097 498.079C85.1097 498.079 85.8849 479.869 81.7233 469.206C81.7233 469.206 76.5144 487.675 66.1103 485.594C55.7198 483.513 59.623 469.206 59.623 469.206Z" fill="#E7EFEF"/>
<path d="M158.727 465.303C154.13 466.187 154.048 472.32 154.307 477.271C154.565 482.221 158.509 502.213 158.509 502.213L165.799 502.73L166.547 485.853C166.547 485.853 174.816 489.565 176.434 495.998C177.386 499.793 177.291 501.329 177.291 501.329L221.192 502.349C221.192 502.349 224.116 486.465 205.77 479.8C205.77 479.8 189.898 487.24 182.418 478.821C172.001 467.125 165.5 463.997 158.727 465.303Z" fill="#E7EFEF"/>
<path d="M177.712 432.594C164.167 447.949 145.657 438.021 145.657 438.021C128.969 386.558 103.687 257.479 103.687 257.479L85.6394 438.918C72.5425 450.655 54.4951 438.021 54.4951 438.021C54.4951 438.021 51.3263 427.63 49.9799 340.97C48.6198 254.324 53.2439 212.136 53.2439 212.136C53.2439 212.136 56.6168 205.186 59.5816 199.162C60.2344 197.815 60.8735 196.523 61.4583 195.354C62.7912 192.688 63.784 190.702 63.9744 190.458L133.675 186.663C133.675 186.663 135.43 189.574 137.606 193.409C138.449 194.864 139.333 196.469 140.217 198.087C141.182 199.855 142.121 201.637 142.95 203.31C146.568 210.531 177.712 432.594 177.712 432.594Z" fill="#1EA54C"/>
<path d="M113.466 5.08748C106.326 1.59224 96.7381 0.218621 87.1636 5.54988C77.5891 10.8675 65.7298 18.6196 68.7762 37.3198C68.7762 37.3198 69.5379 46.8943 76.2292 53.1232C82.9204 59.352 94.3173 74.7066 94.3173 75.4682C94.3173 76.2298 104.653 54.6464 104.653 54.6464L113.018 6.29789L113.466 5.08748Z" fill="#3E484D"/>
<path d="M126.943 24.3451C126.589 27.0788 126.317 29.6084 126.249 32.3692C126.236 32.6548 126.222 32.9404 126.222 33.2396C126.168 38.0405 125.964 42.8277 125.583 47.6014C125.229 51.9534 125.066 56.3871 123.339 60.4671C121.829 64.0303 118.661 68.0016 115.029 69.5656C110.963 71.3336 105.849 71.3336 101.538 70.7488C99.3756 70.4632 97.2268 70.0008 95.2684 69.0624C90.8483 66.9408 87.965 62.6567 86.2786 58.1959C84.5242 53.531 82.1986 48.6078 81.9538 43.5485C81.5866 35.7421 82.8514 27.786 86.3058 20.7819C89.7603 13.7778 94.6427 6.31134 102.395 5.34573C107.386 4.72012 112.826 4.32572 117.124 6.96415C120.252 8.89537 122.278 12.1594 124.073 15.3554C125.529 17.9803 127.365 21.2307 126.943 24.3451Z" fill="#DE9D8F"/>
<path d="M87.0672 43.9975C89.4336 50.444 87.6928 57.0264 83.164 58.6857C78.6487 60.3449 73.0591 56.4552 70.6927 50.0088C68.3262 43.5623 70.067 36.9798 74.5823 35.3206C79.1111 33.6614 84.6872 37.5374 87.0672 43.9975Z" fill="#DE9D8F"/>
<path d="M126.943 24.0328C126.59 26.8073 126.318 29.3777 126.25 32.1929C121.993 16.3352 114.594 9.03188 114.594 9.03188C109.277 37.3202 83.6677 43.821 83.6677 43.821C81.0972 35.0625 81.0293 28.0857 84.4837 20.9728C87.9381 13.8599 94.643 5.72705 102.395 4.74784C107.386 4.10864 112.826 3.71423 117.124 6.39346C120.252 8.35188 122.278 11.6703 124.074 14.9207C125.529 17.5728 127.365 20.8776 126.943 24.0328Z" fill="#3E484D"/>
<path d="M92.4935 65.2959C92.4935 65.2959 92.9423 85.8185 86.2646 89.613L106.175 106.79L117.885 89.3137C117.885 89.3137 113.927 78.5152 115.6 66.6695L92.4935 65.2959Z" fill="#DE9D8F"/>
<path d="M88.1556 86.7021L105.006 103.335L117.423 89.1502C117.423 89.1502 124.169 89.6398 133.852 90.9046C143.535 92.1694 149.438 97.011 151.75 103.539C154.062 110.067 177.862 187.765 177.645 193.232C177.427 198.699 169.43 207.335 158.7 205.241C147.955 203.133 143.114 188.812 143.114 188.812L133.458 186.364L136.491 191.518C136.491 191.518 110.474 201.664 98.6822 199.338C86.8909 197.026 81.8316 197.652 73.8347 195.762C65.8378 193.871 71.3051 195.762 67.1026 194.293C62.8866 192.824 56.5762 188.812 58.8882 181.237C61.2002 173.661 64.5731 161.87 62.8866 153.438C61.2002 145.02 58.6705 141.225 58.6705 141.225L39.5079 158.905C39.5079 158.905 48.7697 166.902 49.1913 171.961C49.6129 177.007 48.9872 179.958 48.9872 179.958L54.6721 190.906L41.412 206.275L32.1503 195.53C32.1503 195.53 24.9966 197.421 22.0454 193.218C19.0941 189.002 2.88279 173.852 2.03958 165.637C1.19637 157.423 14.0485 140.368 19.3118 132.371C24.575 124.375 36.1623 108.163 46.0497 102.478C55.937 96.807 88.1556 86.7021 88.1556 86.7021Z" fill="#F9F3ED"/>
<path d="M39.5488 204.289C39.5488 204.697 50.9594 219.276 50.9594 219.276L59.201 243.335C59.201 243.335 68.966 223.261 68.0004 209.783L54.6722 190.934L39.5488 204.289Z" fill="#DE9D8F"/>
<path d="M137.605 193.409C102.571 209.321 71.5491 198.509 61.8386 194.551C61.2538 195.721 60.2339 197.815 59.5811 199.162C63.9875 200.807 81.7356 207.05 100.49 207.58C119.53 208.11 136.422 200.032 140.216 198.087L137.605 193.409Z" fill="#21252B"/>
<path d="M106.229 41.9169C105.509 43.4673 104.121 44.3649 103.142 43.9025C102.163 43.4401 101.959 41.8081 102.68 40.2577C103.401 38.7072 104.788 37.8096 105.767 38.272C106.746 38.7344 106.95 40.3665 106.229 41.9169Z" fill="#21252B"/>
<path d="M119.477 41.9169C118.757 43.4673 117.369 44.3649 116.39 43.9025C115.411 43.4401 115.193 41.8081 115.928 40.2577C116.649 38.7072 118.036 37.8096 119.015 38.272C119.994 38.7344 120.198 40.3665 119.477 41.9169Z" fill="#21252B"/>
<path d="M114.376 33.7568C113.737 35.3072 113.152 36.8712 112.663 38.4761C112.228 39.9177 111.52 41.6449 111.86 43.1681C112.146 44.4873 113.316 45.3577 113.683 46.6225C114.132 48.1458 112.84 49.5466 111.888 50.5666C111.289 51.2058 112.255 52.1714 112.853 51.5322C113.819 50.4986 114.839 49.3154 115.084 47.8874C115.342 46.4321 114.594 45.3441 113.832 44.2017C113.384 43.5217 113.084 42.8961 113.152 42.0529C113.234 41.1281 113.574 40.1897 113.832 39.3057C114.349 37.5512 114.975 35.824 115.682 34.1376C116.022 33.308 114.703 32.968 114.376 33.7568Z" fill="#21252B"/>
<path d="M100.612 51.1375C103.115 55.4079 108.093 57.5567 112.921 56.4823C113.777 56.2919 113.41 54.9863 112.553 55.1767C108.324 56.1151 103.958 54.1839 101.782 50.4575C101.333 49.6959 100.164 50.3895 100.612 51.1375Z" fill="#21252B"/>
<path d="M113.22 9.2357C114.322 14.5398 114.2 20.3606 112.309 25.4879C111.425 27.8815 109.983 29.9487 107.984 31.5263C105.931 33.1447 103.523 34.4096 101.198 35.62C98.4234 37.048 95.2817 38.1224 92.1673 37.1976C91.3241 36.9528 90.9705 38.2584 91.8002 38.5032C94.561 39.3192 97.4306 38.7752 100.028 37.6736C102.707 36.5312 105.387 35.0216 107.78 33.3624C109.997 31.8255 111.792 29.9079 112.962 27.4463C114.172 24.8895 114.784 22.0742 115.084 19.2726C115.464 15.8046 115.26 12.2957 114.54 8.8821C114.363 8.01169 113.044 8.37889 113.22 9.2357Z" fill="#3E484D"/>
<path d="M114.023 10.0516C116.008 16.7701 118.075 24.019 115.546 30.887C115.247 31.703 116.552 32.0566 116.851 31.2406C119.463 24.1414 117.382 16.6205 115.328 9.68441C115.083 8.8548 113.778 9.2084 114.023 10.0516Z" fill="#3E484D"/>
<path d="M114.513 10.1472C118.43 16.1585 120.429 23.2442 120.211 30.425C120.184 31.2954 121.544 31.2954 121.571 30.425C121.789 23.0266 119.735 15.6553 115.683 9.46721C115.207 8.7328 114.023 9.41281 114.513 10.1472Z" fill="#3E484D"/>
<path d="M83.2595 43.4267C83.5315 44.1475 83.8307 44.8547 84.2115 45.5347C84.5379 46.1331 84.9188 46.9083 85.5036 47.2755C86.0612 47.6291 86.7411 47.4931 87.2171 47.0715C87.7067 46.6227 87.8971 45.9835 88.1555 45.3987C89.2163 42.9371 90.658 40.489 92.9292 38.9386C93.5276 38.5306 93.174 37.4154 92.3988 37.701C90.0323 38.5578 87.7884 39.8362 86.3195 41.9442C85.9795 42.4338 85.7076 42.9643 85.49 43.5083C85.2587 44.0795 85.0955 44.7867 85.5987 45.2763C86.1155 45.7659 86.9043 45.6027 87.2171 44.9771C87.5163 44.3923 87.5028 43.6715 87.3396 43.0459C87.1627 42.3658 86.2244 42.4202 86.0204 43.0459C85.8844 43.4539 85.7483 43.8755 85.6259 44.2971C86.0339 44.2427 86.4556 44.1883 86.8636 44.1339C86.5372 43.5491 86.2243 42.9643 85.8979 42.3658C85.5851 41.7946 84.5787 42.0258 84.6331 42.7058C84.6739 43.4539 84.9595 44.1067 85.49 44.6371C85.8028 44.9499 86.3331 44.8683 86.5643 44.5011C87.4483 43.0187 88.55 41.6994 89.8284 40.557L88.6996 39.8906C88.3324 40.8834 87.5572 41.645 87.0268 42.529C86.4692 43.4675 86.1291 44.5691 86.4555 45.6571C86.5643 45.3987 86.6596 45.1403 86.7684 44.8955C86.8364 44.8547 86.8228 44.9499 86.782 44.8683C86.7548 44.8139 86.714 44.7595 86.6868 44.7051C86.5916 44.5147 86.5371 44.2835 86.4691 44.0659C86.3195 43.6035 86.2107 43.1547 86.2243 42.665C86.2515 41.7946 84.8915 41.7946 84.8643 42.665C84.8371 43.8891 85.5852 47.1395 87.462 46.0651C87.7204 45.9155 87.8564 45.5891 87.7748 45.3035C87.5028 44.3787 88.0196 43.4811 88.5364 42.7466C89.094 41.9442 89.6923 41.1962 90.0324 40.2578C90.2908 39.5778 89.366 39.1834 88.89 39.5914C87.5164 40.8154 86.3468 42.2434 85.4084 43.8075L86.4827 43.6715C86.2107 43.3995 86.0476 43.0867 86.0204 42.7058C85.5988 42.8146 85.1771 42.9371 84.7555 43.0459C85.0819 43.6307 85.3947 44.2155 85.7211 44.8139C86.0203 45.3443 86.7955 45.1811 86.9587 44.6507C87.0947 44.2291 87.2308 43.8211 87.3668 43.3995H86.0475C86.0883 43.5763 86.1291 43.7531 86.1155 43.9299C86.1155 44.0115 86.1019 44.0931 86.0747 44.1747C86.0203 44.3243 86.0203 44.3515 86.0611 44.2699C86.1699 44.2427 86.2923 44.2155 86.4011 44.1747C86.5779 44.3787 86.6732 44.3787 86.6868 44.1747C86.714 44.0795 86.7548 43.9979 86.782 43.9163C86.85 43.7531 86.9179 43.6035 86.9995 43.4403C87.1491 43.1547 87.3259 42.869 87.5027 42.597C87.8971 42.0258 88.3867 41.5226 88.9171 41.0874C90.0459 40.1354 91.406 39.4826 92.7796 38.9794C92.6028 38.5714 92.426 38.1498 92.2492 37.7418C90.2228 39.129 88.7403 41.1146 87.6523 43.2907C87.3803 43.8347 87.1219 44.3923 86.8907 44.9499C86.7819 45.2083 86.5507 46.0651 86.2107 46.1059C86.3059 46.0923 86.238 46.1331 86.17 46.0107C86.102 45.9155 86.0339 45.8203 85.9659 45.7251C85.7755 45.4259 85.5852 45.1267 85.4084 44.8139C85.0956 44.2427 84.8235 43.6443 84.5923 43.0322C84.2659 42.257 82.9467 42.6106 83.2595 43.4267Z" fill="#3E484D"/>
<path d="M83.5455 43.6987C85.4767 47.3163 87.4896 51.342 86.8639 55.5716C86.7415 56.4284 88.0471 56.7956 88.1695 55.9388C88.8631 51.2876 86.8503 47.0171 84.7151 43.0187C84.3071 42.2435 83.1239 42.9235 83.5455 43.6987Z" fill="#3E484D"/>
<path d="M84.1575 43.5622C85.0551 43.7526 85.6807 44.3918 86.2383 45.0718C86.8639 45.847 87.408 46.6902 87.8704 47.5742C88.8224 49.3286 89.4479 51.2734 89.7063 53.2454C89.7607 53.6126 89.9783 53.9255 90.3864 53.9255C90.7128 53.9255 91.1208 53.6126 91.0664 53.2454C90.7672 50.9606 90.0736 48.7574 88.9584 46.731C88.4279 45.7654 87.8023 44.8406 87.0951 43.9974C86.4151 43.1813 85.5719 42.4741 84.5111 42.2565C83.6679 42.0661 83.3007 43.3854 84.1575 43.5622Z" fill="#3E484D"/>
<path d="M78.3489 37.3608C76.268 38.7072 74.9216 40.9241 74.4728 43.3449C73.9288 46.2825 74.636 49.2065 75.792 51.8994C76.132 52.7018 77.3016 52.0082 76.9616 51.2058C75.2072 47.0849 74.7312 41.2913 79.0289 38.5168C79.7633 38.0544 79.0833 36.8848 78.3489 37.3608Z" fill="#21252B"/>
<path d="M74.8825 45.5347C77.2625 46.5139 79.2209 48.5539 80.1185 50.9611C80.2409 51.3011 80.5809 51.5323 80.9481 51.4371C81.2745 51.3419 81.5465 50.9475 81.4241 50.5939C80.3497 47.6971 78.092 45.3851 75.236 44.229C74.896 44.093 74.488 44.3786 74.3928 44.705C74.2976 45.0858 74.5425 45.3851 74.8825 45.5347Z" fill="#21252B"/>
<path d="M123.339 139.756C122.618 140.124 98.0294 180.258 89.8965 177.728C89.8965 177.728 94.0582 191.287 101.824 186.038C101.973 185.929 123.339 139.756 123.339 139.756Z" fill="#E6E6E6"/>
<path d="M135.281 111.25L179.059 111.386C181.263 111.4 182.677 113.739 181.643 115.684L142.407 189.655C141.931 190.539 141.033 191.124 140.027 191.205L96.6426 194.347C94.3713 194.51 92.7937 192.144 93.8137 190.104L132.642 112.855C133.145 111.862 134.165 111.237 135.281 111.25Z" fill="#21252B"/>
<path d="M151.411 107.551L148.854 114.46C147.929 116.949 149.874 119.56 152.512 119.397L165.215 118.622C166.684 118.526 167.962 117.574 168.452 116.187L170.682 109.877C171.539 107.47 169.73 104.953 167.173 104.981L154.783 105.144C153.287 105.185 151.941 106.137 151.411 107.551Z" fill="#CCCCCC"/>
<path d="M155.708 116.064C155.205 117.084 154.294 117.656 153.682 117.356C153.07 117.057 152.988 115.983 153.491 114.963C153.995 113.943 154.906 113.372 155.518 113.671C156.13 113.97 156.211 115.044 155.708 116.064Z" fill="#21252B"/>
<path d="M165.99 115.888C165.487 116.908 164.576 117.479 163.964 117.18C163.352 116.881 163.27 115.806 163.787 114.786C164.29 113.766 165.201 113.195 165.813 113.494C166.412 113.807 166.493 114.868 165.99 115.888Z" fill="#21252B"/>
<path d="M171.361 145.808C170.926 145.808 167.73 154.376 167.73 154.376L169.716 162.89L155.191 174.858L143.059 174.192L145.167 169.051L141.346 169.445L144.12 162.319L140.421 161.925L144.12 154.145L147.983 153.492L151.763 145.21L171.361 145.808Z" fill="#DE9D8F"/>
<path d="M106.787 101.893C105.074 101.92 103.374 102.192 101.742 102.736C100.368 103.199 99.1575 103.811 98.8991 105.361C98.6815 106.708 98.9671 108.217 99.1847 109.564C99.4159 110.964 99.7695 112.338 100.382 113.63C101.497 115.996 104.149 118.73 106.978 117.275C109.738 115.861 110.146 111.862 110.255 109.128C110.296 108.149 110.269 107.17 110.201 106.191C110.146 105.388 110.078 104.545 109.711 103.824C109.031 102.519 107.508 101.934 106.121 102.247C105.264 102.437 105.631 103.743 106.488 103.552C109.303 102.94 108.963 107.224 108.922 108.87C108.882 110.148 108.759 111.413 108.446 112.664C108.161 113.82 107.753 115.072 106.774 115.833C104.638 117.465 102.476 114.841 101.619 113.072C100.667 111.128 100.368 108.843 100.232 106.694C100.191 106.068 100.137 105.293 100.613 104.804C101.048 104.355 101.796 104.178 102.367 103.988C103.809 103.525 105.291 103.308 106.801 103.267C107.658 103.24 107.658 101.88 106.787 101.893Z" fill="#21252B"/>
<path d="M100.695 103.703C101.063 105.933 102.096 107.987 103.375 109.836C104 110.734 104.667 111.618 105.374 112.447C106.095 113.291 106.897 114.011 107.944 114.392C108.774 114.691 109.127 113.372 108.311 113.087C107.414 112.76 106.775 112.012 106.176 111.291C105.523 110.503 104.911 109.7 104.354 108.857C103.225 107.171 102.355 105.348 102.015 103.335C101.865 102.479 100.546 102.846 100.695 103.703Z" fill="#21252B"/>
<path d="M103.456 109.917L101.307 114.12C101.144 114.433 101.212 114.868 101.552 115.045C101.865 115.208 102.314 115.14 102.477 114.8C103.198 113.399 103.919 111.998 104.626 110.597C104.789 110.285 104.721 109.849 104.381 109.673C104.082 109.509 103.633 109.577 103.456 109.917Z" fill="#21252B"/>
<path d="M104.87 112.488C104.952 113.93 104.884 115.385 104.639 116.786C104.571 117.139 104.734 117.534 105.115 117.615C105.442 117.683 105.89 117.52 105.945 117.139C106.217 115.602 106.326 114.038 106.23 112.474C106.203 112.121 105.931 111.781 105.55 111.794C105.197 111.822 104.843 112.107 104.87 112.488Z" fill="#21252B"/>
<path d="M98.9124 111.087C93.1459 124.456 92.4659 139.036 91.3099 153.343C91.1467 155.437 90.9291 157.518 90.4803 159.572C90.2763 160.524 90.0179 161.462 89.6914 162.373C89.4058 163.189 89.0522 164.345 88.1546 164.685C87.3386 164.985 87.6922 166.304 88.5219 165.991C89.9635 165.461 90.5211 164.087 90.9971 162.741C91.6091 161 91.9899 159.191 92.2483 157.369C92.7651 153.697 92.9147 149.97 93.2003 146.271C93.7851 138.75 94.5059 131.215 96.206 123.844C97.158 119.723 98.4092 115.671 100.082 111.781C100.436 110.978 99.266 110.285 98.9124 111.087Z" fill="#21252B"/>
<path d="M90.2093 164.209C90.1957 164.196 90.1822 164.182 90.1686 164.182C89.9646 163.992 89.5973 163.91 89.3389 164.073C88.8901 164.386 88.7405 165.093 89.2845 165.406C89.9101 165.76 90.3318 165.175 90.7806 164.849C91.8686 164.06 93.215 164.046 94.3846 164.645C95.5814 165.243 96.6558 166.154 98.0158 166.385C99.2262 166.589 100.423 166.236 101.171 165.229C101.701 164.536 100.518 163.856 100.001 164.549C99.4439 165.284 98.3286 165.134 97.5942 164.849C96.5878 164.454 95.731 163.747 94.7382 163.312C93.8134 162.904 92.8614 162.754 91.855 162.945C91.3926 163.026 90.9302 163.203 90.5086 163.421C90.3182 163.529 90.1277 163.652 89.9509 163.788C89.8421 163.869 89.7333 163.965 89.6245 164.06C89.5837 164.101 89.543 164.128 89.5022 164.169C89.3934 164.264 89.4341 164.264 89.6245 164.155C89.8285 164.264 90.0189 164.386 90.2093 164.495C90.1957 164.481 90.1822 164.454 90.1822 164.441V165.134C90.1278 165.175 90.0733 165.229 90.0189 165.27C89.7469 165.229 89.4749 165.202 89.1893 165.161C89.2029 165.175 89.2166 165.189 89.2302 165.202C89.883 165.773 90.8485 164.808 90.2093 164.209Z" fill="#21252B"/>
<path d="M104.108 117.643C103.265 131.27 102.449 144.993 104.312 158.579C104.434 159.436 105.74 159.069 105.631 158.212C103.795 144.761 104.639 131.134 105.482 117.643C105.523 116.759 104.162 116.772 104.108 117.643Z" fill="#21252B"/>
<path d="M99.6345 120.879C97.6897 133.541 96.8466 146.366 97.1458 159.177C97.173 160.048 98.533 160.048 98.5058 159.177C98.2066 146.488 99.0226 133.786 100.954 121.233C101.076 120.376 99.7705 120.009 99.6345 120.879Z" fill="#21252B"/>
<path d="M108.365 113.086C110.255 122.987 113.002 132.698 116.566 142.123C116.878 142.939 118.184 142.585 117.871 141.755C114.308 132.33 111.561 122.62 109.67 112.719C109.507 111.876 108.201 112.229 108.365 113.086Z" fill="#21252B"/>
<path d="M104.49 119.478C105.279 130.685 106.095 142.027 109.291 152.853C110.188 155.886 111.29 158.851 112.582 161.734C112.935 162.536 114.105 161.843 113.751 161.04C109.195 150.908 107.536 139.797 106.557 128.822C106.285 125.707 106.054 122.579 105.836 119.465C105.782 118.608 104.422 118.608 104.49 119.478Z" fill="#21252B"/>
<path d="M110.391 136.411C111.329 141.701 112.662 146.91 114.403 151.996C114.689 152.826 115.994 152.472 115.722 151.629C113.981 146.543 112.648 141.334 111.71 136.043C111.547 135.187 110.228 135.554 110.391 136.411Z" fill="#21252B"/>
<path d="M81.5046 88.7011C84.1159 95.4875 87.7199 101.825 92.2216 107.537C92.7656 108.217 93.7175 107.252 93.1871 106.572C88.8487 101.05 85.3398 94.8891 82.8238 88.3339C82.511 87.5314 81.1918 87.8851 81.5046 88.7011Z" fill="#21252B"/>
<path d="M87.6251 93.5569C90.0868 98.1946 93.4324 102.343 97.4444 105.729C98.1108 106.287 99.0765 105.335 98.41 104.763C94.4796 101.445 91.2156 97.4194 88.7947 92.8633C88.3867 92.1017 87.2171 92.7953 87.6251 93.5569Z" fill="#21252B"/>
<path d="M110.283 112.57C116.05 106.368 120.211 98.7656 122.292 90.5375C122.51 89.6943 121.191 89.3271 120.987 90.1703C118.96 98.1672 114.935 105.552 109.318 111.604C108.733 112.243 109.685 113.209 110.283 112.57Z" fill="#21252B"/>
<path d="M110.718 105.348C113.411 102.709 115.641 99.6219 117.273 96.2218C117.654 95.433 116.485 94.7394 116.104 95.5282C114.513 98.833 112.377 101.811 109.752 104.382C109.127 104.994 110.092 105.96 110.718 105.348Z" fill="#21252B"/>
<path d="M107.304 102.451C110.351 97.664 114.172 93.4207 117.831 89.0959C118.388 88.4295 117.436 87.4639 116.865 88.1303C113.139 92.5367 109.235 96.8752 106.121 101.771C105.658 102.506 106.842 103.199 107.304 102.451Z" fill="#21252B"/>
<path d="M47.1511 152.949C53.8424 146.72 60.5336 140.491 67.2249 134.262C67.8641 133.664 66.8985 132.698 66.2593 133.296C59.568 139.525 52.8767 145.754 46.1855 151.983C45.5462 152.581 46.5119 153.547 47.1511 152.949Z" fill="#21252B"/>
<path d="M60.017 141.252C62.3426 140.79 64.5731 139.96 66.6403 138.804C67.4019 138.383 66.7219 137.199 65.9467 137.635C63.9747 138.736 61.853 139.511 59.6498 139.947C59.2962 140.015 59.0786 140.45 59.1738 140.776C59.2826 141.144 59.6498 141.32 60.017 141.252Z" fill="#21252B"/>
<path d="M34.0268 155.709C36.23 159.123 39.5756 161.462 42.4861 164.209C43.9685 165.61 45.3285 167.147 46.2669 168.969C47.3957 171.159 47.8717 173.621 48.0349 176.055C48.0893 176.925 49.4494 176.925 49.395 176.055C49.2454 173.661 48.7966 171.295 47.831 169.092C46.9741 167.147 45.6685 165.474 44.1861 163.965C41.2213 160.959 37.5357 158.62 35.21 155.029C34.734 154.295 33.5508 154.975 34.0268 155.709Z" fill="#21252B"/>
<path d="M29.8922 196.714C35.7403 193.259 39.8611 187.751 43.8323 182.393C44.3492 181.686 43.1795 181.006 42.6627 181.713C38.8275 186.894 34.8427 192.226 29.2122 195.558C28.4642 195.993 29.1442 197.162 29.8922 196.714Z" fill="#21252B"/>
<path d="M24.4523 185.222C26.8732 188.826 31.2388 190.947 35.5772 190.512C36.434 190.43 36.4476 189.07 35.5772 189.152C31.7284 189.546 27.7979 187.765 25.6219 184.542C25.1323 183.821 23.9627 184.501 24.4523 185.222Z" fill="#21252B"/>
<path d="M31.5518 184.963C33.0614 186.867 35.2511 188.214 37.6175 188.717C37.9711 188.798 38.3519 188.608 38.4471 188.241C38.5423 187.901 38.3383 187.479 37.9711 187.411C35.7951 186.949 33.8774 185.738 32.5038 183.998C32.2726 183.712 31.783 183.753 31.5382 183.998C31.2662 184.283 31.3206 184.664 31.5518 184.963Z" fill="#21252B"/>
<path d="M40.2698 205.295C45.0843 200.603 50.0483 196.088 55.0396 191.586C55.6924 191.002 54.7267 190.036 54.0739 190.621C49.0827 195.123 44.1187 199.638 39.3042 204.343C38.6786 204.942 39.6442 205.907 40.2698 205.295Z" fill="#21252B"/>
<path d="M49.1511 185.494C49.1511 186.405 48.5663 187.139 47.8319 187.139C47.0975 187.139 46.5127 186.405 46.5127 185.494C46.5127 184.583 47.0975 183.848 47.8319 183.848C48.5527 183.848 49.1511 184.583 49.1511 185.494Z" fill="#21252B"/>
<path d="M51.9246 189.247C51.9246 190.158 51.3262 190.893 50.6053 190.893C49.8709 190.893 49.2861 190.158 49.2861 189.247C49.2861 188.336 49.8709 187.602 50.6053 187.602C51.3262 187.602 51.9246 188.336 51.9246 189.247Z" fill="#21252B"/>
<path d="M147.791 153.479C151.926 153.37 156.06 153.343 160.195 153.411C161.079 153.425 161.079 152.065 160.195 152.051C156.06 151.983 151.926 152.01 147.791 152.119C146.921 152.146 146.921 153.506 147.791 153.479Z" fill="#21252B"/>
<path d="M140.965 161.19C140.856 161.258 140.761 161.326 140.652 161.394C140.149 161.721 140.271 162.754 140.992 162.659C145.643 162.074 150.349 161.843 155.041 161.979C155.911 162.006 155.911 160.646 155.041 160.619C150.349 160.483 145.657 160.714 140.992 161.299C141.101 161.721 141.223 162.142 141.332 162.564C141.427 162.496 141.536 162.428 141.645 162.36C142.379 161.884 141.699 160.714 140.965 161.19Z" fill="#21252B"/>
<path d="M141.986 170.737C145.766 170.261 149.547 169.853 153.342 169.527C154.199 169.459 154.212 168.085 153.342 168.167C149.547 168.493 145.766 168.901 141.986 169.377C141.129 169.486 141.115 170.846 141.986 170.737Z" fill="#21252B"/>
<path d="M170.069 146.298C168.451 152.241 165.867 157.858 162.44 162.958C161.95 163.693 163.133 164.373 163.609 163.638C167.105 158.443 169.729 152.69 171.375 146.652C171.606 145.808 170.301 145.455 170.069 146.298Z" fill="#21252B"/>
<path d="M150.539 175.158C151.056 179.129 152.144 182.964 153.79 186.622C154.143 187.411 155.313 186.731 154.959 185.929C153.422 182.515 152.375 178.87 151.899 175.158C151.845 174.79 151.614 174.478 151.219 174.478C150.879 174.478 150.485 174.804 150.539 175.158Z" fill="#21252B"/>
<path d="M151.342 179.292C150.853 180.081 150.404 180.883 149.996 181.726C149.914 181.89 149.874 182.066 149.928 182.243C149.969 182.406 150.091 182.57 150.241 182.651C150.54 182.814 151.002 182.746 151.166 182.406C151.574 181.577 152.009 180.761 152.512 179.972C152.702 179.673 152.58 179.21 152.267 179.047C151.941 178.87 151.546 178.979 151.342 179.292Z" fill="#21252B"/>
<path d="M68.7623 183.019C69.3063 188.676 72.2439 193.871 76.8136 197.258C77.5208 197.775 78.2008 196.605 77.5072 196.088C73.3728 193.015 70.6255 188.159 70.1359 183.019C70.0407 182.148 68.6807 182.148 68.7623 183.019Z" fill="#21252B"/>
<path d="M82.8795 182.869C82.3083 187.996 82.1452 193.654 85.7628 197.788C86.334 198.454 87.2996 197.489 86.7284 196.822C83.3963 193.001 83.7227 187.574 84.2531 182.869C84.3347 181.998 82.9747 181.998 82.8795 182.869Z" fill="#21252B"/>
<path d="M85.8433 197.04C85.9657 197.176 85.9656 197.339 85.9384 197.516H87.2984C87.0944 195.558 87.2441 193.599 87.7609 191.695C87.9921 190.852 86.6729 190.485 86.4552 191.328C85.9112 193.341 85.7344 195.435 85.952 197.516C86.0473 198.386 87.2305 198.4 87.3121 197.516C87.3665 196.972 87.1625 196.482 86.8089 196.088C86.5641 195.802 86.0881 195.843 85.8433 196.088C85.5713 196.36 85.6121 196.768 85.8433 197.04Z" fill="#21252B"/>
<path d="M121.041 197.108C123.816 194.116 125.488 190.253 125.788 186.187C125.856 185.317 124.496 185.317 124.428 186.187C124.142 189.886 122.592 193.422 120.076 196.142C119.491 196.795 120.443 197.747 121.041 197.108Z" fill="#21252B"/>
<path d="M125.597 195.449C127.446 193.98 128.833 192.022 129.69 189.832C129.826 189.492 129.541 189.084 129.214 188.989C128.833 188.88 128.507 189.125 128.385 189.465C127.623 191.437 126.29 193.164 124.645 194.483C124.359 194.715 124.4 195.204 124.645 195.449C124.917 195.735 125.311 195.68 125.597 195.449Z" fill="#21252B"/>
<path d="M106.04 201.814C103.877 201.814 101.729 201.868 99.5798 201.963C98.7094 202.004 97.6894 201.923 97.1046 202.698C96.6422 203.323 96.6422 204.153 96.7102 204.901C96.7918 205.812 97.0502 206.642 97.8254 207.199C98.6006 207.757 99.5934 207.825 100.518 207.811C101.593 207.798 102.667 207.784 103.728 207.771C104.544 207.757 105.482 207.839 106.23 207.444C107.237 206.914 107.223 205.799 107.196 204.806C107.182 203.799 107.278 202.439 106.38 201.773C106.081 201.555 105.618 201.732 105.455 202.018C105.251 202.358 105.401 202.725 105.7 202.943C105.673 202.929 105.727 203.201 105.741 203.255C105.768 203.419 105.781 203.582 105.781 203.745C105.822 204.153 105.836 204.561 105.836 204.969C105.849 205.54 105.972 206.166 105.306 206.329C104.666 206.479 103.932 206.397 103.279 206.411C102.477 206.424 101.661 206.438 100.858 206.438C100.178 206.451 99.4302 206.506 98.8046 206.193C98.1926 205.88 98.0974 205.295 98.043 204.656C98.0158 204.343 97.9342 203.65 98.2334 203.432C98.4646 203.269 98.9406 203.337 99.199 203.323C99.6206 203.296 100.042 203.283 100.45 203.269C102.3 203.187 104.163 203.16 106.013 203.16C106.91 203.174 106.924 201.814 106.04 201.814Z" fill="#F9F3ED"/>
<path d="M100.382 205.391C100.518 205.364 100.641 205.336 100.777 205.323C100.845 205.309 100.913 205.296 100.981 205.296C100.858 205.309 100.994 205.296 101.049 205.282C101.307 205.255 101.552 205.228 101.81 205.228C102.327 205.2 102.844 205.228 103.361 205.282C103.714 205.323 104.054 204.942 104.041 204.602C104.027 204.208 103.741 203.963 103.361 203.922C102.245 203.813 101.13 203.881 100.029 204.085C99.6749 204.153 99.4437 204.588 99.5525 204.915C99.6613 205.282 100.001 205.459 100.382 205.391Z" fill="#F9F3ED"/>
<path d="M111.154 204.533H111.249C111.345 204.533 111.426 204.52 111.508 204.479C111.589 204.452 111.657 204.411 111.725 204.343C111.793 204.275 111.834 204.207 111.861 204.125C111.902 204.044 111.929 203.962 111.916 203.867L111.889 203.69C111.861 203.581 111.793 203.473 111.712 203.391C111.671 203.35 111.617 203.323 111.576 203.282C111.467 203.214 111.358 203.187 111.236 203.187H111.141C111.045 203.187 110.964 203.201 110.882 203.241C110.801 203.269 110.719 203.309 110.665 203.377C110.597 203.432 110.556 203.513 110.529 203.595C110.488 203.677 110.461 203.758 110.474 203.853C110.488 203.908 110.488 203.976 110.501 204.03C110.529 204.139 110.597 204.248 110.678 204.329C110.719 204.37 110.773 204.397 110.814 204.438C110.923 204.506 111.032 204.533 111.154 204.533Z" fill="#F9F3ED"/>
<path d="M116.267 203.609C117.138 203.609 117.138 202.249 116.267 202.249C115.397 202.249 115.383 203.609 116.267 203.609Z" fill="#F9F3ED"/>
<path d="M121.476 202.684C122.346 202.684 122.346 201.324 121.476 201.324C120.591 201.324 120.591 202.684 121.476 202.684Z" fill="#F9F3ED"/>
<path d="M126.399 201.664C127.27 201.664 127.27 200.304 126.399 200.304C125.515 200.304 125.515 201.664 126.399 201.664Z" fill="#F9F3ED"/>
<path d="M95.5538 205.119C95.581 205.064 95.6082 205.01 95.6218 204.942C95.6626 204.806 95.649 204.779 95.6354 204.67C95.6218 204.561 95.6218 204.534 95.5538 204.412C95.5266 204.357 95.4858 204.316 95.445 204.262C95.4314 204.262 95.309 204.153 95.309 204.153C95.2818 204.14 95.1186 204.072 95.2274 204.112C95.2682 204.126 95.173 204.085 95.1458 204.072C95.0778 204.058 95.0098 204.044 94.9418 204.044C94.9146 204.044 94.8466 204.058 94.8466 204.058C94.833 204.058 94.7786 204.058 94.7514 204.072C94.697 204.085 94.629 204.112 94.5882 204.14C94.5338 204.18 94.493 204.208 94.4522 204.248C94.425 204.276 94.3842 204.33 94.3978 204.316C94.3706 204.357 94.357 204.357 94.3434 204.384C94.3162 204.439 94.289 204.493 94.2754 204.548C94.2618 204.602 94.2618 204.67 94.2482 204.724C94.2346 204.847 94.289 204.983 94.3434 205.078C94.3842 205.16 94.4386 205.228 94.5202 205.268C94.5882 205.323 94.6562 205.364 94.7514 205.391C94.8466 205.418 94.9282 205.418 95.0234 205.404C95.1186 205.404 95.2002 205.377 95.2818 205.323C95.3226 205.282 95.377 205.255 95.4178 205.214C95.4994 205.132 95.5674 205.024 95.5946 204.915C95.6082 204.86 95.6082 204.792 95.6218 204.738C95.6218 204.616 95.5946 204.507 95.5266 204.398C95.5538 204.452 95.5674 204.507 95.5946 204.561C95.5946 204.561 95.5946 204.561 95.5946 204.548C95.6082 204.602 95.6082 204.67 95.6218 204.724C95.6082 204.779 95.6082 204.847 95.5946 204.901C95.5674 204.956 95.5538 205.01 95.5266 205.064C95.4858 205.105 95.4586 205.16 95.4178 205.2C95.377 205.241 95.3226 205.268 95.2818 205.309C95.2818 205.309 95.2818 205.309 95.2954 205.309C95.241 205.336 95.1866 205.35 95.1322 205.377H95.1458C95.0914 205.391 95.0234 205.391 94.969 205.404C94.9826 205.404 94.9826 205.404 94.9826 205.404C94.9282 205.391 94.8602 205.391 94.8058 205.377H94.8194C94.765 205.35 94.7106 205.336 94.6562 205.309H94.6698C94.629 205.268 94.5746 205.241 94.5338 205.2C94.493 205.16 94.4658 205.105 94.425 205.064C94.3978 205.01 94.3841 204.956 94.3569 204.901C94.3433 204.847 94.3434 204.779 94.3298 204.724C94.3434 204.656 94.3433 204.602 94.3569 204.548C94.3841 204.493 94.3978 204.439 94.425 204.384C94.3706 204.466 94.3434 204.548 94.3434 204.643C94.3298 204.738 94.3297 204.82 94.3569 204.915C94.3841 205.01 94.425 205.078 94.4794 205.146C94.5338 205.214 94.5882 205.282 94.6698 205.323C94.7242 205.35 94.7786 205.364 94.833 205.391C94.9554 205.418 95.0778 205.418 95.2002 205.391C95.2546 205.364 95.309 205.35 95.3634 205.323C95.4178 205.309 95.4994 205.228 95.5538 205.119Z" fill="#F9F3ED"/>
<path d="M90.7118 203.827H90.6166C90.5214 203.827 90.4398 203.84 90.3582 203.881C90.2766 203.908 90.2086 203.949 90.1406 204.017C90.0726 204.085 90.0318 204.153 90.0046 204.235C89.9638 204.316 89.9502 204.398 89.9502 204.493C89.9638 204.547 89.9638 204.615 89.9774 204.67C90.0046 204.779 90.0726 204.887 90.1542 204.969C90.195 205.01 90.2494 205.037 90.2902 205.078C90.399 205.146 90.5078 205.173 90.6302 205.173H90.7254C90.8206 205.173 90.9022 205.159 90.9838 205.119C91.0654 205.091 91.1471 205.051 91.2015 204.983C91.2695 204.928 91.3102 204.847 91.3374 204.765C91.3782 204.683 91.4054 204.602 91.3918 204.507C91.3782 204.452 91.3783 204.384 91.3647 204.33C91.3375 204.221 91.2695 204.112 91.1879 204.031C91.1471 203.99 91.0926 203.963 91.0518 203.922C90.943 203.867 90.8342 203.827 90.7118 203.827Z" fill="#F9F3ED"/>
<path d="M117.573 198.754C117.573 198.754 118.784 204.14 118.96 208.696L124.346 206.737C124.346 206.737 122.769 197.543 122.483 197.72C122.197 197.897 117.573 198.754 117.573 198.754Z" fill="#1EA54C"/>
<path d="M78.7172 198.659L76.2148 207.39L81.4101 208.043L83.6405 199.393L78.7172 198.659Z" fill="#1EA54C"/>
<path d="M66.4902 207.934C67.0206 218.447 65.035 229.068 60.7102 238.67C59.4997 241.363 58.0989 243.974 56.5349 246.49C56.0725 247.238 57.2422 247.918 57.7046 247.184C63.3486 238.112 66.7622 227.736 67.687 217.1C67.9454 214.054 67.9998 210.994 67.8502 207.947C67.8094 207.05 66.4494 207.05 66.4902 207.934Z" fill="#21252B"/>
<path d="M132.437 207.104C133.402 213.21 134.789 219.249 136.612 225.151C138.339 230.768 140.352 236.426 143.072 241.648C144.514 244.423 146.254 247.047 148.43 249.319C149.042 249.958 149.994 248.992 149.396 248.353C145.52 244.314 143.181 239.132 141.154 233.991C138.951 228.388 137.142 222.635 135.741 216.774C134.953 213.455 134.286 210.11 133.756 206.737C133.62 205.88 132.301 206.247 132.437 207.104Z" fill="#21252B"/>
<path d="M97.663 210.667C98.3702 222.663 99.0774 234.658 99.7846 246.667C99.9886 250.108 100.193 253.535 100.397 256.976C100.451 257.846 101.811 257.846 101.757 256.976C101.049 244.981 100.342 232.985 99.635 220.976C99.431 217.536 99.227 214.108 99.023 210.667C98.9822 209.797 97.6222 209.797 97.663 210.667Z" fill="#21252B"/>
<path d="M101.92 257.642C104.748 257.234 107.523 256.459 110.161 255.357C110.501 255.221 110.746 254.909 110.637 254.528C110.556 254.215 110.148 253.916 109.808 254.052C107.169 255.167 104.395 255.929 101.566 256.337C101.199 256.391 101.008 256.853 101.09 257.18C101.185 257.561 101.552 257.697 101.92 257.642Z" fill="#21252B"/>
<path d="M107.373 225.057C107.604 229.354 107.835 233.639 108.067 237.936C108.121 238.807 109.481 238.807 109.427 237.936C109.195 233.639 108.964 229.354 108.733 225.057C108.692 224.186 107.332 224.173 107.373 225.057Z" fill="#21252B"/>
<path d="M78.0922 227.98C78.0106 229.843 77.9427 231.707 77.8611 233.57C77.6571 238.616 77.453 243.675 77.249 248.72L76.3514 271.12C75.9842 280.259 75.617 289.398 75.2362 298.538C74.8418 308.479 74.4337 318.421 74.0393 328.363C73.6313 338.468 73.2234 348.573 72.8154 358.678C72.4346 368.062 72.0537 377.459 71.6729 386.843L70.7074 410.657L70.0138 427.821C69.905 430.514 69.7282 433.206 69.6874 435.899C69.6874 436.022 69.6738 436.13 69.6738 436.253C69.633 437.123 70.993 437.123 71.0338 436.253C71.1018 434.39 71.1833 432.526 71.2649 430.663C71.4689 425.617 71.673 420.558 71.877 415.513C72.1762 408.046 72.4754 400.58 72.7882 393.113C73.1554 383.974 73.5226 374.835 73.8898 365.695C74.2842 355.754 74.6922 345.812 75.1002 335.87L76.3242 305.555C76.705 296.171 77.0858 286.774 77.4666 277.39C77.793 269.461 78.1058 261.518 78.4322 253.589C78.6634 247.864 78.8947 242.138 79.1259 236.426C79.2347 233.733 79.4115 231.04 79.4523 228.347C79.4523 228.225 79.4659 228.116 79.4659 227.994C79.4795 227.11 78.1194 227.11 78.0922 227.98Z" fill="#21252B"/>
<path d="M124.36 226.253C124.686 228.076 125.013 229.912 125.339 231.734C126.237 236.712 127.12 241.676 128.018 246.654C129.337 253.984 130.643 261.301 131.962 268.631C133.567 277.567 135.172 286.502 136.777 295.424C138.545 305.243 140.299 315.062 142.067 324.868C143.849 334.782 145.617 344.683 147.398 354.598C149.044 363.805 150.703 373.012 152.349 382.22C153.75 389.999 155.137 397.792 156.538 405.571L159.557 422.422C160.033 425.074 160.427 427.753 160.985 430.391C161.012 430.5 161.026 430.609 161.039 430.731C161.189 431.588 162.508 431.221 162.345 430.364C162.019 428.542 161.692 426.706 161.366 424.883C160.468 419.919 159.584 414.942 158.686 409.964C157.367 402.647 156.062 395.317 154.742 387.986C153.138 379.051 151.533 370.116 149.928 361.194C148.174 351.375 146.406 341.555 144.638 331.75C142.856 321.835 141.088 311.934 139.306 302.02C137.647 292.812 136.001 283.605 134.342 274.398C132.941 266.619 131.554 258.826 130.153 251.046C129.147 245.43 128.141 239.813 127.134 234.196C126.658 231.544 126.25 228.865 125.706 226.226C125.679 226.117 125.665 225.995 125.652 225.886C125.516 225.029 124.196 225.397 124.36 226.253Z" fill="#21252B"/>
<path d="M53.5296 433.315C63.5529 437.627 75.0586 438.007 85.3267 434.254C86.1427 433.955 85.7891 432.635 84.9595 432.935C75.0722 436.566 63.9065 436.307 54.2096 432.146C53.4208 431.806 52.7272 432.975 53.5296 433.315Z" fill="#21252B"/>
<path d="M143.997 433.846C155.408 434.771 167.022 431.792 176.597 425.495C177.331 425.019 176.651 423.836 175.903 424.326C166.519 430.5 155.19 433.397 143.997 432.486C143.127 432.418 143.141 433.778 143.997 433.846Z" fill="#21252B"/>
<path d="M56.2759 489.103C56.2351 494.081 58.5064 498.963 62.3689 502.105C63.0353 502.649 64.0144 501.697 63.3344 501.139C59.7304 498.201 57.6088 493.741 57.6496 489.103C57.6496 488.219 56.2895 488.219 56.2759 489.103Z" fill="#F9F3ED"/>
<path d="M65.4443 502.132V502.336C65.4443 502.431 65.4579 502.513 65.4987 502.595C65.5259 502.676 65.5667 502.744 65.6347 502.812C65.7027 502.88 65.7707 502.921 65.8523 502.948C65.9339 502.989 66.0155 503.016 66.1107 503.003C66.1651 502.989 66.2331 502.989 66.2875 502.975C66.3963 502.948 66.5051 502.88 66.5867 502.799C66.6275 502.758 66.6547 502.704 66.6955 502.663C66.7499 502.554 66.7907 502.445 66.7907 502.323V502.119C66.7907 502.023 66.7771 501.942 66.7363 501.86C66.7091 501.779 66.6683 501.697 66.6003 501.643C66.5459 501.575 66.4643 501.534 66.3827 501.507C66.3011 501.466 66.2195 501.439 66.1243 501.452C66.0699 501.466 66.0019 501.466 65.9475 501.479C65.8387 501.507 65.7299 501.575 65.6483 501.656C65.6075 501.711 65.5803 501.751 65.5395 501.792C65.4715 501.901 65.4443 502.01 65.4443 502.132Z" fill="#F9F3ED"/>
<path d="M207.47 484.547C211.155 486.587 214.066 489.81 215.738 493.673C215.888 494.013 216.378 494.081 216.663 493.917C217.017 493.713 217.044 493.319 216.908 492.993C215.154 488.94 212.026 485.513 208.163 483.377C207.388 482.942 206.708 484.125 207.47 484.547Z" fill="#F9F3ED"/>
<path d="M217.493 496.325V496.529C217.493 496.624 217.507 496.705 217.548 496.787C217.575 496.869 217.616 496.937 217.684 497.005C217.752 497.073 217.82 497.113 217.901 497.141C217.983 497.181 218.064 497.209 218.16 497.195C218.214 497.181 218.282 497.181 218.336 497.168C218.445 497.141 218.554 497.073 218.636 496.991C218.676 496.95 218.704 496.896 218.744 496.855C218.799 496.746 218.84 496.637 218.84 496.515V496.311C218.84 496.216 218.826 496.134 218.785 496.053C218.758 495.971 218.717 495.889 218.649 495.835C218.595 495.767 218.513 495.726 218.432 495.699C218.35 495.658 218.268 495.631 218.173 495.645C218.119 495.658 218.051 495.658 217.996 495.672C217.888 495.699 217.779 495.767 217.697 495.849C217.656 495.903 217.629 495.944 217.588 495.985C217.534 496.08 217.493 496.202 217.493 496.325Z" fill="#F9F3ED"/>
<path d="M154.605 174.791C159.855 172.234 164.452 168.317 167.798 163.53" stroke="#21252B" stroke-width="1.36001" stroke-miterlimit="10"/>
<path d="M156.891 179.047C156.891 179.958 156.293 180.693 155.572 180.693C154.838 180.693 154.253 179.958 154.253 179.047C154.253 178.136 154.838 177.401 155.572 177.401C156.293 177.401 156.891 178.136 156.891 179.047Z" fill="#21252B"/>
<path d="M159.298 183.998C159.298 184.909 158.713 185.643 157.978 185.643C157.258 185.643 156.659 184.909 156.659 183.998C156.659 183.086 157.244 182.352 157.978 182.352C158.699 182.352 159.298 183.1 159.298 183.998Z" fill="#21252B"/>
<path d="M153.055 187.506C159.026 187.221 164.819 185.167 169.62 181.577C170.314 181.06 169.634 179.877 168.926 180.407C164.316 183.848 158.794 185.874 153.055 186.146C152.185 186.187 152.185 187.547 153.055 187.506Z" fill="#21252B"/>
<path d="M162.495 184.61C162.427 186.963 162.467 189.315 162.59 191.668C162.631 192.539 163.991 192.539 163.95 191.668C163.827 189.315 163.8 186.963 163.855 184.61C163.882 183.739 162.522 183.739 162.495 184.61Z" fill="#21252B"/>
<path d="M164.059 184.365C164.208 185.698 164.63 186.99 165.351 188.132C165.541 188.431 165.963 188.581 166.275 188.377C166.575 188.187 166.724 187.765 166.52 187.452C166.357 187.194 166.207 186.935 166.085 186.663C166.044 186.595 166.017 186.514 165.976 186.446C165.963 186.419 165.895 186.255 165.949 186.391C165.895 186.255 165.84 186.119 165.786 185.97C165.691 185.698 165.609 185.412 165.541 185.14C165.514 185.004 165.487 184.868 165.459 184.732C165.446 184.651 165.432 184.569 165.419 184.501C165.446 184.664 165.405 184.406 165.405 184.379C165.364 184.025 165.119 183.685 164.725 183.699C164.412 183.699 164.018 183.984 164.059 184.365Z" fill="#21252B"/>
<path d="M93.786 68.723C99.09 72.4494 106.108 73.4286 112.228 71.2934C113.044 71.0078 112.69 69.6886 111.861 69.9878C106.04 72.0142 99.498 71.103 94.466 67.567C93.7588 67.0502 93.0788 68.2198 93.786 68.723Z" fill="#21252B"/>
<path d="M84.3069 63.3507C84.3069 64.7651 83.1509 65.9211 81.7365 65.9211C80.322 65.9211 79.166 64.7651 79.166 63.3507C79.166 61.9363 80.322 60.7803 81.7365 60.7803C83.1645 60.7803 84.3069 61.9227 84.3069 63.3507Z" fill="#F9F3ED"/>
<path d="M80.5664 56.9862C82.3208 59.0806 81.8856 62.0318 81.0016 64.3846C80.8656 64.7246 81.1512 65.1326 81.4776 65.2278C81.8584 65.3366 82.1848 65.0918 82.3072 64.7518C83.3816 61.8822 83.6128 58.523 81.532 56.0342C81.3008 55.7486 80.8112 55.7894 80.5664 56.0342C80.2808 56.3062 80.3352 56.7006 80.5664 56.9862Z" fill="#F9F3ED"/>
<path d="M79.1118 9.58888C75.3037 12.4041 72.4204 16.321 70.9108 20.8226C69.1836 26.0043 69.4556 31.4987 71.5772 36.5036C71.9172 37.306 73.0869 36.6124 72.7469 35.81C68.9797 26.9427 72.0941 16.457 79.7781 10.7585C80.4854 10.2417 79.8054 9.07208 79.1118 9.58888Z" fill="#21252B"/>
<path d="M55.5566 18.144C48.9334 23.0537 45.3293 30.8193 44.2821 38.857C43.0581 48.2547 45.5061 57.53 49.2054 66.1117C51.5038 71.443 54.2918 76.543 57.0935 81.6159C57.5151 82.3775 58.6847 81.6975 58.2631 80.9223C53.5166 72.3134 48.7294 63.5277 46.4989 53.8852C44.6493 45.8883 44.8261 37.2658 48.1718 29.6769C49.967 25.6241 52.6598 21.9657 56.2367 19.3136C56.9303 18.8104 56.2639 17.6272 55.5566 18.144Z" fill="#3E484D"/>
<path d="M52.5369 72.0278C52.5641 76.3118 52.5641 80.7046 51.2585 84.8255C50.6329 86.7839 49.6945 88.8103 48.2529 90.3063C46.8657 91.748 44.4584 92.7272 42.7448 91.2312C42.0784 90.66 41.1128 91.6256 41.7792 92.1968C43.4656 93.6656 45.9 93.6248 47.7633 92.4552C49.7353 91.2176 51.0137 89.0687 51.8977 86.9879C53.8969 82.2959 53.9105 77.0462 53.8969 72.0278C53.8833 71.1437 52.5233 71.1437 52.5369 72.0278Z" fill="#3E484D"/>
<path d="M53.6243 78.5693C53.6107 83.5877 52.3323 88.5246 49.8978 92.931C49.4762 93.6926 50.6458 94.3862 51.0674 93.611C53.6107 89.0006 54.9571 83.8189 54.9707 78.5693C54.9843 77.6852 53.6243 77.6852 53.6243 78.5693Z" fill="#3E484D"/>
<path d="M76.01 8.62384C72.6644 5.1694 67.1971 5.3462 63.4163 7.98463C58.969 11.0991 57.1058 16.3759 56.2354 21.5168C56.0858 22.3736 57.4051 22.7408 57.5411 21.884C58.3163 17.2871 59.8395 12.4863 63.6475 9.50785C66.9388 6.92382 71.9436 6.40702 75.0445 9.60305C75.6565 10.2151 76.622 9.24945 76.01 8.62384Z" fill="#3E484D"/>
<path d="M116.348 8.35197C119.558 10.3376 122.427 12.84 124.821 15.7505C125.991 17.1649 127.323 18.8105 127.582 20.6737C127.854 22.6185 126.643 24.3185 125.569 25.8146C125.052 26.5218 126.235 27.2018 126.739 26.5082C127.867 24.9306 129.037 23.1625 128.983 21.1497C128.915 19.0553 127.691 17.2601 126.467 15.6553C123.855 12.2824 120.646 9.42639 117.028 7.18237C116.294 6.71996 115.614 7.88957 116.348 8.35197Z" fill="#3E484D"/>
</g>
<defs>
<filter id="filter0_d" x="0.639986" y="0.639986" width="230.243" height="517.88" filterUnits="userSpaceOnUse" color-interpolation-filters="sRGB">
<feFlood flood-opacity="0" result="BackgroundImageFix"/>
<feColorMatrix in="SourceAlpha" type="matrix" values="0 0 0 0 0 0 0 0 0 0 0 0 0 0 0 0 0 0 127 0"/>
<feMorphology radius="1.36001" operator="dilate" in="SourceAlpha" result="effect1_dropShadow"/>
<feOffset dx="4.08004" dy="4.08004"/>
<feGaussianBlur stdDeviation="2.04002"/>
<feColorMatrix type="matrix" values="0 0 0 0 0.0952604 0 0 0 0 0.129167 0 0 0 0 0.163073 0 0 0 0.83 0"/>
<feBlend mode="normal" in2="BackgroundImageFix" result="effect1_dropShadow"/>
<feBlend mode="normal" in="SourceGraphic" in2="effect1_dropShadow" result="shape"/>
</filter>
</defs>
</svg>
