<svg width="54" height="54" viewBox="0 0 54 54" fill="none" xmlns="http://www.w3.org/2000/svg">
<path d="M26.6222 3.32837C20.4673 3.40263 14.5854 5.88066 10.2329 10.2332C5.88042 14.5857 3.40238 20.4676 3.32812 26.6225C3.40238 32.7774 5.88042 38.6593 10.2329 43.0118C14.5854 47.3643 20.4673 49.8423 26.6222 49.9166C32.7772 49.8423 38.6591 47.3643 43.0116 43.0118C47.3641 38.6593 49.8421 32.7774 49.9164 26.6225C49.8421 20.4676 47.3641 14.5857 43.0116 10.2332C38.6591 5.88066 32.7772 3.40263 26.6222 3.32837ZM39.9332 28.2864H28.2861V39.9334H24.9584V28.2864H13.3113V24.9586H24.9584V13.3116H28.2861V24.9586H39.9332V28.2864Z" fill="url(#paint0_linear)"/>
<defs>
<linearGradient id="paint0_linear" x1="-6.32436" y1="-6.64291" x2="71.992" y2="12.4607" gradientUnits="userSpaceOnUse">
<stop stop-color="#008249"/>
<stop offset="1" stop-color="#226045"/>
</linearGradient>
</defs>
</svg>
