<svg width="524" height="382" viewBox="0 0 524 382" fill="none" xmlns="http://www.w3.org/2000/svg">
<g filter="url(#filter0_d)">
<path d="M436.355 1.49658H1.49707V324.449H436.355V1.49658Z" fill="#1D2833"/>
<path d="M436.355 324.449C436.355 321.086 436.202 196.988 435.953 1.49685L436.355 1.89815C313.9 1.93637 163.661 1.95548 1.53507 1.9937H1.49685L1.9937 1.49685C1.97459 117.511 1.95548 227.429 1.95548 324.449L1.49685 323.99C258.96 324.277 432.38 324.449 436.355 324.449C432.38 324.449 258.979 324.64 1.49685 324.908H1.03822V324.449C1.03822 227.429 1.01911 117.511 1 1.49685V1H1.49685H1.53507C163.661 1.03822 313.9 1.05733 436.355 1.09555H436.756V1.49685C436.507 197.007 436.355 321.086 436.355 324.449Z" fill="#263238"/>
<path d="M436.355 44.4168C436.355 44.6843 338.991 44.9136 218.907 44.9136C98.7837 44.9136 1.43945 44.6843 1.43945 44.4168C1.43945 44.1492 98.7837 43.9199 218.907 43.9199C338.972 43.9199 436.355 44.1301 436.355 44.4168Z" fill="#E0E0E0"/>
<path d="M19.8993 27.2365C23.4348 27.2365 26.301 24.3704 26.301 20.8348C26.301 17.2992 23.4348 14.4331 19.8993 14.4331C16.3637 14.4331 13.4976 17.2992 13.4976 20.8348C13.4976 24.3704 16.3637 27.2365 19.8993 27.2365Z" fill="#E0E0E0"/>
<path d="M39.181 27.2365C42.7166 27.2365 45.5827 24.3704 45.5827 20.8348C45.5827 17.2992 42.7166 14.4331 39.181 14.4331C35.6454 14.4331 32.7793 17.2992 32.7793 20.8348C32.7793 24.3704 35.6454 27.2365 39.181 27.2365Z" fill="#E0E0E0"/>
<path d="M58.4627 27.2365C61.9983 27.2365 64.8645 24.3704 64.8645 20.8348C64.8645 17.2992 61.9983 14.4331 58.4627 14.4331C54.9272 14.4331 52.061 17.2992 52.061 20.8348C52.061 24.3704 54.9272 27.2365 58.4627 27.2365Z" fill="#E0E0E0"/>
<path d="M388.466 259.457C388.466 259.457 399.072 245.584 404.059 245.029C409.047 244.475 440.272 245.584 444.667 245.029C449.062 244.475 473.752 234.061 473.752 234.061C473.752 234.061 478.147 235.532 477.593 239.469C477.039 243.386 449.597 258.215 446.311 258.75C443.024 259.304 416.672 261.234 416.672 261.234L410.06 273.178L388.466 259.457Z" fill="#A5695F"/>
<path d="M297.542 84.5665C302.893 82.1778 306.772 76.7506 307.307 70.9222C307.842 65.0747 305.033 59.0552 300.199 55.7301L280.936 49.252C278.146 74.1135 275.203 98.956 272.069 123.798C277.248 123.531 282.599 122.671 286.86 119.709C291.122 116.747 293.931 111.205 292.345 106.275C296.549 104.861 299.912 101.173 300.944 96.873C301.976 92.5352 300.638 87.7387 297.542 84.5665Z" fill="#263238"/>
<path d="M203.083 69.9853L203.81 61.1375L257.909 56.4557C274.439 56.3984 290.472 74.5907 289.822 91.1205C289.115 109.485 287.51 131.862 283.955 145.258C276.808 172.183 255.482 173.521 255.482 173.521L253.571 200.657C252.138 216.479 238.474 218.601 222.671 217.186C207.211 215.811 195.631 202.415 196.51 186.898L203.083 69.9853Z" fill="#A5695F"/>
<path d="M281.261 110.613C281.146 112.467 279.464 113.9 277.515 113.804C275.566 113.709 274.094 112.123 274.228 110.269C274.343 108.415 276.024 106.982 277.974 107.078C279.904 107.154 281.375 108.74 281.261 110.613Z" fill="#263238"/>
<path d="M282.847 102.166C282.369 102.587 279.904 100.332 276.12 99.9687C272.356 99.5483 269.375 101.192 269.012 100.695C268.84 100.466 269.356 99.6821 270.655 98.9368C271.935 98.1915 274.037 97.5418 276.407 97.7902C278.757 98.0386 280.649 99.1088 281.7 100.122C282.79 101.115 283.095 101.975 282.847 102.166Z" fill="#263238"/>
<path d="M245.966 108.376C245.851 110.23 244.169 111.663 242.22 111.568C240.271 111.472 238.799 109.886 238.933 108.032C239.048 106.179 240.73 104.745 242.679 104.841C244.609 104.936 246.08 106.523 245.966 108.376Z" fill="#263238"/>
<path d="M245.659 99.0896C245.182 99.5101 242.717 97.2551 238.933 96.892C235.168 96.4716 232.187 98.1151 231.824 97.6182C231.652 97.3889 232.168 96.6054 233.467 95.8601C234.748 95.1148 236.85 94.4651 239.2 94.7136C241.551 94.962 243.443 96.0321 244.494 97.0449C245.583 98.0195 245.889 98.8986 245.659 99.0896Z" fill="#263238"/>
<path d="M256.495 128.499C256.495 128.289 258.883 128.117 262.743 128.021C263.718 128.021 264.654 127.926 264.884 127.276C265.189 126.607 264.884 125.518 264.54 124.352C263.871 121.926 263.164 119.384 262.438 116.709C259.552 105.854 257.546 96.9493 257.985 96.8346C258.425 96.72 261.119 105.434 264.024 116.288C264.712 118.964 265.381 121.524 266.011 123.951C266.26 125.079 266.756 126.397 266.126 127.792C265.801 128.48 265.037 128.939 264.387 129.034C263.756 129.168 263.202 129.111 262.724 129.092C258.864 128.939 256.495 128.709 256.495 128.499Z" fill="#263238"/>
<path d="M255.482 173.617C255.482 173.617 236.009 172.776 218.887 159.954C218.887 159.954 226.168 180.057 254.756 180.439L255.482 173.617Z" fill="#83534B"/>
<path d="M247.59 88.5034C247.112 89.4971 243.386 88.6181 238.895 88.6945C234.404 88.6945 230.697 89.6118 230.2 88.6372C229.99 88.1786 230.697 87.2613 232.245 86.4205C233.774 85.5797 236.162 84.8726 238.857 84.8344C241.551 84.8153 243.94 85.4841 245.488 86.3058C247.055 87.1466 247.8 88.0257 247.59 88.5034Z" fill="#263238"/>
<path d="M284.07 89.1904C283.325 89.9739 280.802 88.8273 277.687 88.4642C274.573 87.9865 271.859 88.4451 271.324 87.4896C271.095 87.031 271.611 86.2093 272.853 85.5214C274.076 84.8334 276.044 84.3557 278.203 84.6423C280.344 84.929 282.121 85.9036 283.134 86.8781C284.127 87.8909 284.395 88.8082 284.07 89.1904Z" fill="#263238"/>
<path d="M301.938 67.5969C307.823 64.4247 311.187 57.3541 310.346 50.7231C309.505 44.0921 304.728 38.2254 298.555 35.6456C297.294 35.1297 295.995 34.7666 294.657 34.4991C292.23 32.7219 289.383 31.5562 286.402 31.1931C286.344 27.6196 283.478 24.5621 280.134 23.3008C276.809 22.0205 273.101 22.1925 269.566 22.632C266.508 17.931 261.139 14.7971 255.54 14.4722C249.94 14.1474 244.246 16.6316 240.672 20.9504C237.022 18.2368 232.054 17.3769 227.697 18.6954C223.34 20.014 219.69 23.4728 218.123 27.7534C214.148 27.4476 210.097 28.8808 207.173 31.5944C206.084 32.6072 205.148 33.8111 204.421 35.1106C203.026 36.582 201.918 38.321 201.268 40.251C194.561 40.3084 188.102 44.8756 185.847 51.1817C183.573 57.507 185.637 65.1317 190.777 69.4505C187.127 72.3743 184.968 77.0752 185.121 81.7571C185.293 86.4389 187.758 90.987 191.618 93.6432C189.516 98.4206 189.497 104.058 191.561 108.854C192.459 110.918 193.93 112.944 195.918 113.823C195.975 114.186 196.071 114.549 196.243 114.893C197.618 117.626 201.765 116.919 204.326 115.275C210.575 111.262 214.416 104.364 216.804 97.3314C219.174 90.299 220.34 82.9036 222.652 75.8331C222.709 75.6802 222.767 75.5082 222.824 75.3363C223.799 72.3743 225.442 69.7371 227.582 67.5395C229.57 69.2403 231.5 71.0175 233.716 72.4125C241.59 77.381 252.769 76.3299 259.591 69.9665C264.75 75.2789 271.802 78.6995 279.159 79.4639C286.516 80.2283 293.95 79.5977 300.084 75.4509C301.25 74.6674 302.874 73.2342 303.753 71.1704C304.345 69.9282 303.237 68.151 301.938 67.5969Z" fill="#263238"/>
<path d="M203.81 106.639C203.466 106.409 189.688 99.5107 187.452 114.435C185.216 129.379 200.676 128.519 200.771 128.099C200.867 127.678 203.81 106.639 203.81 106.639Z" fill="#A5695F"/>
<path d="M197.045 121.772C196.987 121.715 196.758 121.925 196.28 122.059C195.822 122.193 195.057 122.212 194.331 121.811C192.841 120.989 191.885 118.294 192.21 115.581C192.382 114.224 192.86 112.963 193.49 111.969C194.102 110.937 194.924 110.287 195.745 110.268C196.567 110.211 197.064 110.765 197.179 111.205C197.312 111.644 197.179 111.931 197.255 111.969C197.293 112.007 197.618 111.759 197.58 111.128C197.561 110.822 197.446 110.44 197.14 110.096C196.815 109.752 196.319 109.523 195.764 109.504C194.599 109.408 193.414 110.326 192.707 111.415C191.943 112.504 191.369 113.918 191.178 115.447C190.834 118.466 191.943 121.524 194.006 122.46C195.019 122.9 195.936 122.709 196.452 122.422C196.968 122.116 197.102 121.791 197.045 121.772Z" fill="#83534B"/>
<path d="M309.849 48.1626C309.868 48.1626 309.887 48.2773 309.944 48.5257C310.002 48.7741 310.04 49.1372 310.078 49.634C310.135 50.6086 310.097 52.0801 309.505 53.8573C308.932 55.6153 307.766 57.6983 305.664 59.3035C303.6 60.9087 300.581 62.017 297.275 61.6922L297.561 61.482C296.396 65.7052 293.835 70.196 289.822 73.7886C287.815 75.5657 285.408 77.1136 282.637 77.9927C279.885 78.929 276.789 78.8908 273.865 78.2602C270.961 77.6487 268.247 76.5403 265.782 75.1836C263.336 73.8077 261.062 72.2407 259.361 70.1959L259.82 70.2533C255.559 73.3873 250.858 75.3555 246.443 75.7568C241.991 76.0817 238.15 74.8969 235.283 73.4828C232.398 72.0305 230.449 70.3106 229.245 69.0685C228.633 68.4379 228.194 67.9219 227.926 67.5779C227.639 67.2149 227.506 67.0238 227.525 67.0238C227.563 66.9855 228.155 67.7308 229.397 68.9347C230.64 70.1195 232.608 71.7629 235.474 73.1388C238.303 74.4956 242.105 75.604 246.405 75.2218C250.686 74.8014 255.291 72.8331 259.438 69.7564L259.686 69.5653L259.896 69.8138C261.521 71.7247 263.757 73.2917 266.145 74.6103C268.553 75.9288 271.209 77.0181 274.037 77.6105C276.885 78.222 279.828 78.2602 282.465 77.3812C285.121 76.5594 287.452 75.0498 289.421 73.349C293.357 69.8711 295.899 65.495 297.065 61.3864L297.122 61.1571L297.351 61.1762C300.485 61.5202 303.39 60.4883 305.415 58.9786C307.46 57.469 308.626 55.4625 309.237 53.7808C309.849 52.061 309.944 50.6277 309.944 49.6531C309.887 48.6786 309.811 48.1817 309.849 48.1626Z" fill="#526A76"/>
<path d="M203.523 39.6779C203.619 39.7352 202.472 41.3786 201.555 44.6464C200.657 47.8568 200.141 52.9208 202.281 58.2715L202.376 58.5008L202.166 58.6346C200.255 59.9149 198.535 61.845 197.408 64.2146C196.3 66.5842 195.803 69.3933 196.3 72.1642C196.93 75.8141 199.032 79.0054 201.669 80.9355L201.918 81.1266L201.746 81.3941C199.778 84.2987 198.898 87.5856 198.822 90.5094C198.688 93.4522 199.281 96.032 200.064 98.0385C201.65 102.09 203.791 103.791 203.638 103.886C203.619 103.905 203.504 103.791 203.275 103.58C203.064 103.351 202.701 103.045 202.338 102.587C201.555 101.688 200.542 100.236 199.682 98.1914C198.841 96.1658 198.172 93.5096 198.268 90.4903C198.306 87.4709 199.185 84.0694 201.211 81.0119L201.287 81.4705C198.497 79.464 196.3 76.139 195.631 72.2979C195.115 69.3742 195.631 66.4122 196.816 63.947C198 61.4819 199.797 59.4754 201.822 58.1377L201.708 58.5008C199.567 52.959 200.198 47.7803 201.211 44.5317C201.727 42.8883 202.319 41.6653 202.759 40.8435C202.969 40.4422 203.179 40.1365 203.313 39.9454C203.447 39.7734 203.523 39.6587 203.523 39.6779Z" fill="#526A76"/>
<path d="M192.879 126.531C192.994 126.588 192.344 127.505 192.229 129.187C192.191 129.99 192.344 131.022 192.975 131.862C193.605 132.684 194.771 133.296 195.937 133.143C197.121 132.99 197.886 131.939 198.134 130.926C198.402 129.894 198.23 128.881 197.981 128.079C197.446 126.474 196.911 125.518 197.026 125.461C197.083 125.423 197.752 126.263 198.44 127.926C198.746 128.748 199.013 129.856 198.746 131.06C198.612 131.652 198.364 132.283 197.886 132.799C197.427 133.315 196.758 133.716 196.032 133.812C194.542 134.003 193.204 133.238 192.478 132.245C191.732 131.213 191.656 130.047 191.752 129.149C192 127.333 192.841 126.493 192.879 126.531Z" fill="#263238"/>
<path d="M246.672 132.971C244.991 134.423 244.054 136.716 244.284 138.933C244.513 141.15 245.851 143.213 247.8 144.303C248.564 144.742 249.462 145.029 250.341 144.895C251.889 144.666 252.94 143.232 253.819 141.933C254.546 140.844 255.272 139.774 255.998 138.684C256.246 138.321 256.495 137.901 256.399 137.48C256.285 137.022 255.826 136.754 255.386 136.563C252.596 135.226 249.826 133.888 247.036 132.569" fill="#83534B"/>
<path d="M250.246 144.418C250.227 144.495 248.641 144.361 246.348 143.061C245.239 142.393 243.978 141.227 243.462 139.469C243.175 138.609 243.214 137.52 243.5 136.641C243.768 135.723 244.188 134.806 244.8 133.984C245.392 133.182 246.137 132.532 246.94 132.054L247.227 131.882L247.494 132.054C252.883 135.36 257.202 137.367 257.106 137.596C257.011 137.845 252.443 136.201 246.94 132.952H247.494C246.806 133.373 246.176 133.946 245.66 134.634C244.647 136.067 243.997 137.825 244.417 139.22C244.8 140.673 245.812 141.762 246.768 142.45C248.774 143.768 250.322 144.227 250.246 144.418Z" fill="#263238"/>
<path d="M50.4175 324.563C50.4175 324.563 104.784 227.105 113.823 211.339C124.467 192.803 133.735 186.076 142.086 182.025C150.819 177.802 160.489 175.795 170.196 175.738L197.16 175.547C197.16 175.547 207.403 190.873 221.295 193.873C240.443 198.02 254.775 183.802 254.775 183.802L293.491 199.682L285.714 271.248C283.746 289.287 277.172 306.505 266.604 321.238L264.044 324.563L121.295 324.449L137.844 272.948L107.249 324.563H50.4175Z" fill="#526A76"/>
<path d="M293.492 199.682C293.492 199.682 304.747 206.275 313.232 233.678C321.716 261.081 340.004 309.83 340.004 309.83L385.848 257.794L413.06 275.069C413.06 275.069 369.166 351.278 362.191 360.298C351.795 373.751 325.519 381.433 310.098 363.566C298.881 350.571 272.089 287.701 272.089 287.701L293.492 199.682Z" fill="#526A76"/>
<path d="M276.981 239.392C277.019 239.373 277.153 239.66 277.401 240.214C277.65 240.768 278.032 241.57 278.433 242.641C279.274 244.781 280.344 247.934 281.338 251.909C283.344 259.858 284.682 271.362 282.79 283.822C280.898 296.281 276.197 306.887 271.917 313.881C269.776 317.397 267.827 320.092 266.375 321.869C265.668 322.786 265.076 323.436 264.674 323.895C264.273 324.353 264.044 324.563 264.024 324.544C263.967 324.487 264.732 323.493 266.069 321.64C267.407 319.786 269.261 317.053 271.305 313.518C275.395 306.505 279.924 295.995 281.796 283.669C283.669 271.362 282.465 259.973 280.65 252.062C279.752 248.087 278.796 244.915 278.051 242.755C277.344 240.615 276.923 239.43 276.981 239.392Z" fill="#263238"/>
<path d="M146.73 230.64C146.768 230.64 146.749 230.984 146.654 231.633C146.558 232.398 146.424 233.334 146.271 234.462C145.927 236.908 145.335 240.462 144.532 244.819C142.927 253.533 140.347 265.515 136.755 278.566C133.162 291.618 129.245 303.237 126.149 311.55C124.601 315.696 123.302 319.041 122.346 321.334C121.907 322.385 121.525 323.264 121.238 323.952C120.97 324.544 120.817 324.85 120.779 324.85C120.741 324.831 120.837 324.506 121.047 323.894C121.295 323.168 121.62 322.289 121.983 321.2C122.862 318.735 124.047 315.391 125.48 311.32C128.404 302.969 132.188 291.332 135.78 278.318C139.354 265.304 142.048 253.361 143.825 244.704C144.666 240.481 145.354 237.003 145.87 234.423C146.099 233.296 146.291 232.379 146.443 231.633C146.615 230.965 146.692 230.64 146.73 230.64Z" fill="#263238"/>
<path d="M78.4512 324.468C78.4512 324.468 83.649 317.417 86.1906 316.079C88.7512 314.741 92.2674 314.78 93.8153 316.175C95.3632 317.57 95.3632 317.57 95.3632 317.57C95.3632 317.57 103.427 313.958 107.288 316.729C107.288 316.729 114.95 313.098 118.62 317.245C118.62 317.245 124.524 313.404 127.028 316.767C129.531 320.111 129.264 325.787 128.06 328.711C126.856 331.634 124.582 341.571 122.824 341.743C122.824 341.743 118.104 342.24 117.492 339.699C116.861 337.157 116.594 335.934 116.594 335.934C116.594 335.934 114.798 344.935 112.619 345.393C110.46 345.833 106.313 345.603 106.179 341.648C106.179 341.648 104.173 344.629 102.204 343.769C100.236 342.89 97.8092 341.457 98.0194 339.011C98.2296 336.565 98.2678 334.119 98.2678 334.119C98.2678 334.119 97.1977 337.673 95.4205 336.909C93.6433 336.144 91.847 336.297 90.8533 333.278C89.8596 330.258 87.3754 324.506 87.3754 324.506H78.4512V324.468Z" fill="#A5695F"/>
<path d="M98.134 333.909C98.0194 333.852 98.4971 332.935 98.8984 331.368C99.3188 329.801 99.6055 327.546 99.166 325.119C98.7264 322.692 97.6372 320.685 96.6817 319.386C95.7262 318.067 94.9618 317.379 95.0574 317.284C95.1147 317.207 96.0129 317.762 97.1212 319.042C98.2296 320.303 99.4526 322.405 99.9303 324.966C100.408 327.546 100.007 329.934 99.4335 331.52C98.8602 333.107 98.2105 333.947 98.134 333.909Z" fill="#83534B"/>
<path d="M107.803 316.767C107.899 316.748 108.396 318.067 108.835 320.322C109.275 322.557 109.6 325.73 109.37 329.227C109.122 332.724 108.396 335.82 107.651 337.979C106.905 340.138 106.236 341.4 106.16 341.361C105.912 341.285 108.186 336.068 108.606 329.169C109.103 322.29 107.555 316.825 107.803 316.767Z" fill="#83534B"/>
<path d="M118.83 317.36C119.021 317.341 119.556 321.621 118.945 326.896C118.352 332.17 116.862 336.221 116.671 336.145C116.441 336.087 117.588 331.979 118.161 326.8C118.773 321.621 118.601 317.379 118.83 317.36Z" fill="#83534B"/>
<path d="M148.985 319.404C148.66 318.563 147.819 318.009 146.959 317.761C144.933 317.168 142.736 317.971 141.112 319.328C139.506 320.665 137.939 322.786 136.85 324.583L148.278 324.564C148.144 322.806 149.615 321.028 148.985 319.404Z" fill="#A5695F"/>
<path d="M443.941 160.889H505.245C505.245 194.522 477.574 222.193 443.941 222.193C410.308 222.193 382.638 194.522 382.638 160.889C382.638 127.314 410.232 99.6624 443.827 99.5859L443.941 160.889Z" fill="#61C06E"/>
<path d="M454.853 151.048L454.662 89.7446C454.719 89.7446 454.795 89.7446 454.853 89.7446C488.352 89.7446 515.965 117.205 516.156 150.685L454.853 151.048Z" fill="#61C06E"/>
</g>
<g filter="url(#filter1_d)">
<path d="M99.8427 142.635L86.3725 154.232L81.447 137.153L99.8427 142.635Z" stroke="#E7EFEF"/>
<path d="M39.5369 85.7555L33.9981 102.645L20.9553 90.5693L39.5369 85.7555Z" stroke="#1AA166"/>
<path d="M104.143 84.9348L115.894 69.4117L123.152 89.1438L104.143 84.9348Z" fill="#61C06E"/>
<circle cx="56.481" cy="128.086" r="2.5" transform="rotate(-180 56.481 128.086)" fill="#61C06E"/>
<circle cx="78.481" cy="100.086" r="4.5" transform="rotate(-180 78.481 100.086)" fill="#E7EFEF"/>
<circle cx="114.981" cy="120.586" r="3" transform="rotate(-180 114.981 120.586)" fill="#61C06E"/>
</g>
<defs>
<filter id="filter0_d" x="0" y="0" width="523.156" height="381.024" filterUnits="userSpaceOnUse" color-interpolation-filters="sRGB">
<feFlood flood-opacity="0" result="BackgroundImageFix"/>
<feColorMatrix in="SourceAlpha" type="matrix" values="0 0 0 0 0 0 0 0 0 0 0 0 0 0 0 0 0 0 127 0"/>
<feMorphology radius="1" operator="dilate" in="SourceAlpha" result="effect1_dropShadow"/>
<feOffset dx="3" dy="3"/>
<feGaussianBlur stdDeviation="1.5"/>
<feColorMatrix type="matrix" values="0 0 0 0 0.0952604 0 0 0 0 0.129167 0 0 0 0 0.163073 0 0 0 0.83 0"/>
<feBlend mode="normal" in2="BackgroundImageFix" result="effect1_dropShadow"/>
<feBlend mode="normal" in="SourceGraphic" in2="effect1_dropShadow" result="shape"/>
</filter>
<filter id="filter1_d" x="18.9443" y="68.4116" width="111.207" height="96.71" filterUnits="userSpaceOnUse" color-interpolation-filters="sRGB">
<feFlood flood-opacity="0" result="BackgroundImageFix"/>
<feColorMatrix in="SourceAlpha" type="matrix" values="0 0 0 0 0 0 0 0 0 0 0 0 0 0 0 0 0 0 127 0"/>
<feMorphology radius="1" operator="dilate" in="SourceAlpha" result="effect1_dropShadow"/>
<feOffset dx="3" dy="3"/>
<feGaussianBlur stdDeviation="1.5"/>
<feColorMatrix type="matrix" values="0 0 0 0 0.0952604 0 0 0 0 0.129167 0 0 0 0 0.163073 0 0 0 0.83 0"/>
<feBlend mode="normal" in2="BackgroundImageFix" result="effect1_dropShadow"/>
<feBlend mode="normal" in="SourceGraphic" in2="effect1_dropShadow" result="shape"/>
</filter>
</defs>
</svg>
