<svg width="58" height="61" viewBox="0 0 58 61" fill="none" xmlns="http://www.w3.org/2000/svg">
<path d="M29.2409 1.01221L1.4751 12.988" stroke="#E7EFEF" stroke-opacity="0.7" stroke-width="0.873076"/>
<path d="M56.1795 13.0833L28.6616 1" stroke="#E7EFEF" stroke-opacity="0.7" stroke-width="0.873076"/>
<path d="M1.72119 12.4404V32.7526" stroke="#E7EFEF" stroke-opacity="0.7" stroke-width="0.873076"/>
<path d="M28.6956 59.823L1.51416 48.0444" stroke="#E7EFEF" stroke-opacity="0.7" stroke-width="0.873076"/>
<path d="M56.1955 47.8975L28.2881 59.8194" stroke="#E7EFEF" stroke-opacity="0.7" stroke-width="0.873076"/>
<path d="M28.5369 43.9298L1.35547 32.1333" stroke="#E7EFEF" stroke-opacity="0.7" stroke-width="0.873076"/>
<path d="M55.4677 31.9629L28.1978 44.0462" stroke="#E7EFEF" stroke-opacity="0.7" stroke-width="0.873076"/>
<path d="M55.791 31.3716V48.4747" stroke="#E7EFEF" stroke-opacity="0.7" stroke-width="0.873076"/>
<path d="M28.479 60.0003V16.7944" stroke="#E7EFEF" stroke-opacity="0.7" stroke-width="0.873076"/>
<path d="M12.6162 16.4951H44.26" stroke="#E7EFEF" stroke-opacity="0.7" stroke-width="0.873076"/>
<path d="M1 48.0805L8.77371 44.3516" stroke="#E7EFEF" stroke-opacity="0.7" stroke-width="0.873076"/>
<path d="M55.8389 12.5508V20.4211" stroke="#E7EFEF" stroke-opacity="0.7" stroke-width="0.873076"/>
<path d="M55.9518 24.0408C56.4626 24.0408 56.8767 23.6267 56.8767 23.1159C56.8767 22.605 56.4626 22.1909 55.9518 22.1909C55.441 22.1909 55.0269 22.605 55.0269 23.1159C55.0269 23.6267 55.441 24.0408 55.9518 24.0408Z" fill="#E7EFEF" stroke="#E7EFEF" stroke-opacity="0.7" stroke-width="0.873076" stroke-miterlimit="10"/>
</svg>
